<svg width="648" height="498" viewBox="0 0 648 498" fill="none" xmlns="http://www.w3.org/2000/svg">
<path d="M533.24 211.698C533.24 211.698 564.975 214.841 581.049 234.515C581.049 234.515 598.052 211.725 628.568 212.196C636.026 203.199 640.774 192.269 642.261 180.678C643.747 169.087 641.911 157.313 636.965 146.725C632.019 136.138 624.168 127.173 614.324 120.875C604.481 114.576 593.051 111.204 581.366 111.149C569.68 111.095 558.219 114.361 548.318 120.568C538.417 126.774 530.482 135.666 525.438 146.207C520.394 156.748 518.448 168.505 519.827 180.109C521.206 191.714 525.853 202.687 533.226 211.753L533.24 211.698Z" fill="#92E3A9"/>
<path opacity="0.5" d="M533.24 211.698C533.24 211.698 564.975 214.841 581.049 234.515C581.049 234.515 598.052 211.725 628.568 212.196C636.026 203.199 640.774 192.269 642.261 180.678C643.747 169.087 641.911 157.313 636.965 146.725C632.019 136.138 624.168 127.173 614.324 120.875C604.481 114.576 593.051 111.204 581.366 111.149C569.68 111.095 558.219 114.361 548.318 120.568C538.417 126.774 530.482 135.666 525.438 146.207C520.394 156.748 518.448 168.505 519.827 180.109C521.206 191.714 525.853 202.687 533.226 211.753L533.24 211.698Z" fill="#F5F6FA"/>
<path d="M579.983 115.497L578.917 321.162H584.276L579.983 115.497Z" fill="#B8B8B8"/>
<path d="M581.603 228.52C581.603 228.52 592.306 209.233 611.593 203.335C611.593 203.335 591.24 208.167 581.133 224.768L581.603 228.52Z" fill="#B8B8B8"/>
<path d="M581.603 173.885C581.603 173.885 592.306 154.598 611.593 148.699C611.593 148.699 591.24 153.518 581.133 170.133L581.603 173.885Z" fill="#B8B8B8"/>
<path d="M581.603 201.175C581.603 201.175 592.306 181.888 611.593 175.989C611.593 175.989 591.24 180.822 581.133 197.423L581.603 201.175Z" fill="#B8B8B8"/>
<path d="M580.011 187.8C580.011 187.8 569.668 168.527 551.06 162.628C551.06 162.628 570.707 167.447 580.523 184.061L580.011 187.8Z" fill="#B8B8B8"/>
<path d="M580.011 214.591C580.011 214.591 569.668 195.304 551.06 189.42C551.06 189.42 570.707 194.238 580.523 210.839L580.011 214.591Z" fill="#B8B8B8"/>
<path d="M13.8439 211.698C13.8439 211.698 45.5784 214.841 61.6533 234.515C61.6533 234.515 78.6559 211.725 109.172 212.196C116.63 203.199 121.378 192.269 122.865 180.678C124.351 169.087 122.515 157.313 117.569 146.725C112.623 136.138 104.771 127.173 94.9283 120.875C85.085 114.576 73.6552 111.204 61.9696 111.149C50.2839 111.095 38.8232 114.361 28.9219 120.568C19.0206 126.774 11.086 135.666 6.042 146.207C0.997998 156.748 -0.947893 168.505 0.430891 180.109C1.80967 191.714 6.4564 202.687 13.8301 211.753L13.8439 211.698Z" fill="#92E3A9"/>
<path opacity="0.5" d="M13.8439 211.698C13.8439 211.698 45.5784 214.841 61.6533 234.515C61.6533 234.515 78.6559 211.725 109.172 212.196C116.63 203.199 121.378 192.269 122.865 180.678C124.351 169.087 122.515 157.313 117.569 146.725C112.623 136.138 104.771 127.173 94.9283 120.875C85.085 114.576 73.6552 111.204 61.9696 111.149C50.2839 111.095 38.8232 114.361 28.9219 120.568C19.0206 126.774 11.086 135.666 6.042 146.207C0.997998 156.748 -0.947893 168.505 0.430891 180.109C1.80967 191.714 6.4564 202.687 13.8301 211.753L13.8439 211.698Z" fill="#F5F6FA"/>
<path d="M60.6149 115.497L59.5349 321.162H64.8932L60.6149 115.497Z" fill="#B8B8B8"/>
<path d="M62.221 228.52C62.221 228.52 72.9237 209.233 92.2109 203.335C92.2109 203.335 71.8576 208.167 61.7502 224.768L62.221 228.52Z" fill="#B8B8B8"/>
<path d="M62.221 173.885C62.221 173.885 72.9237 154.598 92.2109 148.699C92.2109 148.699 71.8576 153.518 61.7502 170.133L62.221 173.885Z" fill="#B8B8B8"/>
<path d="M62.221 201.175C62.221 201.175 72.9237 181.888 92.2109 175.989C92.2109 175.989 71.8576 180.822 61.7502 197.423L62.221 201.175Z" fill="#B8B8B8"/>
<path d="M60.6287 187.8C60.6287 187.8 50.2859 168.527 31.6772 162.628C31.6772 162.628 51.3244 167.447 61.141 184.061L60.6287 187.8Z" fill="#B8B8B8"/>
<path d="M60.6287 214.591C60.6287 214.591 50.2859 195.304 31.6772 189.42C31.6772 189.42 51.3244 194.238 61.141 210.839L60.6287 214.591Z" fill="#B8B8B8"/>
<path d="M404.294 231.635C404.294 231.635 430.269 234.197 443.423 250.3C443.423 250.3 457.338 231.649 482.315 232.023C488.416 224.659 492.299 215.713 493.513 206.227C494.727 196.741 493.222 187.105 489.172 178.442C485.122 169.778 478.695 162.443 470.638 157.291C462.582 152.138 453.227 149.38 443.664 149.338C434.101 149.295 424.722 151.97 416.62 157.051C408.518 162.132 402.026 169.409 397.9 178.037C393.773 186.664 392.182 196.286 393.312 205.782C394.441 215.279 398.245 224.259 404.281 231.677L404.294 231.635Z" fill="#92E3A9"/>
<path opacity="0.5" d="M404.294 231.635C404.294 231.635 430.269 234.197 443.423 250.3C443.423 250.3 457.338 231.649 482.315 232.023C488.416 224.659 492.299 215.713 493.513 206.227C494.727 196.741 493.222 187.105 489.172 178.442C485.122 169.778 478.695 162.443 470.638 157.291C462.582 152.138 453.227 149.38 443.664 149.338C434.101 149.295 424.722 151.97 416.62 157.051C408.518 162.132 402.026 169.409 397.9 178.037C393.773 186.664 392.182 196.286 393.312 205.782C394.441 215.279 398.245 224.259 404.281 231.677L404.294 231.635Z" fill="#F5F6FA"/>
<path d="M442.564 152.825L441.692 321.162H446.081L442.564 152.825Z" fill="#B8B8B8"/>
<path d="M443.879 245.343C443.879 245.343 452.658 229.559 468.428 224.726C468.428 224.726 451.813 228.673 443.506 242.269L443.879 245.343Z" fill="#B8B8B8"/>
<path d="M443.879 200.621C443.879 200.621 452.658 184.837 468.428 180.018C468.428 180.018 451.813 183.965 443.506 197.547L443.879 200.621Z" fill="#B8B8B8"/>
<path d="M443.879 222.982C443.879 222.982 452.658 207.198 468.428 202.366C468.428 202.366 451.813 206.312 443.506 219.908L443.879 222.982Z" fill="#B8B8B8"/>
<path d="M442.578 212.016C442.578 212.016 434.118 196.232 418.888 191.414C418.888 191.414 434.963 195.36 443.007 208.942L442.578 212.016Z" fill="#B8B8B8"/>
<path d="M442.578 233.934C442.578 233.934 434.118 218.15 418.888 213.331C418.888 213.331 434.963 217.277 443.007 230.874L442.578 233.934Z" fill="#B8B8B8"/>
<path d="M152.98 231.635C152.98 231.635 178.955 234.197 192.108 250.3C192.108 250.3 205.954 231.649 231.001 232.023C237.102 224.659 240.985 215.713 242.199 206.227C243.413 196.741 241.907 187.105 237.857 178.442C233.808 169.778 227.38 162.443 219.324 157.291C211.267 152.138 201.913 149.38 192.35 149.338C182.786 149.295 173.408 151.97 165.306 157.051C157.204 162.132 150.712 169.409 146.585 178.037C142.459 186.664 140.868 196.286 141.997 205.782C143.127 215.279 146.931 224.259 152.966 231.677L152.98 231.635Z" fill="#92E3A9"/>
<path opacity="0.5" d="M152.98 231.635C152.98 231.635 178.955 234.197 192.108 250.3C192.108 250.3 205.954 231.649 231.001 232.023C237.102 224.659 240.985 215.713 242.199 206.227C243.413 196.741 241.907 187.105 237.857 178.442C233.808 169.778 227.38 162.443 219.324 157.291C211.267 152.138 201.913 149.38 192.35 149.338C182.786 149.295 173.408 151.97 165.306 157.051C157.204 162.132 150.712 169.409 146.585 178.037C142.459 186.664 140.868 196.286 141.997 205.782C143.127 215.279 146.931 224.259 152.966 231.677L152.98 231.635Z" fill="#F5F6FA"/>
<path d="M191.25 152.825L190.377 321.162H194.766L191.25 152.825Z" fill="#B8B8B8"/>
<path d="M192.634 245.343C192.634 245.343 201.412 229.559 217.183 224.726C217.183 224.726 200.568 228.673 192.26 242.269L192.634 245.343Z" fill="#B8B8B8"/>
<path d="M192.634 200.621C192.634 200.621 201.412 184.837 217.183 180.018C217.183 180.018 200.568 183.965 192.26 197.547L192.634 200.621Z" fill="#B8B8B8"/>
<path d="M192.634 222.982C192.634 222.982 201.412 207.198 217.183 202.366C217.183 202.366 200.568 206.312 192.26 219.908L192.634 222.982Z" fill="#B8B8B8"/>
<path d="M191.25 212.016C191.25 212.016 182.804 196.232 167.573 191.483C167.573 191.483 183.648 195.429 191.693 209.012L191.25 212.016Z" fill="#B8B8B8"/>
<path d="M191.25 233.934C191.25 233.934 182.79 218.15 167.56 213.331C167.56 213.331 183.634 217.277 191.679 230.874L191.25 233.934Z" fill="#B8B8B8"/>
<path d="M23.3975 321.896H620.898" stroke="#263238" stroke-width="1.04742" stroke-miterlimit="10"/>
<path d="M236.262 62.3295C236.262 51.6267 241.911 45.5069 252.226 45.5069C262.542 45.5069 268.204 51.6267 268.204 62.3295V97.1378C268.204 107.841 262.555 113.96 252.226 113.96C241.897 113.96 236.262 107.841 236.262 97.1378V62.3295ZM246.785 97.8023C246.785 102.579 248.89 104.393 252.226 104.393C255.563 104.393 257.682 102.579 257.682 97.8023V61.6649C257.682 56.8881 255.577 55.0743 252.226 55.0743C248.876 55.0743 246.785 56.8881 246.785 61.6649V97.8023Z" fill="#263238"/>
<path d="M276.138 62.3295C276.138 51.6267 281.773 45.5069 292.102 45.5069C302.431 45.5069 308.066 51.6267 308.066 62.3295V97.1378C308.066 107.841 302.417 113.96 292.102 113.96C281.787 113.96 276.138 107.841 276.138 97.1378V62.3295ZM286.647 97.8023C286.647 102.579 288.752 104.393 292.102 104.393C295.453 104.393 297.544 102.579 297.544 97.8023V61.6649C297.544 56.8881 295.439 55.0743 292.102 55.0743C288.765 55.0743 286.647 56.8881 286.647 61.6649V97.8023Z" fill="#263238"/>
<path d="M348.025 62.8141V71.5092C348.025 82.2258 342.861 88.1241 332.352 88.1241H327.381V113.268H316.858V46.2822H332.352C342.861 46.2822 348.025 52.1113 348.025 62.8141ZM327.381 55.8912V78.5429H332.352C335.689 78.5429 337.503 77.0198 337.503 72.243V62.2049C337.503 57.4142 335.689 55.8912 332.352 55.8912H327.381Z" fill="#263238"/>
<path d="M369.542 45.5069C379.76 45.5069 385.021 51.6267 385.021 62.3295V64.4341H375.08V61.6649C375.08 56.8881 373.169 55.0743 369.819 55.0743C366.468 55.0743 364.557 56.8881 364.557 61.6649C364.557 75.4276 385.118 78.0168 385.118 97.1378C385.118 107.841 379.76 113.96 369.445 113.96C359.13 113.96 353.757 107.841 353.757 97.1378V92.984H363.699V97.7608C363.699 102.538 365.803 104.268 369.154 104.268C372.505 104.268 374.595 102.538 374.595 97.7608C374.595 83.9981 354.048 81.409 354.048 62.288C354.048 51.6406 359.31 45.5069 369.542 45.5069Z" fill="#263238"/>
<path d="M394.492 98.37L393.107 74.1953V46.2822H403.63V74.1953L402.245 98.37H394.492ZM403.478 103.064V113.199H393.398V103.064H403.478Z" fill="#263238"/>
<path d="M213.569 465.864C218.498 465.864 220.603 468.786 220.603 473.535V477.301C220.603 482.272 218.277 484.875 213.306 484.875H210.205V497.239H206.715V465.864H213.569ZM213.306 481.732C215.895 481.732 217.155 480.527 217.155 477.578V473.424C217.155 470.558 216.117 469.118 213.569 469.118H210.205V481.801L213.306 481.732Z" fill="#263238"/>
<path d="M227.332 490.911L226.113 497.239H222.887L228.896 465.864H233.964L239.973 497.239H236.47L235.265 490.911H227.332ZM227.775 487.921H234.767L231.222 469.783L227.775 487.921Z" fill="#263238"/>
<path d="M257.446 473.438V476.124H254.123V473.258C254.123 470.489 253.002 468.744 250.454 468.744C247.907 468.744 246.785 470.433 246.785 473.258V489.873C246.785 492.642 247.948 494.4 250.454 494.4C252.96 494.4 254.123 492.697 254.123 489.873V483.628H250.897V480.485H257.446V489.721C257.446 494.47 255.203 497.599 250.371 497.599C245.539 497.599 243.324 494.47 243.324 489.721V473.438C243.324 468.689 245.567 465.56 250.371 465.56C255.176 465.56 257.446 468.689 257.446 473.438Z" fill="#263238"/>
<path d="M272.815 479.765V482.895H265.158V494.054H274.56V497.239H261.655V465.864H274.56V469.049H265.158V479.765H272.815Z" fill="#263238"/>
<path d="M289.624 497.239H286.495V465.864H290.939L298.194 488.544V465.864H301.296V497.239H297.654L289.638 471.873L289.624 497.239Z" fill="#263238"/>
<path d="M305.491 473.438C305.491 468.647 307.859 465.56 312.663 465.56C317.468 465.56 319.877 468.647 319.877 473.438V489.665C319.877 494.414 317.495 497.543 312.663 497.543C307.831 497.543 305.491 494.414 305.491 489.665V473.438ZM308.939 489.845C308.939 492.711 310.157 494.373 312.663 494.373C315.169 494.373 316.374 492.711 316.374 489.845V473.23C316.374 470.461 315.211 468.717 312.663 468.717C310.116 468.717 308.939 470.406 308.939 473.23V489.845Z" fill="#263238"/>
<path d="M328.655 497.239V469.049H322.881V465.864H337.932V469.049H332.158V497.239H328.655Z" fill="#263238"/>
<path d="M359.808 480.472V483.628H352.594V497.211H349.091V465.864H361.553V469.049H352.594V480.472H359.808Z" fill="#263238"/>
<path d="M364.959 473.438C364.959 468.647 367.34 465.56 372.131 465.56C376.921 465.56 379.344 468.647 379.344 473.438V489.665C379.344 494.414 376.977 497.543 372.131 497.543C367.285 497.543 364.959 494.414 364.959 489.665V473.438ZM368.42 489.845C368.42 492.711 369.625 494.373 372.131 494.373C374.637 494.373 375.855 492.711 375.855 489.845V473.23C375.855 470.461 374.692 468.717 372.131 468.717C369.569 468.717 368.42 470.406 368.42 473.23V489.845Z" fill="#263238"/>
<path d="M386.877 489.845C386.877 492.614 387.998 494.373 390.546 494.373C393.093 494.373 394.187 492.67 394.187 489.845V465.864H397.455V489.665C397.455 494.414 395.253 497.599 390.421 497.599C385.589 497.599 383.429 494.414 383.429 489.665V465.864H386.877V489.845Z" fill="#263238"/>
<path d="M404.89 497.239H401.705V465.864H406.136L413.391 488.544V465.864H416.493V497.239H412.92L404.89 471.873V497.239Z" fill="#263238"/>
<path d="M428.372 465.864C433.26 465.864 435.503 468.827 435.503 473.66V489.485C435.503 494.276 433.26 497.239 428.372 497.239H421.089V465.864H428.372ZM428.372 494.054C430.878 494.054 432.097 492.49 432.097 489.624V473.48C432.097 470.613 430.878 469.049 428.331 469.049H424.565V494.054H428.372Z" fill="#263238"/>
<path opacity="0.3" d="M186.528 388.716C186.528 392.869 161.011 396.179 129.511 396.179C98.0123 396.179 72.4946 392.842 72.4946 388.716C72.4946 384.59 98.0262 381.253 129.511 381.253C160.997 381.253 186.528 384.604 186.528 388.716Z" fill="black"/>
<path opacity="0.3" d="M305.893 388.716C305.893 392.869 280.361 396.179 248.876 396.179C217.39 396.179 191.859 392.842 191.859 388.716C191.859 384.59 217.39 381.253 248.876 381.253C280.361 381.253 305.893 384.604 305.893 388.716Z" fill="black"/>
<path opacity="0.3" d="M464.011 388.716C464.011 392.869 438.494 396.179 407.008 396.179C375.523 396.179 349.991 392.842 349.991 388.716C349.991 384.59 375.509 381.253 407.008 381.253C438.507 381.253 464.011 384.604 464.011 388.716Z" fill="black"/>
<path opacity="0.3" d="M596.1 388.716C596.1 392.869 570.568 396.179 539.083 396.179C507.598 396.179 482.011 392.842 482.011 388.716C482.011 384.59 507.542 381.253 539.028 381.253C570.513 381.253 596.1 384.604 596.1 388.716Z" fill="black"/>
<path d="M413.17 170.396C413.17 170.396 410.83 180.088 410.83 181.722C410.828 182.732 410.717 183.74 410.497 184.726C410.497 184.726 405.499 190.721 406.164 192.383C406.971 193.675 408.128 194.711 409.5 195.373C409.5 195.373 412.159 205.065 414.831 205.702C417.576 206.215 420.351 206.548 423.139 206.699L424.135 214.688L437.455 212.695L434.132 200.704L435.517 190.375C435.517 190.375 437.843 186.055 435.517 179.063C433.191 172.071 428.192 171.739 424.855 171.739C420.94 171.491 417.039 171.042 413.17 170.396Z" fill="#F5F6FA" stroke="#263238" stroke-width="1.04742" stroke-linecap="round" stroke-linejoin="round"/>
<path d="M419.165 165.411C419.165 165.411 407.507 165.065 407.839 168.07C408.171 171.074 420.162 174.992 420.162 174.992C420.162 174.992 416.16 177.651 418.154 180.323C420.148 182.995 424.814 185.321 424.814 185.321C424.814 185.321 423.429 190.984 425.492 191.317C427.555 191.649 428.815 188.644 429.148 187.647C429.48 186.651 433.149 186.983 434.146 189.641C434.71 191.023 435.046 192.486 435.143 193.975C435.143 193.975 439.144 181.985 439.809 176.654C440.473 171.323 425.492 165.411 419.165 165.411Z" fill="#263238" stroke="#263238" stroke-width="1.04742" stroke-linecap="round" stroke-linejoin="round"/>
<path d="M426.545 191.483C426.545 191.483 430.574 182.622 432.983 186.983C435.392 191.344 434.367 195.886 432 196.37C429.632 196.855 427.652 197.326 427.652 197.326" fill="#F5F6FA"/>
<path d="M426.545 191.483C426.545 191.483 430.574 182.622 432.983 186.983C435.392 191.344 434.367 195.886 432 196.37C429.632 196.855 427.652 197.326 427.652 197.326" stroke="#263238" stroke-width="1.04742" stroke-linecap="round" stroke-linejoin="round"/>
<path d="M410.165 283.959C409.514 284.72 398.839 307.607 397.51 315.264C396.181 322.921 387.527 368.556 387.181 370.55C386.835 372.544 368.545 376.545 367.202 376.878C365.859 377.21 368.586 380.879 372.532 381.876C376.478 382.873 387.86 387.539 390.532 384.867C393.204 382.194 396.859 367.213 397.856 365.552C398.853 363.89 417.6 319.722 417.6 319.722C417.6 319.722 427.209 298.524 429.203 296.517C431.197 294.509 426.835 285.634 425.16 282.962C423.485 280.29 414.831 278.628 410.165 283.959Z" fill="#263238" stroke="#263238" stroke-width="1.04742" stroke-linecap="round" stroke-linejoin="round"/>
<path d="M408.171 284.249C408.171 284.249 412.837 306.569 415.163 314.558C417.341 321.268 420.616 327.57 424.855 333.208C427.528 336.877 440.515 369.207 440.515 369.207L442.509 374.205C442.509 374.205 441.844 376.199 438.189 378.858C434.534 381.516 424.191 385.85 426.863 386.86C429.535 387.871 440.183 387.857 445.181 387.525C449.484 387.22 453.518 385.319 456.493 382.194C458.501 379.854 453.17 373.195 453.17 371.865C453.17 370.536 441.512 329.913 440.847 327.905C440.183 325.897 436.846 311.595 436.846 311.595V295.326C436.846 295.326 438.521 292.335 438.521 285.634C438.521 278.933 433.523 277.631 433.523 277.631L406.205 280.303L408.171 284.249Z" fill="#263238" stroke="#263238" stroke-width="1.04742" stroke-linecap="round" stroke-linejoin="round"/>
<path d="M405.859 282.297C405.859 282.297 406.538 287.96 408.531 288.292C410.525 288.625 431.169 294.288 440.169 287.628C440.169 287.628 441.83 282.629 440.833 281.3C439.837 279.971 437.497 280.636 425.52 280.636C413.543 280.636 405.859 280.636 405.859 282.297Z" fill="#92E3A9" stroke="#263238" stroke-width="1.04742" stroke-linecap="round" stroke-linejoin="round"/>
<path d="M436.472 207.696C436.472 207.696 424.149 209.358 418.819 214.619C413.488 219.88 408.836 229.614 406.51 238.6C404.184 247.586 402.508 280.566 405.831 282.228C409.154 283.889 437.137 285.565 441.83 283.613C446.524 281.66 441.498 265.959 441.498 259.964C441.498 253.969 446.829 233.657 445.832 222.345C444.835 211.033 436.472 207.696 436.472 207.696Z" fill="#92E3A9" stroke="#263238" stroke-width="1.04742" stroke-linecap="round" stroke-linejoin="round"/>
<path d="M392.013 242.311C391.861 228.603 386.267 216.904 378.832 211.85V209.081L358.34 209.288C346.807 209.413 337.572 224.519 337.807 242.934C338.043 261.349 347.499 276.26 359.047 276.164L379.538 275.956V273.187C386.738 267.828 392.083 256.018 392.013 242.311Z" fill="#263238" stroke="#263238" stroke-width="1.04742" stroke-linecap="round" stroke-linejoin="round"/>
<path d="M401.207 242.214C401.055 227.814 395.502 215.519 387.693 210.175V207.225L378.915 207.322C366.786 207.447 357.136 223.273 357.343 242.671C357.551 262.069 367.534 277.687 379.663 277.562L388.441 277.465V274.53C396.07 269.019 401.359 256.558 401.207 242.214Z" fill="#F5F6FA" stroke="#263238" stroke-width="1.04742" stroke-linecap="round" stroke-linejoin="round"/>
<path d="M410.013 242.117C410.22 261.501 400.556 277.34 388.441 277.465C376.326 277.59 366.288 261.972 366.122 242.588C365.955 223.203 375.578 207.364 387.693 207.225C399.808 207.087 409.777 222.719 410.013 242.117Z" fill="#737373" stroke="#263238" stroke-width="1.04742" stroke-linecap="round" stroke-linejoin="round"/>
<path d="M404.973 241.521C405.07 250.701 400.487 258.206 394.741 258.275C388.995 258.344 384.26 250.923 384.163 241.66C384.066 232.397 388.649 225.045 394.395 224.906C400.141 224.768 404.876 232.328 404.973 241.521Z" fill="#263238" stroke="#263238" stroke-width="1.04742" stroke-linecap="round" stroke-linejoin="round"/>
<path d="M568.131 310.556C569.274 302.022 569.76 293.412 569.585 284.803C565.085 286.88 538.834 287.642 536.425 287.697C534.015 287.752 507.764 286.88 503.264 284.803C503.066 293.41 503.529 302.02 504.649 310.556C506.462 321.785 522.413 366.742 522.773 368.916C523.24 371.013 523.845 373.076 524.586 375.091C524.586 375.091 515.517 381.613 511.53 384.147C507.542 386.68 510.45 387.774 514.438 387.774C518.425 387.774 526.76 386.68 529.294 386.68C531.537 386.68 535.442 384.728 536.355 384.257C537.269 384.728 541.174 386.68 543.403 386.68C545.95 386.68 554.286 387.774 558.273 387.774C562.261 387.774 565.196 386.68 561.181 384.147C557.166 381.613 548.124 375.091 548.124 375.091C548.865 373.076 549.471 371.013 549.938 368.916C550.367 366.701 566.318 321.744 568.131 310.556Z" fill="#263238" stroke="#263238" stroke-width="1.04742" stroke-linecap="round" stroke-linejoin="round"/>
<path d="M530.942 214.314C530.942 214.314 516.916 218.897 509.675 223.494C502.433 228.091 495.164 252.986 495.164 253.955C494.748 255.689 494.183 257.385 493.475 259.022C493.475 259.022 486.22 257.333 484.78 263.37C483.34 269.407 492.021 277.147 496.618 277.396C501.215 277.645 502.655 276.191 502.655 276.191C502.655 276.191 499.761 281.993 500.966 284.402C502.17 286.811 512.333 295.769 532.395 295.478C552.458 295.188 567.01 291.851 569.128 288.957C571.247 286.063 571.551 280.013 571.551 280.013C571.551 280.013 579.042 278.074 581.7 273.242C584.359 268.41 583.874 263.328 582.42 258.261C580.966 253.193 573.476 238.475 568.408 230.251C563.341 222.027 552.693 217.444 547.64 215.99C542.586 214.536 534.32 214.314 530.942 214.314Z" fill="#92E3A9" stroke="#263238" stroke-width="1.04742" stroke-linecap="round" stroke-linejoin="round"/>
<path d="M535.192 234.668C537.2 234.003 543.5 228.409 545.923 222.816C546.881 220.674 547.556 218.417 547.93 216.101L547.612 216.004C542.544 214.55 534.32 214.314 530.997 214.314C530.997 214.314 528.062 215.27 524.185 216.751C524.209 219.744 524.772 222.708 525.846 225.502C528.034 231.096 533.24 235.346 535.192 234.668Z" fill="#F5F6FA" stroke="#263238" stroke-width="1.04742" stroke-linecap="round" stroke-linejoin="round"/>
<path d="M558.246 245.966C558.246 245.966 564.047 276.911 570.624 280.096" stroke="#263238" stroke-width="1.04742" stroke-linecap="round" stroke-linejoin="round"/>
<path d="M502.655 276.191C502.655 276.191 509.91 248.873 510.395 246.215" stroke="#263238" stroke-width="1.04742" stroke-linecap="round" stroke-linejoin="round"/>
<path d="M567.619 259.95C567.619 259.95 563.604 260.85 563.604 263.758" stroke="#263238" stroke-width="1.04742" stroke-linecap="round" stroke-linejoin="round"/>
<path d="M499.401 260.393C499.401 260.393 503.873 263.301 503.43 267.773" stroke="#263238" stroke-width="1.04742" stroke-linecap="round" stroke-linejoin="round"/>
<path d="M529.363 386.708C531.606 386.708 535.511 384.756 536.425 384.285C537.338 384.756 541.243 386.708 543.472 386.708C546.02 386.708 554.355 387.802 558.342 387.802C562.33 387.802 565.265 386.708 561.25 384.174C557.775 381.973 550.492 376.767 548.637 375.438C544.358 379.342 535.898 378.373 535.898 378.373C534.185 378.115 532.488 377.754 530.817 377.293C528.283 376.559 524.656 375.119 524.656 375.119C524.656 375.119 515.587 381.641 511.599 384.174C507.612 386.708 510.519 387.802 514.507 387.802C518.494 387.802 526.83 386.708 529.363 386.708Z" fill="#92E3A9" stroke="#263238" stroke-width="1.04742" stroke-linecap="round" stroke-linejoin="round"/>
<path d="M535.898 375.175V311.955" stroke="#F5F6FA" stroke-width="1.04742" stroke-linecap="round" stroke-linejoin="round"/>
<path d="M536.425 384.216L535.898 378.304V375.175" stroke="#263238" stroke-width="1.04742" stroke-linecap="round" stroke-linejoin="round"/>
<path d="M530.817 309.781H541.326" stroke="#F5F6FA" stroke-width="1.04742" stroke-linecap="round" stroke-linejoin="round"/>
<path d="M517.082 178.039C517.082 178.039 509.55 182.552 510.671 186.512C511.793 190.472 515.199 191.234 514.451 193.435C513.704 195.637 511.087 197.021 514.064 198.406C515.759 199.165 517.533 199.736 519.353 200.109C519.353 200.109 522.122 209.718 526.885 211.407C531.648 213.096 539.9 211.975 545.743 211.227C547.717 211.034 549.585 210.244 551.098 208.963C552.612 207.681 553.7 205.969 554.216 204.055C554.784 201.992 551.766 204.442 550.257 202.172C548.747 199.901 551.018 194.072 552.707 188.977C554.396 183.881 549.315 174.273 542.724 171.074C536.134 167.876 523.548 169.551 517.082 178.039Z" fill="#263238" stroke="#263238" stroke-width="1.04742" stroke-linecap="round" stroke-linejoin="round"/>
<path d="M529.737 210.867C528.779 214.027 528.13 217.273 527.799 220.559C527.549 224.713 530.942 229.268 534.569 229.019C538.197 228.769 541.326 221.528 541.811 217.942C542.295 214.356 540.606 204.65 540.606 204.65C540.606 204.65 535.068 204.899 532.866 206.824C531.573 207.958 530.511 209.331 529.737 210.867Z" fill="#F5F6FA" stroke="#263238" stroke-width="1.04742" stroke-linecap="round" stroke-linejoin="round"/>
<path d="M524.822 183.314C524.822 183.314 525.002 188.963 530.665 194.39C534.069 197.682 538.106 200.249 542.531 201.936C542.432 203.174 542.113 204.383 541.589 205.509C541.343 205.979 540.959 206.363 540.489 206.611C540.02 206.858 539.486 206.957 538.958 206.893H537.061C537.061 206.893 534.292 213.387 530.942 214.328C527.591 215.27 519.353 214.619 518.217 206.325C517.082 198.032 516.902 191.247 517.844 189.544C518.785 187.841 524.822 183.314 524.822 183.314Z" fill="#F5F6FA" stroke="#263238" stroke-width="1.04742" stroke-linecap="round" stroke-linejoin="round"/>
<path d="M584.068 256.281C584.927 254.549 585.449 252.67 585.605 250.743C585.605 248.223 580.925 244.609 580.066 243.709C579.208 242.809 578.35 242.906 578.17 244.166C578.167 244.873 578.31 245.573 578.588 246.224C578.867 246.874 579.276 247.46 579.79 247.946C580.491 248.499 581 249.26 581.243 250.12C581.326 250.743 579.693 253.803 580.51 255.783C581.326 257.762 583.625 258.358 584.068 256.281Z" fill="#F5F6FA" stroke="#263238" stroke-width="1.04742" stroke-linecap="round" stroke-linejoin="round"/>
<path d="M396.555 242.144C396.555 242.144 416.936 248.666 429.189 263.896C441.443 279.126 449.487 276.939 464.717 271.871C479.948 266.804 485.749 248.666 506.781 263.896C527.813 279.126 532.16 284.914 549.564 276.219C566.968 267.524 576.383 246.492 592.348 253.733C608.312 260.975 601.043 298.04 602.497 316.039C603.95 334.039 601.763 379.134 605.39 384.936C609.018 390.737 646 386.32 646 386.32" stroke="#263238" stroke-width="3.14226" stroke-linecap="round" stroke-linejoin="round"/>
<path d="M434.727 217.942C434.727 217.942 430.671 211.324 424.689 213.055C418.362 214.882 415.094 223.923 413.613 229.559C412.131 235.194 411.134 241.286 408.42 246.534C408.42 246.534 396.43 246.326 389.743 244.387C384.64 242.797 379.621 240.948 374.706 238.849C374.706 238.849 372.338 235.54 370.663 234.889C368.988 234.239 364.64 232.965 364.322 233.962C364.003 234.958 369.362 238.24 369.362 238.24C369.362 238.24 359.393 239.625 358.396 240.691C357.399 241.757 365.443 244.941 365.443 244.941C365.443 244.941 368.448 245.911 375.758 244.166C375.758 244.166 402.578 261.196 407.922 263.148C413.266 265.101 416.229 265.724 419.871 258.69C423.512 251.657 435.6 234.211 437.524 227.191" fill="#92E3A9"/>
<path d="M434.727 217.942C434.727 217.942 430.671 211.324 424.689 213.055C418.362 214.882 415.094 223.923 413.613 229.559C412.131 235.194 411.134 241.286 408.42 246.534C408.42 246.534 396.43 246.326 389.743 244.387C384.64 242.797 379.621 240.948 374.706 238.849C374.706 238.849 372.338 235.54 370.663 234.889C368.988 234.239 364.64 232.965 364.322 233.962C364.003 234.958 369.362 238.24 369.362 238.24C369.362 238.24 359.393 239.625 358.396 240.691C357.399 241.757 365.443 244.941 365.443 244.941C365.443 244.941 368.448 245.911 375.758 244.166C375.758 244.166 402.578 261.196 407.922 263.148C413.266 265.101 416.229 265.724 419.871 258.69C423.512 251.657 435.6 234.211 437.524 227.191" stroke="#263238" stroke-width="1.04742" stroke-linecap="round" stroke-linejoin="round"/>
<path d="M381.67 241.674C377.752 240.206 374.748 238.905 374.748 238.905C374.748 238.905 372.38 235.595 370.705 234.945C369.029 234.294 364.682 233.02 364.363 234.017C364.045 235.014 369.403 238.295 369.403 238.295C369.403 238.295 359.434 239.68 358.437 240.746C357.44 241.812 365.485 244.997 365.485 244.997C365.485 244.997 368.489 245.966 375.8 244.221L379.552 246.589L381.67 241.674Z" fill="#F5F6FA" stroke="#263238" stroke-width="1.04742" stroke-linecap="round" stroke-linejoin="round"/>
<path d="M485.043 258.829C484.184 257.097 483.662 255.217 483.506 253.29C483.506 250.77 488.2 247.17 489.044 246.27C489.889 245.371 490.747 245.467 490.927 246.727C490.93 247.435 490.787 248.135 490.509 248.785C490.23 249.435 489.821 250.021 489.307 250.507C488.606 251.06 488.097 251.821 487.854 252.681C487.771 253.29 489.404 256.364 488.587 258.344C487.771 260.324 485.486 260.892 485.043 258.829Z" fill="#F5F6FA" stroke="#263238" stroke-width="1.04742" stroke-linecap="round" stroke-linejoin="round"/>
<path d="M488.269 251.227C488.269 251.227 484.406 258.358 486.649 260.919C488.892 263.481 491.066 255.159 491.481 252.861C491.897 250.563 489.695 248.25 488.269 251.227Z" fill="#F5F6FA" stroke="#263238" stroke-width="1.04742" stroke-linecap="round" stroke-linejoin="round"/>
<path d="M491.454 253.789C491.454 253.789 487.591 260.919 489.834 263.481C492.077 266.042 494.25 257.721 494.666 255.423C495.081 253.124 492.88 250.729 491.454 253.789Z" fill="#F5F6FA" stroke="#263238" stroke-width="1.04742" stroke-linecap="round" stroke-linejoin="round"/>
<path d="M494.957 254.384C494.957 254.384 491.094 261.515 493.337 264.076C495.58 266.638 497.753 258.316 498.169 256.018C498.584 253.719 496.383 251.393 494.957 254.384Z" fill="#F5F6FA" stroke="#263238" stroke-width="1.04742" stroke-linecap="round" stroke-linejoin="round"/>
<path d="M499.443 254.44C499.443 254.44 495.843 259.978 497.809 262.069C499.775 264.159 501.893 257.582 502.309 255.686C502.724 253.789 500.772 251.947 499.443 254.44Z" fill="#F5F6FA" stroke="#263238" stroke-width="1.04742" stroke-linecap="round" stroke-linejoin="round"/>
<path d="M581.493 251.504C581.493 251.504 585.355 258.635 583.112 261.196C580.869 263.758 578.696 255.423 578.28 253.124C577.865 250.826 580.066 248.514 581.493 251.504Z" fill="#F5F6FA" stroke="#263238" stroke-width="1.04742" stroke-linecap="round" stroke-linejoin="round"/>
<path d="M578.308 253.996C578.308 253.996 582.171 261.127 579.928 263.688C577.685 266.25 575.511 257.915 575.096 255.616C574.681 253.318 576.882 251.02 578.308 253.996Z" fill="#F5F6FA" stroke="#263238" stroke-width="1.04742" stroke-linecap="round" stroke-linejoin="round"/>
<path d="M574.777 254.661C574.777 254.661 578.64 261.792 576.397 264.353C574.154 266.915 571.981 258.593 571.579 256.281C571.177 253.969 573.393 251.67 574.777 254.661Z" fill="#F5F6FA" stroke="#263238" stroke-width="1.04742" stroke-linecap="round" stroke-linejoin="round"/>
<path d="M570.319 254.716C570.319 254.716 573.919 260.324 571.953 262.345C569.987 264.367 567.868 257.859 567.467 255.963C567.065 254.066 568.99 252.224 570.319 254.716Z" fill="#F5F6FA" stroke="#263238" stroke-width="1.04742" stroke-linecap="round" stroke-linejoin="round"/>
<path d="M93.9416 333.61V341.474C91.2125 344.457 89.2499 348.059 88.2233 351.969C86.548 358.393 81.3004 386.043 82.685 386.763C84.0696 387.483 97.0985 390.46 101.252 389.837C106.015 389.117 110.072 389.366 107.677 386.736C105.281 384.105 92.6955 376.753 92.6955 376.753C92.6955 376.753 106.541 356.732 109.615 349.338C112.689 341.945 113.187 330.508 113.187 330.508L94.6062 329.802L93.9416 333.61Z" fill="#F5F6FA" stroke="#263238" stroke-width="1.04742" stroke-linecap="round" stroke-linejoin="round"/>
<path d="M101.252 389.837C106.015 389.117 110.072 389.366 107.677 386.736C105.281 384.105 92.6955 376.753 92.6955 376.753L92.2248 379.605L83.1558 378.498C82.4912 383.122 82.2004 386.514 82.685 386.805C84.1665 387.47 97.0985 390.46 101.252 389.837Z" fill="#263238" stroke="#263238" stroke-width="1.04742" stroke-linecap="round" stroke-linejoin="round"/>
<path d="M139.467 337.68L141.613 341.502C140.723 343.217 140.2 345.098 140.076 347.027C139.952 348.955 140.23 350.888 140.893 352.703C143.039 359.377 148.051 383.925 148.051 385.351C148.051 386.777 151.139 387.733 153.589 387.733C156.04 387.733 162.824 388.203 163.78 388.203C164.735 388.203 171.644 389.394 174.026 387.968C176.407 386.542 170.993 383.676 167.421 382.014C163.849 380.353 155.985 376.061 155.985 376.061C155.985 376.061 157.881 356.51 157.881 347.926C157.881 339.342 159.792 336.489 157.175 331.242C154.558 325.994 138.11 333.637 138.11 333.637L139.467 337.68Z" fill="#F5F6FA" stroke="#263238" stroke-width="1.04742" stroke-linecap="round" stroke-linejoin="round"/>
<path d="M167.352 382.014C163.78 380.339 155.915 376.061 155.915 376.061L154.96 379.633L147.303 381.017C147.76 383.399 148.051 385.033 148.051 385.365C148.051 386.75 151.138 387.746 153.589 387.746C156.04 387.746 162.824 388.217 163.78 388.217C164.735 388.217 171.644 389.408 174.026 387.982C176.407 386.556 170.924 383.676 167.352 382.014Z" fill="#263238" stroke="#263238" stroke-width="1.04742" stroke-linecap="round" stroke-linejoin="round"/>
<path d="M126.631 179.022C124.763 175.829 122.628 172.799 120.249 169.966C116.967 166.27 106.68 166.477 102.166 171.351C97.6523 176.225 99.0784 184.92 100.781 187.384C102.484 189.849 105.918 201.369 105.918 201.369L106.735 209.593L125.856 216.377L121.952 203.016C121.952 203.016 129.359 201.632 129.968 199.319C130.577 197.007 128.736 189.24 128.736 189.24C128.736 189.24 131.201 187.592 130.993 186.152C130.785 184.712 126.631 179.022 126.631 179.022Z" fill="#F5F6FA" stroke="#263238" stroke-width="1.04742" stroke-linecap="round" stroke-linejoin="round"/>
<path d="M104.631 187.883C104.631 187.883 107.898 190.652 109.684 187.481C111.47 184.311 112.827 181.209 112.827 178.523C112.827 175.837 106.112 173.608 110.584 171.808C115.056 170.008 118.282 174.009 120.276 169.994C122.27 165.979 120.456 165.55 109.712 165.55C98.9676 165.55 93.5955 170.922 95.8662 177.637C97.6822 182.596 99.9292 187.387 102.581 191.954L104.631 187.883Z" fill="#263238" stroke="#263238" stroke-width="1.04742" stroke-linecap="round" stroke-linejoin="round"/>
<path d="M127.241 183.771C127.241 184.787 126.939 185.78 126.375 186.625C125.811 187.469 125.008 188.128 124.07 188.516C123.131 188.905 122.098 189.007 121.102 188.809C120.105 188.611 119.19 188.121 118.472 187.403C117.753 186.685 117.264 185.769 117.066 184.773C116.868 183.776 116.969 182.744 117.358 181.805C117.747 180.866 118.405 180.064 119.25 179.5C120.095 178.935 121.088 178.634 122.104 178.634C123.466 178.634 124.773 179.175 125.736 180.138C126.699 181.102 127.241 182.408 127.241 183.771V183.771Z" stroke="#263238" stroke-width="1.04742" stroke-linecap="round" stroke-linejoin="round"/>
<path d="M126.493 179.215C127.091 178.971 127.73 178.844 128.376 178.842C129.446 178.844 130.484 179.2 131.329 179.856C132.175 180.512 132.778 181.429 133.046 182.465C133.313 183.5 133.23 184.596 132.808 185.579C132.387 186.562 131.651 187.377 130.716 187.897" stroke="#263238" stroke-width="1.04742" stroke-linecap="round" stroke-linejoin="round"/>
<path d="M116.967 183.771L104.631 187.883" stroke="#263238" stroke-width="1.04742" stroke-linecap="round" stroke-linejoin="round"/>
<path d="M108.175 190.555C108.175 190.555 105.711 185.418 103.246 186.401C100.781 187.384 102.014 195.457 104.478 196.273C105.306 196.46 106.167 196.445 106.989 196.231C107.81 196.017 108.568 195.609 109.2 195.041C109.2 195.041 111.263 199.361 113.727 200.579" fill="#F5F6FA"/>
<path d="M108.175 190.555C108.175 190.555 105.711 185.418 103.246 186.401C100.781 187.384 102.014 195.457 104.478 196.273C105.306 196.46 106.167 196.445 106.989 196.231C107.81 196.017 108.568 195.609 109.2 195.041C109.2 195.041 111.263 199.361 113.727 200.579" stroke="#263238" stroke-width="1.04742" stroke-linecap="round" stroke-linejoin="round"/>
<path d="M92.0032 282.865L90.4663 302.554L85.8695 331.699C85.8695 331.699 96.6139 340.131 106.638 340.131C116.663 340.131 119.418 338.857 119.418 338.857L125.039 308.95L130.661 340.394C130.661 340.394 141.737 338.608 149.075 336.808C154.178 335.388 159.014 333.143 163.392 330.162L148.563 291.56L145.351 271.65C145.351 271.65 128.736 273.187 118.753 273.699C108.77 274.211 95.4923 271.65 95.4923 271.65L92.0032 282.865Z" fill="#92E3A9" stroke="#263238" stroke-width="1.04742" stroke-linecap="round" stroke-linejoin="round"/>
<path d="M102.54 204.193C102.54 204.193 126.078 212.404 133.347 220.379C137.362 224.81 141.862 255.132 143.482 262.539C145.102 269.947 147.926 284.692 147.926 284.692C147.926 284.692 133.568 291.172 122.464 291.408C111.36 291.643 90.051 286.548 90.051 286.548C90.051 286.548 92.5848 253.692 92.5848 238.42C92.5848 223.148 92.8201 213.179 95.3539 208.319C95.3678 208.361 99.5353 203.722 102.54 204.193Z" fill="#263238" stroke="#263238" stroke-width="1.04742" stroke-linecap="round" stroke-linejoin="round"/>
<path d="M96.3508 288.929C96.3508 288.929 97.6246 310.404 96.3508 318.338C95.4563 323.456 93.9115 328.439 91.754 333.166" stroke="#263238" stroke-width="1.04742" stroke-linecap="round" stroke-linejoin="round"/>
<path d="M96.8631 299.161C98.7856 298.501 100.503 297.352 101.848 295.828C103.193 294.304 104.118 292.456 104.534 290.466" stroke="#263238" stroke-width="1.04742" stroke-linecap="round" stroke-linejoin="round"/>
<path d="M87.1434 327.545C87.1434 327.545 99.9369 338.539 119.875 334.468" stroke="#263238" stroke-width="1.04742" stroke-linecap="round" stroke-linejoin="round"/>
<path d="M130.107 333.928C130.107 333.928 151.069 331.63 160.277 325.496" stroke="#263238" stroke-width="1.04742" stroke-linecap="round" stroke-linejoin="round"/>
<path d="M223.87 194.252C223.87 194.252 221.849 195.747 214.801 200.898C207.754 206.049 213.306 213.83 213.306 213.83C213.306 213.83 208.266 214.619 201.537 221.694C194.808 228.769 204.542 240.912 213.638 242.809C222.735 244.706 233.368 233.449 236.553 223.01C239.738 212.57 235.528 196.827 233.41 193.573C231.292 190.32 223.87 194.252 223.87 194.252Z" fill="#263238" stroke="#263238" stroke-width="1.04742" stroke-linecap="round" stroke-linejoin="round"/>
<path d="M250.565 192.867C250.565 192.867 254.068 187.454 250.897 179.603C247.727 171.753 238.256 168.167 229.035 173.857C225.961 175.686 223.577 178.478 222.253 181.8C220.929 185.122 220.738 188.789 221.71 192.23C222.61 195.858 227.152 201.438 228.107 201.521C229.062 201.604 237.356 204.622 243.019 201.978C248.682 199.333 250.565 192.867 250.565 192.867Z" fill="#263238" stroke="#263238" stroke-width="1.04742" stroke-linecap="round" stroke-linejoin="round"/>
<path d="M209.817 375.631C209.817 375.631 216.394 385.863 227.816 387.608C239.239 389.353 228.966 379.107 227.041 377.556C225.116 376.005 211.368 372.655 209.817 375.631Z" fill="#737373" stroke="#263238" stroke-width="1.04742" stroke-linecap="round" stroke-linejoin="round"/>
<path d="M270.669 378.262C270.669 378.262 283.227 381.35 282.258 384.064C281.289 386.777 271.057 386.57 265.075 385.019C259.094 383.468 253.473 381.156 254.248 378.65C255.023 376.144 270.669 378.262 270.669 378.262Z" fill="#737373" stroke="#263238" stroke-width="1.04742" stroke-linecap="round" stroke-linejoin="round"/>
<path d="M234.961 213.221C234.961 213.221 218.152 215.685 215.078 221.625C212.004 227.565 216.338 259.922 216.338 259.922C216.338 259.922 209.166 275.748 209.069 285.939C208.972 296.129 213.514 314.059 213.154 318.532C212.794 323.004 208.197 373.915 208.197 375.299C208.197 376.684 217.889 379.785 231.859 381.447C245.83 383.108 272.552 378.138 272.552 378.138C272.552 378.138 272.026 348.092 273.424 330.176C274.823 312.259 272.829 296.157 269.271 289.469C265.712 282.782 249.139 258.704 249.139 258.704C249.139 258.704 257.169 244.138 257.668 237.769C258.166 231.4 255.577 228.077 249.513 220.753C247.71 218.592 245.495 216.813 242.996 215.52C240.497 214.226 237.765 213.445 234.961 213.221Z" fill="#92E3A9" stroke="#263238" stroke-width="1.04742" stroke-linecap="round" stroke-linejoin="round"/>
<path d="M249.18 258.718C249.18 258.718 257.211 244.152 257.709 237.783C258.208 231.414 255.619 228.091 249.554 220.767C249.263 220.407 248.959 220.088 248.654 219.756L248.433 219.964C242.202 230.14 221.6 247.53 215.466 252.598C215.937 256.932 216.338 259.922 216.338 259.922C216.338 259.922 209.166 275.748 209.069 285.939C209.184 290.582 209.647 295.21 210.454 299.784C225.006 291.477 244.473 275.928 255.009 267.261C251.714 262.387 249.18 258.718 249.18 258.718Z" fill="#737373" stroke="#263238" stroke-width="1.04742" stroke-linecap="round" stroke-linejoin="round"/>
<path d="M231.859 201.341C232.324 205.141 232.578 208.963 232.621 212.791C232.399 215.63 233.313 222.11 238.159 224.145C243.005 226.18 246.051 223.342 246.037 220.49C245.862 218.134 245.396 215.809 244.653 213.567L244.791 205.744C244.791 205.744 236.428 200.51 231.859 201.341Z" fill="#F5F6FA" stroke="#263238" stroke-width="1.04742" stroke-linecap="round" stroke-linejoin="round"/>
<path d="M227.512 196.26C227.512 196.26 223.953 193.13 223.843 197.644C223.732 202.158 227.886 203.653 228.799 203.958C229.571 204.063 230.353 203.87 230.987 203.418C230.987 203.418 237.439 208.956 242.617 209.316C247.796 209.676 249.9 207.281 251.119 197.88C252.337 188.478 242.631 178.939 242.631 178.939C242.631 178.939 234.324 194.252 227.512 196.26Z" fill="#F5F6FA" stroke="#263238" stroke-width="1.04742" stroke-linecap="round" stroke-linejoin="round"/>
<path d="M148.328 284.499C148.281 282.894 148.544 281.296 149.103 279.791C149.962 277.908 154.641 276.828 155.68 276.468C156.718 276.108 157.244 276.468 156.94 277.451C156.698 277.98 156.351 278.453 155.92 278.844C155.489 279.234 154.984 279.533 154.434 279.722C153.718 279.894 153.074 280.286 152.592 280.843C152.329 281.286 152.495 284.125 151.208 285.329C149.92 286.534 147.899 286.202 148.328 284.499Z" fill="#F5F6FA" stroke="#263238" stroke-width="1.04742" stroke-linecap="round" stroke-linejoin="round"/>
<path d="M254.442 242.864C254.442 242.864 237.827 240.691 230.502 252.293C223.178 263.896 209.485 304.492 184.105 311.027C158.726 317.562 151.471 265.336 136.24 266.79C121.73 268.175 111.595 266.79 102.886 282.74C98.2338 291.283 74.973 384.562 63.9794 385.517C28.9635 388.577 6.42258 386.583 6.42258 386.583" stroke="#263238" stroke-width="3.14226" stroke-linecap="round" stroke-linejoin="round"/>
<path d="M103.62 204.858C103.62 204.858 99.7845 203.321 94.6616 206.381C89.5387 209.441 75.7483 242.947 76.7729 246.534C77.7975 250.12 92.3632 256.766 100.546 259.064C108.729 261.362 123.558 264.187 123.558 264.187C123.558 264.187 128.155 271.345 129.691 271.594C131.927 271.564 134.153 271.309 136.337 270.833C136.337 270.833 139.107 273.131 140.173 270.57C141.239 268.008 139.148 264.699 136.85 262.138C134.551 259.576 124.832 258.302 124.832 258.302L98.483 240.137L109.56 219.687" fill="#263238"/>
<path d="M103.62 204.858C103.62 204.858 99.7845 203.321 94.6616 206.381C89.5387 209.441 75.7483 242.947 76.7729 246.534C77.7975 250.12 92.3632 256.766 100.546 259.064C108.729 261.362 123.558 264.187 123.558 264.187C123.558 264.187 128.155 271.345 129.691 271.594C131.927 271.564 134.153 271.309 136.337 270.833C136.337 270.833 139.107 273.131 140.173 270.57C141.239 268.008 139.148 264.699 136.85 262.138C134.551 259.576 124.832 258.302 124.832 258.302L98.483 240.137L109.56 219.687" stroke="#263238" stroke-width="1.04742" stroke-linecap="round" stroke-linejoin="round"/>
<path d="M129.691 271.581C131.927 271.55 134.153 271.295 136.337 270.819C136.337 270.819 139.107 273.117 140.173 270.556C141.239 267.994 139.148 264.685 136.85 262.124C134.551 259.562 124.832 258.289 124.832 258.289L98.483 240.137L102.415 232.812C92.5709 226.679 86.0357 227.136 82.505 228.368C78.9744 236.842 76.2883 244.872 76.759 246.52C77.7836 250.106 92.3494 256.752 100.532 259.05C108.715 261.349 123.544 264.173 123.544 264.173C123.544 264.173 128.155 271.331 129.691 271.581Z" fill="#F5F6FA" stroke="#263238" stroke-width="1.04742" stroke-linecap="round" stroke-linejoin="round"/>
<path d="M294.387 243.432C293.265 231.345 287.464 221.417 280.541 217.471L280.319 215.007L262.237 216.682C252.06 217.624 245.04 231.594 246.55 247.877C248.059 264.159 257.529 276.579 267.706 275.568L285.789 273.893L285.553 271.428C291.645 266.333 295.508 255.519 294.387 243.432Z" fill="#263238" stroke="#263238" stroke-width="1.04742" stroke-linecap="round" stroke-linejoin="round"/>
<path d="M302.57 242.712C301.393 230.016 295.647 219.562 288.322 215.408L288.073 212.819L280.333 213.539C269.644 214.536 262.265 229.199 263.843 246.312C265.421 263.425 275.39 276.482 286.079 275.485L293.819 274.765L293.584 272.176C299.98 266.721 303.747 255.367 302.57 242.712Z" fill="#F5F6FA" stroke="#263238" stroke-width="1.04742" stroke-linecap="round" stroke-linejoin="round"/>
<path d="M310.323 241.951C311.916 259.064 304.536 273.727 293.833 274.724C283.13 275.72 273.175 262.65 271.555 245.551C269.935 228.451 277.343 213.705 288.032 212.778C298.72 211.85 308.717 224.851 310.323 241.951Z" fill="#F5F6FA" stroke="#263238" stroke-width="1.04742" stroke-linecap="round" stroke-linejoin="round"/>
<path d="M318.631 231.954L288.599 234.723C288.178 234.763 287.753 234.72 287.349 234.595C286.945 234.47 286.569 234.267 286.244 233.997C285.918 233.727 285.649 233.395 285.452 233.021C285.256 232.646 285.134 232.237 285.096 231.816C285.056 231.394 285.1 230.97 285.224 230.565C285.349 230.161 285.552 229.785 285.822 229.46C286.093 229.135 286.424 228.866 286.799 228.669C287.173 228.472 287.583 228.351 288.004 228.313L318.035 225.543C318.456 225.503 318.881 225.547 319.286 225.672C319.69 225.796 320.065 225.999 320.391 226.269C320.716 226.54 320.985 226.871 321.182 227.246C321.379 227.62 321.5 228.03 321.538 228.451C321.578 228.872 321.535 229.297 321.41 229.701C321.286 230.105 321.082 230.481 320.812 230.806C320.542 231.132 320.21 231.401 319.836 231.598C319.462 231.795 319.052 231.916 318.631 231.954Z" fill="#737373" stroke="#263238" stroke-width="1.04742" stroke-linecap="round" stroke-linejoin="round"/>
<path d="M320.86 255.755L290.828 258.524C290.407 258.564 289.982 258.52 289.578 258.396C289.174 258.271 288.798 258.068 288.473 257.798C288.147 257.528 287.879 257.196 287.682 256.822C287.485 256.447 287.364 256.038 287.325 255.616C287.285 255.195 287.329 254.77 287.454 254.366C287.578 253.962 287.781 253.586 288.052 253.261C288.322 252.935 288.654 252.666 289.028 252.47C289.402 252.273 289.812 252.152 290.233 252.113L320.265 249.344C321.113 249.271 321.957 249.535 322.613 250.079C323.268 250.623 323.683 251.404 323.768 252.252C323.808 252.673 323.764 253.098 323.639 253.502C323.515 253.906 323.312 254.282 323.041 254.607C322.771 254.933 322.439 255.202 322.065 255.399C321.691 255.596 321.281 255.717 320.86 255.755Z" fill="#737373" stroke="#263238" stroke-width="1.04742" stroke-linecap="round" stroke-linejoin="round"/>
<path d="M224.576 215.478C224.576 215.478 217.349 216.862 213.929 221.016C210.509 225.17 203.489 257.223 205.109 260.905C206.729 264.588 232.69 269.213 240.707 269.878C247.153 270.133 253.61 269.845 260.008 269.019C260.008 269.019 266.931 268.839 268.828 268.521C270.724 268.202 274.214 266.333 274.269 265.627C274.324 264.921 273.978 263.232 271.389 263.024C268.8 262.816 263.248 260.961 262.542 260.905C264.205 260.468 265.893 260.126 267.595 259.881C267.595 259.881 267.955 258.496 265.103 258.496C262.251 258.496 259.662 258.302 258.582 259.881C257.809 261.11 257.151 262.408 256.616 263.758C256.616 263.758 240.624 264.879 231.942 260.642C223.261 256.406 220.52 254.993 220.52 254.993L226.75 230.071" fill="#92E3A9"/>
<path d="M224.576 215.478C224.576 215.478 217.349 216.862 213.929 221.016C210.509 225.17 203.489 257.223 205.109 260.905C206.729 264.588 232.69 269.213 240.707 269.878C247.153 270.133 253.609 269.845 260.008 269.019C260.008 269.019 266.931 268.839 268.828 268.521C270.724 268.202 274.214 266.333 274.269 265.627C274.324 264.921 273.978 263.232 271.389 263.024C268.8 262.816 263.248 260.961 262.542 260.905C264.205 260.468 265.893 260.126 267.595 259.881C267.595 259.881 267.955 258.496 265.103 258.496C262.251 258.496 259.662 258.302 258.582 259.881C257.809 261.11 257.151 262.408 256.616 263.758C256.616 263.758 240.624 264.879 231.942 260.642C223.261 256.406 220.52 254.993 220.52 254.993L226.75 230.071" stroke="#263238" stroke-width="1.04742" stroke-linecap="round" stroke-linejoin="round"/>
<path d="M268.786 268.562C270.711 268.244 274.172 266.375 274.227 265.668C274.283 264.962 273.937 263.273 271.347 263.065C268.758 262.858 263.206 261.002 262.5 260.947C264.164 260.509 265.851 260.167 267.554 259.922C267.554 259.922 267.914 258.538 265.061 258.538C262.209 258.538 259.62 258.344 258.54 259.922C257.768 261.152 257.11 262.45 256.574 263.799C256.574 263.799 240.582 264.921 231.901 260.684C223.22 256.447 220.478 255.035 220.478 255.035L224.272 239.805C219.333 237.772 214.122 236.48 208.806 235.969C206.217 246.409 204.099 258.704 205.068 260.892C206.674 264.575 232.649 269.199 240.665 269.864C247.112 270.119 253.568 269.832 259.966 269.005C259.966 269.005 266.903 268.881 268.786 268.562Z" fill="#F5F6FA" stroke="#263238" stroke-width="1.04742" stroke-linecap="round" stroke-linejoin="round"/>
<path d="M151.845 281.813C151.845 281.813 146.5 285.814 147.317 288.459C148.134 291.103 152.592 285.689 153.7 284.097C154.808 282.505 153.935 280.096 151.845 281.813Z" fill="#F5F6FA" stroke="#263238" stroke-width="1.04742" stroke-linecap="round" stroke-linejoin="round"/>
<path d="M152.897 285.399C152.897 285.399 147.566 289.4 148.369 292.045C149.172 294.689 153.658 289.275 154.752 287.683C155.846 286.091 154.988 283.654 152.897 285.399Z" fill="#F5F6FA" stroke="#263238" stroke-width="1.04742" stroke-linecap="round" stroke-linejoin="round"/>
<path d="M155.431 287.725C155.431 287.725 150.1 291.726 150.917 294.371C151.734 297.015 156.192 291.602 157.3 290.009C158.407 288.417 157.535 285.98 155.431 287.725Z" fill="#F5F6FA" stroke="#263238" stroke-width="1.04742" stroke-linecap="round" stroke-linejoin="round"/>
<path d="M157.521 289.608C157.521 289.608 152.911 292.571 153.686 294.758C154.461 296.946 158.269 292.806 159.224 291.532C160.18 290.258 159.404 288.209 157.521 289.608Z" fill="#F5F6FA" stroke="#263238" stroke-width="1.04742" stroke-linecap="round" stroke-linejoin="round"/>
</svg>
