<svg width="539" height="478" viewBox="0 0 539 478" fill="none" xmlns="http://www.w3.org/2000/svg">
<path d="M468.234 393.584C468.234 393.584 464.067 375.874 467.193 360.236C470.318 344.598 477.61 355.028 485.956 344.598C494.302 334.169 490.122 314.376 499.498 306.03C508.873 297.685 522.428 298.738 525.553 283.1C528.678 267.462 530.774 254.913 537.024 257.045C543.274 259.178 531.816 277.88 531.816 289.363C531.816 300.846 538.066 308.114 533.899 319.585C529.732 331.056 512.011 326.877 512.011 340.419C512.011 353.962 519.303 367.516 513.052 376.904C506.802 386.292 490.123 388.363 488.039 393.571C485.956 398.78 480.686 408.168 475.526 408.168C470.367 408.168 468.234 393.584 468.234 393.584Z" fill="#BFBFBF"/>
<path d="M464.888 393.755C465.93 390.63 463.847 363.533 454.471 358.325C445.096 353.116 434.666 355.199 429.458 345.812C424.249 336.424 424.237 332.269 419.028 331.228C413.82 330.186 388.806 326.007 391.932 331.228C395.057 336.449 413.82 328.09 413.82 338.52C413.82 348.949 411.737 365.617 417.987 369.783C424.237 373.95 440.917 372.909 439.875 382.296C438.833 391.684 435.708 394.797 440.917 397.934C446.125 401.072 460.722 414.602 462.805 404.185L464.888 393.755Z" fill="#BFBFBF"/>
<path d="M476.445 416.759C476.445 416.759 471.543 401.574 484.939 373.656C498.334 345.738 508.003 324.499 514.07 313.604" stroke="#263238" stroke-width="1.25654" stroke-miterlimit="10"/>
<path d="M465.514 419.185C465.514 419.185 463.7 411.893 457.621 391.868C451.542 371.842 444.275 366.376 433.956 359.697C423.637 353.018 423.036 342.098 421.21 339.059" stroke="#263238" stroke-width="1.25654" stroke-miterlimit="10"/>
<path d="M491.005 408.253C491.005 408.253 492.23 397.334 501.937 394.294C511.643 391.255 520.749 392.481 522.575 385.801C524.401 379.122 524.389 372.443 528.641 368.803C532.894 365.163 538.348 363.337 538.961 365.126C539.573 366.916 532.833 368.166 532.833 374.232C532.833 380.299 541.939 395.471 528.592 401.537C515.246 407.604 504.314 402.15 499.461 406.44C494.608 410.729 491.569 413.719 491.569 413.719L491.005 408.253Z" fill="#BFBFBF"/>
<path d="M489.792 419.185C489.792 419.185 494.044 403.4 504.363 399.76C514.682 396.12 526.166 404.013 531.068 396.721C535.97 389.429 532.294 382.161 531.669 377.308" stroke="#263238" stroke-width="1.25654" stroke-miterlimit="10"/>
<path d="M496.618 416.759H458.994C458.595 416.757 458.2 416.834 457.831 416.986C457.463 417.137 457.128 417.36 456.845 417.641C456.563 417.922 456.339 418.256 456.186 418.625C456.033 418.993 455.954 419.387 455.954 419.786C455.954 420.592 456.274 421.365 456.844 421.935C457.414 422.505 458.188 422.825 458.994 422.825H459.3L462.229 430.509C462.457 431.104 462.86 431.616 463.386 431.977C463.911 432.338 464.533 432.532 465.17 432.532H490.453C491.09 432.53 491.712 432.336 492.237 431.975C492.762 431.614 493.165 431.103 493.395 430.509L496.324 422.825H496.618C497.424 422.825 498.197 422.505 498.767 421.935C499.337 421.365 499.657 420.592 499.657 419.786C499.657 419.387 499.579 418.993 499.426 418.625C499.273 418.256 499.049 417.922 498.766 417.641C498.484 417.36 498.149 417.137 497.78 416.986C497.411 416.834 497.016 416.757 496.618 416.759Z" fill="#263238"/>
<path d="M509.278 243.92H329.257C326.056 243.92 323.46 246.515 323.46 249.717V272.487C323.46 275.689 326.056 278.284 329.257 278.284H509.278C512.479 278.284 515.075 275.689 515.075 272.487V249.717C515.075 246.515 512.479 243.92 509.278 243.92Z" fill="#92E3A9"/>
<path d="M337.873 254.876V270.318H336.206V254.876H337.873Z" fill="#263238"/>
<path d="M341.611 270.318H340.067V254.876H342.248L345.814 266.041V254.876H347.346V270.318H345.557L341.611 257.83V270.318Z" fill="#263238"/>
<path d="M351.795 270.318V256.494H348.952V254.925H356.366V256.494H353.523V270.367L351.795 270.318Z" fill="#263238"/>
<path d="M363.487 261.715V263.259H359.712V268.749H364.394V270.318H358.045V254.876H364.394V256.494H359.761V261.764L363.487 261.715Z" fill="#263238"/>
<path d="M369.823 254.876C372.274 254.876 373.267 256.102 373.267 258.406V259.631C373.267 261.335 372.666 262.389 371.342 262.818C372.752 263.234 373.279 264.386 373.279 266.041V268.492C373.227 269.126 373.337 269.762 373.597 270.342H371.845C371.605 269.748 371.508 269.106 371.563 268.467V266.016C371.563 264.276 370.742 263.725 369.308 263.725H368.082V270.318H366.367V254.876H369.823ZM369.382 262.156C370.742 262.156 371.563 261.715 371.563 260.036V258.553C371.563 257.168 371.061 256.445 369.774 256.445H368.07V262.156H369.382Z" fill="#263238"/>
<path d="M377.029 270.318H375.485V254.876H377.666L381.245 266.041V254.876H382.777V270.318H381L377.041 257.83L377.029 270.318Z" fill="#263238"/>
<path d="M386.711 267.205L386.123 270.318H384.529L387.483 254.876H389.934L392.888 270.318H391.172L390.571 267.205H386.711ZM386.931 265.734H390.375L388.635 256.812L386.931 265.734Z" fill="#263238"/>
<path d="M394.726 270.318V254.876H396.442V268.749H400.854V270.318H394.726Z" fill="#263238"/>
<path d="M413.146 258.577V258.945H411.516V258.442C411.516 257.058 410.989 256.236 409.751 256.236C408.513 256.236 407.986 257.058 407.986 258.418C407.986 261.886 413.171 262.217 413.171 266.556C413.171 268.896 412.043 270.428 409.678 270.428C407.312 270.428 406.222 268.896 406.222 266.556V265.685H407.827V266.654C407.827 268.038 408.403 268.86 409.641 268.86C410.879 268.86 411.443 268.038 411.443 266.654C411.443 263.21 406.283 262.879 406.283 258.528C406.283 256.151 407.386 254.668 409.702 254.668C412.019 254.668 413.146 256.236 413.146 258.577Z" fill="#263238"/>
<path d="M420.597 261.715V263.259H416.835V268.749H421.467V270.318H415.107V254.876H421.467V256.494H416.835V261.764L420.597 261.715Z" fill="#263238"/>
<path d="M426.896 254.876C429.348 254.876 430.34 256.102 430.34 258.406V259.631C430.34 261.335 429.74 262.389 428.416 262.818C429.826 263.234 430.365 264.386 430.365 266.041V268.492C430.309 269.125 430.414 269.761 430.671 270.342H428.931C428.679 269.751 428.578 269.107 428.637 268.467V266.016C428.637 264.276 427.828 263.725 426.394 263.725H425.168V270.318H423.44V254.876H426.896ZM426.455 262.156C427.828 262.156 428.637 261.715 428.637 260.036V258.553C428.637 257.168 428.134 256.445 426.847 256.445H425.181V262.156H426.455Z" fill="#263238"/>
<path d="M433.882 254.876L436.395 268.357L438.846 254.876H440.427L437.534 270.318H434.997L432.093 254.876H433.882Z" fill="#263238"/>
<path d="M447.731 261.715V263.259H443.956V268.749H448.601V270.318H442.24V254.876H448.601V256.494H443.956V261.764L447.731 261.715Z" fill="#263238"/>
<path d="M454.067 254.876C456.518 254.876 457.511 256.102 457.511 258.406V259.631C457.511 261.335 456.91 262.389 455.587 262.818C456.996 263.234 457.535 264.386 457.535 266.041V268.492C457.479 269.125 457.585 269.761 457.842 270.342H456.101C455.85 269.751 455.749 269.107 455.807 268.467V266.016C455.807 264.276 454.986 263.725 453.552 263.725H452.327V270.318H450.611V254.876H454.067ZM453.626 262.156C454.986 262.156 455.807 261.715 455.807 260.036V258.553C455.807 257.168 455.305 256.445 454.018 256.445H452.339V262.156H453.626Z" fill="#263238"/>
<path d="M469.105 261.715V263.259H465.342V268.749H469.975V270.318H463.663V254.876H470.024V256.494H465.391V261.764L469.105 261.715Z" fill="#263238"/>
<path d="M475.44 254.876C477.892 254.876 478.884 256.102 478.884 258.406V259.631C478.884 261.335 478.284 262.389 476.96 262.818C478.37 263.234 478.909 264.386 478.909 266.041V268.492C478.859 269.125 478.964 269.76 479.215 270.342H477.475C477.223 269.751 477.122 269.107 477.181 268.467V266.016C477.181 264.276 476.372 263.725 474.938 263.725H473.713V270.318H471.997V254.876H475.44ZM474.999 262.156C476.372 262.156 477.181 261.715 477.181 260.036V258.553C477.181 257.168 476.678 256.445 475.391 256.445H473.725V262.156H474.999Z" fill="#263238"/>
<path d="M484.571 254.876C487.022 254.876 488.015 256.102 488.015 258.406V259.631C488.015 261.335 487.414 262.389 486.09 262.818C487.512 263.234 488.039 264.386 488.039 266.041V268.492C487.99 269.125 488.095 269.76 488.346 270.342H486.605C486.36 269.75 486.259 269.107 486.311 268.467V266.016C486.311 264.276 485.502 263.725 484.068 263.725H482.843V270.318H481.115V254.876H484.571ZM484.13 262.156C485.502 262.156 486.311 261.715 486.311 260.036V258.553C486.311 257.168 485.809 256.445 484.534 256.445H482.855V262.156H484.13Z" fill="#263238"/>
<path d="M490.135 258.602C490.135 256.236 491.299 254.717 493.664 254.717C496.03 254.717 497.218 256.236 497.218 258.602V266.592C497.218 268.933 495.993 270.477 493.664 270.477C491.336 270.477 490.135 268.933 490.135 266.592V258.602ZM491.826 266.678C491.826 268.087 492.427 268.909 493.664 268.909C494.902 268.909 495.49 268.087 495.49 266.678V258.516C495.49 257.119 494.914 256.285 493.664 256.285C492.414 256.285 491.826 257.119 491.826 258.516V266.678Z" fill="#263238"/>
<path d="M502.733 254.876C505.184 254.876 506.165 256.102 506.165 258.406V259.631C506.165 261.335 505.577 262.389 504.253 262.818C505.662 263.234 506.189 264.386 506.189 266.041V268.492C506.137 269.126 506.247 269.762 506.508 270.342H504.755C504.516 269.748 504.419 269.106 504.474 268.467V266.016C504.474 264.276 503.652 263.725 502.219 263.725H500.993V270.318H499.277V254.876H502.733ZM502.292 262.156C503.652 262.156 504.474 261.715 504.474 260.036V258.553C504.474 257.168 503.959 256.445 502.684 256.445H501.005V262.156H502.292Z" fill="#263238"/>
<path d="M365.766 207.472V214.641C365.766 220.156 368.217 222.142 372.053 222.142C375.889 222.142 378.34 220.156 378.34 214.641V197.668C378.34 192.153 375.889 190.057 372.053 190.057C368.217 190.057 365.766 192.153 365.766 197.668V199.984H354.295L356.501 155.202H388.488V166.232H367.421L366.428 184.615C367.511 182.8 369.07 181.316 370.937 180.324C372.804 179.332 374.906 178.871 377.017 178.99C385.951 178.99 390.498 185.277 390.498 196.638V213.796C390.498 226.149 384.37 233.208 372.409 233.208C360.447 233.208 354.32 226.149 354.32 213.796V207.472H365.766Z" fill="#263238"/>
<path d="M399.738 173.745C399.738 161.391 406.246 154.332 418.122 154.332C429.997 154.332 436.505 161.391 436.505 173.745V213.894C436.505 226.247 429.997 233.306 418.122 233.306C406.246 233.306 399.738 226.247 399.738 213.894V173.745ZM411.871 214.666C411.871 220.181 414.322 222.277 418.158 222.277C421.994 222.277 424.445 220.181 424.445 214.666V172.997C424.445 167.482 421.994 165.387 418.158 165.387C414.322 165.387 411.871 167.482 411.871 172.997V214.666Z" fill="#263238"/>
<path d="M445.623 173.745C445.623 161.391 452.131 154.332 464.006 154.332C475.882 154.332 482.389 161.391 482.389 173.745V213.894C482.389 226.247 475.882 233.306 464.006 233.306C452.131 233.306 445.623 226.247 445.623 213.894V173.745ZM457.756 214.666C457.756 220.181 460.207 222.277 464.043 222.277C467.879 222.277 470.33 220.181 470.33 214.666V172.997C470.33 167.482 467.879 165.387 464.043 165.387C460.207 165.387 457.756 167.482 457.756 172.997V214.666Z" fill="#263238"/>
<path d="M140.118 351.523C147.77 350.379 155.563 352.319 161.786 356.915C171.799 364.612 179.409 384.184 183.343 411.587C187.277 438.99 189.471 450.804 212.597 454.702C235.723 458.599 291.143 457.018 324.245 456.246C357.347 455.474 355.815 424.676 328.105 421.6C300.395 418.523 281.203 425.914 252.293 419.516C223.382 413.119 278.029 404.65 319.624 410.815C361.219 416.979 379.676 418.511 402.018 416.207" stroke="#263238" stroke-width="2.51308" stroke-linecap="round" stroke-linejoin="round"/>
<path d="M140.118 310.54C140.118 310.54 162.558 310.712 168.71 333.826C174.863 356.94 177.179 389.27 177.951 414.712C178.723 440.154 179.495 461.687 208.749 467.84C238.003 473.992 317.32 471.688 338.878 467.067C360.435 462.447 384.309 441.662 366.599 437.041C348.89 432.421 324.245 437.041 333.51 443.169C342.775 449.297 367.396 447.79 396.65 443.941" stroke="#263238" stroke-width="2.51308" stroke-linecap="round" stroke-linejoin="round"/>
<path d="M144.726 390.924C144.726 390.924 158.44 389.699 163.796 405.226C169.152 420.754 162.57 424.296 165.585 432.041C168.6 439.787 187.376 432.556 187.29 438.978C187.204 444.836 179.777 446.49 136.981 443.966C81.0225 440.669 43.9987 449.334 46.9768 454.702C49.9549 460.07 94.6628 455.927 83.927 464.236C73.1912 472.546 46.9768 463.011 26.7062 462.447C6.43565 461.883 2.85706 466.614 2.85706 466.614" stroke="#263238" stroke-width="2.51308" stroke-linecap="round" stroke-linejoin="round"/>
<path d="M146.381 171.992H11.6442C9.23461 171.992 7.28125 173.946 7.28125 176.355V431.612C7.28125 434.022 9.23461 435.975 11.6442 435.975H146.381C148.79 435.975 150.744 434.022 150.744 431.612V176.355C150.744 173.946 148.79 171.992 146.381 171.992Z" fill="#263238" stroke="#263238" stroke-width="1.25654" stroke-linecap="round" stroke-linejoin="round"/>
<path d="M147.251 211.528H10.7128V312.648H147.251V211.528Z" fill="#616161"/>
<path d="M147.251 329.083H10.7128V430.203H147.251V329.083Z" fill="#616161"/>
<path d="M130.314 341.4H52.7981V420.448H130.314V341.4Z" fill="#92E3A9" stroke="#263238" stroke-width="1.25654" stroke-linecap="round" stroke-linejoin="round"/>
<path d="M130.314 222.828H52.7981V242.339H130.314V222.828Z" fill="#92E3A9" stroke="#263238" stroke-width="1.25654" stroke-linecap="round" stroke-linejoin="round"/>
<path d="M130.314 260.293H52.7981V279.804H130.314V260.293Z" fill="#92E3A9" stroke="#263238" stroke-width="1.25654" stroke-linecap="round" stroke-linejoin="round"/>
<path d="M127.716 213.796L126.221 217.901H57.5532L56.058 213.796H41.5107V231.836H56.058L57.5532 227.73H126.221L127.716 231.836H144.187V213.796H127.716Z" fill="#263238" stroke="#263238" stroke-width="1.25654" stroke-linecap="round" stroke-linejoin="round"/>
<path d="M127.716 233.478L126.221 237.571H57.5532L56.058 233.478H41.5107V251.506H56.058L57.5532 247.412H126.221L127.716 251.506H144.187V233.478H127.716Z" fill="#263238" stroke="#263238" stroke-width="1.25654" stroke-linecap="round" stroke-linejoin="round"/>
<path d="M127.716 253.148L126.221 257.254H57.5532L56.058 253.148H41.5107V271.188H56.058L57.5532 267.083H126.221L127.716 271.188H144.187V253.148H127.716Z" fill="#263238" stroke="#263238" stroke-width="1.25654" stroke-linecap="round" stroke-linejoin="round"/>
<path d="M127.716 272.818L126.221 276.924H57.5532L56.058 272.818H41.5107V290.858H56.058L57.5532 286.765H126.221L127.716 290.858H144.187V272.818H127.716Z" fill="#263238" stroke="#263238" stroke-width="1.25654" stroke-linecap="round" stroke-linejoin="round"/>
<path d="M127.716 292.5L126.221 296.594H57.5532L56.058 292.5H41.5107V310.54H56.058L57.5532 306.435H126.221L127.716 310.54H144.187V292.5H127.716Z" fill="#263238" stroke="#263238" stroke-width="1.25654" stroke-linecap="round" stroke-linejoin="round"/>
<path d="M127.716 331.853L126.221 335.946H57.5532L56.058 331.853H41.5107V349.881H56.058L57.5532 345.787H126.221L127.716 349.881H144.187V331.853H127.716Z" fill="#263238" stroke="#263238" stroke-width="1.25654" stroke-linecap="round" stroke-linejoin="round"/>
<path d="M127.716 351.523L126.221 355.628H57.5532L56.058 351.523H41.5107V369.563H56.058L57.5532 365.47H126.221L127.716 369.563H144.187V351.523H127.716Z" fill="#263238" stroke="#263238" stroke-width="1.25654" stroke-linecap="round" stroke-linejoin="round"/>
<path d="M127.716 371.205L126.221 375.298H57.5532L56.058 371.205H41.5107V389.233H56.058L57.5532 385.14H126.221L127.716 389.233H144.187V371.205H127.716Z" fill="#263238" stroke="#263238" stroke-width="1.25654" stroke-linecap="round" stroke-linejoin="round"/>
<path d="M127.716 390.875L126.221 394.981H57.5532L56.058 390.875H41.5107V408.915H56.058L57.5532 404.81H126.221L127.716 408.915H144.187V390.875H127.716Z" fill="#263238" stroke="#263238" stroke-width="1.25654" stroke-linecap="round" stroke-linejoin="round"/>
<path d="M127.716 410.557L126.221 414.651H57.5532L56.058 410.557H41.5107V428.585H56.058L57.5532 424.492H126.221L127.716 428.585H144.187V410.557H127.716Z" fill="#263238" stroke="#263238" stroke-width="1.25654" stroke-linecap="round" stroke-linejoin="round"/>
<path d="M144.163 315.798H13.458V328.115H144.163V315.798Z" fill="white"/>
<path d="M24.4879 321.828C24.4879 321.147 24.2859 320.481 23.9075 319.914C23.5291 319.348 22.9913 318.907 22.362 318.646C21.7327 318.385 21.0403 318.317 20.3723 318.45C19.7043 318.583 19.0906 318.911 18.609 319.393C18.1274 319.874 17.7994 320.488 17.6665 321.156C17.5336 321.824 17.6018 322.516 17.8625 323.146C18.1231 323.775 18.5645 324.313 19.1309 324.691C19.6972 325.07 20.363 325.272 21.0441 325.272C21.4964 325.272 21.9442 325.182 22.362 325.009C22.7798 324.836 23.1595 324.583 23.4793 324.263C23.799 323.943 24.0527 323.563 24.2258 323.146C24.3988 322.728 24.4879 322.28 24.4879 321.828Z" fill="#263238" stroke="#263238" stroke-width="1.25654" stroke-linecap="round" stroke-linejoin="round"/>
<path d="M32.5153 325.272C34.4173 325.272 35.9591 323.73 35.9591 321.828C35.9591 319.926 34.4173 318.384 32.5153 318.384C30.6134 318.384 29.0715 319.926 29.0715 321.828C29.0715 323.73 30.6134 325.272 32.5153 325.272Z" fill="#92E3A9" stroke="#263238" stroke-width="1.25654" stroke-linecap="round" stroke-linejoin="round"/>
<path d="M47.4302 321.828C47.4302 321.147 47.2282 320.481 46.8498 319.914C46.4714 319.348 45.9335 318.907 45.3043 318.646C44.675 318.385 43.9826 318.317 43.3145 318.45C42.6465 318.583 42.0329 318.911 41.5513 319.393C41.0696 319.874 40.7417 320.488 40.6088 321.156C40.4759 321.824 40.5441 322.516 40.8047 323.146C41.0654 323.775 41.5068 324.313 42.0731 324.691C42.6395 325.07 43.3053 325.272 43.9864 325.272C44.8997 325.272 45.7757 324.909 46.4215 324.263C47.0674 323.617 47.4302 322.741 47.4302 321.828Z" fill="#263238" stroke="#263238" stroke-width="1.25654" stroke-linecap="round" stroke-linejoin="round"/>
<path d="M144.163 197.741H13.458V210.058H144.163V197.741Z" fill="white"/>
<path d="M24.4879 203.795C24.4879 203.114 24.2859 202.448 23.9075 201.882C23.5291 201.316 22.9913 200.874 22.362 200.614C21.7327 200.353 21.0403 200.285 20.3723 200.418C19.7043 200.551 19.0906 200.879 18.609 201.36C18.1274 201.842 17.7994 202.455 17.6665 203.123C17.5336 203.791 17.6018 204.484 17.8625 205.113C18.1231 205.742 18.5645 206.28 19.1309 206.659C19.6972 207.037 20.363 207.239 21.0441 207.239C21.4964 207.239 21.9442 207.15 22.362 206.977C22.7798 206.804 23.1595 206.55 23.4793 206.23C23.799 205.911 24.0527 205.531 24.2258 205.113C24.3988 204.695 24.4879 204.248 24.4879 203.795Z" fill="white" stroke="#263238" stroke-width="1.25654" stroke-linecap="round" stroke-linejoin="round"/>
<path d="M35.9469 203.795C35.9469 203.114 35.7449 202.448 35.3665 201.882C34.9881 201.316 34.4503 200.874 33.821 200.614C33.1917 200.353 32.4993 200.285 31.8313 200.418C31.1632 200.551 30.5496 200.879 30.068 201.36C29.5864 201.842 29.2584 202.455 29.1255 203.123C28.9926 203.791 29.0608 204.484 29.3215 205.113C29.5821 205.742 30.0235 206.28 30.5899 206.659C31.1562 207.037 31.822 207.239 32.5031 207.239C33.4165 207.239 34.2924 206.876 34.9382 206.23C35.5841 205.585 35.9469 204.709 35.9469 203.795Z" fill="#92E3A9" stroke="#263238" stroke-width="1.25654" stroke-linecap="round" stroke-linejoin="round"/>
<path d="M47.4302 203.795C47.4302 203.114 47.2282 202.448 46.8498 201.882C46.4714 201.316 45.9335 200.874 45.3043 200.614C44.675 200.353 43.9826 200.285 43.3145 200.418C42.6465 200.551 42.0329 200.879 41.5513 201.36C41.0696 201.842 40.7417 202.455 40.6088 203.123C40.4759 203.791 40.5441 204.484 40.8047 205.113C41.0654 205.742 41.5068 206.28 42.0731 206.659C42.6395 207.037 43.3053 207.239 43.9864 207.239C44.8997 207.239 45.7757 206.876 46.4215 206.23C47.0674 205.585 47.4302 204.709 47.4302 203.795Z" fill="white" stroke="#263238" stroke-width="1.25654" stroke-linecap="round" stroke-linejoin="round"/>
<path d="M144.163 181.895H13.458V194.211H144.163V181.895Z" fill="white"/>
<path d="M24.4879 187.924C24.4879 187.243 24.2859 186.578 23.9075 186.011C23.5291 185.445 22.9913 185.003 22.362 184.743C21.7327 184.482 21.0403 184.414 20.3723 184.547C19.7043 184.68 19.0906 185.008 18.609 185.489C18.1274 185.971 17.7994 186.585 17.6665 187.253C17.5336 187.921 17.6018 188.613 17.8625 189.242C18.1231 189.872 18.5645 190.409 19.1309 190.788C19.6972 191.166 20.363 191.368 21.0441 191.368C21.4964 191.368 21.9442 191.279 22.362 191.106C22.7798 190.933 23.1595 190.679 23.4793 190.36C23.799 190.04 24.0527 189.66 24.2258 189.242C24.3988 188.824 24.4879 188.377 24.4879 187.924Z" fill="#92E3A9" stroke="#263238" stroke-width="1.25654" stroke-linecap="round" stroke-linejoin="round"/>
<path d="M35.9469 187.924C35.9469 187.243 35.7449 186.578 35.3665 186.011C34.9881 185.445 34.4503 185.003 33.821 184.743C33.1917 184.482 32.4993 184.414 31.8313 184.547C31.1632 184.68 30.5496 185.008 30.068 185.489C29.5864 185.971 29.2584 186.585 29.1255 187.253C28.9926 187.921 29.0608 188.613 29.3215 189.242C29.5821 189.872 30.0235 190.409 30.5899 190.788C31.1562 191.166 31.822 191.368 32.5031 191.368C33.4165 191.368 34.2924 191.005 34.9382 190.36C35.5841 189.714 35.9469 188.838 35.9469 187.924Z" fill="#263238" stroke="#263238" stroke-width="1.25654" stroke-linecap="round" stroke-linejoin="round"/>
<path d="M47.4302 187.924C47.4302 187.243 47.2282 186.578 46.8498 186.011C46.4714 185.445 45.9335 185.003 45.3043 184.743C44.675 184.482 43.9826 184.414 43.3145 184.547C42.6465 184.68 42.0329 185.008 41.5513 185.489C41.0696 185.971 40.7417 186.585 40.6088 187.253C40.4759 187.921 40.5441 188.613 40.8047 189.242C41.0654 189.872 41.5068 190.409 42.0731 190.788C42.6395 191.166 43.3053 191.368 43.9864 191.368C44.8997 191.368 45.7757 191.005 46.4215 190.36C47.0674 189.714 47.4302 188.838 47.4302 187.924Z" fill="#263238" stroke="#263238" stroke-width="1.25654" stroke-linecap="round" stroke-linejoin="round"/>
<path d="M35.3463 214.102H13.7889V223.343H35.3463V214.102Z" fill="#263238" stroke="#263238" stroke-width="1.25654" stroke-linecap="round" stroke-linejoin="round"/>
<path d="M35.3463 234.115H13.7889V243.356H35.3463V234.115Z" fill="#263238" stroke="#263238" stroke-width="1.25654" stroke-linecap="round" stroke-linejoin="round"/>
<path d="M35.3463 254.141H13.7889V263.381H35.3463V254.141Z" fill="#92E3A9" stroke="#263238" stroke-width="1.25654" stroke-linecap="round" stroke-linejoin="round"/>
<path d="M35.3463 274.154H13.7889V283.395H35.3463V274.154Z" fill="#92E3A9" stroke="#263238" stroke-width="1.25654" stroke-linecap="round" stroke-linejoin="round"/>
<path d="M35.3463 294.179H13.7889V303.42H35.3463V294.179Z" fill="#92E3A9" stroke="#263238" stroke-width="1.25654" stroke-linecap="round" stroke-linejoin="round"/>
<path d="M35.3463 331.644H13.7889V340.885H35.3463V331.644Z" fill="#92E3A9" stroke="#263238" stroke-width="1.25654" stroke-linecap="round" stroke-linejoin="round"/>
<path d="M35.3463 351.67H13.7889V360.91H35.3463V351.67Z" fill="#263238" stroke="#263238" stroke-width="1.25654" stroke-linecap="round" stroke-linejoin="round"/>
<path d="M35.3463 371.683H13.7889V380.924H35.3463V371.683Z" fill="#92E3A9" stroke="#263238" stroke-width="1.25654" stroke-linecap="round" stroke-linejoin="round"/>
<path d="M35.3463 391.708H13.7889V400.949H35.3463V391.708Z" fill="#263238" stroke="#263238" stroke-width="1.25654" stroke-linecap="round" stroke-linejoin="round"/>
<path d="M35.3463 411.722H13.7889V420.962H35.3463V411.722Z" fill="#92E3A9" stroke="#263238" stroke-width="1.25654" stroke-linecap="round" stroke-linejoin="round"/>
<path d="M215.906 115.997C215.906 115.997 195.244 121.255 189.508 129.11C183.772 136.966 160.524 190.388 160.524 190.388C160.524 190.388 152.987 198.844 161.137 206.994C169.286 215.144 185.586 218.159 191.628 210.916C197.67 203.673 206.408 169.553 207.622 165.632C208.835 161.71 217.879 128.498 218.786 126.696C219.693 124.895 220.563 117.076 215.906 115.997Z" fill="#BDBDBD" stroke="#263238" stroke-width="1.25654" stroke-linecap="round" stroke-linejoin="round"/>
<path d="M215.906 115.997C215.906 115.997 195.244 121.255 189.508 129.11C186.04 133.853 176.162 155.3 168.894 171.49C172.424 170.779 187.13 168.598 204.349 177.274C206.004 171.49 207.229 166.919 207.622 165.632C208.847 161.71 217.879 128.498 218.786 126.696C219.693 124.895 220.563 117.076 215.906 115.997Z" fill="#263238" stroke="#263238" stroke-width="1.25654" stroke-linecap="round" stroke-linejoin="round"/>
<path d="M276.448 46.3982C280.003 48.4043 282.849 51.4608 284.598 55.1486C287.049 60.8842 287.049 69.6346 287.049 69.6346C287.049 69.6346 325.691 68.409 340.483 68.1271C355.276 67.8453 365.239 71.4484 365.533 78.6914C365.828 85.9343 362.519 100.126 354.369 105.555C346.219 110.985 320.862 102.234 307.884 98.6188C294.905 95.0034 290.371 96.1677 281.02 94.9421C271.669 93.7166 268.936 90.1135 267.428 84.3779C265.921 78.6423 268.936 67.7717 268.936 59.0213C268.936 50.2709 267.698 44.5844 276.448 46.3982Z" fill="#BDBDBD" stroke="#263238" stroke-width="1.25654" stroke-linecap="round" stroke-linejoin="round"/>
<path d="M332.897 83.52C332.897 83.52 327.468 97.4055 317.504 104.955C310.359 110.372 300.714 113.46 295.849 114.759C278.434 109.857 253.849 107.553 239.474 110.739C239.474 110.739 219.399 115.544 215.906 115.985C212.413 116.426 204.117 144.356 202.364 163.561C200.611 182.765 206.298 230.353 206.298 233.846C206.298 237.339 208.479 295.405 211.972 311.558C215.465 327.71 219.399 349.55 219.828 352.589C220.257 355.628 223.321 378.326 223.321 385.765C223.321 393.204 219.779 411.097 219.779 411.097C219.779 411.097 204.068 421.575 197.952 427.678C191.837 433.782 202.45 440.228 210.208 441.65C223.37 444.101 239.008 431.171 239.008 431.171L256.545 424.198C261.19 422.335 262.563 417.347 262.673 412.874L263.482 380.544C266.227 391.982 268.482 403.539 270.247 415.215C270.958 419.994 271.693 425.019 274.573 428.879C276.172 431.096 278.239 432.932 280.627 434.259C282.368 435.068 284.218 434.897 285.971 435.902C289.194 437.765 290.518 441.784 293.643 443.807C300.372 447.787 308.097 449.764 315.911 449.505C315.911 449.505 333.363 450.388 334.294 440.779C335.226 431.171 311.585 415.46 311.585 415.46C311.585 415.46 308.092 351.731 305.457 330.774C302.822 309.817 295.849 275.772 295.849 260.918C295.849 246.064 302.834 176.22 302.834 176.22C302.834 176.22 303.545 174.382 304.636 171.392L305.788 170.754C315.752 165.019 343.523 142.677 352.579 128.485C361.256 114.906 364.394 89.4272 364.639 81.9758" fill="#BDBDBD"/>
<path d="M332.897 83.52C332.897 83.52 327.468 97.4055 317.504 104.955C310.359 110.372 300.714 113.46 295.849 114.759C278.434 109.857 253.849 107.553 239.474 110.739C239.474 110.739 219.399 115.544 215.906 115.985C212.413 116.426 204.117 144.356 202.364 163.561C200.611 182.765 206.298 230.353 206.298 233.846C206.298 237.339 208.479 295.405 211.972 311.558C215.465 327.71 219.399 349.55 219.828 352.589C220.257 355.628 223.321 378.326 223.321 385.765C223.321 393.204 219.779 411.097 219.779 411.097C219.779 411.097 204.068 421.575 197.952 427.678C191.837 433.782 202.45 440.228 210.208 441.65C223.37 444.101 239.008 431.171 239.008 431.171L256.545 424.198C261.19 422.335 262.563 417.347 262.673 412.874L263.482 380.544C266.227 391.982 268.482 403.539 270.247 415.215C270.958 419.994 271.693 425.019 274.573 428.879C276.172 431.096 278.239 432.932 280.627 434.259C282.368 435.068 284.218 434.897 285.971 435.902C289.194 437.765 290.518 441.784 293.643 443.807C300.372 447.787 308.097 449.764 315.911 449.505C315.911 449.505 333.363 450.388 334.294 440.779C335.226 431.171 311.585 415.46 311.585 415.46C311.585 415.46 308.092 351.731 305.457 330.774C302.822 309.817 295.849 275.772 295.849 260.918C295.849 246.064 302.834 176.22 302.834 176.22C302.834 176.22 303.545 174.382 304.636 171.392L305.788 170.754C315.752 165.019 343.523 142.677 352.579 128.485C361.256 114.906 364.394 89.4272 364.639 81.9758" stroke="#263238" stroke-width="1.25654" stroke-linecap="round" stroke-linejoin="round"/>
<path d="M334.208 440.779C335.079 431.171 311.499 415.46 311.499 415.46C311.499 415.46 311.229 410.557 310.788 403.02C297.112 406.316 283.09 407.962 269.022 407.922C269.438 410.374 269.847 412.825 270.247 415.276C270.958 420.055 271.693 425.08 274.573 428.941C276.172 431.157 278.239 432.994 280.628 434.321C282.368 435.13 284.218 434.958 285.971 435.963C289.194 437.826 290.518 441.846 293.643 443.868C300.372 447.848 308.097 449.825 315.911 449.567C315.911 449.567 333.326 450.388 334.208 440.779Z" fill="#263238" stroke="#263238" stroke-width="1.25654" stroke-linecap="round" stroke-linejoin="round"/>
<path d="M256.545 424.198C261.19 422.335 262.563 417.347 262.673 412.874C262.673 411.182 262.759 409.491 262.796 407.8C248.86 407.328 235.016 405.348 221.507 401.893C220.674 406.991 219.865 411.097 219.865 411.097C219.865 411.097 204.153 421.575 198.038 427.678C191.922 433.782 202.535 440.228 210.293 441.65C223.456 444.101 239.094 431.171 239.094 431.171L256.545 424.198Z" fill="#263238" stroke="#263238" stroke-width="1.25654" stroke-linecap="round" stroke-linejoin="round"/>
<path d="M334.208 440.779C334.208 440.645 334.208 440.498 334.208 440.35C330.351 443.11 325.895 444.916 321.205 445.62C307.406 448.071 294.832 441.025 291.461 437.961C288.091 434.897 285.946 432.433 280.726 429.063C275.505 425.693 270.786 417.396 270.786 417.396L270.59 417.702C271.24 421.685 272.147 425.668 274.536 428.879C276.135 431.096 278.202 432.933 280.591 434.26C282.331 435.068 284.182 434.897 285.934 435.902C289.157 437.765 290.481 441.784 293.606 443.807C300.335 447.787 308.06 449.764 315.874 449.505C315.874 449.505 333.326 450.388 334.208 440.779Z" fill="white" stroke="#263238" stroke-width="1.25654" stroke-linecap="round" stroke-linejoin="round"/>
<path d="M256.545 424.198C260.602 422.568 262.158 418.572 262.575 414.614C258.555 417.065 249.266 422.421 243.371 424.774C235.711 427.838 230.49 437.029 215.477 437.029C204.766 437.029 198.896 432.838 196.408 430.424C195.084 435.595 203.761 440.436 210.281 441.65C223.443 444.101 239.081 431.171 239.081 431.171L256.545 424.198Z" fill="white" stroke="#263238" stroke-width="1.25654" stroke-linecap="round" stroke-linejoin="round"/>
<path d="M313.203 107.798C307.731 110.836 301.901 113.178 295.849 114.771C278.434 109.869 253.849 107.565 239.474 110.752C239.474 110.752 219.399 115.556 215.906 115.997C212.413 116.438 204.117 144.368 202.364 163.573C201.286 175.436 203.038 198.084 204.533 214.519C240.92 227.853 279.721 223.281 298.692 219.654C300.604 197.888 302.773 176.233 302.773 176.233C302.773 176.233 303.484 174.394 304.575 171.404L305.727 170.767C312.504 166.87 327.48 155.313 339.233 143.805C315.641 137.003 312.786 118.399 313.203 107.798Z" fill="#263238" stroke="#263238" stroke-width="1.25654" stroke-linecap="round" stroke-linejoin="round"/>
<path d="M279.377 128.62C279.305 124.955 278.368 121.358 276.643 118.123C274.918 114.888 272.454 112.107 269.45 110.004C258.298 108.926 247.391 108.999 239.474 110.752C239.474 110.752 233.922 112.088 228.149 113.399C224.263 117.52 222.074 122.956 222.022 128.62C222.022 142.236 234.865 153.278 250.7 153.278C266.534 153.278 279.377 142.236 279.377 128.62Z" fill="#616161" stroke="#263238" stroke-width="1.25654" stroke-linecap="round" stroke-linejoin="round"/>
<path d="M270.786 417.396C277.334 419.7 284.275 420.675 291.204 420.264C306.266 419.614 311.499 415.46 311.499 415.46C311.499 415.46 308.006 351.731 305.371 330.774C302.736 309.817 295.763 275.772 295.763 260.918C295.763 252.168 298.214 224.311 300.187 202.913L299.243 203.023C296.735 203.315 294.194 203.063 291.792 202.284C289.39 201.506 287.184 200.22 285.324 198.513C283.464 196.806 281.993 194.718 281.011 192.392C280.029 190.066 279.56 187.556 279.635 185.032L280.051 171.098C268.693 171.838 257.29 171.51 245.993 170.117C225.698 167.825 204.741 160.95 204.741 160.95L202.535 161.624C202.535 162.274 202.401 162.923 202.339 163.561C200.599 182.777 206.273 230.353 206.273 233.846C206.273 237.339 208.455 295.405 211.948 311.558C215.44 327.71 219.374 349.55 219.803 352.589C220.232 355.628 223.296 378.326 223.296 385.765C223.296 393.204 219.938 410.423 219.816 411.06C222.438 411.869 227.929 413.511 237.819 416.317C252.869 420.582 262.587 415.447 262.587 415.447C262.587 410.214 263.457 380.531 263.457 380.531C263.457 380.531 268.997 405.655 270.786 417.396Z" fill="white" stroke="#263238" stroke-width="1.25654" stroke-linecap="round" stroke-linejoin="round"/>
<path d="M220.919 179.346L260.124 185.792V209.96L238.101 231.995L220.38 210.499L220.919 179.346Z" stroke="#263238" stroke-width="1.25654" stroke-linecap="round" stroke-linejoin="round"/>
<path d="M249.192 315.247C246.361 299.314 244.29 283.578 244.29 272.279L228.578 261.8" stroke="#263238" stroke-width="1.25654" stroke-linecap="round" stroke-linejoin="round"/>
<path d="M263.482 380.544C263.482 380.544 256.864 354.967 251.398 326.951" stroke="#263238" stroke-width="1.25654" stroke-linecap="round" stroke-linejoin="round"/>
<path d="M275.161 245.133C275.518 246.547 276.062 247.908 276.779 249.177C281.62 257.756 288.593 258.847 288.593 258.847L289.672 236.285" stroke="#263238" stroke-width="1.25654" stroke-linecap="round" stroke-linejoin="round"/>
<path d="M276.779 231.983C275.944 233.609 275.346 235.347 275.002 237.142" stroke="#263238" stroke-width="1.25654" stroke-linecap="round" stroke-linejoin="round"/>
<path d="M296.033 300.614C296.596 303.592 297.172 306.521 297.736 309.315" stroke="#263238" stroke-width="1.25654" stroke-linecap="round" stroke-linejoin="round"/>
<path d="M288.594 258.847C288.594 258.847 291.363 275.404 294.562 292.758" stroke="#263238" stroke-width="1.25654" stroke-linecap="round" stroke-linejoin="round"/>
<path d="M236.937 101.462L236.692 114.33C236.692 114.33 232.255 117.884 231.373 127.199C230.49 136.513 239.363 145.177 249.339 145.177C259.315 145.177 267.98 137.407 269.536 130.311C271.093 123.215 269.083 113.007 269.083 113.007L268.421 97.479C268.421 97.479 258.617 103.68 249.339 101.915C240.062 100.151 237.366 96.8049 237.366 96.8049L236.937 101.462Z" fill="#BDBDBD" stroke="#263238" stroke-width="1.25654" stroke-linecap="round" stroke-linejoin="round"/>
<path d="M229.963 67.8821C229.963 67.8821 229.363 75.2354 230.956 77.0369C232.549 78.8385 234.743 80.2233 235.147 78.6301C235.552 77.0369 235.736 68.6787 236.14 66.8894C236.544 65.1001 230.159 62.8573 229.963 67.8821Z" fill="#BDBDBD" stroke="#263238" stroke-width="1.25654" stroke-linecap="round" stroke-linejoin="round"/>
<path d="M233.861 67.7595C233.861 67.7595 232.034 82.466 232.034 89.5865C232.034 96.7069 229.277 99.3908 238.162 104.023C247.047 108.656 254.744 109.244 260.884 107.087C267.024 104.93 270.406 99.734 270.688 95.4201C270.97 91.1061 270.995 84.3901 270.995 84.3901C270.995 84.3901 279.573 76.7182 277.76 70.9091C275.946 65.1 271.926 72.4411 271.926 72.4411C273.616 67.3948 274.445 62.0999 274.377 56.7786C274.071 48.788 267.931 47.8688 265.467 47.8688C263.004 47.8688 247.967 43.2485 240.92 47.8075C233.873 52.3666 233.861 67.7595 233.861 67.7595Z" fill="#BDBDBD" stroke="#263238" stroke-width="1.25654" stroke-linecap="round" stroke-linejoin="round"/>
<path d="M271.95 72.3798C273.641 67.3335 274.469 62.0387 274.402 56.7173C274.095 48.7267 267.955 47.8076 265.492 47.8076H265.333C264.033 49.989 262.428 53.347 262.428 53.347L263.654 53.9598C263.654 53.9598 262.428 60.7248 264.879 61.644C267.33 62.5631 266.105 64.7079 266.105 68.3967C266.105 72.0856 268.262 74.8431 269.487 74.8431C270.455 74.8431 271.938 72.392 272.6 71.3258C272.196 71.9141 271.95 72.3798 271.95 72.3798Z" fill="#263238" stroke="#263238" stroke-width="1.25654" stroke-linecap="round" stroke-linejoin="round"/>
<path d="M247.685 73.2622C247.685 73.2622 245.099 75.6397 246.288 77.4413C247.476 79.2429 251.864 80.2233 253.065 78.0296C253.478 77.2921 253.624 76.435 253.479 75.6024C253.334 74.7698 252.906 74.0126 252.268 73.4583" stroke="#263238" stroke-width="1.25654" stroke-linecap="round" stroke-linejoin="round"/>
<path d="M244.903 70.8724C244.903 72.0979 244.412 73.0538 243.8 73.0538C243.187 73.0538 242.709 72.0734 242.709 70.8724C242.709 69.6713 243.199 68.6786 243.8 68.6786C244.4 68.6786 244.903 69.6591 244.903 70.8724Z" fill="#263238"/>
<path d="M258.139 71.4361C258.139 72.6617 257.648 73.6298 257.048 73.6298C256.447 73.6298 255.945 72.6494 255.945 71.4361C255.945 70.2228 256.435 69.2546 257.048 69.2546C257.661 69.2546 258.139 70.2106 258.139 71.4361Z" fill="#263238"/>
<path d="M254.854 65.4922C254.854 65.4922 259.033 62.698 263.016 67.0854" stroke="#263238" stroke-width="1.25654" stroke-linecap="round" stroke-linejoin="round"/>
<path d="M248.506 85.0887C247.981 84.8246 247.405 84.6749 246.818 84.6495C246.231 84.6242 245.645 84.7237 245.099 84.9417C244.635 85.1346 244.217 85.4248 243.875 85.7927C243.532 86.1605 243.273 86.5975 243.113 87.0741C243.113 87.0741 240.564 89.1208 243.248 90.0154C245.932 90.9101 251.827 90.8488 253.31 90.7875C253.904 90.7051 254.441 90.3933 254.808 89.9191C255.175 89.4449 255.341 88.8459 255.271 88.2506C255.284 88.0094 255.233 87.7691 255.123 87.5539C255.013 87.3387 254.849 87.1563 254.646 87.0251C254.028 86.0157 253.067 85.2636 251.938 84.9077C250.81 84.5518 249.591 84.6161 248.506 85.0887Z" fill="#666666" stroke="#263238" stroke-width="0.922744" stroke-linecap="round" stroke-linejoin="round"/>
<path d="M242.537 87.8462C246.664 87.1934 250.883 87.4443 254.903 88.5815" stroke="#263238" stroke-width="1.07327" stroke-linecap="round" stroke-linejoin="round"/>
<path d="M228.64 50.8837L261.509 55.504C261.509 55.504 275.321 51.8274 276.559 49.0576C277.796 46.2879 273.176 32.476 270.713 29.0934C268.249 25.7109 244.609 31.5445 237.231 32.7701C229.853 33.9956 224.338 35.8217 224.681 39.5719C225.024 43.3221 228.64 50.8837 228.64 50.8837Z" fill="#92E3A9" stroke="#263238" stroke-width="1.25654" stroke-linecap="round" stroke-linejoin="round"/>
<path d="M228.64 50.8837C228.64 50.8837 209.901 66.2398 209.595 67.7595C209.288 69.2792 236.924 69.9042 245.528 68.0659C254.131 66.2276 261.46 55.4672 261.46 55.4672L228.64 50.8837Z" fill="white" stroke="#263238" stroke-width="1.25654" stroke-linecap="round" stroke-linejoin="round"/>
<path d="M208.161 254.484L259.634 224.299C261.338 225.575 263.401 226.282 265.53 226.321C267.659 226.36 269.746 225.728 271.496 224.515C273.246 223.302 274.57 221.569 275.281 219.561C275.991 217.554 276.053 215.374 275.455 213.33L264.707 219.617L262.256 215.389L273.017 209.09C271.527 207.565 269.595 206.548 267.495 206.183C265.394 205.818 263.233 206.124 261.316 207.058C259.399 207.991 257.825 209.504 256.817 211.382C255.809 213.26 255.418 215.408 255.7 217.521L204.165 247.707C202.461 246.431 200.398 245.723 198.269 245.684C196.14 245.645 194.053 246.277 192.303 247.491C190.553 248.704 189.229 250.437 188.518 252.444C187.808 254.451 187.747 256.631 188.344 258.675L198.81 252.548L201.261 256.788L190.795 262.916C192.282 264.443 194.214 265.463 196.315 265.829C198.416 266.196 200.578 265.89 202.495 264.956C204.412 264.022 205.986 262.507 206.992 260.627C207.998 258.747 208.386 256.597 208.099 254.484H208.161Z" fill="#92E3A9" stroke="#263238" stroke-width="1.25654" stroke-linecap="round" stroke-linejoin="round"/>
<path d="M251.999 232.044C251.999 232.044 258.335 236.579 258.335 240.795C258.335 245.01 250.785 249.557 245.663 249.851C240.54 250.145 239.621 244.422 240.527 241.407C241.434 238.392 251.999 232.044 251.999 232.044Z" fill="#BDBDBD" stroke="#263238" stroke-width="1.25654" stroke-linecap="round" stroke-linejoin="round"/>
<path d="M185.586 194.31C185.586 194.31 220.6 213.918 225.429 213.33C230.257 212.742 236.9 208.501 240.528 209.653C244.155 210.805 254.107 226.26 255.013 228.98C255.92 231.701 247.771 241.358 245.957 242.866C244.143 244.373 238.407 250.415 237.206 251.016C236.005 251.616 228.149 258.565 224.228 258.565C220.306 258.565 213.664 255.538 213.051 254.03C212.438 252.523 213.958 250.415 213.958 250.415L195.574 241.959C195.574 241.959 160.548 222.938 154.519 213.281C148.489 203.624 163.575 186.417 163.575 186.417" fill="#BDBDBD"/>
<path d="M185.586 194.31C185.586 194.31 220.6 213.918 225.429 213.33C230.257 212.742 236.9 208.501 240.528 209.653C244.155 210.805 254.107 226.26 255.013 228.98C255.92 231.701 247.771 241.358 245.957 242.866C244.143 244.373 238.407 250.415 237.206 251.016C236.005 251.616 228.149 258.565 224.228 258.565C220.306 258.565 213.664 255.538 213.051 254.03C212.438 252.523 213.958 250.415 213.958 250.415L195.574 241.959C195.574 241.959 160.548 222.938 154.519 213.281C148.489 203.624 163.575 186.417 163.575 186.417" stroke="#263238" stroke-width="1.25654" stroke-linecap="round" stroke-linejoin="round"/>
<path d="M226.042 241.701C227.112 241.844 228.105 242.335 228.867 243.1C229.63 243.864 230.118 244.859 230.257 245.93C230.87 249.851 229.35 256.8 229.35 256.8" stroke="#263238" stroke-width="1.25654" stroke-linecap="round" stroke-linejoin="round"/>
<path d="M232.978 235.966C232.978 235.966 237.206 236.272 237.206 240.194V251.065" stroke="#263238" stroke-width="1.25654" stroke-linecap="round" stroke-linejoin="round"/>
<path d="M237.513 225.108C237.513 225.108 245.356 230.843 245.957 234.164C246.29 237.072 246.29 240.007 245.957 242.915" stroke="#263238" stroke-width="1.25654" stroke-linecap="round" stroke-linejoin="round"/>
<path d="M272.478 204.408C274.242 204.408 278.912 192.716 278.912 188.329C278.912 183.941 280.958 151.795 285.64 136.856C288.998 126.157 291.89 117.897 293.263 114.061C289.696 113.154 285.91 112.345 281.963 111.61C279.622 118.705 272.478 140.851 269.561 154.933C266.056 171.882 266.926 192.055 267.22 193.807C267.514 195.56 270.75 204.408 272.478 204.408Z" fill="white" stroke="#263238" stroke-width="1.25654" stroke-linecap="round" stroke-linejoin="round"/>
<path d="M278.923 168.942L268.889 167.624C268.065 167.516 267.309 168.097 267.201 168.921L266.149 176.929C266.041 177.753 266.622 178.509 267.446 178.617L277.48 179.934C278.304 180.043 279.06 179.462 279.168 178.638L280.22 170.63C280.328 169.806 279.747 169.05 278.923 168.942Z" fill="white" stroke="#263238" stroke-width="1.25465" stroke-linecap="round" stroke-linejoin="round"/>
<path d="M276.283 171.486L271.095 170.798C270.27 170.688 269.512 171.268 269.403 172.094L268.882 176.018C268.772 176.843 269.353 177.601 270.178 177.71L275.366 178.399C276.191 178.508 276.949 177.928 277.058 177.103L277.579 173.179C277.689 172.353 277.108 171.596 276.283 171.486Z" fill="white" stroke="#263238" stroke-width="1.25654" stroke-linecap="round" stroke-linejoin="round"/>
<path d="M207.021 200.021C208.786 200.021 213.455 188.329 213.455 183.941C213.455 179.554 215.502 147.408 220.183 132.468C223.149 123.007 225.171 116.965 226.311 113.816C221.74 114.845 217.401 115.789 215.955 115.973C214.877 116.107 213.357 118.84 211.703 123.105C209.766 129.11 207.401 136.917 205.575 144.528C204.146 150.798 203.103 157.15 202.45 163.548C202.038 169.967 202.009 176.404 202.364 182.826C202.364 183.047 202.388 183.218 202.437 183.341C202.621 185.118 205.268 200.021 207.021 200.021Z" fill="white" stroke="#263238" stroke-width="1.25654" stroke-linecap="round" stroke-linejoin="round"/>
<path d="M213.682 160.548L203.604 159.473C202.776 159.385 202.034 159.984 201.945 160.812L201.087 168.855C200.999 169.683 201.598 170.425 202.426 170.514L212.504 171.589C213.332 171.677 214.075 171.078 214.163 170.25L215.021 162.207C215.11 161.379 214.51 160.637 213.682 160.548Z" fill="white" stroke="#263238" stroke-width="1.25654" stroke-linecap="round" stroke-linejoin="round"/>
<path d="M211.014 162.335L205.811 161.78C204.983 161.692 204.24 162.291 204.152 163.119L203.732 167.055C203.644 167.883 204.243 168.626 205.071 168.714L210.275 169.269C211.103 169.358 211.845 168.758 211.934 167.931L212.353 163.994C212.442 163.167 211.842 162.424 211.014 162.335Z" fill="white" stroke="#263238" stroke-width="1.25654" stroke-linecap="round" stroke-linejoin="round"/>
</svg>
