<svg width="19" height="20" viewBox="0 0 19 20" fill="none" xmlns="http://www.w3.org/2000/svg">
<path d="M7.73438 0H10.599C11.0752 0 11.4583 0.417969 11.4583 0.9375V7.5H14.5986C15.236 7.5 15.5547 8.33984 15.1035 8.83203L9.65723 14.7773C9.38867 15.0703 8.94824 15.0703 8.67969 14.7773L3.22624 8.83203C2.77507 8.33984 3.09375 7.5 3.73112 7.5H6.875V0.9375C6.875 0.417969 7.25814 0 7.73438 0ZM18.3333 14.6875V19.0625C18.3333 19.582 17.9502 20 17.474 20H0.859375C0.383138 20 0 19.582 0 19.0625V14.6875C0 14.168 0.383138 13.75 0.859375 13.75H6.1123L7.86686 15.6641C8.58659 16.4492 9.74675 16.4492 10.4665 15.6641L12.221 13.75H17.474C17.9502 13.75 18.3333 14.168 18.3333 14.6875ZM13.8932 18.125C13.8932 17.6953 13.571 17.3438 13.1771 17.3438C12.7832 17.3438 12.4609 17.6953 12.4609 18.125C12.4609 18.5547 12.7832 18.9062 13.1771 18.9062C13.571 18.9062 13.8932 18.5547 13.8932 18.125ZM16.1849 18.125C16.1849 17.6953 15.8626 17.3438 15.4688 17.3438C15.0749 17.3438 14.7526 17.6953 14.7526 18.125C14.7526 18.5547 15.0749 18.9062 15.4688 18.9062C15.8626 18.9062 16.1849 18.5547 16.1849 18.125Z" fill="white"/>
</svg>
