<svg width="18" height="22" viewBox="0 0 18 22" fill="none" xmlns="http://www.w3.org/2000/svg">
<path fill-rule="evenodd" clip-rule="evenodd" d="M3 21.7574C2.20435 21.7574 1.44129 21.4413 0.87868 20.8787C0.316071 20.3161 0 19.553 0 18.7574V8.75736C0 8.72336 0.00200011 8.68936 0.00500011 8.65736H0C0 8.08036 0.229 7.52736 0.636 7.12136L6.88 0.878359C7.44258 0.315946 8.20551 0 9.001 0C9.79649 0 10.5594 0.315946 11.122 0.878359L17.365 7.12136C17.772 7.52836 18.001 8.08136 18.001 8.65636H17.996C17.999 8.68936 18.001 8.72336 18.001 8.75636V18.7564C18.001 19.552 17.6849 20.3151 17.1223 20.8777C16.5597 21.4403 15.7966 21.7564 15.001 21.7564H3V21.7574ZM9.707 2.29236L16 8.58536V18.7584C16 19.0236 15.8946 19.2779 15.7071 19.4655C15.5196 19.653 15.2652 19.7584 15 19.7584H12V14.7584C12 13.9627 11.6839 13.1996 11.1213 12.637C10.5587 12.0744 9.79565 11.7584 9 11.7584C8.20435 11.7584 7.44129 12.0744 6.87868 12.637C6.31607 13.1996 6 13.9627 6 14.7584V19.7584H3C2.73478 19.7584 2.48043 19.653 2.29289 19.4655C2.10536 19.2779 2 19.0236 2 18.7584V8.58536L8.293 2.29236C8.48053 2.10489 8.73484 1.99957 9 1.99957C9.26516 1.99957 9.51947 2.10489 9.707 2.29236Z" fill="white"/>
</svg>
