<svg width="169" height="142" viewBox="0 0 169 142" fill="none" xmlns="http://www.w3.org/2000/svg">
<path d="M88.5396 141.588C132.977 141.588 169 140.249 169 138.597C169 136.946 132.977 135.607 88.5396 135.607C44.1025 135.607 8.07912 136.946 8.07912 138.597C8.07912 140.249 44.1025 141.588 88.5396 141.588Z" fill="#92E3A9"/>
<path opacity="0.8" d="M88.5396 141.588C132.977 141.588 169 140.249 169 138.597C169 136.946 132.977 135.607 88.5396 135.607C44.1025 135.607 8.07912 136.946 8.07912 138.597C8.07912 140.249 44.1025 141.588 88.5396 141.588Z" fill="white"/>
<path d="M127.211 26.1825C127.053 26.1825 126.901 26.2454 126.789 26.3572C126.677 26.4691 126.614 26.6208 126.614 26.779V29.8373H115.714V26.779C115.714 26.6208 115.651 26.4691 115.539 26.3572C115.427 26.2454 115.275 26.1825 115.117 26.1825C114.959 26.1825 114.807 26.2454 114.695 26.3572C114.583 26.4691 114.521 26.6208 114.521 26.779V103.811C114.521 103.97 114.583 104.121 114.695 104.233C114.807 104.345 114.959 104.408 115.117 104.408C115.275 104.408 115.427 104.345 115.539 104.233C115.651 104.121 115.714 103.97 115.714 103.811V86.5795H126.614V103.811C126.614 103.97 126.677 104.121 126.789 104.233C126.901 104.345 127.053 104.408 127.211 104.408C127.369 104.408 127.521 104.345 127.633 104.233C127.745 104.121 127.807 103.97 127.807 103.811V26.7671C127.804 26.611 127.74 26.4623 127.629 26.353C127.517 26.2437 127.367 26.1825 127.211 26.1825ZM126.614 85.3984H115.714V81.5329H126.614V85.3984ZM126.614 80.3358H115.714V76.4742H126.614V80.3358ZM126.614 75.2772H115.714V71.4276H126.614V75.2772ZM126.614 70.2226H115.714V66.3889H126.614V70.2226ZM126.614 65.1719H115.714V61.382H126.614V65.1719ZM126.614 60.1372H115.714V56.3234H126.614V60.1372ZM126.614 55.1263H115.714V51.2767H126.614V55.1263ZM126.614 50.0677H115.714V46.2181H126.614V50.0677ZM126.614 45.021H115.714V41.1595H126.614V45.021ZM126.614 39.9624H115.714V36.0929H126.614V39.9624ZM126.614 34.8999H115.714V31.0303H126.614V34.8999Z" fill="white"/>
<path d="M23.9549 88.2856C23.9549 88.2856 32.883 76.0646 28.5283 73.1734C23.9987 70.1868 21.871 79.2342 20.9126 83.6764C18.8685 93.1573 19.4451 95.1696 20.8171 93.0857L23.9549 88.2856Z" fill="#92E3A9"/>
<path opacity="0.5" d="M23.9549 88.2856C23.9549 88.2856 32.883 76.0646 28.5283 73.1734C23.9987 70.1868 21.871 79.2342 20.9126 83.6764C18.8685 93.1573 19.4451 95.1696 20.8171 93.0857L23.9549 88.2856Z" fill="white"/>
<path d="M27.3035 95.8019C27.3035 95.8019 39.7153 87.1403 36.5298 83.0123C33.2171 78.7132 28.2659 86.5915 25.9155 90.4729C20.9007 98.7767 20.7973 100.868 22.7698 99.3414L27.3035 95.8019Z" fill="#92E3A9"/>
<path opacity="0.5" d="M27.3035 95.8019C27.3035 95.8019 39.7153 87.1403 36.5298 83.0123C33.2171 78.7132 28.2659 86.5915 25.9155 90.4729C20.9007 98.7767 20.7973 100.868 22.7698 99.3414L27.3035 95.8019Z" fill="white"/>
<path d="M27.5739 105.848C27.5739 105.848 38.3115 101.024 36.4781 97.4046C34.5692 93.6385 29.6419 98.9357 27.2836 101.568C22.2449 107.192 21.8631 108.775 23.593 107.896L27.5739 105.848Z" fill="#92E3A9"/>
<path opacity="0.5" d="M27.5739 105.848C27.5739 105.848 38.3115 101.024 36.4781 97.4046C34.5692 93.6385 29.6419 98.9357 27.2836 101.568C22.2449 107.192 21.8631 108.775 23.593 107.896L27.5739 105.848Z" fill="white"/>
<path d="M28.2102 115.937C28.2102 115.937 38.9478 111.113 37.1184 107.494C35.2055 103.732 30.2821 109.025 27.9199 111.662C22.8851 117.285 22.4994 118.868 24.2333 117.985L28.2102 115.937Z" fill="#92E3A9"/>
<path opacity="0.5" d="M28.2102 115.937C28.2102 115.937 38.9478 111.113 37.1184 107.494C35.2055 103.732 30.2821 109.025 27.9199 111.662C22.8851 117.285 22.4994 118.868 24.2333 117.985L28.2102 115.937Z" fill="white"/>
<path d="M15.6153 93.392C15.6153 93.392 3.81192 83.915 0.74574 88.1305C-2.43577 92.5051 6.49632 95.0623 10.8908 96.2235C20.2683 98.7011 22.3045 98.212 20.2842 96.7485L15.6153 93.392Z" fill="#92E3A9"/>
<path opacity="0.5" d="M15.6153 93.392C15.6153 93.392 3.81192 83.915 0.74574 88.1305C-2.43577 92.5051 6.49632 95.0623 10.8908 96.2235C20.2683 98.7011 22.3045 98.212 20.2842 96.7485L15.6153 93.392Z" fill="white"/>
<path d="M15.9653 101.31C15.9653 101.31 2.51548 94.3663 0.34808 99.1107C-1.90682 104.046 7.35934 104.762 11.8811 105.024C21.5648 105.589 23.4657 104.706 21.1949 103.672L15.9653 101.31Z" fill="#92E3A9"/>
<path opacity="0.5" d="M15.9653 101.31C15.9653 101.31 2.51548 94.3663 0.34808 99.1107C-1.90682 104.046 7.35934 104.762 11.8811 105.024C21.5648 105.589 23.4657 104.706 21.1949 103.672L15.9653 101.31Z" fill="white"/>
<path d="M17.5919 110.186C17.5919 110.186 6.05891 104.619 4.33691 108.687C2.54333 112.914 10.3937 113.304 14.2394 113.42C22.4397 113.674 24.0265 112.879 22.0818 112.083L17.5919 110.186Z" fill="#92E3A9"/>
<path opacity="0.5" d="M17.5919 110.186C17.5919 110.186 6.05891 104.619 4.33691 108.687C2.54333 112.914 10.3937 113.304 14.2394 113.42C22.4397 113.674 24.0265 112.879 22.0818 112.083L17.5919 110.186Z" fill="white"/>
<path d="M18.1566 117.357C18.1566 117.357 7.27582 110.596 5.13227 114.458C2.90124 118.47 10.6681 119.691 14.478 120.216C22.6067 121.338 24.2651 120.721 22.4317 119.699L18.1566 117.357Z" fill="#92E3A9"/>
<path opacity="0.5" d="M18.1566 117.357C18.1566 117.357 7.27582 110.596 5.13227 114.458C2.90124 118.47 10.6681 119.691 14.478 120.216C22.6067 121.338 24.2651 120.721 22.4317 119.699L18.1566 117.357Z" fill="white"/>
<path d="M17.1266 81.3857C17.1266 81.3857 15.0824 63.6369 8.37741 65.4503C1.41387 67.3433 7.24399 76.3231 10.2028 80.6659C16.4903 89.9082 18.8048 90.9263 18.3077 88.0391L17.1266 81.3857Z" fill="#92E3A9"/>
<path opacity="0.5" d="M17.1266 81.3857C17.1266 81.3857 15.0824 63.6369 8.37741 65.4503C1.41387 67.3433 7.24399 76.3231 10.2028 80.6659C16.4903 89.9082 18.8048 90.9263 18.3077 88.0391L17.1266 81.3857Z" fill="white"/>
<path d="M9.74947 71.9167C9.74947 71.9167 19.9542 91.0376 21.537 99.9141C23.3584 110.111 23.6527 121.501 22.396 130.425" stroke="#92E3A9" stroke-width="1.25197" stroke-linecap="round" stroke-linejoin="round"/>
<path d="M19.9263 94.0084L24.9252 78.6973" stroke="#92E3A9" stroke-width="1.25197" stroke-linecap="round" stroke-linejoin="round"/>
<path d="M21.5369 99.914L30.9462 88.0828" stroke="#92E3A9" stroke-width="1.25197" stroke-linecap="round" stroke-linejoin="round"/>
<path d="M20.9364 97.7626L7.31161 92.0398" stroke="#92E3A9" stroke-width="1.25197" stroke-linecap="round" stroke-linejoin="round"/>
<path d="M22.7181 107.927L32.9626 100.077" stroke="#92E3A9" stroke-width="1.25197" stroke-linecap="round" stroke-linejoin="round"/>
<path d="M22.1733 104.559L11.4715 102.332" stroke="#92E3A9" stroke-width="1.25197" stroke-linecap="round" stroke-linejoin="round"/>
<path d="M22.6863 112.755L14.3984 111.443" stroke="#92E3A9" stroke-width="1.25197" stroke-linecap="round" stroke-linejoin="round"/>
<path d="M23.3862 118.061L28.9618 113.066" stroke="#92E3A9" stroke-width="1.25197" stroke-linecap="round" stroke-linejoin="round"/>
<path d="M23.2749 120.308L13.7502 117.913" stroke="#92E3A9" stroke-width="1.25197" stroke-linecap="round" stroke-linejoin="round"/>
<path d="M16.2198 123.223H27.4784V125.553H26.4961L24.4639 138.267H19.2343L17.2021 125.553H16.2198V123.223Z" fill="#92E3A9"/>
<path opacity="0.5" d="M16.2198 123.223H27.4784V125.553H26.4961L24.4639 138.267H19.2343L17.2021 125.553H16.2198V123.223Z" fill="white"/>
<path d="M34.76 3.16426C34.2719 2.7281 33.6759 2.43059 33.0339 2.30261C32.3919 2.17463 31.7273 2.22086 31.1093 2.43649C28.922 3.16426 26.8261 6.32588 27.3551 9.00233C27.7249 10.8556 29.4429 13.5877 29.9639 14.6296C30.4849 15.6716 29.7531 17.4333 28.0988 21.0921C26.4444 24.7508 25.8041 28.1829 30.6002 31.2053C35.3963 34.2277 40.8248 29.4316 43.6086 25.9916C46.3924 22.5516 41.5208 14.6296 41.1032 11.2771C40.6856 7.92459 39.9698 1.49794 34.76 3.16426Z" fill="#263238"/>
<path d="M46.0345 26.2223C44.8411 27.4163 43.3992 28.3325 41.8113 28.9058C40.2235 29.4791 38.5288 29.6953 36.8479 29.539L35.6986 34.3311L37.8859 45.2716L52.1669 37.8706L48.9337 29.5191L46.0345 26.2223Z" fill="#92E3A9" stroke="#263238" stroke-linecap="round" stroke-linejoin="round"/>
<path opacity="0.3" d="M46.0345 26.2223C44.8411 27.4163 43.3992 28.3325 41.8113 28.9058C40.2235 29.4791 38.5288 29.6953 36.8479 29.539L35.6986 34.3311L37.8859 45.2716L52.1669 37.8706L48.9337 29.5191L46.0345 26.2223Z" fill="#263238"/>
<path d="M46.0346 26.2223L43.8473 11.7305L37.365 13.0587L34.1317 15.1426C34.1317 15.1426 30.2742 18.169 30.2742 18.4792C30.2742 18.7894 36.8002 29.71 36.8002 29.71C38.4981 29.8104 40.1981 29.5518 41.7893 28.9508C43.3805 28.3498 44.827 27.4201 46.0346 26.2223Z" fill="white"/>
<path d="M46.0346 26.2223L43.8473 11.7305L37.3649 13.0587L34.1317 15.1426C34.1317 15.1426 30.2742 18.169 30.2742 18.4792C30.2742 18.7894 36.8002 29.71 36.8002 29.71C38.4981 29.8104 40.1981 29.5518 41.7893 28.9508C43.3805 28.3498 44.827 27.4201 46.0346 26.2223Z" stroke="#263238" stroke-linecap="round" stroke-linejoin="round"/>
<path opacity="0.5" d="M37.3371 25.6019C37.3371 25.6019 41.9066 22.2135 41.485 23.2157C41.0635 24.2179 37.9058 26.7194 37.0587 26.7949C36.2116 26.8705 37.3371 25.6019 37.3371 25.6019Z" fill="#92E3A9"/>
<path d="M37.4763 19.1673L37.6552 19.3542L38.7688 20.5313L39.0551 25.0531L40.4192 24.8383L39.3414 20.6029L41.0674 24.1901L42.5031 22.7544L39.417 19.9547L39.3414 17.7316L37.7626 16.9402" fill="#263238"/>
<path d="M34.9669 13.7984C34.9669 13.7984 33.6108 14.4228 33.6108 15.6716C33.6108 16.9203 35.0782 19.891 35.9969 20.5154C36.9156 21.1398 38.4904 18.2804 38.4904 18.2804C38.4904 18.2804 40.8765 19.4257 41.5128 18.3838C42.1491 17.3419 40.0533 13.9018 38.7012 12.9633C37.349 12.0248 34.9669 13.7984 34.9669 13.7984Z" fill="white" stroke="#263238" stroke-linecap="round" stroke-linejoin="round"/>
<path d="M33.8215 12.5457C34.1944 13.4984 34.5078 14.4733 34.76 15.4648C34.9668 16.5067 37.7825 18.2804 38.0927 18.3838C38.4029 18.4872 38.6136 15.0472 38.6136 15.0472L37.7825 10.9828L33.8215 12.5457Z" fill="white"/>
<g style="mix-blend-mode:multiply" opacity="0.5">
<path d="M37.87 11.4163C37.6951 11.3672 37.517 11.33 37.3371 11.3049L34.4618 12.319L34.084 13.3053C34.2749 13.8382 34.5175 14.5541 34.6646 15.1347C35.136 15.5147 35.7056 15.7533 36.3071 15.8227C37.1701 15.8823 37.9297 15.2142 38.4665 14.395L37.87 11.4163Z" fill="#92E3A9"/>
</g>
<path d="M33.8215 12.5457C34.1944 13.4984 34.5078 14.4733 34.76 15.4648C34.9668 16.5067 37.7825 18.2804 38.0927 18.3838C38.4029 18.4872 38.6136 15.0472 38.6136 15.0472L37.7825 10.9828L33.8215 12.5457Z" stroke="#263238" stroke-linecap="round" stroke-linejoin="round"/>
<path d="M31.9444 10.772C31.9444 10.772 30.7951 9.83747 30.7951 10.772C30.7951 11.7066 31.841 12.2316 32.6722 12.2316" fill="white"/>
<path d="M31.9444 10.772C31.9444 10.772 30.7951 9.83747 30.7951 10.772C30.7951 11.7066 31.841 12.2316 32.6722 12.2316" stroke="#263238" stroke-linecap="round" stroke-linejoin="round"/>
<path d="M38.0927 7.74961C38.0927 7.74961 38.8245 6.60426 39.0313 7.85698C39.1265 8.67251 38.9028 9.49328 38.4069 10.1477L38.0927 7.74961Z" fill="white" stroke="#263238" stroke-linecap="round" stroke-linejoin="round"/>
<g opacity="0.5">
<path d="M31.9444 10.772C31.9444 10.772 30.7951 9.83747 30.7951 10.772C30.7951 11.7066 31.841 12.2316 32.6722 12.2316" fill="#92E3A9"/>
<path d="M31.9444 10.772C31.9444 10.772 30.7951 9.83747 30.7951 10.772C30.7951 11.7066 31.841 12.2316 32.6722 12.2316" stroke="#263238" stroke-linecap="round" stroke-linejoin="round"/>
</g>
<path opacity="0.5" d="M38.0927 7.74961C38.0927 7.74961 38.8245 6.60426 39.0313 7.85698C39.1265 8.67251 38.9028 9.49328 38.4069 10.1477L38.0927 7.74961Z" fill="#92E3A9" stroke="#263238" stroke-linecap="round" stroke-linejoin="round"/>
<path d="M30.6519 7.75757C30.6519 7.75757 31.5467 11.4839 33.4676 13.3252C35.3884 15.1665 37.4445 15.1824 38.1563 11.9015C38.7409 9.1972 37.2894 5.59017 37.2894 5.59017C37.2894 5.59017 32.6046 1.73258 30.6519 7.75757Z" fill="white"/>
<g style="mix-blend-mode:multiply" opacity="0.5">
<path d="M33.9885 4.3772L34.7163 6.20657C34.7163 6.20657 35.8617 5.95205 36.5059 7.33601C37.1502 8.71996 37.7984 10.7482 37.4286 12.319C37.0746 13.8144 36.2355 14.3075 34.943 14.3433C36.3508 14.9438 37.6274 14.3433 38.1563 11.8935C38.7409 9.18924 37.2894 5.5822 37.2894 5.5822C37.2894 5.5822 35.7026 4.28176 33.9885 4.3772Z" fill="#92E3A9"/>
</g>
<path d="M30.6519 7.75757C30.6519 7.75757 31.5467 11.4839 33.4676 13.3252C35.3884 15.1665 37.4445 15.1824 38.1563 11.9015C38.7409 9.1972 37.2894 5.59017 37.2894 5.59017C37.2894 5.59017 32.6046 1.73258 30.6519 7.75757Z" stroke="#263238" stroke-linecap="round" stroke-linejoin="round"/>
<path d="M34.2073 9.72613C34.3186 9.93691 34.2987 10.1636 34.1635 10.2352C34.0283 10.3068 33.8295 10.1914 33.7221 9.98065C33.6147 9.76988 33.6306 9.54717 33.7658 9.47559C33.9011 9.404 34.0999 9.51933 34.2073 9.72613Z" fill="#263238"/>
<path d="M36.2832 9.08184C36.3627 9.30455 36.311 9.52725 36.1679 9.57498C36.0247 9.6227 35.8418 9.48749 35.7702 9.26478C35.6986 9.04207 35.7423 8.81937 35.8855 8.77165C36.0287 8.72392 36.2037 8.86709 36.2832 9.08184Z" fill="#263238"/>
<path d="M36.4264 7.8888C36.2639 7.77964 36.0701 7.72676 35.8748 7.73825C35.6794 7.74975 35.4932 7.82498 35.3446 7.95243C34.772 8.39784 35.8537 10.6289 35.8537 10.6289C35.8537 10.6289 35.8736 11.3328 34.9708 11.0067" stroke="#263238" stroke-width="0.5" stroke-linecap="round" stroke-linejoin="round"/>
<path d="M36.4264 11.7305C36.3644 11.8769 36.2693 12.007 36.1485 12.1104C36.0277 12.2138 35.8845 12.2876 35.7302 12.3262C35.5759 12.3648 35.4148 12.367 35.2596 12.3326C35.1043 12.2982 34.9592 12.2282 34.8356 12.1282" stroke="#263238" stroke-width="0.5" stroke-linecap="round" stroke-linejoin="round"/>
<path d="M34.0045 8.48136C34.0045 8.48136 32.9864 7.52294 32.541 9.37219" stroke="#263238" stroke-width="0.5" stroke-linecap="round" stroke-linejoin="round"/>
<path d="M37.349 4.40902C36.2315 3.43866 35.3287 3.45059 34.935 3.57785C34.5665 3.34789 34.1474 3.21138 33.7141 3.18016C30.5883 2.76259 30.1707 5.16861 30.1707 7.45532C30.1707 9.74203 28.1823 12.4582 29.5463 12.7724C29.9196 12.862 30.3126 12.817 30.656 12.6453C30.9993 12.4736 31.2711 12.1863 31.4234 11.8339C31.4234 11.8339 32.8829 9.44774 32.8829 7.76552C32.8829 6.08329 34.7004 6.24237 34.7004 6.24237C34.7789 6.12653 34.8814 6.02903 35.0011 5.95656C35.1208 5.88408 35.2547 5.83834 35.3937 5.82247C35.5328 5.80661 35.6735 5.82099 35.8065 5.86464C35.9394 5.90829 36.0613 5.98016 36.1639 6.07534C36.9911 6.78322 37.0865 7.61439 37.7546 7.82914C38.4228 8.0439 39.5403 6.97014 39.5403 6.97014C38.9037 6.04043 38.169 5.18179 37.349 4.40902Z" fill="#263238"/>
<path d="M34.7879 5.03338C34.7879 5.03338 33.5312 4.02325 32.4018 5.15667C31.2723 6.29008 31.3956 8.43362 31.0178 9.82156C30.64 11.2095 29.6299 11.46 29.6299 11.46" stroke="white" stroke-width="0.5" stroke-linecap="round" stroke-linejoin="round"/>
<path d="M33.909 4.65558C33.909 4.65558 32.5529 3.31139 30.8468 5.0135C29.5464 6.31792 30.127 7.17295 29.8725 9.31649" stroke="white" stroke-width="0.5" stroke-linecap="round" stroke-linejoin="round"/>
<path d="M35.4202 4.40106C35.4202 4.40106 37.8064 3.26765 38.8245 6.1668" stroke="white" stroke-width="0.5" stroke-linecap="round" stroke-linejoin="round"/>
<path d="M30.2742 18.4872L26.6671 33.0029L37.2456 36.0014L37.7666 34.1243L30.819 30.919L33.1773 22.5675C33.1773 22.5675 32.8671 21.0046 31.1888 19.2349" fill="white"/>
<g style="mix-blend-mode:multiply" opacity="0.5">
<path d="M37.7825 34.1363L30.8349 30.9309L33.1932 22.5795C33.0085 21.8862 32.7087 21.2288 32.3063 20.6348L32.0797 20.4637V22.7703C32.0797 24.2458 30.2344 28.9504 29.5861 30.056C28.9379 31.1616 27.9278 32.5455 27.9278 32.5455L29.956 31.6229L37.6433 34.701L37.7825 34.1363Z" fill="#92E3A9"/>
</g>
<path d="M30.2742 18.4872L26.6671 33.0029L37.2456 36.0014L37.7666 34.1243L30.819 30.919L33.1773 22.5675C33.1773 22.5675 32.8671 21.0046 31.1888 19.2349" stroke="#263238" stroke-linecap="round" stroke-linejoin="round"/>
<path d="M60.0173 22.8459L52.0078 21.1637L43.8274 11.7106L45.0363 19.3144L50.0552 24.0946L60.1406 24.556L60.0173 22.8459Z" fill="white"/>
<g style="mix-blend-mode:multiply" opacity="0.5">
<path d="M43.8274 11.7106L44.8017 17.7793L45.4221 19.6763L45.5016 19.7479C45.7363 19.5053 47.0606 18.1293 47.3986 18.1293C47.7367 18.1293 51.5505 21.45 50.9977 21.7085L50.4409 21.9829L59.9417 23.5498L60.0093 22.822L52.0158 21.1438L43.8274 11.7106Z" fill="#92E3A9"/>
</g>
<path d="M60.0173 22.8459L52.0078 21.1637L43.8274 11.7106L45.0363 19.3144L50.0552 24.0946L60.1406 24.556L60.0173 22.8459Z" stroke="#263238" stroke-linecap="round" stroke-linejoin="round"/>
<path d="M134.787 103.334L32.7915 88.389C32.4672 88.3409 32.1753 88.1659 31.98 87.9027C31.7846 87.6395 31.7017 87.3095 31.7495 86.9852L40.2442 29.0379C40.2675 28.8775 40.3223 28.7233 40.4053 28.5841C40.4884 28.4449 40.598 28.3234 40.728 28.2266C40.8581 28.1298 41.0059 28.0597 41.1631 28.0201C41.3202 27.9805 41.4837 27.9723 41.644 27.9959L43.5768 28.2783C43.8216 28.315 44.0718 28.277 44.2946 28.1691C44.5175 28.0613 44.7025 27.8886 44.8255 27.6738L47.3906 23.2396C47.4685 23.1004 47.5741 22.9786 47.7008 22.8817C48.3013 22.4474 49.0476 22.2648 49.7808 22.3726L75.4913 26.1427C76.0681 26.2255 76.6054 26.4838 77.0304 26.8824C77.1437 26.996 77.233 27.1312 77.2929 27.2801L79.5796 32.9432C79.6598 33.1435 79.7913 33.3192 79.961 33.4525C80.1306 33.5858 80.3324 33.6722 80.546 33.7028L143.639 42.953C143.964 43.0003 144.256 43.1742 144.452 43.4366C144.648 43.6991 144.732 44.0286 144.685 44.3529L136.191 102.296C136.142 102.62 135.966 102.911 135.703 103.105C135.44 103.3 135.11 103.382 134.787 103.334Z" fill="#263238" stroke="#263238" stroke-miterlimit="10"/>
<path d="M135.872 103.052H34.776C34.4825 103.052 34.1918 102.994 33.9207 102.882C33.6495 102.769 33.4031 102.605 33.1956 102.397C32.9881 102.19 32.8234 101.943 32.7111 101.672C32.5988 101.401 32.541 101.11 32.541 100.817V44.2495C32.541 43.6567 32.7764 43.0883 33.1956 42.6691C33.6147 42.25 34.1832 42.0145 34.776 42.0145H35.0504C35.4978 42.0136 35.9349 41.8791 36.3054 41.6283C36.676 41.3775 36.9632 41.0218 37.1303 40.6067L38.6694 36.7372C38.8414 36.2906 39.1559 35.9132 39.5642 35.6634C40.0027 35.4045 40.5024 35.2672 41.0117 35.2657H66.9967C67.346 35.2654 67.6923 35.3287 68.0188 35.4526C68.4723 35.6354 68.8508 35.9662 69.0926 36.3912L71.7372 40.897C71.9343 41.2335 72.216 41.5127 72.5544 41.7066C72.8927 41.9006 73.276 42.0026 73.666 42.0026H135.872C136.465 42.0026 137.034 42.238 137.453 42.6572C137.872 43.0763 138.108 43.6448 138.108 44.2376V100.817C138.108 101.11 138.05 101.401 137.937 101.672C137.825 101.943 137.66 102.19 137.453 102.397C137.245 102.605 136.999 102.769 136.728 102.882C136.457 102.994 136.166 103.052 135.872 103.052Z" fill="#92E3A9"/>
<path opacity="0.1" d="M135.872 103.052H34.776C34.4825 103.052 34.1918 102.994 33.9207 102.882C33.6495 102.769 33.4031 102.605 33.1956 102.397C32.9881 102.19 32.8234 101.943 32.7111 101.672C32.5988 101.401 32.541 101.11 32.541 100.817V44.2495C32.541 43.6567 32.7764 43.0883 33.1956 42.6691C33.6147 42.25 34.1832 42.0145 34.776 42.0145H35.0504C35.4978 42.0136 35.9349 41.8791 36.3054 41.6283C36.676 41.3775 36.9632 41.0218 37.1303 40.6067L38.6694 36.7372C38.8414 36.2906 39.1559 35.9132 39.5642 35.6634C40.0027 35.4045 40.5024 35.2672 41.0117 35.2657H66.9967C67.346 35.2654 67.6923 35.3287 68.0188 35.4526C68.4723 35.6354 68.8508 35.9662 69.0926 36.3912L71.7372 40.897C71.9343 41.2335 72.216 41.5127 72.5544 41.7066C72.8927 41.9006 73.276 42.0026 73.666 42.0026H135.872C136.465 42.0026 137.034 42.238 137.453 42.6572C137.872 43.0763 138.108 43.6448 138.108 44.2376V100.817C138.108 101.11 138.05 101.401 137.937 101.672C137.825 101.943 137.66 102.19 137.453 102.397C137.245 102.605 136.999 102.769 136.728 102.882C136.457 102.994 136.166 103.052 135.872 103.052Z" fill="#263238"/>
<path d="M135.872 103.052H34.776C34.4825 103.052 34.1918 102.994 33.9207 102.882C33.6495 102.769 33.4031 102.605 33.1956 102.397C32.9881 102.19 32.8234 101.943 32.7111 101.672C32.5988 101.401 32.541 101.11 32.541 100.817V44.2495C32.541 43.6567 32.7764 43.0883 33.1956 42.6691C33.6147 42.25 34.1832 42.0145 34.776 42.0145H35.0504C35.4978 42.0136 35.9349 41.8791 36.3054 41.6283C36.676 41.3775 36.9632 41.0218 37.1303 40.6067L38.6694 36.7372C38.8414 36.2906 39.1559 35.9132 39.5642 35.6634C40.0027 35.4045 40.5024 35.2672 41.0117 35.2657H66.9967C67.346 35.2654 67.6923 35.3287 68.0188 35.4526C68.4723 35.6354 68.8508 35.9662 69.0926 36.3912L71.7372 40.897C71.9343 41.2335 72.216 41.5127 72.5544 41.7066C72.8927 41.9006 73.276 42.0026 73.666 42.0026H135.872C136.465 42.0026 137.034 42.238 137.453 42.6572C137.872 43.0763 138.108 43.6448 138.108 44.2376V100.817C138.108 101.11 138.05 101.401 137.937 101.672C137.825 101.943 137.66 102.19 137.453 102.397C137.245 102.605 136.999 102.769 136.728 102.882C136.457 102.994 136.166 103.052 135.872 103.052V103.052Z" stroke="#263238" stroke-miterlimit="10"/>
<path d="M61.107 41.8236H44.929C44.5429 41.8236 44.1727 41.6702 43.8997 41.3973C43.6268 41.1243 43.4734 40.7541 43.4734 40.3681C43.4729 40.1766 43.5102 39.9869 43.5831 39.8098C43.656 39.6328 43.7631 39.4718 43.8983 39.3363C44.0335 39.2007 44.1942 39.0931 44.371 39.0197C44.5479 38.9463 44.7375 38.9085 44.929 38.9085H61.107C61.494 38.9085 61.8653 39.0623 62.139 39.336C62.4127 39.6097 62.5665 39.981 62.5665 40.3681C62.5665 40.5595 62.5287 40.7491 62.4553 40.926C62.3819 41.1028 62.2743 41.2635 62.1388 41.3987C62.0032 41.5339 61.8422 41.641 61.6652 41.7139C61.4881 41.7869 61.2984 41.8241 61.107 41.8236Z" fill="white"/>
<path d="M135.872 112.922H34.776C34.1832 112.922 33.6147 112.687 33.1956 112.268C32.7764 111.849 32.541 111.28 32.541 110.687V54.1201C32.541 53.5274 32.7764 52.9589 33.1956 52.5397C33.6147 52.1206 34.1832 51.8851 34.776 51.8851H35.0504C35.498 51.8848 35.9352 51.7505 36.3059 51.4996C36.6765 51.2487 36.9637 50.8927 37.1303 50.4773L38.6694 46.6118C38.8403 46.1645 39.1551 45.7868 39.5642 45.538C40.002 45.2774 40.5022 45.14 41.0117 45.1403H66.9967C67.346 45.14 67.6923 45.2033 68.0188 45.3272C68.4735 45.5102 68.8522 45.8426 69.0926 46.2698L71.7372 50.7796C71.9343 51.1161 72.216 51.3952 72.5544 51.5892C72.8927 51.7831 73.276 51.8852 73.666 51.8851H135.872C136.465 51.8851 137.034 52.1206 137.453 52.5397C137.872 52.9589 138.108 53.5274 138.108 54.1201V110.687C138.108 111.28 137.872 111.849 137.453 112.268C137.034 112.687 136.465 112.922 135.872 112.922Z" fill="#263238" stroke="#263238" stroke-miterlimit="10"/>
<path d="M68.8579 30.1594L52.8072 28.1709C52.4238 28.1222 52.0753 27.9239 51.8376 27.6192C51.5999 27.3144 51.4924 26.9281 51.5386 26.5444C51.5872 26.1605 51.7863 25.8117 52.092 25.5745C52.3978 25.3374 52.7852 25.2313 53.1691 25.2797L69.2158 27.2682C69.5997 27.3159 69.9489 27.514 70.1867 27.8189C70.4246 28.1239 70.5317 28.5109 70.4845 28.8947C70.4609 29.0846 70.4001 29.268 70.3055 29.4344C70.211 29.6008 70.0845 29.7469 69.9335 29.8644C69.7824 29.9818 69.6096 30.0683 69.4251 30.119C69.2405 30.1696 69.0478 30.1833 68.8579 30.1594Z" fill="#92E3A9"/>
<path opacity="0.5" d="M68.8579 30.1594L52.8072 28.1709C52.4238 28.1222 52.0753 27.9239 51.8376 27.6192C51.5999 27.3144 51.4924 26.9281 51.5386 26.5444C51.5872 26.1605 51.7863 25.8117 52.092 25.5745C52.3978 25.3374 52.7852 25.2313 53.1691 25.2797L69.2158 27.2682C69.5997 27.3159 69.9489 27.514 70.1867 27.8189C70.4246 28.1239 70.5317 28.5109 70.4845 28.8947C70.4609 29.0846 70.4001 29.268 70.3055 29.4344C70.211 29.6008 70.0845 29.7469 69.9335 29.8644C69.7824 29.9818 69.6096 30.0683 69.4251 30.119C69.2405 30.1696 69.0478 30.1833 68.8579 30.1594Z" fill="white"/>
<path d="M61.107 51.6982H44.929C44.7375 51.6982 44.5479 51.6604 44.371 51.587C44.1942 51.5136 44.0335 51.4061 43.8983 51.2705C43.7631 51.1349 43.656 50.974 43.5831 50.7969C43.5102 50.6199 43.4729 50.4302 43.4734 50.2387C43.4734 49.8523 43.6266 49.4817 43.8995 49.2081C44.1724 48.9345 44.5426 48.7802 44.929 48.7792H61.107C61.494 48.7792 61.8653 48.9329 62.139 49.2067C62.4127 49.4804 62.5665 49.8516 62.5665 50.2387C62.5665 50.6258 62.4127 50.997 62.139 51.2707C61.8653 51.5444 61.494 51.6982 61.107 51.6982Z" fill="#92E3A9"/>
<path opacity="0.5" d="M61.107 51.6982H44.929C44.7375 51.6982 44.5479 51.6604 44.371 51.587C44.1942 51.5136 44.0335 51.4061 43.8983 51.2705C43.7631 51.1349 43.656 50.974 43.5831 50.7969C43.5102 50.6199 43.4729 50.4302 43.4734 50.2387C43.4734 49.8523 43.6266 49.4817 43.8995 49.2081C44.1724 48.9345 44.5426 48.7802 44.929 48.7792H61.107C61.494 48.7792 61.8653 48.9329 62.139 49.2067C62.4127 49.4804 62.5665 49.8516 62.5665 50.2387C62.5665 50.6258 62.4127 50.997 62.139 51.2707C61.8653 51.5444 61.494 51.6982 61.107 51.6982Z" fill="white"/>
<path d="M139.177 68.8983H31.4672C30.3097 68.8983 29.3714 69.8366 29.3714 70.9941V136.171C29.3714 137.329 30.3097 138.267 31.4672 138.267H139.177C140.335 138.267 141.273 137.329 141.273 136.171V70.9941C141.273 69.8366 140.335 68.8983 139.177 68.8983Z" fill="white"/>
<g style="mix-blend-mode:multiply">
<path d="M141.273 87.5698C128.869 99.1627 114.776 108.804 99.476 116.164C76.8673 126.977 51.0255 134.429 35.969 138.267H139.173C139.449 138.268 139.722 138.214 139.977 138.109C140.231 138.004 140.463 137.849 140.658 137.655C140.853 137.46 141.008 137.229 141.113 136.974C141.219 136.72 141.273 136.447 141.273 136.171V87.5698Z" fill="#92E3A9"/>
</g>
<path opacity="0.2" d="M141.273 87.5698C128.869 99.1627 114.776 108.804 99.476 116.164C76.8673 126.977 51.0255 134.429 35.969 138.267H139.173C139.449 138.268 139.722 138.214 139.977 138.109C140.231 138.004 140.463 137.849 140.658 137.655C140.853 137.46 141.008 137.229 141.113 136.974C141.219 136.72 141.273 136.447 141.273 136.171V87.5698Z" fill="white"/>
<path d="M139.177 68.8983H31.4672C30.3097 68.8983 29.3714 69.8366 29.3714 70.9941V136.171C29.3714 137.329 30.3097 138.267 31.4672 138.267H139.177C140.335 138.267 141.273 137.329 141.273 136.171V70.9941C141.273 69.8366 140.335 68.8983 139.177 68.8983Z" stroke="#263238" stroke-miterlimit="10"/>
<path d="M30.99 74.9909V72.207C30.991 71.6508 31.2127 71.1177 31.6064 70.7248C32.0001 70.3319 32.5336 70.1112 33.0898 70.1112H37.6433" stroke="#263238" stroke-miterlimit="10"/>
<path d="M30.99 117.269V78.3831" stroke="#263238" stroke-miterlimit="10"/>
<path d="M139.651 130.536V134.938C139.651 135.214 139.597 135.487 139.492 135.742C139.387 135.996 139.233 136.228 139.038 136.423C138.843 136.618 138.612 136.773 138.358 136.878C138.103 136.984 137.83 137.038 137.555 137.038H133.884" stroke="#263238" stroke-miterlimit="10"/>
<path d="M139.651 74.0125V127.263" stroke="#263238" stroke-miterlimit="10"/>
<path d="M101.958 94.2629H68.6829C68.0833 94.2629 67.5973 94.749 67.5973 95.3486V112.326C67.5973 112.926 68.0833 113.412 68.6829 113.412H101.958C102.557 113.412 103.043 112.926 103.043 112.326V95.3486C103.043 94.749 102.557 94.2629 101.958 94.2629Z" fill="#263238" stroke="#263238" stroke-miterlimit="10"/>
<path d="M101.958 94.2629H68.6829C68.0833 94.2629 67.5973 94.749 67.5973 95.3486V98.9994C67.5973 99.599 68.0833 100.085 68.6829 100.085H101.958C102.557 100.085 103.043 99.599 103.043 98.9994V95.3486C103.043 94.749 102.557 94.2629 101.958 94.2629Z" fill="white" stroke="#263238" stroke-miterlimit="10"/>
<path d="M37.2457 36.0014L37.9734 37.3575L39.5204 38.4711C39.6177 38.5425 39.7342 38.583 39.8548 38.5873C39.9754 38.5915 40.0945 38.5593 40.1965 38.4949L40.3317 38.4074C40.4301 38.3477 40.5033 38.2542 40.5377 38.1444C40.5721 38.0346 40.5653 37.9161 40.5186 37.8109L39.6397 35.7906L40.2323 36.252C40.3264 36.3245 40.4449 36.3575 40.563 36.3442C40.681 36.3308 40.7891 36.2721 40.8646 36.1804C40.9301 36.0986 40.9658 35.9969 40.9658 35.8921C40.9658 35.7872 40.9301 35.6856 40.8646 35.6037L39.4846 33.8579L37.7587 34.1243L37.2457 36.0014Z" fill="white" stroke="#263238" stroke-miterlimit="10"/>
<path d="M40.3476 38.4075L38.9637 36.59" stroke="#263238" stroke-width="0.5" stroke-linecap="round" stroke-linejoin="round"/>
<path d="M39.5363 38.4711L38.4506 37.0314" stroke="#263238" stroke-width="0.5" stroke-linecap="round" stroke-linejoin="round"/>
<path d="M60.0173 22.8459L62.1807 22.9731L64.8134 24.6554C64.8134 24.6554 64.9606 25.1684 64.5947 25.24C64.2288 25.3116 62.2523 24.5838 62.2523 24.5838L60.1406 24.5559L60.0173 22.8459Z" fill="white" stroke="#263238" stroke-miterlimit="10"/>
<path d="M60.1286 24.2895L62.3994 25.3155C62.3994 25.3155 62.7653 24.8025 62.2523 24.5838L61.5046 24.0708" fill="white"/>
<path d="M60.1286 24.2895L62.3994 25.3155C62.3994 25.3155 62.7653 24.8025 62.2523 24.5838L61.5046 24.0708" stroke="#263238" stroke-linejoin="round"/>
<path d="M140.354 63.0721L139.416 60.2645L138.362 58.8208C138.345 58.7945 138.319 58.7746 138.289 58.7643C138.26 58.754 138.227 58.7538 138.197 58.7638C138.167 58.7737 138.141 58.7933 138.124 58.8195C138.106 58.8456 138.098 58.8768 138.1 58.9083V63.0682L138.895 64.1141L140.354 63.0721Z" fill="white"/>
<path d="M155.65 75.3488L147.775 75.6272C147.485 75.6373 147.197 75.5646 146.947 75.4174C146.696 75.2702 146.492 75.0546 146.36 74.796L140.354 63.0721C140.354 63.0721 139.002 63.8039 138.899 64.1141C138.796 64.4243 143.345 75.834 144.741 79.3376C144.858 79.6317 145.064 79.8822 145.33 80.0546C145.595 80.2269 145.908 80.3127 146.224 80.3L155.025 79.9262" fill="white"/>
<path d="M155.65 75.3488L147.775 75.6272C147.485 75.6373 147.197 75.5646 146.947 75.4174C146.696 75.2702 146.492 75.0546 146.36 74.796L140.354 63.0721C140.354 63.0721 139.002 63.8039 138.899 64.1141C138.796 64.4243 143.345 75.834 144.741 79.3376C144.858 79.6317 145.064 79.8822 145.33 80.0546C145.595 80.2269 145.908 80.3127 146.224 80.3L155.025 79.9262" stroke="#263238" stroke-miterlimit="10"/>
<path d="M140.931 64.5316L139.698 65.0407" stroke="#263238" stroke-width="0.75" stroke-miterlimit="10"/>
<g opacity="0.5">
<g opacity="0.5">
<path d="M155.65 75.3488L147.775 75.6272C147.485 75.6373 147.197 75.5646 146.947 75.4174C146.696 75.2702 146.492 75.0546 146.36 74.796L140.354 63.0721C140.354 63.0721 139.002 63.8039 138.899 64.1141C138.796 64.4243 143.345 75.834 144.741 79.3376C144.858 79.6317 145.064 79.8822 145.33 80.0546C145.595 80.2269 145.908 80.3127 146.224 80.3L155.025 79.9262" fill="#92E3A9"/>
<path d="M155.65 75.3488L147.775 75.6272C147.485 75.6373 147.197 75.5646 146.947 75.4174C146.696 75.2702 146.492 75.0546 146.36 74.796L140.354 63.0721C140.354 63.0721 139.002 63.8039 138.899 64.1141C138.796 64.4243 143.345 75.834 144.741 79.3376C144.858 79.6317 145.064 79.8822 145.33 80.0546C145.595 80.2269 145.908 80.3127 146.224 80.3L155.025 79.9262" stroke="#263238" stroke-miterlimit="10"/>
</g>
<path opacity="0.5" d="M140.931 64.5316L139.698 65.0407" stroke="#263238" stroke-width="0.75" stroke-miterlimit="10"/>
</g>
<path d="M140.354 63.0721L139.416 60.2645L138.362 58.8208C138.345 58.7945 138.319 58.7746 138.289 58.7643C138.26 58.754 138.227 58.7538 138.197 58.7638C138.167 58.7737 138.141 58.7933 138.124 58.8195C138.106 58.8456 138.098 58.8768 138.1 58.9083V63.0682L138.895 64.1141L140.354 63.0721Z" fill="#92E3A9"/>
<path opacity="0.5" d="M140.354 63.0721L139.416 60.2645L138.362 58.8208C138.345 58.7945 138.319 58.7746 138.289 58.7643C138.26 58.754 138.227 58.7538 138.197 58.7638C138.167 58.7737 138.141 58.7933 138.124 58.8195C138.106 58.8456 138.098 58.8768 138.1 58.9083V63.0682L138.895 64.1141L140.354 63.0721Z" fill="white"/>
<path d="M140.354 63.0721L139.416 60.2645L138.362 58.8208C138.345 58.7945 138.319 58.7746 138.289 58.7643C138.26 58.754 138.227 58.7538 138.197 58.7638C138.167 58.7737 138.141 58.7933 138.124 58.8195C138.106 58.8456 138.098 58.8768 138.1 58.9083V63.0682L138.895 64.1141L140.354 63.0721Z" stroke="#263238" stroke-miterlimit="10"/>
<path d="M158.087 67.9399C157.709 68.4191 157.438 68.9737 157.292 69.5664C157.177 70.33 157.36 73.2689 157.36 73.2689L153.263 73.7302C153.263 73.7302 153.574 70.7436 153.59 70.2465C153.721 69.63 153.982 69.0486 154.356 68.5411C154.729 68.0336 155.207 67.6117 155.757 67.3036C157.165 66.6116 158.362 66.9496 158.087 67.9399Z" fill="white"/>
<g style="mix-blend-mode:multiply" opacity="0.5">
<path d="M158.06 67.9717C157.316 67.7688 156.413 67.5422 155.65 67.3592C155.125 67.6717 154.67 68.089 154.313 68.5851C153.957 69.0811 153.706 69.6453 153.578 70.2425C153.578 70.4334 153.522 70.9901 153.466 71.6026C153.864 71.5111 154.496 71.3719 154.966 71.2884C155.337 71.2284 155.703 71.1366 156.059 71.014L155.92 73.4001H156.011L157.348 73.249C157.348 73.249 157.165 70.3101 157.28 69.5465C157.425 68.9723 157.691 68.4355 158.06 67.9717Z" fill="#92E3A9"/>
</g>
<path d="M158.087 67.9399C157.709 68.4191 157.438 68.9737 157.292 69.5664C157.177 70.33 157.36 73.2689 157.36 73.2689L153.263 73.7302C153.263 73.7302 153.574 70.7436 153.59 70.2465C153.721 69.63 153.982 69.0486 154.356 68.5411C154.729 68.0336 155.207 67.6117 155.757 67.3036C157.165 66.6116 158.362 66.9496 158.087 67.9399Z" stroke="#263238" stroke-width="1.00396" stroke-miterlimit="10"/>
<path d="M158.938 68.4449C162.335 63.959 154.146 59.2981 151.995 63.7562C151.695 64.3059 151.458 64.8875 151.287 65.4901C150.961 65.6889 150.094 66.2218 149.935 66.369C149.776 66.5161 150.332 66.8939 150.639 67.0808C150.054 68.5165 150.142 70.0277 150.309 70.3697C150.599 70.9583 152.031 70.9663 152.973 70.7913C153.916 70.6163 154.289 69.7135 154.564 69.467C154.838 69.2204 156.206 69.5346 156.688 69.6777C157.169 69.8209 158.278 69.3318 158.938 68.4449Z" fill="white"/>
<g style="mix-blend-mode:multiply" opacity="0.5">
<path d="M155.578 68.0154C155.578 68.0154 155.65 68.3534 154.966 68.6278C154.282 68.9023 154.146 68.6955 153.944 69.1727C153.857 69.4865 153.683 69.769 153.441 69.9868C153.2 70.2046 152.9 70.3485 152.579 70.4015C151.932 70.5246 151.277 70.6082 150.619 70.6521C151.16 70.9543 152.233 70.9305 153.005 70.7913C153.943 70.6203 154.321 69.7135 154.596 69.467C154.87 69.2204 156.238 69.5346 156.719 69.6777C156.832 69.7002 156.948 69.7002 157.061 69.6777C157.241 69.2781 157.349 68.8501 157.38 68.4131L155.578 68.0154Z" fill="#92E3A9"/>
</g>
<path d="M158.938 68.4449C162.335 63.959 154.146 59.2981 151.995 63.7562C151.695 64.3059 151.458 64.8875 151.287 65.4901C150.961 65.6889 150.094 66.2218 149.935 66.369C149.776 66.5161 150.332 66.8939 150.639 67.0808C150.054 68.5165 150.142 70.0277 150.309 70.3697C150.599 70.9583 152.031 70.9663 152.973 70.7913C153.916 70.6163 154.289 69.7135 154.564 69.467C154.838 69.2204 156.206 69.5346 156.688 69.6777C157.169 69.8209 158.278 69.3318 158.938 68.4449Z" stroke="#263238" stroke-miterlimit="10"/>
<path d="M152.305 65.8838C152.218 66.0747 152.07 66.194 151.975 66.1502C151.879 66.1065 151.872 65.9156 151.975 65.7247C152.078 65.5338 152.21 65.4145 152.305 65.4583C152.4 65.502 152.393 65.6929 152.305 65.8838Z" fill="#263238"/>
<path d="M152.225 64.6589C152.225 64.6589 152.623 64.3288 152.703 65.0884" stroke="#263238" stroke-width="0.5" stroke-linecap="round" stroke-linejoin="round"/>
<path d="M150.559 67.8524C150.559 67.8524 150.559 68.25 151.275 68.25" stroke="#263238" stroke-width="0.5" stroke-linecap="round" stroke-linejoin="round"/>
<path d="M149.589 93.8771L149.275 97.7665C149.275 97.7665 147.099 113.253 147.203 115.03C147.306 116.808 147.541 135.173 147.541 135.173L150.161 135.591L153.104 115.221L157.236 94.5214L149.589 93.8771Z" fill="#92E3A9" stroke="#263238" stroke-miterlimit="10"/>
<path opacity="0.2" d="M149.589 93.8771L149.275 97.7665C149.275 97.7665 147.099 113.253 147.203 115.03C147.306 116.808 147.541 135.173 147.541 135.173L150.161 135.591L153.104 115.221L157.236 94.5214L149.589 93.8771Z" fill="#263238"/>
<path d="M152.906 108.023C152.906 108.023 151.899 113.944 151.14 116.848C150.38 119.751 150.384 122.646 150.384 125.796C150.384 128.945 149.251 134.752 149.251 134.752" stroke="#263238" stroke-width="0.75" stroke-miterlimit="10"/>
<path d="M154.906 92.9227C156.632 92.0159 158.485 91.4154 159.014 92.6204C160.064 95.0304 158.807 98.6931 158.807 98.6931L159.766 115.587L161.519 135.969L158.899 135.547C158.899 135.547 154.874 118.347 154.246 117.297C153.617 116.247 152.627 101.521 152.627 101.521L150.639 99.7112" fill="#92E3A9"/>
<path d="M154.906 92.9227C156.632 92.0159 158.485 91.4154 159.014 92.6204C160.064 95.0304 158.807 98.6931 158.807 98.6931L159.766 115.587L161.519 135.969L158.899 135.547C158.899 135.547 154.874 118.347 154.246 117.297C153.617 116.247 152.627 101.521 152.627 101.521L150.639 99.7112" stroke="#263238" stroke-miterlimit="10"/>
<g opacity="0.2">
<path opacity="0.2" d="M154.906 92.9227C156.632 92.0159 158.485 91.4154 159.014 92.6204C160.064 95.0304 158.807 98.6931 158.807 98.6931L159.766 115.587L161.519 135.969L158.899 135.547C158.899 135.547 154.874 118.347 154.246 117.297C153.617 116.247 152.627 101.521 152.627 101.521L150.639 99.7112" fill="#263238"/>
</g>
<path d="M156.95 105.72C157.01 109.638 157.407 111.523 157.718 112.557C158.095 113.817 157.968 116.211 157.968 117.329C157.968 118.446 157.463 117.078 158.6 122.248C159.738 127.418 160.489 134.6 160.489 134.6" stroke="#263238" stroke-width="0.75" stroke-miterlimit="10"/>
<path d="M156.95 97.1819C156.95 97.1819 157.073 96.9274 156.95 102.853C156.95 103.171 156.95 103.477 156.95 103.776" stroke="#263238" stroke-width="0.75" stroke-miterlimit="10"/>
<path d="M151.132 96.0565L151.048 97.8301L150.639 99.063L151.251 99.7788" stroke="#263238" stroke-width="0.75" stroke-linecap="round" stroke-linejoin="round"/>
<path d="M150.328 97.1143C150.328 97.1143 151.355 98.1403 154.019 97.8301" stroke="#263238" stroke-width="0.75" stroke-linecap="round" stroke-linejoin="round"/>
<path d="M156.624 96.2275C158.612 95.8298 158.74 95.2809 159.428 94.8196C159.44 94.0676 159.305 93.3203 159.03 92.6204C158.509 91.4273 156.644 92.0159 154.922 92.9227L154.087 94.243L149.605 93.8771L149.462 95.6349C151.763 96.4243 154.224 96.628 156.624 96.2275Z" fill="#263238"/>
<path d="M150.038 95.0941L149.994 95.794L151.132 96.0565L151.219 95.1378L150.038 95.0941Z" fill="white" stroke="#263238" stroke-width="0.75" stroke-miterlimit="10"/>
<path d="M157.976 96.132L157.785 94.3901L158.362 94.1992L158.652 95.7462" fill="#92E3A9"/>
<path d="M157.976 96.132L157.785 94.3901L158.362 94.1992L158.652 95.7462" stroke="#263238" stroke-miterlimit="10"/>
<path d="M153.53 96.7127L153.144 94.6805H154.111L154.496 96.4224" fill="#92E3A9"/>
<path d="M153.53 96.7127L153.144 94.6805H154.111L154.496 96.4224" stroke="#263238" stroke-miterlimit="10"/>
<g opacity="0.2">
<path opacity="0.2" d="M157.976 96.132L157.785 94.3901L158.362 94.1992L158.652 95.7463" fill="#263238"/>
<path opacity="0.2" d="M153.53 96.7126L153.144 94.6805H154.111L154.496 96.4223" fill="#263238"/>
</g>
<path d="M149.076 78.4627C149.076 78.4627 148.746 80.6699 147.755 84.428C146.765 88.1862 145.767 92.692 145.767 92.692L146.32 95.0065L147.97 92.5806L149.076 78.4627Z" fill="#263238" stroke="#263238" stroke-miterlimit="10"/>
<path d="M151.832 75.2693C151.832 75.2693 149.517 75.8181 149.298 76.9197C149.18 77.4267 149.106 77.943 149.076 78.4627L152.603 75.5994L157.014 73.8336L151.832 75.2693Z" fill="#263238" stroke="#263238" stroke-miterlimit="10"/>
<path d="M152.464 74.4182C152.464 74.4182 150.583 76.5458 149.835 77.4208C149.088 78.2957 149.084 87.6851 149.084 89.0651C149.084 90.4451 148.336 94.1913 149.585 94.9429C150.834 95.6946 158.473 95.444 159.225 94.1913C159.976 92.9386 160.474 77.9219 160.35 76.5459C160.257 75.9285 160.013 75.3434 159.642 74.8416C159.27 74.3398 158.782 73.9364 158.219 73.6666C157.348 73.2649 152.464 74.4182 152.464 74.4182Z" fill="white"/>
<g style="mix-blend-mode:multiply" opacity="0.5">
<path d="M158.219 73.6666C158.115 73.6246 158.004 73.6004 157.893 73.595L157.352 73.8773C158.262 74.6232 158.888 75.6595 159.125 76.8123C159.377 78.487 159.354 80.1915 159.058 81.8589C158.787 83.7002 154.421 81.8589 155.24 82.543C156.059 83.227 159.125 84.3843 159.265 84.9967C159.404 85.6092 157.745 86.6312 157.149 86.7028C156.552 86.7744 157.547 88.1345 158.171 89.2918C158.795 90.449 158.569 92.0756 157.149 93.1812C155.729 94.2867 152.432 94.8316 151.009 94.8872C150.547 94.8872 150.261 95.0065 150.173 95.1418C152.361 95.6309 158.553 95.3128 159.225 94.1913C159.976 92.9386 160.474 77.9218 160.35 76.5458C160.257 75.9285 160.013 75.3434 159.642 74.8416C159.27 74.3397 158.782 73.9363 158.219 73.6666Z" fill="#92E3A9"/>
</g>
<path d="M152.464 74.4182C152.464 74.4182 150.583 76.5458 149.835 77.4208C149.088 78.2957 149.084 87.6851 149.084 89.0651C149.084 90.4451 148.336 94.1913 149.585 94.9429C150.834 95.6946 158.473 95.444 159.225 94.1913C159.976 92.9386 160.474 77.9219 160.35 76.5459C160.257 75.9285 160.013 75.3434 159.642 74.8416C159.27 74.3398 158.782 73.9364 158.219 73.6666C157.348 73.2649 152.464 74.4182 152.464 74.4182Z" stroke="#263238" stroke-miterlimit="10"/>
<path d="M156.31 83.9429C154.293 83.3145 152.528 81.5567 152.528 81.5567C152.975 83.6455 154.19 85.4904 155.932 86.7267" fill="white"/>
<path d="M156.31 83.9429C154.293 83.3145 152.528 81.5567 152.528 81.5567C152.975 83.6455 154.19 85.4904 155.932 86.7267" stroke="#263238" stroke-width="0.75" stroke-linecap="round" stroke-linejoin="round"/>
<path d="M157.845 72.2906L151.836 73.6666L151.462 75.4204L158.219 73.6666L157.845 72.2906Z" fill="white" stroke="#263238" stroke-miterlimit="10"/>
<path d="M150.511 138.215L150.161 135.575L147.541 135.157L145.357 136.712L143.401 137.786V138.215H150.511Z" fill="#263238" stroke="#263238" stroke-miterlimit="10"/>
<path d="M161.846 138.422L161.519 135.969L158.899 135.547L156.715 137.102L154.759 138.18V138.422H161.846Z" fill="#263238" stroke="#263238" stroke-miterlimit="10"/>
<path d="M139.209 60.7814L137.594 59.8469C137.594 59.8469 136.966 59.7713 137.237 60.4712L138.851 61.716" fill="white"/>
<path d="M139.209 60.7814L137.594 59.8469C137.594 59.8469 136.966 59.7713 137.237 60.4712L138.851 61.716" stroke="#263238" stroke-linecap="round" stroke-linejoin="round"/>
<path d="M138.971 63.2113C138.895 63.0195 138.782 62.844 138.64 62.6943L138.338 62.3682L136.696 60.332C136.696 60.332 136.187 59.99 136.298 60.7297L137.316 62.7182L135.507 61.02C135.507 61.02 135.165 60.7377 135.165 61.1354C135.165 61.5331 136.807 63.2869 136.807 63.2869L134.994 62.4358C134.994 62.4358 134.596 62.7182 134.882 63.0005C135.169 63.2829 136.692 63.8516 136.692 63.8516L135.336 63.7959C135.336 63.7959 134.938 64.1339 135.22 64.2493C135.503 64.3646 137.089 64.6987 137.089 64.6987C137.291 64.87 137.521 65.0046 137.769 65.0963L138.167 65.8321L139.69 65.0645L138.971 63.2113Z" fill="white" stroke="#263238" stroke-linecap="round" stroke-linejoin="round"/>
<path d="M155.232 80.8647L146.157 82.9924C145.692 83.0742 145.214 82.9925 144.802 82.7612C144.391 82.5299 144.073 82.1633 143.902 81.7237L138.175 65.8162L139.698 65.0486L146.026 76.7685C146.169 77.0366 146.395 77.2513 146.67 77.381C146.945 77.5106 147.255 77.5483 147.553 77.4884L154.492 75.5277" fill="white"/>
<path d="M155.232 80.8647L146.157 82.9924C145.692 83.0742 145.214 82.9925 144.802 82.7612C144.391 82.5299 144.073 82.1633 143.902 81.7237L138.175 65.8162L139.698 65.0486L146.026 76.7685C146.169 77.0366 146.395 77.2513 146.67 77.381C146.945 77.5106 147.255 77.5483 147.553 77.4884L154.492 75.5277" stroke="#263238" stroke-miterlimit="10"/>
<path d="M140.553 66.5479L138.788 67.4308" stroke="#263238" stroke-width="0.75" stroke-miterlimit="10"/>
<path d="M154.103 63.8039C154.103 63.8039 153.136 64.7703 153.617 65.4941C153.902 65.9121 154.12 66.3724 154.262 66.8581C154.262 66.8581 153.864 67.8245 154.182 67.8245C154.5 67.8245 154.341 67.1007 154.906 67.2638C155.471 67.4268 156.031 68.3892 155.55 68.7114C155.19 68.9126 154.809 69.0727 154.413 69.1886C154.362 69.204 154.317 69.2338 154.284 69.2744C154.25 69.3149 154.229 69.3645 154.223 69.4169C154.217 69.4693 154.227 69.5223 154.25 69.5693C154.274 69.6164 154.311 69.6555 154.357 69.6817C154.88 70.0351 155.483 70.2537 156.111 70.318C156.625 70.329 157.138 70.2756 157.638 70.1589C157.638 70.1589 159.229 67.9876 160.374 67.4228C161.519 66.8581 161.018 64.2851 161.018 63.9629C161.018 63.6408 159.893 62.917 159.893 62.917C159.893 62.917 160.215 62.1932 158.767 60.5866C157.32 58.9799 154.584 58.6538 154.504 59.2185C154.476 59.368 154.492 59.5224 154.549 59.6634C154.606 59.8044 154.702 59.926 154.826 60.0139C154.826 60.0139 152.412 58.968 151.287 60.0934C150.161 61.2189 154.103 63.8039 154.103 63.8039Z" fill="#263238" stroke="#263238" stroke-miterlimit="10"/>
<path d="M154.103 63.8039C154.103 63.8039 156.059 66.19 158.958 66.4207" stroke="white" stroke-width="0.5" stroke-linecap="round" stroke-linejoin="round"/>
<path d="M153.411 64.5316C153.411 64.5316 154.321 67.1803 158.087 67.9359" stroke="white" stroke-width="0.5" stroke-linecap="round" stroke-linejoin="round"/>
</svg>
