<svg width="21" height="20" viewBox="0 0 21 20" fill="none" xmlns="http://www.w3.org/2000/svg">
<path d="M16.941 8.13093C17.0151 8.12838 17.089 8.14077 17.1582 8.16737C17.2275 8.19397 17.2906 8.23423 17.344 8.28576C17.3973 8.33729 17.4397 8.39902 17.4687 8.46729C17.4977 8.53556 17.5126 8.60896 17.5126 8.68312C17.5126 8.75728 17.4977 8.83068 17.4687 8.89895C17.4397 8.96722 17.3973 9.02895 17.344 9.08048C17.2906 9.13201 17.2275 9.17227 17.1582 9.19887C17.089 9.22547 17.0151 9.23786 16.941 9.23531H15.4062V10.2196H16.941C17.0156 10.216 17.0901 10.2275 17.1601 10.2535C17.23 10.2796 17.294 10.3195 17.348 10.371C17.4021 10.4225 17.4451 10.4844 17.4745 10.553C17.504 10.6216 17.5191 10.6955 17.5191 10.7702C17.5191 10.8448 17.504 10.9187 17.4745 10.9873C17.4451 11.0559 17.4021 11.1178 17.348 11.1693C17.294 11.2208 17.23 11.2608 17.1601 11.2868C17.0901 11.3128 17.0156 11.3243 16.941 11.3207H14.8563C14.7106 11.3202 14.571 11.262 14.468 11.1588C14.3651 11.0556 14.3072 10.9159 14.3071 10.7702V6.59674C14.3071 6.29292 14.5531 6.04357 14.8563 6.04357H16.945C17.0867 6.05089 17.2201 6.11244 17.3177 6.21547C17.4152 6.3185 17.4694 6.45511 17.469 6.59699C17.4685 6.73888 17.4136 6.87516 17.3154 6.97761C17.2172 7.08006 17.0834 7.14081 16.9417 7.14729H15.4068V8.13159L16.941 8.13093ZM13.5721 10.7695C13.5709 10.9156 13.512 11.0554 13.4083 11.1584C13.3046 11.2614 13.1644 11.3192 13.0183 11.3194C12.9317 11.3202 12.8462 11.3009 12.7684 11.263C12.6906 11.2251 12.6227 11.1696 12.5701 11.1009L10.4342 8.19589V10.7688C10.4342 10.9149 10.3762 11.0549 10.2729 11.1581C10.1697 11.2614 10.0296 11.3194 9.88363 11.3194C9.73762 11.3194 9.59758 11.2614 9.49433 11.1581C9.39109 11.0549 9.33308 10.9149 9.33308 10.7688V6.59543C9.33308 6.35986 9.48729 6.14856 9.70908 6.0731C9.76386 6.05375 9.82161 6.0442 9.87969 6.04488C10.0503 6.04488 10.2078 6.13741 10.3134 6.26733L12.4664 9.17888V6.59543C12.4664 6.29161 12.7125 6.04226 13.017 6.04226C13.3214 6.04226 13.5708 6.29161 13.5708 6.59543L13.5721 10.7695ZM8.54827 10.7695C8.54758 10.9159 8.4889 11.056 8.38509 11.1592C8.28129 11.2624 8.14081 11.3202 7.99444 11.32C7.84916 11.3188 7.71024 11.2603 7.60788 11.1572C7.50552 11.0541 7.448 10.9148 7.44783 10.7695V6.59609C7.44783 6.29227 7.6939 6.04291 7.99838 6.04291C8.3022 6.04291 8.54893 6.29227 8.54893 6.59609L8.54827 10.7695ZM6.39135 11.32H4.30268C4.15647 11.3197 4.01629 11.2617 3.9126 11.1586C3.8089 11.0555 3.75006 10.9157 3.74885 10.7695V6.59609C3.74885 6.29227 3.99821 6.04291 4.30268 6.04291C4.60716 6.04291 4.85323 6.29227 4.85323 6.59609V10.2189H6.39135C6.53737 10.2189 6.6774 10.277 6.78065 10.3802C6.8839 10.4834 6.9419 10.6235 6.9419 10.7695C6.9419 10.9155 6.8839 11.0555 6.78065 11.1588C6.6774 11.262 6.53737 11.32 6.39135 11.32ZM20.9983 8.52334C20.9983 3.82431 16.2848 0 10.4991 0C4.71346 0 0 3.82431 0 8.52334C0 12.7341 3.73573 16.2612 8.77991 16.9312C9.12179 17.0027 9.58637 17.1569 9.70646 17.4476C9.81211 17.7101 9.7747 18.1169 9.74058 18.3945L9.59687 19.2863C9.55553 19.5494 9.38492 20.3224 10.5129 19.8506C11.6442 19.3788 16.5657 16.2829 18.7698 13.746C20.2771 12.0957 20.9983 10.4001 20.9983 8.52334Z" fill="white"/>
</svg>
