<svg width="50" height="50" viewBox="0 0 50 50" fill="none" xmlns="http://www.w3.org/2000/svg">
<circle cx="25" cy="25" r="25" fill="#BDDEB1"/>
<path d="M25.3077 38C27 38 28.3846 36.6154 28.3846 34.9231H22.2308C22.2308 35.7391 22.5549 36.5218 23.132 37.0988C23.709 37.6758 24.4916 38 25.3077 38ZM34.5385 28.7692V21.0769C34.5385 16.3538 32.0154 12.4 27.6154 11.3538V10.3077C27.6154 9.03077 26.5846 8 25.3077 8C24.0308 8 23 9.03077 23 10.3077V11.3538C18.5846 12.4 16.0769 16.3385 16.0769 21.0769V28.7692L13 31.8462V33.3846H37.6154V31.8462L34.5385 28.7692Z" fill="white"/>
</svg>
