<svg width="150" height="143" viewBox="0 0 150 143" fill="none" xmlns="http://www.w3.org/2000/svg">
<path d="M138.198 132.907L136.968 121.355" stroke="#263238" stroke-width="0.985332" stroke-linecap="round" stroke-linejoin="round"/>
<path d="M136.961 121.679C136.961 121.679 134.752 119.959 134.752 116.026C134.752 112.093 137.699 108.901 137.699 108.901C137.699 108.901 140.895 112.834 140.157 116.764C139.419 120.694 136.961 121.679 136.961 121.679Z" fill="#92E3A9" stroke="#263238" stroke-width="0.985332" stroke-linecap="round" stroke-linejoin="round"/>
<path d="M136.968 121.355L137.531 112.675" stroke="#263238" stroke-width="0.985332" stroke-linecap="round" stroke-linejoin="round"/>
<path d="M139.333 132.055C140.406 129.29 141.716 126.623 143.248 124.083" stroke="#263238" stroke-width="0.985332" stroke-linecap="round" stroke-linejoin="round"/>
<path d="M142.09 126.172C142.09 126.172 140.863 123.651 142.599 120.131C144.335 116.611 148.392 115.044 148.392 115.044C148.392 115.044 149.521 119.982 147.12 123.183C144.72 126.385 142.09 126.172 142.09 126.172Z" fill="#92E3A9" stroke="#263238" stroke-width="0.985332" stroke-linecap="round" stroke-linejoin="round"/>
<path d="M142.09 126.172L146.564 118.818" stroke="#263238" stroke-width="0.985332" stroke-linecap="round" stroke-linejoin="round"/>
<path d="M136.205 133.085C135.538 130.864 134.632 128.722 133.502 126.697L131.782 123.734" stroke="#263238" stroke-width="0.985332" stroke-linecap="round" stroke-linejoin="round"/>
<path d="M133.165 126.026C131.808 126.443 130.367 126.509 128.977 126.219C127.587 125.929 126.293 125.291 125.216 124.366C121.4 121.161 121.613 114.621 121.613 114.621C121.613 114.621 129.009 113.565 131.995 117.756C132.86 118.929 133.42 120.299 133.625 121.743C133.829 123.187 133.671 124.659 133.165 126.026Z" fill="#92E3A9" stroke="#263238" stroke-width="0.985332" stroke-linecap="round" stroke-linejoin="round"/>
<path d="M133.165 126.026L124.399 116.891" stroke="#263238" stroke-width="0.985332" stroke-linecap="round" stroke-linejoin="round"/>
<path d="M142.243 130.433H132.885V139.609H142.243V130.433Z" fill="#263238" stroke="#263238" stroke-width="0.985332" stroke-linecap="round" stroke-linejoin="round"/>
<path d="M126.609 1H64.0145V53.7341H126.609V1Z" fill="white" stroke="#263238" stroke-width="0.985332" stroke-linecap="round" stroke-linejoin="round"/>
<path d="M77.0064 30.6468H76.4977L76.4118 30.0681H75.795L75.7059 30.6468H75.2449L75.7568 27.4449H76.4945L77.0064 30.6468ZM75.8586 29.6325H76.3419L76.1002 28.0109L75.8586 29.6325Z" fill="#263238"/>
<path d="M77.7187 27.4449V29.9155C77.7187 30.1444 77.8204 30.2335 77.9794 30.2335C78.1384 30.2335 78.2433 30.1508 78.2433 29.9155V27.4449H78.7171V29.8837C78.7171 30.3956 78.4627 30.6882 77.9667 30.6882C77.4706 30.6882 77.2163 30.3956 77.2163 29.8837V27.4449H77.7187Z" fill="#263238"/>
<path d="M78.9142 27.4449H80.469V27.9028H79.9444V30.6468H79.4515V27.9028H78.9269L78.9142 27.4449Z" fill="#263238"/>
<path d="M81.194 30.6468H80.6884V27.4449H81.194V28.8185H81.7632V27.4449H82.2783V30.6468H81.7632V29.2764H81.194V30.6468Z" fill="#263238"/>
<path d="M83.1463 28.7931H83.8363V29.251H83.1463V30.2049H84.0143V30.6627H82.6312V27.4449H84.0016V27.9028H83.1336L83.1463 28.7931Z" fill="#263238"/>
<path d="M84.7743 28.3448V30.6627H84.3228V27.4449H84.9587L85.477 29.3527V27.4449H85.9253V30.6468H85.407L84.7743 28.3448Z" fill="#263238"/>
<path d="M86.1288 27.4449H87.6868V27.9028H87.159V30.6468H86.6566V27.9028H86.1288V27.4449Z" fill="#263238"/>
<path d="M87.9094 27.4449H88.4117V30.6468H87.9094V27.4449Z" fill="#263238"/>
<path d="M90.2369 29.4545V29.8805C90.2369 30.3925 89.9825 30.685 89.4865 30.685C88.9904 30.685 88.7361 30.3925 88.7361 29.8805V28.2144C88.7361 27.6993 88.9936 27.4068 89.4865 27.4068C89.9793 27.4068 90.2369 27.6993 90.2369 28.2144V28.5324H89.7631V28.189C89.7631 27.96 89.6613 27.871 89.5024 27.871C89.3434 27.871 89.2416 27.96 89.2416 28.189V29.9187C89.2416 30.1476 89.3402 30.2366 89.5024 30.2366C89.6645 30.2366 89.7631 30.1572 89.7631 29.9187V29.4608L90.2369 29.4545Z" fill="#263238"/>
<path d="M92.1701 30.6468H91.6613L91.5755 30.0681H90.9618L90.8728 30.6468H90.4117L90.9237 27.4449H91.6613L92.1701 30.6468ZM91.0222 29.6325H91.5055L91.2639 28.0109L91.0222 29.6325Z" fill="#263238"/>
<path d="M92.0842 27.4449H93.6422V27.9028H93.124V30.6468H92.6216V27.9028H92.0938L92.0842 27.4449Z" fill="#263238"/>
<path d="M94.364 28.7931H95.054V29.251H94.364V30.2049H95.2352V30.6627H93.8616V27.4449H95.2352V27.9028H94.364V28.7931Z" fill="#263238"/>
<path d="M96.7264 29.5848L96.0905 27.4449H96.6215L97.0062 28.9044L97.391 27.4449H97.8711L97.2352 29.5848V30.6468H96.7328L96.7264 29.5848Z" fill="#263238"/>
<path d="M97.957 28.2144C97.957 28.012 98.0374 27.8179 98.1805 27.6748C98.3236 27.5317 98.5177 27.4513 98.7201 27.4513C98.9225 27.4513 99.1166 27.5317 99.2597 27.6748C99.4028 27.8179 99.4832 28.012 99.4832 28.2144V29.8805C99.4832 30.0829 99.4028 30.277 99.2597 30.4201C99.1166 30.5633 98.9225 30.6437 98.7201 30.6437C98.5177 30.6437 98.3236 30.5633 98.1805 30.4201C98.0374 30.277 97.957 30.0829 97.957 29.8805V28.2144ZM98.4593 29.9123C98.4593 30.1413 98.5611 30.2303 98.7201 30.2303C98.8791 30.2303 98.9808 30.1445 98.9808 29.9123V28.1826C98.9808 27.9537 98.8791 27.8647 98.7201 27.8647C98.5611 27.8647 98.4593 27.9537 98.4593 28.1826V29.9123Z" fill="#263238"/>
<path d="M100.288 27.4449V29.9155C100.288 30.1444 100.389 30.2335 100.548 30.2335C100.707 30.2335 100.809 30.1508 100.809 29.9155V27.4449H101.286V29.8837C101.286 30.3956 101.032 30.6882 100.536 30.6882C100.04 30.6882 99.7853 30.3956 99.7853 29.8837V27.4449H100.288Z" fill="#263238"/>
<path d="M102.682 30.6468C102.64 30.52 102.624 30.3856 102.637 30.2526V29.7502C102.637 29.4545 102.536 29.3432 102.319 29.3432H102.145V30.6468H101.642V27.4449H102.402C102.924 27.4449 103.146 27.6866 103.146 28.1826V28.4338C103.162 28.5594 103.141 28.6871 103.084 28.8004C103.028 28.9137 102.938 29.0075 102.828 29.0697C103.079 29.1747 103.162 29.4163 103.162 29.7502V30.2526C103.152 30.3842 103.171 30.5165 103.216 30.6405L102.682 30.6468ZM102.132 27.9028V28.8853H102.345C102.532 28.8853 102.647 28.8026 102.647 28.5483V28.2303C102.647 28.0014 102.571 27.9124 102.393 27.9124L102.132 27.9028Z" fill="#263238"/>
<path d="M105.807 30.6468H105.299L105.213 30.0681H104.593L104.507 30.6468H104.046L104.571 27.4449H105.308L105.807 30.6468ZM104.66 29.6325H105.143L104.889 28.0268L104.66 29.6325Z" fill="#263238"/>
<path d="M107.496 29.4545V29.8805C107.496 30.3925 107.238 30.685 106.745 30.685C106.253 30.685 105.995 30.3925 105.995 29.8805V28.2144C105.995 27.6993 106.249 27.4068 106.745 27.4068C107.241 27.4068 107.496 27.6993 107.496 28.2144V28.5324H107.019V28.189C107.019 27.96 106.917 27.871 106.758 27.871C106.599 27.871 106.497 27.96 106.497 28.189V29.9187C106.497 30.1476 106.599 30.2366 106.758 30.2366C106.917 30.2366 107.019 30.1572 107.019 29.9187V29.4608L107.496 29.4545Z" fill="#263238"/>
<path d="M109.261 29.4545V29.8805C109.261 30.3925 109.006 30.685 108.51 30.685C108.014 30.685 107.76 30.3925 107.76 29.8805V28.2144C107.76 27.6993 108.017 27.4068 108.51 27.4068C109.003 27.4068 109.261 27.6993 109.261 28.2144V28.5324H108.784V28.189C108.784 27.96 108.685 27.871 108.523 27.871C108.361 27.871 108.262 27.96 108.262 28.189V29.9187C108.262 30.1476 108.364 30.2366 108.523 30.2366C108.682 30.2366 108.784 30.1572 108.784 29.9187V29.4608L109.261 29.4545Z" fill="#263238"/>
<path d="M109.524 28.2144C109.518 28.1098 109.532 28.005 109.568 27.9064C109.603 27.8077 109.658 27.7174 109.73 27.641C109.802 27.5645 109.888 27.5036 109.985 27.4619C110.081 27.4203 110.184 27.3988 110.289 27.3988C110.394 27.3988 110.498 27.4203 110.594 27.4619C110.69 27.5036 110.777 27.5645 110.848 27.641C110.92 27.7174 110.975 27.8077 111.01 27.9064C111.046 28.005 111.061 28.1098 111.054 28.2144V29.8805C111.061 29.9851 111.046 30.0899 111.01 30.1886C110.975 30.2872 110.92 30.3775 110.848 30.454C110.777 30.5304 110.69 30.5914 110.594 30.633C110.498 30.6747 110.394 30.6962 110.289 30.6962C110.184 30.6962 110.081 30.6747 109.985 30.633C109.888 30.5914 109.802 30.5304 109.73 30.454C109.658 30.3775 109.603 30.2872 109.568 30.1886C109.532 30.0899 109.518 29.9851 109.524 29.8805V28.2144ZM110.03 29.9123C110.03 30.1413 110.129 30.2303 110.291 30.2303C110.453 30.2303 110.551 30.1444 110.551 29.9123V28.1826C110.551 27.9537 110.45 27.8647 110.291 27.8647C110.132 27.8647 110.03 27.9537 110.03 28.1826V29.9123Z" fill="#263238"/>
<path d="M111.858 27.4449V29.9155C111.858 30.1444 111.96 30.2335 112.119 30.2335C112.278 30.2335 112.38 30.1508 112.38 29.9155V27.4449H112.857V29.8837C112.857 30.3956 112.602 30.6882 112.106 30.6882C111.61 30.6882 111.356 30.3956 111.356 29.8837V27.4449H111.858Z" fill="#263238"/>
<path d="M113.648 28.3448V30.6627H113.197V27.4449H113.833L114.351 29.3527V27.4449H114.799V30.6468H114.281L113.648 28.3448Z" fill="#263238"/>
<path d="M115.006 27.4449H116.564V27.9028H116.036V30.6468H115.534V27.9028H115.006V27.4449Z" fill="#263238"/>
<path d="M102.693 17.6252C103.324 13.7105 100.661 10.0258 96.7466 9.39529C92.8319 8.76475 89.1472 11.4271 88.5167 15.3418C87.8861 19.2566 90.5485 22.9412 94.4632 23.5718C98.3779 24.2023 102.063 21.54 102.693 17.6252Z" fill="#92E3A9"/>
<path d="M98.736 14.8282C98.736 15.4476 98.5523 16.0532 98.2082 16.5682C97.864 17.0832 97.3749 17.4847 96.8026 17.7217C96.2303 17.9588 95.6006 18.0208 94.993 17.8999C94.3855 17.7791 93.8274 17.4808 93.3894 17.0428C92.9514 16.6048 92.6531 16.0467 92.5323 15.4392C92.4114 14.8317 92.4735 14.2019 92.7105 13.6297C92.9476 13.0574 93.349 12.5682 93.864 12.2241C94.3791 11.8799 94.9846 11.6963 95.604 11.6963C96.4347 11.6963 97.2313 12.0262 97.8187 12.6136C98.406 13.2009 98.736 13.9975 98.736 14.8282Z" fill="#263238"/>
<path d="M90.4499 21.4768C91.1187 22.1678 91.9197 22.7172 92.8051 23.0925C93.6905 23.4677 94.6424 23.6611 95.6041 23.6611C96.5657 23.6611 97.5176 23.4677 98.403 23.0925C99.2885 22.7172 100.089 22.1678 100.758 21.4768V21.2701C100.759 20.9074 100.688 20.5482 100.549 20.213C100.411 19.8777 100.207 19.5731 99.951 19.3165C99.6947 19.0599 99.3903 18.8563 99.0552 18.7174C98.7202 18.5785 98.361 18.507 97.9983 18.507H93.213C92.4802 18.507 91.7774 18.7981 91.2592 19.3163C90.741 19.8345 90.4499 20.5373 90.4499 21.2701V21.4768Z" fill="#263238"/>
<path d="M117.121 36.4178H73.8077V41.6833H117.121V36.4178Z" stroke="#263238" stroke-width="0.985332" stroke-miterlimit="10"/>
<path d="M117.121 44.3129H73.8077V49.5783H117.121V44.3129Z" fill="#92E3A9" stroke="#263238" stroke-width="0.985332" stroke-miterlimit="10"/>
<path d="M88.3354 39.2V39.518H87.5532V40.6563H88.5071V40.9742H87.1908V37.7819H88.5071V38.0999H87.5532V39.1936L88.3354 39.2Z" fill="#BDBDBD"/>
<path d="M89.159 40.987H88.841V37.7819H89.3084L90.0493 40.0967V37.7819H90.3672V40.987H89.9952L89.1749 38.3956L89.159 40.987Z" fill="#BDBDBD"/>
<path d="M91.1812 40.987V38.1062H90.5803V37.7883H92.1192V38.1062H91.5341V40.987H91.1812Z" fill="#BDBDBD"/>
<path d="M93.515 39.2V39.518H92.7328V40.6563H93.6867V40.9742H92.3704V37.7819H93.6867V38.0999H92.7328V39.1936L93.515 39.2Z" fill="#BDBDBD"/>
<path d="M94.736 37.7819C95.2416 37.7819 95.4514 38.0394 95.4514 38.5132V38.7739C95.4733 38.9133 95.4455 39.0559 95.3729 39.1768C95.3002 39.2977 95.1873 39.3892 95.054 39.4353C95.3465 39.5211 95.4546 39.7533 95.4546 40.103V40.6022C95.4453 40.7337 95.4671 40.8655 95.5182 40.987H95.1589C95.108 40.8632 95.0873 40.7292 95.0985 40.5959V40.1094C95.0985 39.7469 94.93 39.6324 94.6311 39.6324H94.3958V41.0029H94.0397V37.7819H94.736ZM94.647 39.2922C94.93 39.2922 95.0985 39.2 95.0985 38.8534V38.5355C95.0985 38.2493 94.9936 38.0967 94.7265 38.0967H94.3958V39.2827L94.647 39.2922Z" fill="#BDBDBD"/>
<path d="M97.9506 38.5546V38.8376H97.6104V38.5196C97.6104 38.2302 97.4959 38.0554 97.2352 38.0554C96.9745 38.0554 96.86 38.2302 96.86 38.5196V40.2112C96.86 40.5005 96.9777 40.6754 97.2352 40.6754C97.4928 40.6754 97.6104 40.5005 97.6104 40.2112V39.7946H97.9506V40.1921C97.9506 40.6786 97.7185 40.9997 97.2257 40.9997C96.7328 40.9997 96.5071 40.6817 96.5071 40.1921V38.5355C96.5071 38.0522 96.736 37.731 97.2257 37.731C97.7153 37.731 97.9506 38.0713 97.9506 38.5546Z" fill="#BDBDBD"/>
<path d="M98.2463 38.5546C98.2463 38.0649 98.488 37.7501 98.9776 37.7501C99.4673 37.7501 99.7153 38.0681 99.7153 38.5546V40.2112C99.7153 40.6976 99.4736 41.0188 98.9776 41.0188C98.4816 41.0188 98.2463 40.7008 98.2463 40.2112V38.5546ZM98.5993 40.2302C98.5993 40.5228 98.7233 40.6945 98.9776 40.6945C99.232 40.6945 99.3592 40.5228 99.3592 40.2302V38.5387C99.3592 38.2493 99.2384 38.0744 98.9776 38.0744C98.7169 38.0744 98.5993 38.2493 98.5993 38.5387V40.2302Z" fill="#BDBDBD"/>
<path d="M100.803 37.7819C101.302 37.7819 101.531 38.084 101.531 38.58V40.1952C101.531 40.6849 101.302 40.987 100.803 40.987H100.052V37.7819H100.803ZM100.803 40.6436C101.057 40.6436 101.181 40.4846 101.181 40.192V38.545C101.181 38.2525 101.057 38.0903 100.796 38.0903H100.412V40.634L100.803 40.6436Z" fill="#BDBDBD"/>
<path d="M103.003 39.2V39.518H102.221V40.6563H103.175V40.9742H101.855V37.7819H103.175V38.0999H102.221V39.1936L103.003 39.2Z" fill="#BDBDBD"/>
<path d="M92.5516 45.7055C93.0476 45.7055 93.2766 46.0235 93.2766 46.5036V48.1189C93.2766 48.6085 93.0476 48.9106 92.5516 48.9106H91.798V45.7055H92.5516ZM92.5516 48.5863C92.8092 48.5863 92.9332 48.4241 92.9332 48.1316V46.4845C92.9332 46.192 92.8092 46.033 92.5484 46.033H92.1701V48.5767L92.5516 48.5863Z" fill="#263238"/>
<path d="M93.585 46.4686C93.585 45.979 93.8266 45.661 94.3163 45.661C94.806 45.661 95.054 45.979 95.054 46.4686V48.1252C95.0687 48.2286 95.0603 48.3339 95.0295 48.4336C94.9986 48.5333 94.946 48.625 94.8754 48.7019C94.8049 48.7789 94.7181 48.8392 94.6214 48.8786C94.5248 48.918 94.4205 48.9354 94.3163 48.9297C93.8266 48.9297 93.585 48.6117 93.585 48.1252V46.4686ZM93.9347 48.1443C93.9347 48.4368 94.0588 48.6053 94.3163 48.6053C94.5739 48.6053 94.6947 48.4368 94.6947 48.1443V46.4686C94.6947 46.1793 94.577 46.0044 94.3163 46.0044C94.0556 46.0044 93.9347 46.1793 93.9347 46.4686V48.1443Z" fill="#263238"/>
<path d="M95.7058 48.9106H95.3878V45.7055H95.8394L96.5802 48.0235V45.7055H96.8982V48.9106H96.5262L95.7058 46.3192V48.9106Z" fill="#263238"/>
<path d="M98.4021 47.1268V47.4448H97.6199V48.5863H98.5738V48.9042H97.2574V45.7055H98.577V46.0235H97.6231V47.1173L98.4021 47.1268Z" fill="#263238"/>
<path d="M126.609 1H64.0145V3.55006H126.609V1Z" fill="#92E3A9" stroke="#263238" stroke-width="0.985332" stroke-linecap="round" stroke-linejoin="round"/>
<path d="M22.1293 82.4843V82.0137" stroke="#263238" stroke-width="0.985332" stroke-linecap="round" stroke-linejoin="round"/>
<path d="M22.1293 81.0821V40.7676C22.1293 39.9531 22.2898 39.1466 22.6015 38.3941C22.9133 37.6417 23.3703 36.958 23.9464 36.3822C24.5225 35.8064 25.2064 35.3498 25.959 35.0384C26.7116 34.727 27.5182 34.5669 28.3327 34.5673H57.8301" stroke="#263238" stroke-width="0.985332" stroke-linecap="round" stroke-linejoin="round" stroke-dasharray="2.93 2.93"/>
<path d="M58.3102 34.5673H58.7776" stroke="#263238" stroke-width="0.985332" stroke-linecap="round" stroke-linejoin="round"/>
<path d="M61.8778 34.8248L56.8094 31.8964V37.7501L61.8778 34.8248Z" fill="#263238"/>
<path d="M110.262 121.749H110.733" stroke="#263238" stroke-width="0.985332" stroke-linecap="round" stroke-linejoin="round"/>
<path d="M111.664 121.749H113.404C115.054 121.749 116.637 121.094 117.804 119.927C118.971 118.76 119.626 117.177 119.626 115.527V56.7039" stroke="#263238" stroke-width="0.985332" stroke-linecap="round" stroke-linejoin="round" stroke-dasharray="2.93 2.93"/>
<path d="M119.626 56.2396V55.7722" stroke="#263238" stroke-width="0.985332" stroke-linecap="round" stroke-linejoin="round"/>
<path d="M108.488 121.476L113.556 124.401V118.548L108.488 121.476Z" fill="#263238"/>
<path d="M81.9285 83.3078C82.1987 82.7933 82.6048 82.3627 83.1026 82.0628C83.6004 81.7628 84.1708 81.6051 84.752 81.6067H111.954C111.954 81.6067 113.919 81.6067 113.33 85.3427C112.742 89.0788 104.679 111.889 102.711 118.77C100.742 125.651 100.351 140.204 100.351 140.204H67.7092C67.7092 140.204 70.326 105.46 81.9285 83.3078Z" fill="white" stroke="#263238" stroke-width="0.985332" stroke-linecap="round" stroke-linejoin="round"/>
<path d="M107.235 88.0963C104.485 94.5128 98.6501 119.893 97.7217 140.204H100.351C100.351 140.204 100.755 125.641 102.711 118.77C104.666 111.899 112.739 89.0788 113.33 85.3427C113.922 81.6067 111.954 81.6067 111.954 81.6067C111.954 81.6067 109.439 82.9516 107.235 88.0963Z" fill="#263238" stroke="#263238" stroke-width="0.985332" stroke-linecap="round" stroke-linejoin="round"/>
<path d="M55.509 82.1218C55.509 82.1218 50.517 81.5145 47.2197 78.0487C43.9224 74.5829 54.3866 62.2237 59.9732 59.3111C65.5598 56.3986 67.8618 57.1967 73.8523 61.6132C79.8427 66.0297 85.69 73.1171 85.6169 77.8706C85.5437 82.6242 82.9555 84.8976 86.5708 87.241C90.186 89.5844 100.418 96.2393 101.912 100.812C103.407 105.384 100.815 111.072 94.8155 114.166C88.8156 117.26 78.9714 117.117 69.4898 114.052C60.0082 110.986 57.9446 101.289 59.1656 97.3426C60.3865 93.3967 63.617 90.6845 62.6441 87.6829C61.6711 84.6814 55.509 82.1218 55.509 82.1218Z" fill="#263238" stroke="#263238" stroke-width="0.985332" stroke-linecap="round" stroke-linejoin="round"/>
<path d="M59.7888 95.7528C59.7888 95.7528 54.6251 95.0342 52.2403 96.5763C49.8556 98.1185 38.0719 118.258 38.0719 118.258L31.5632 109.498L25.9194 112.033C25.9194 112.033 28.5649 122.271 31.6427 127.365C34.7206 132.458 36.4758 132.974 37.5314 132.805C40.6729 132.306 49.773 121.778 49.773 121.778L53.0798 132.78L50.8349 140.776H92.647L87.5755 132.319C87.5755 132.319 94.1923 101.794 92.5071 98.5604C90.8219 95.3267 81.0032 95.7528 77.9158 95.7528H69.0765C67.7368 96.0185 66.3754 96.159 65.0097 96.1725C63.2634 96.1217 61.5208 95.9816 59.7888 95.7528Z" fill="#92E3A9"/>
<path d="M87.7186 96.783L87.8044 96.818L87.0032 98.8593L86.9141 98.8243L87.7186 96.783ZM87.4992 99.0533L87.585 99.0882L88.3895 97.0469L88.3005 97.0119L87.4992 99.0533ZM91.1462 105.549L91.054 105.524L90.7011 106.78H90.7996L91.1462 105.549ZM91.7504 105.721L91.6581 105.696L91.3402 106.78H91.4356L91.7504 105.721ZM87.9348 105.791L88.2337 106.78H88.3323L88.0143 105.762L87.9348 105.791ZM88.628 105.584L88.5358 105.61L88.8887 106.78H88.9873L88.628 105.584ZM91.1876 100.913L92.2782 99.0056L92.1987 98.9579L91.1081 100.866L91.1876 100.913ZM91.7345 101.231L92.7551 99.4475C92.7551 99.3935 92.7551 99.3458 92.736 99.2949L91.6518 101.187L91.7345 101.231ZM92.4499 103.944L92.6311 103.705L92.6502 103.53L92.3736 103.886L92.4499 103.944ZM89.7504 102.007L91.2702 103.597L91.337 103.533L89.8171 101.944L89.7504 102.007ZM89.2702 102.43L90.7869 104.02L90.8569 103.956L89.337 102.366L89.2702 102.43ZM87.5946 102.43L87.62 102.338L86.4467 102.048V102.144L87.5946 102.43ZM86.4308 101.476L87.7504 101.81L87.7726 101.718L86.4467 101.4L86.4308 101.476ZM87.903 104.316L87.8744 104.227L86.4467 104.723V104.821L87.903 104.316ZM87.6772 103.629L86.4308 104.042V104.141L87.7027 103.718L87.6772 103.629ZM86.9873 121.393L87.7885 119.352L87.7027 119.317L86.8982 121.358L86.9873 121.393ZM88.2846 119.546L87.4833 121.587L87.5691 121.622L88.3736 119.581L88.2846 119.546ZM88.2432 129.117L87.9984 128.299L87.9062 128.325L88.2051 129.311L88.2432 129.117ZM89.833 115.387L89.744 115.419L90.488 117.482H90.5071L90.5357 117.339L89.833 115.387ZM90.3322 115.206L90.7233 116.284C90.7233 116.223 90.7456 116.163 90.7551 116.099L90.4213 115.174L90.3322 115.206ZM91.7249 109.832L91.7758 110.001L91.8044 109.81L91.7249 109.832ZM89.6327 109.708L89.5055 111.896H89.5977L89.7249 109.705L89.6327 109.708ZM90.1319 111.934H90.2241L90.3513 109.743H90.2591L90.1319 111.934ZM87.4579 109.613L87.5024 109.53L86.4213 108.948V109.056L87.4579 109.613ZM86.4213 108.341L87.7536 109.056L87.7981 108.974L86.4467 108.258L86.4213 108.341ZM87.2544 111.651L87.194 111.581L86.4467 112.287V112.411L87.2544 111.651ZM86.8442 111.177L86.7838 111.104L86.4213 111.422V111.546L86.8442 111.177ZM86.4467 114.939V115.037L88.4245 114.265L88.3895 114.179L86.4467 114.939ZM86.4467 114.265V114.366L88.1955 113.683L88.1606 113.594L86.4467 114.265ZM87.6137 118.245L87.6359 118.153L86.4467 117.886V117.982L87.6137 118.245ZM87.7504 117.635L87.7726 117.543L86.4467 117.244V117.339L87.7504 117.635ZM87.5946 125.005L87.62 124.916L86.4308 124.614V124.713L87.5946 125.005ZM86.4467 124.051L87.7663 124.389L87.7885 124.296L86.4467 123.959V124.051ZM87.9189 126.891L87.8903 126.802L86.4467 127.279V127.381L87.9189 126.891ZM87.7218 126.296L87.6932 126.207L86.4467 126.621V126.719L87.7218 126.296ZM90.5485 107.657L90.7996 106.777H90.7011L90.4594 107.632L90.5485 107.657ZM91.4483 106.777H91.3529L91.0635 107.8L91.1526 107.829L91.4483 106.777ZM88.5548 107.886L88.647 107.861L88.3291 106.777H88.2305L88.5548 107.886ZM89.2448 107.68L88.9745 106.777H88.876L89.1558 107.708L89.2448 107.68ZM89.7694 137.997L90.5135 140.058L90.6025 140.026L89.8585 137.966L89.7694 137.997ZM91.1907 139.813L90.4467 137.752L90.3577 137.784L91.1049 139.845L91.1907 139.813ZM92.2432 140.322L92.151 140.296L92.0174 140.773H92.116L92.2432 140.322ZM86.4467 131.635L87.4833 132.191L87.5278 132.109L86.4467 131.527V131.635ZM86.4467 130.923L87.7186 131.619L87.7377 131.524L86.4467 130.818V130.923ZM87.2639 134.226L87.2035 134.153L86.4467 134.83V134.951L87.2639 134.226ZM86.8537 133.749L86.7933 133.679L86.4308 133.997V134.121L86.8537 133.749ZM88.3736 136.725L86.4467 137.495V137.597L88.4245 136.821L88.3736 136.725ZM86.4308 136.913L88.1796 136.229L88.1447 136.144L86.4308 136.811V136.913ZM86.4308 140.433V140.531L87.4833 140.767H87.6041L87.62 140.703L86.4308 140.433ZM87.7345 140.182L87.7567 140.09L86.4308 139.791V139.889L87.7345 140.182ZM64.342 98.8148L64.4278 98.8498L65.2323 96.8085L65.1432 96.7735L64.342 98.8148ZM64.9239 99.0437L65.0129 99.0787L65.8142 97.0374L65.7283 97.0024L64.9239 99.0437ZM85.4706 101.889L86.4245 102.134V102.039L85.4865 101.8L85.4706 101.889ZM85.6486 101.193L85.6232 101.282L86.4308 101.489V101.39L85.6486 101.193ZM86.4467 104.821V104.723L85.8108 104.936L85.8394 105.025L86.4467 104.821ZM85.5946 104.338L85.6232 104.427L86.4308 104.16V104.061L85.5946 104.338ZM83.903 106.78H84.0111L84.4245 106.061L84.345 106.013L83.903 106.78ZM84.628 106.78H84.7361L84.9682 106.373L84.8887 106.325L84.628 106.78ZM79.8999 105.902L79.8268 105.963L80.4977 106.78H80.6185L79.8999 105.902ZM80.3132 105.565L81.3085 106.78H81.4293L80.3864 105.508L80.3132 105.565ZM77.9412 106.637L77.8554 106.668L77.8935 106.78H77.9953L77.9412 106.637ZM78.4436 106.455L78.5613 106.773H78.6598L78.5326 106.417L78.4436 106.455ZM75.0033 106.773L75.2735 105.708L75.1813 105.686L74.9047 106.773H75.0033ZM75.7886 105.839L75.5502 106.773H75.636L75.8681 105.864L75.7886 105.839ZM68.5804 105.543L68.4882 105.517L68.1321 106.773H68.2307L68.5804 105.543ZM69.1814 105.715L69.0923 105.689L68.7744 106.773H68.873L69.1814 105.715ZM65.3658 105.785L65.6647 106.773H65.7633L65.4453 105.756L65.3658 105.785ZM66.0558 105.578L65.9668 105.603L66.3197 106.773H66.4151L66.0558 105.578ZM68.6186 100.907L69.7092 98.9992L69.6265 98.9515L68.5359 100.859L68.6186 100.907ZM69.0828 101.174L69.1623 101.219L70.2529 99.3108L70.1702 99.2631L69.0828 101.174ZM81.5247 102.573L83.5437 103.428L83.5787 103.343L81.5597 102.487L81.5247 102.573ZM81.2798 103.149L83.2989 104.004L83.3339 103.918L81.2989 103.066L81.2798 103.149ZM82.9809 99.8545L83.07 99.88L83.6677 97.7719L83.5755 97.7433L82.9809 99.8545ZM83.5819 100.026L83.6741 100.052L84.2687 97.9404L84.1797 97.915L83.5819 100.026ZM80.3005 96.1026L80.9365 98.2011L81.0255 98.1757L80.4054 96.0708L80.3005 96.1026ZM80.8983 95.9213L81.5342 98.0199L81.6232 97.9945L80.9873 95.8959L80.8983 95.9213ZM73.9699 104.91L73.334 102.812L73.2449 102.837L73.8809 104.939L73.9699 104.91ZM74.5708 104.729L73.9349 102.63L73.8427 102.656L74.4786 104.758L74.5708 104.729ZM77.0509 103.514L79.2226 103.196V103.104L77.0509 103.422V103.514ZM77.14 104.134L79.3117 103.816V103.724L77.14 104.042V104.134ZM78.7298 101.46L78.822 101.483L79.3117 99.3458L79.2194 99.3235L78.7298 101.46ZM79.8299 99.4634L79.3403 101.6L79.4325 101.622L79.9221 99.4857L79.8299 99.4634ZM72.1384 100.242L72.2179 100.293L73.3912 98.4396L73.3117 98.3919L72.1384 100.242ZM73.9222 98.7766L73.8427 98.7258L72.6694 100.579L72.7489 100.63L73.9222 98.7766ZM71.8841 96.6431L73.8936 95.7655V95.7433H73.7219L71.8554 96.5573L71.8841 96.6431ZM72.0971 97.1296L72.1353 97.2154L74.1448 96.3411L74.1066 96.2552L72.0971 97.1296ZM70.1893 95.7433H70.0907L69.5947 97.4666L69.6869 97.4921L70.1893 95.7433ZM69.0923 97.3331L69.5375 95.7433H69.4389L69.0001 97.2949L69.0923 97.3331ZM77.6964 96.4174L77.4802 95.7528H77.3816L77.5883 96.4396L77.6964 96.4174ZM77.0064 96.624L77.0986 96.5986L76.8443 95.756H76.7457L77.0064 96.624ZM69.8078 103.893L69.8809 103.95L71.2163 102.211L71.14 102.153L69.8078 103.893ZM70.3038 104.274L70.3801 104.331L71.7124 102.589L71.6392 102.532L70.3038 104.274ZM67.1814 102.014L68.7012 103.603L68.7712 103.54L67.2513 101.95L67.1814 102.014ZM66.7108 102.43L68.2307 104.02L68.2974 103.956L66.7808 102.366L66.7108 102.43ZM75.0351 99.6192L74.9969 99.7051L77.016 100.564L77.0541 100.475L75.0351 99.6192ZM75.2417 99.1296L77.2608 99.9849L77.299 99.8991L75.2799 99.0437L75.2417 99.1296ZM65.0383 102.43L65.0606 102.338L63.8714 102.048V102.144L65.0383 102.43ZM63.8746 101.476L65.1909 101.81L65.2164 101.718L63.8714 101.4L63.8746 101.476ZM65.3467 104.316L65.3149 104.227L63.8714 104.723V104.821L65.3467 104.316ZM65.1178 103.629L63.8746 104.042V104.141L65.1464 103.718L65.1178 103.629ZM65.1432 119.317L64.342 121.358L64.4278 121.393L65.2323 119.352L65.1432 119.317ZM65.7283 119.546L64.9239 121.587L65.0129 121.622L65.8142 119.581L65.7283 119.546ZM85.5374 108.573L86.4308 109.056V108.948L85.5819 108.49L85.5374 108.573ZM85.8776 107.937L85.8331 108.017L86.4308 108.335V108.226L85.8776 107.937ZM86.4467 112.287L85.5596 113.056L85.62 113.126L86.4467 112.411V112.287ZM85.2099 112.653L86.4467 111.584V111.46L85.1495 112.579L85.2099 112.653ZM86.3482 114.993L86.38 115.082L86.4467 115.053V114.955L86.3482 114.993ZM86.1192 114.411L86.151 114.497L86.4467 114.382V114.28L86.1192 114.411ZM86.4372 117.908L85.4833 117.692L85.4611 117.784L86.434 118.004L86.4372 117.908ZM86.4372 117.273L85.6232 117.088L85.6041 117.18L86.4372 117.368V117.273ZM86.4372 124.633L85.4928 124.369L85.4706 124.462L86.4245 124.706L86.4372 124.633ZM85.655 123.788L85.6296 123.88L86.4467 124.051V123.956L85.655 123.788ZM86.4467 127.381V127.279L85.8108 127.492L85.8394 127.581L86.4467 127.381ZM86.4467 126.719V126.621L85.6105 126.897L85.6391 126.986L86.4467 126.719ZM73.5375 107.893L71.5184 107.034L71.4834 107.12L73.5025 107.978L73.5375 107.893ZM71.2386 107.699L73.2577 108.554L73.2926 108.468L71.2736 107.613L71.2386 107.699ZM84.4181 128.617L84.3386 128.573L83.903 129.339H84.0111L84.4181 128.617ZM84.9618 128.935L84.8824 128.888L84.6216 129.346H84.7297L84.9618 128.935ZM79.8204 128.525L80.4913 129.346H80.6121L79.8935 128.465L79.8204 128.525ZM80.3069 128.128L81.3021 129.346H81.4229L80.38 128.074L80.3069 128.128ZM77.9349 129.202L77.849 129.234L77.8872 129.346H77.9889L77.9349 129.202ZM78.4373 129.021L78.5549 129.339H78.6535L78.5263 128.983L78.4373 129.021ZM75.2576 128.28L75.1654 128.255L74.8888 129.346H75.0001L75.2576 128.28ZM75.7727 128.411L75.5343 129.346H75.636L75.8681 128.433L75.7727 128.411ZM68.5645 128.112L68.4723 128.086L68.1162 129.358H68.2148L68.5645 128.112ZM69.1655 128.284L69.0764 128.258L68.7585 129.346H68.857L69.1655 128.284ZM65.3499 128.354L65.6488 129.346H65.7474L65.4294 128.328L65.3499 128.354ZM65.9509 128.175L66.3038 129.346H66.3992L66.0399 128.147L65.9509 128.175ZM69.6106 121.53L68.52 123.438L68.6027 123.486L69.6933 121.578L69.6106 121.53ZM70.2466 121.886L70.1639 121.838L69.0764 123.746L69.1559 123.794L70.2466 121.886ZM79.1145 111.438L77.7155 109.743L77.6455 109.804L79.0318 111.502L79.1145 111.438ZM78.6312 111.835L77.2258 110.131L77.1527 110.191L78.5422 111.889L78.6312 111.835ZM75.194 110.907L75.9381 112.967L76.0271 112.936L75.2831 110.875L75.194 110.907ZM75.7855 110.694L76.5295 112.754L76.6153 112.722L75.8713 110.662L75.7855 110.694ZM83.5724 125.912L81.5533 125.056L81.5183 125.142L83.5374 125.997L83.5724 125.912ZM83.3275 126.49L81.3085 125.632L81.2735 125.721L83.2925 126.576L83.3275 126.49ZM83.5692 120.315L82.9746 122.427L83.0636 122.452L83.6614 120.341L83.5692 120.315ZM84.2623 120.513L84.1733 120.487L83.5755 122.595L83.6677 122.621L84.2623 120.513ZM81.0287 120.738L80.3927 118.64L80.3037 118.665L80.9396 120.767L81.0287 120.738ZM81.6296 120.557L80.9937 118.459L80.9015 118.484L81.5374 120.586L81.6296 120.557ZM75.2704 115.066L74.1797 116.974L74.2592 117.018L75.3498 115.11L75.2704 115.066ZM74.8061 114.802L74.7235 114.754L73.636 116.662L73.7155 116.707L74.8061 114.802ZM71.1019 116.535L69.7124 114.831L69.6392 114.891L71.0287 116.589L71.1019 116.535ZM71.5852 116.137L70.1988 114.439L70.1257 114.5L71.512 116.198L71.5852 116.137ZM67.1973 115.447L67.9413 117.511L68.0304 117.479L67.2831 115.416L67.1973 115.447ZM67.7855 115.234L68.5295 117.298L68.6186 117.266L67.8745 115.203L67.7855 115.234ZM82.9492 116.904L83.0414 116.926L83.5819 114.802L83.4897 114.777L82.9492 116.904ZM84.1892 114.955L84.097 114.932L83.5565 117.056L83.6487 117.079L84.1892 114.955ZM80.6026 116.738L78.5835 115.883L78.5485 115.969L80.5676 116.827L80.6026 116.738ZM80.8474 116.163L78.8156 115.308L78.7807 115.393L80.7997 116.249L80.8474 116.163ZM73.9699 127.47L73.334 125.368L73.2449 125.396L73.8809 127.495L73.9699 127.47ZM74.5708 127.288L73.9349 125.187L73.8427 125.215L74.4786 127.314L74.5708 127.288ZM79.2226 125.765V125.673L77.0509 125.991V126.083L79.2226 125.765ZM79.3117 126.385V126.293L77.14 126.611V126.703L79.3117 126.385ZM78.8156 124.051L79.3053 121.915L79.2131 121.893L78.7234 124.032L78.8156 124.051ZM79.4261 124.191L79.9158 122.055L79.8236 122.032L79.3339 124.172L79.4261 124.191ZM73.3848 121.012L73.3054 120.961L72.1384 122.802L72.2179 122.853L73.3848 121.012ZM73.9158 121.346L73.8363 121.295L72.6631 123.148L72.7425 123.199L73.9158 121.346ZM73.8872 118.335L73.8522 118.249L71.8395 119.126L71.8777 119.212L73.8872 118.335ZM74.1384 118.91L74.1003 118.824L72.0907 119.702L72.1289 119.788L74.1384 118.91ZM70.2752 117.956L70.1861 117.928L69.5947 120.023L69.6869 120.048L70.2752 117.956ZM69.0764 119.896L69.671 117.784L69.582 117.759L68.9842 119.87L69.0764 119.896ZM77.6773 118.964L77.0414 116.866L76.9492 116.891L77.5851 118.993L77.6773 118.964ZM76.3578 117.056L76.9937 119.155L77.0859 119.129L76.45 117.031L76.3578 117.056ZM73.3085 111.651L71.5566 112.974L71.6138 113.047L73.3658 111.727L73.3085 111.651ZM71.9922 113.559L73.741 112.236L73.6869 112.163L71.9349 113.482L71.9922 113.559ZM70.4787 111.743L69.8713 109.635L69.7791 109.664L70.3896 111.769L70.4787 111.743ZM69.1782 109.835L69.7855 111.969L69.8777 111.943L69.2768 109.829L69.1782 109.835ZM67.086 109.711L66.9588 111.899H67.051L67.1782 109.708L67.086 109.711ZM67.582 111.937H67.6774L67.8046 109.746H67.7092L67.582 111.937ZM71.1845 124.754L71.1082 124.697L69.776 126.439L69.8491 126.497L71.1845 124.754ZM71.6806 125.136L71.6074 125.079L70.272 126.821L70.3483 126.878L71.6806 125.136ZM67.1496 124.557L68.6694 126.147L68.7394 126.08L67.2195 124.49L67.1496 124.557ZM66.7108 125.005L68.2307 126.595L68.2974 126.532L66.7808 124.942L66.7108 125.005ZM82.6789 112.792L82.6058 112.735L81.2258 114.439L81.2989 114.5L82.6789 112.792ZM82.1193 112.341L80.7393 114.045L80.8124 114.106L82.1892 112.398L82.1193 112.341ZM82.504 109.107H82.4118L82.1638 111.285H82.2592L82.504 109.107ZM81.7886 109.025L81.5438 111.206H81.636L81.8808 109.028L81.7886 109.025ZM77.0541 123.047L75.0351 122.191L74.9969 122.277L77.016 123.133L77.0541 123.047ZM75.2417 121.699L77.2608 122.554L77.299 122.468L75.2799 121.613L75.2417 121.699ZM64.9111 109.645L64.9557 109.562L63.8746 108.98V109.088L64.9111 109.645ZM63.8746 108.373L65.2068 109.088L65.2514 109.005L63.8714 108.258L63.8746 108.373ZM64.7076 111.683L64.644 111.613L63.8714 112.287V112.411L64.7076 111.683ZM64.2975 111.209L64.2339 111.136L63.8746 111.454V111.578L64.2975 111.209ZM65.8142 114.185L63.8746 114.945V115.044L65.8491 114.271L65.8142 114.185ZM65.6202 113.689L65.5884 113.6L63.8714 114.265V114.366L65.6202 113.689ZM65.0415 118.252L65.0606 118.16L63.8746 117.893V117.988L65.0415 118.252ZM63.8714 117.339L65.175 117.635L65.1973 117.543L63.8714 117.244V117.339ZM65.0383 125.005L65.0606 124.916L63.8746 124.614V124.713L65.0383 125.005ZM63.8714 124.051L65.1878 124.389L65.2132 124.296L63.8714 123.959V124.051ZM65.3436 126.891L65.3118 126.802L63.8714 127.279V127.381L65.3436 126.891ZM65.1464 126.296L65.1146 126.207L63.8714 126.621V126.719L65.1464 126.296ZM83.2449 107.915L83.3243 107.959L84.0016 106.777H83.903L83.2449 107.915ZM83.7886 108.233L83.8681 108.277L84.7266 106.783H84.6185L83.7886 108.233ZM81.2798 107.597L80.6089 106.777H80.4881L81.2067 107.654L81.2798 107.597ZM81.6932 107.26L81.7663 107.199L81.4198 106.777H81.2989L81.6932 107.26ZM78.6789 108.697L77.9858 106.789H77.884L78.5899 108.742L78.6789 108.697ZM79.1781 108.516L79.2671 108.484L78.6503 106.777H78.5517L79.1781 108.516ZM74.6312 107.813L74.7235 107.835L74.9937 106.777H74.8952L74.6312 107.813ZM75.2386 107.969L75.3308 107.991L75.6487 106.777H75.5502L75.2386 107.969ZM67.9731 107.651L68.2211 106.77H68.1226L67.8809 107.626L67.9731 107.651ZM68.873 106.77H68.7744L68.485 107.794L68.5772 107.823L68.873 106.77ZM65.9795 107.88L66.0685 107.854L65.7506 106.77H65.652L65.9795 107.88ZM66.6695 107.673L66.396 106.77H66.3006L66.5773 107.702L66.6695 107.673ZM85.5787 131.059L85.5342 131.142L86.4277 131.625V131.517L85.5787 131.059ZM85.8744 130.509L85.8299 130.592L86.4277 130.91V130.805L85.8744 130.509ZM86.4467 134.951V134.83L85.5596 135.597L85.62 135.667L86.4467 134.951ZM86.4467 134.125V134.001L85.1495 135.123L85.2099 135.193L86.4467 134.125ZM86.3482 137.533L86.38 137.622L86.4467 137.597V137.495L86.3482 137.533ZM86.1192 136.951L86.151 137.04L86.4467 136.923V136.821L86.1192 136.951ZM85.4833 140.229L85.4611 140.322L86.434 140.541V140.442L85.4833 140.229ZM86.4372 139.8L85.6232 139.616L85.6041 139.708L86.4372 139.899V139.8ZM73.5375 130.449L71.5184 129.594L71.4834 129.679L73.5025 130.535L73.5375 130.449ZM71.2386 130.255L73.2577 131.113L73.2926 131.024L71.2736 130.169L71.2386 130.255ZM77.6455 132.35L79.0318 134.048L79.105 133.988L77.7155 132.293L77.6455 132.35ZM78.6217 134.385L77.2258 132.691L77.1527 132.748L78.5422 134.446L78.6217 134.385ZM76.0176 135.498L75.2735 133.435L75.1845 133.466L75.9285 135.53L76.0176 135.498ZM76.6058 135.285L75.8618 133.222L75.7759 133.253L76.5199 135.317L76.6058 135.285ZM75.334 137.673L75.2545 137.625L74.1638 139.533L74.2433 139.581L75.334 137.673ZM74.7902 137.355L74.7076 137.311L73.6201 139.218L73.6996 139.266L74.7902 137.355ZM71.086 139.088L69.7124 137.406L69.6392 137.463L71.0287 139.161L71.086 139.088ZM71.5693 138.69L70.183 136.996L70.1098 137.053L71.4961 138.751L71.5693 138.69ZM68.0145 140.032L67.2672 137.972L67.1814 138.004L67.9254 140.064L68.0145 140.032ZM68.6027 139.819L67.8587 137.759L67.7696 137.791L68.5137 139.851L68.6027 139.819ZM83.5469 137.361L83.4547 137.339L82.9142 139.463L83.0064 139.485L83.5469 137.361ZM84.1542 137.514L84.062 137.492L83.5215 139.619L83.6137 139.641L84.1542 137.514ZM80.6026 139.314L78.5835 138.458L78.5485 138.544L80.5676 139.4L80.6026 139.314ZM80.8474 138.735L78.8156 137.864L78.7807 137.95L80.7997 138.808L80.8474 138.735ZM70.183 140.487L70.0939 140.805H70.1925L70.272 140.525L70.183 140.487ZM69.6679 140.341L69.5788 140.315L69.4421 140.792H69.5407L69.6679 140.341ZM76.9556 139.463L77.3562 140.792H77.4548L77.0478 139.435L76.9556 139.463ZM76.4468 139.616L76.3578 139.641L76.7012 140.792H76.7998L76.4468 139.616ZM73.3658 134.328L73.3085 134.255L71.5566 135.574L71.6138 135.651L73.3658 134.328ZM73.741 134.83L73.6869 134.754L71.9349 136.074L71.9922 136.15L73.741 134.83ZM70.3896 134.363L70.4787 134.334L69.8713 132.229L69.7791 132.255L70.3896 134.363ZM69.8777 134.509L69.2768 132.388L69.1877 132.414L69.795 134.519L69.8777 134.509ZM67.051 134.509L67.1782 132.322H67.086L66.9588 134.512L67.051 134.509ZM67.6869 134.547L67.8141 132.357H67.7187L67.5916 134.544L67.6869 134.547ZM82.6884 135.368L82.6153 135.307L81.2353 137.012L81.3085 137.072L82.6884 135.368ZM82.1288 134.913L80.7488 136.617L80.822 136.678L82.1988 134.973L82.1288 134.913ZM82.5135 131.683H82.4213L82.1733 133.861H82.2687L82.5135 131.683ZM81.7981 131.603L81.5533 133.781H81.6455L81.8903 131.6L81.7981 131.603ZM64.9207 132.22L64.9652 132.137L63.8841 131.555V131.664L64.9207 132.22ZM65.2609 131.584L63.8714 130.818V130.923L65.2037 131.641L65.2609 131.584ZM64.7076 134.226L64.644 134.153L63.8714 134.827V134.951L64.7076 134.226ZM64.2975 133.749L64.2339 133.679L63.8746 133.997V134.121L64.2975 133.749ZM65.8142 136.725L63.8746 137.485V137.587L65.8491 136.811L65.8142 136.725ZM63.8746 136.913L65.6202 136.229L65.5884 136.144L63.8746 136.811V136.913ZM63.8746 140.433V140.531L64.927 140.767H65.0447L65.0606 140.703L63.8746 140.433ZM65.1782 140.182L65.2005 140.09L63.8746 139.791V139.889L65.1782 140.182ZM83.3275 130.512L84.0048 129.33H83.903L83.2671 130.465L83.3275 130.512ZM84.6216 129.33L83.7917 130.776L83.8712 130.824L84.7297 129.33H84.6216ZM81.2099 130.207L81.283 130.147L80.6121 129.33H80.4913L81.2099 130.207ZM81.6964 129.81L81.7695 129.749L81.4229 129.33H81.3021L81.6964 129.81ZM78.6821 131.247L77.9889 129.339H77.8872L78.5931 131.288L78.6821 131.247ZM79.1813 131.069L79.2703 131.034L78.6535 129.33H78.5549L79.1813 131.069ZM74.7298 130.388L75.0001 129.33H74.9015L74.6376 130.366L74.7298 130.388ZM75.2449 130.519L75.3371 130.541L75.6551 129.33H75.5565L75.2449 130.519ZM67.9795 130.201L68.2275 129.323H68.1289L67.8873 130.175L67.9795 130.201ZM68.7807 129.323L68.4914 130.347L68.5836 130.373L68.8793 129.323H68.7807ZM65.9858 130.433L66.0749 130.404L65.7569 129.323H65.6583L65.9858 130.433ZM66.5836 130.252L66.6758 130.226L66.4024 129.323H66.307L66.5836 130.252ZM62.9175 101.899L63.8714 102.144V102.048L62.9334 101.81L62.9175 101.899ZM63.0956 101.203L63.0733 101.292L63.8809 101.498V101.4L63.0956 101.203ZM63.8714 104.821V104.723L63.2355 104.936L63.2673 105.025L63.8714 104.821ZM63.0383 104.338L63.067 104.427L63.8746 104.16V104.061L63.0383 104.338ZM61.3277 106.78H61.4358L61.8492 106.061L61.7665 106.013L61.3277 106.78ZM62.0495 106.78H62.1576L62.3929 106.373L62.3102 106.325L62.0495 106.78ZM57.3246 105.902L57.2514 105.963L57.9223 106.78H58.0431L57.3246 105.902ZM57.7379 105.565L58.7299 106.78H58.854L57.811 105.508L57.7379 105.565ZM55.3659 106.637L55.2769 106.668L55.3182 106.78H55.4168L55.3659 106.637ZM55.8683 106.455L55.9827 106.773H56.0845L55.9573 106.417L55.8683 106.455ZM52.4247 106.773L52.695 105.708L52.606 105.686L52.3294 106.773H52.4247ZM53.2133 105.839L52.9748 106.773H53.0734L53.3023 105.864L53.2133 105.839ZM45.6553 106.773L46.0019 105.543L45.9129 105.517L45.5568 106.773H45.6553ZM46.6092 105.715L46.517 105.689L46.199 106.773H46.2976L46.6092 105.715ZM58.9398 102.573L60.9589 103.428L60.997 103.343L58.978 102.487L58.9398 102.573ZM58.695 103.149L60.7236 104.02L60.7617 103.934L58.7427 103.066L58.695 103.149ZM60.3961 99.8545L60.4883 99.88L61.0829 97.7719L60.9938 97.7433L60.3961 99.8545ZM61.0002 100.026L61.0892 100.052L61.687 97.9404L61.598 97.915L61.0002 100.026ZM57.7411 96.1026L58.377 98.2011L58.466 98.1757L57.8301 96.0708L57.7411 96.1026ZM58.342 95.9213L58.978 98.0199L59.067 97.9945L58.4311 95.8959L58.342 95.9213ZM50.6919 102.837L51.3278 104.939L51.4168 104.91L50.7809 102.812L50.6919 102.837ZM52.0146 104.745L51.3787 102.646L51.2896 102.672L51.9255 104.773L52.0146 104.745ZM54.4947 103.53L56.6664 103.212V103.12L54.4947 103.438V103.53ZM54.5678 104.058V104.15L56.7395 103.832V103.74L54.5678 104.058ZM56.749 99.3617L56.6568 99.3394L56.1703 101.476L56.2594 101.498L56.749 99.3617ZM57.2705 99.4793L56.7808 101.616L56.8699 101.638L57.3595 99.5016L57.2705 99.4793ZM49.5631 100.242L49.6426 100.293L50.8159 98.4396L50.7364 98.3919L49.5631 100.242ZM50.0941 100.579L50.1736 100.63L51.3469 98.7766L51.2674 98.7258L50.0941 100.579ZM55.1115 96.4046L54.908 95.7274H54.8126L55.0225 96.4174L55.1115 96.4046ZM54.4216 96.6113L54.5106 96.5859L54.2848 95.8291L54.1926 95.8482L54.4216 96.6113ZM47.2229 103.88L47.296 103.937L48.6283 102.198L48.5551 102.141L47.2229 103.88ZM49.1307 102.576L49.0543 102.519L47.7221 104.261L47.7984 104.319L49.1307 102.576ZM52.4693 99.6224L52.4343 99.7083L54.4534 100.567L54.4883 100.478L52.4693 99.6224ZM52.6791 99.1328L54.6982 99.9881L54.7332 99.9022L52.7141 99.0469L52.6791 99.1328ZM42.5806 119.339L41.7794 121.381L41.8652 121.416L42.6665 119.374L42.5806 119.339ZM43.1625 119.568L42.3612 121.61L42.4471 121.645L43.2515 119.603L43.1625 119.568ZM62.9716 108.595L63.8682 109.079V108.971L63.0161 108.513L62.9716 108.595ZM63.315 107.959L63.2705 108.039L63.8682 108.357V108.249L63.315 107.959ZM63.8714 112.287L62.9811 113.056L63.0447 113.126L63.8714 112.411V112.287ZM62.6345 112.653L63.8714 111.584V111.46L62.5741 112.579L62.6345 112.653ZM63.7696 114.993L63.8046 115.082L63.8714 115.053V114.955L63.7696 114.993ZM63.8714 114.28L63.5534 114.411L63.5884 114.497L63.8841 114.382L63.8714 114.28ZM63.8714 117.902L62.9175 117.686L62.8984 117.778L63.8714 117.997V117.902ZM63.0574 117.075L63.0352 117.168L63.8714 117.355V117.26L63.0574 117.075ZM63.8714 124.605L62.9334 124.366L62.908 124.458L63.8619 124.703L63.8714 124.605ZM63.086 123.759L63.0638 123.851L63.8714 124.051V123.956L63.086 123.759ZM63.8714 127.381V127.279L63.2355 127.492L63.2673 127.581L63.8714 127.381ZM63.8714 126.719V126.621L63.0352 126.897L63.0638 126.986L63.8714 126.719ZM48.9272 107.12L50.9462 107.978L50.9844 107.893L48.9653 107.034L48.9272 107.12ZM48.6823 107.699L50.7014 108.554L50.7395 108.468L48.7205 107.613L48.6823 107.699ZM61.8651 128.617L61.7824 128.573L61.3277 129.339H61.4358L61.8651 128.617ZM62.4088 128.935L62.3261 128.888L62.0654 129.346H62.1735L62.4088 128.935ZM57.2673 128.525L57.9382 129.346H58.059L57.3405 128.465L57.2673 128.525ZM57.7538 128.128L58.7458 129.346H58.8699L57.8269 128.074L57.7538 128.128ZM55.3818 129.202L55.2928 129.234L55.3341 129.346H55.4327L55.3818 129.202ZM55.8842 129.021L55.9986 129.339H56.1004L55.9732 128.983L55.8842 129.021ZM52.3453 129.339H52.4406L52.7109 128.274L52.6219 128.249L52.3453 129.339ZM53.2292 128.404L52.9907 129.339H53.0893L53.3182 128.427L53.2292 128.404ZM42.8859 128.322L42.7968 128.347L42.9717 128.926L43.048 128.856L42.8859 128.322ZM43.4868 128.14L43.3946 128.169L43.4805 128.443L43.5536 128.369L43.4868 128.14ZM47.1402 121.568L47.0575 121.524L45.9669 123.431L46.0496 123.479L47.1402 121.568ZM46.5933 123.794L47.6839 121.886L47.6013 121.838L46.5106 123.746L46.5933 123.794ZM56.5583 111.432L55.1592 109.743L55.0861 109.804L56.4756 111.502L56.5583 111.432ZM56.0718 111.829L54.6823 110.131L54.6123 110.191L55.9986 111.889L56.0718 111.829ZM52.6378 110.901L53.3818 112.961L53.4708 112.929L52.7268 110.869L52.6378 110.901ZM53.226 110.688L53.97 112.748L54.0591 112.716L53.315 110.656L53.226 110.688ZM61.0097 125.905L58.9907 125.05L58.9525 125.136L60.9716 125.991L61.0097 125.905ZM60.7649 126.484L58.7458 125.625L58.7077 125.714L60.7267 126.57L60.7649 126.484ZM61.0066 120.309L60.4088 122.42L60.501 122.446L61.0956 120.335L61.0066 120.309ZM61.6997 120.506L61.6107 120.481L61.0097 122.589L61.0988 122.614L61.6997 120.506ZM58.466 120.732L57.8301 118.633L57.7411 118.659L58.377 120.761L58.466 120.732ZM59.067 120.551L58.4311 118.452L58.342 118.478L58.978 120.579L59.067 120.551ZM52.7077 115.06L51.6171 116.967L51.6998 117.012L52.7904 115.104L52.7077 115.06ZM52.164 114.742L51.0734 116.649L51.1561 116.694L52.2467 114.786L52.164 114.742ZM47.0766 114.885L48.4661 116.583L48.5361 116.522L47.1561 114.831L47.0766 114.885ZM47.5599 114.487L48.9494 116.185L49.0226 116.125L47.6553 114.433L47.5599 114.487ZM44.6315 115.441L45.3755 117.505L45.4645 117.473L44.7205 115.409L44.6315 115.441ZM45.2229 115.228L45.9669 117.292L46.0528 117.26L45.3087 115.196L45.2229 115.228ZM60.3738 116.904L60.466 116.926L61.0034 114.802L60.9143 114.777L60.3738 116.904ZM61.6139 114.955L61.5217 114.932L60.9811 117.056L61.0733 117.079L61.6139 114.955ZM58.0463 116.738L56.0273 115.883L55.9891 115.969L58.0082 116.827L58.0463 116.738ZM58.2912 116.163L56.2721 115.308L56.2339 115.393L58.253 116.249L58.2912 116.163ZM51.296 125.215L51.9319 127.314L52.0209 127.288L51.385 125.187L51.296 125.215ZM56.6695 125.765V125.673L54.4979 125.991V126.083L56.6695 125.765ZM56.7554 126.385V126.293L54.5837 126.611V126.703L56.7554 126.385ZM56.2594 124.051L56.749 121.915L56.6568 121.893L56.1703 124.032L56.2594 124.051ZM56.8699 124.191L57.3595 122.055L57.2705 122.032L56.7808 124.172L56.8699 124.191ZM50.7459 120.961L49.9192 122.268L49.9542 122.389L50.8349 120.999L50.7459 120.961ZM51.2769 121.295L50.1577 123.063L50.1926 123.18L51.3564 121.346L51.2769 121.295ZM49.2801 119.126L49.3183 119.212L51.3278 118.335L51.2896 118.249L49.2801 119.126ZM51.579 118.91L51.5408 118.824L49.5313 119.702L49.5663 119.788L51.579 118.91ZM47.7157 117.956L47.6235 117.928L47.0194 120.023L47.1084 120.048L47.7157 117.956ZM46.5138 119.896L47.1116 117.784L47.0226 117.759L46.4248 119.87L46.5138 119.896ZM55.1211 118.964L54.4851 116.866L54.3961 116.891L55.032 118.993L55.1211 118.964ZM53.7983 117.056L54.4343 119.155L54.5233 119.129L53.8874 117.031L53.7983 117.056ZM50.7491 111.651L49.0003 112.974L49.0575 113.047L50.8063 111.727L50.7491 111.651ZM49.3755 113.473L49.4327 113.549L51.1847 112.226L51.1275 112.153L49.3755 113.473ZM47.2229 109.657L47.8302 111.762L47.9224 111.737L47.3119 109.629L47.2229 109.657ZM46.6219 109.829L47.2292 111.937L47.3183 111.912L46.7014 109.829H46.6219ZM44.3962 111.893H44.4916L44.6188 109.702H44.5234L44.3962 111.893ZM45.242 109.746H45.1498L45.0226 111.937H45.1148L45.242 109.746ZM46.0114 125.864L44.6696 124.468L44.6029 124.532L45.9479 125.931L46.0114 125.864ZM44.2181 124.91L44.1577 125.005L45.5186 126.42L45.5822 126.354L44.2181 124.91ZM60.1163 112.764L60.0431 112.707L58.6664 114.411L58.7395 114.471L60.1163 112.764ZM59.5566 112.312L58.1767 114.017L58.2498 114.077L59.6298 112.37L59.5566 112.312ZM59.9477 109.107H59.8524L59.6075 111.285H59.6997L59.9477 109.107ZM59.2291 109.025L58.9843 111.206H59.0797L59.3245 109.028L59.2291 109.025ZM54.4947 123.047L52.4756 122.191L52.4406 122.277L54.4597 123.133L54.4947 123.047ZM54.7395 122.468L52.7205 121.613L52.6855 121.699L54.7045 122.554L54.7395 122.468ZM42.1482 111.686L42.0878 111.616L42.0147 111.68L41.8557 111.94L42.1482 111.686ZM43.2579 114.188L41.3183 114.948V115.047L43.2929 114.274L43.2579 114.188ZM43.0639 113.692L43.029 113.603L41.3183 114.274V114.376L43.0639 113.692ZM42.4821 118.255L42.5043 118.163L41.3183 117.896V117.991L42.4821 118.255ZM42.622 117.645L42.641 117.552L41.3183 117.253V117.349L42.622 117.645ZM42.4789 125.005L42.5043 124.916L41.3183 124.614V124.713L42.4789 125.005ZM41.3183 124.051L42.6347 124.389L42.6569 124.296L41.3183 123.956V124.051ZM42.7873 126.891L42.7587 126.802L41.3183 127.276V127.377L42.7873 126.891ZM42.5902 126.296L42.5616 126.207L41.3183 126.617V126.716L42.5902 126.296ZM60.6918 107.918L60.7744 107.963L61.4517 106.78H61.3277L60.6918 107.918ZM61.2355 108.236L61.3182 108.281L62.1735 106.786H62.0654L61.2355 108.236ZM58.7299 107.6L58.059 106.78H57.9382L58.6568 107.657L58.7299 107.6ZM59.1401 107.263L59.2132 107.203L58.8699 106.78H58.7458L59.1401 107.263ZM56.1258 108.7L55.4327 106.792H55.3341L56.0368 108.745L56.1258 108.7ZM56.6282 108.519L56.7172 108.487L56.1004 106.78H55.9986L56.6282 108.519ZM52.0813 107.816L52.1736 107.839L52.4406 106.78H52.3453L52.0813 107.816ZM52.6887 107.972L52.7777 107.994L53.0956 106.78H52.9971L52.6887 107.972ZM45.331 107.635L45.4232 107.661L45.6712 106.78H45.5727L45.331 107.635ZM46.323 106.78H46.2245L45.9351 107.804L46.0242 107.832L46.323 106.78ZM62.9811 131.152L63.8778 131.635V131.527L63.0256 131.069L62.9811 131.152ZM63.3245 130.516L63.28 130.598L63.8778 130.916V130.811L63.3245 130.516ZM63.8714 134.951V134.827L62.9811 135.597L63.0447 135.667L63.8714 134.951ZM63.8714 134.125V134.001L62.5741 135.123L62.6345 135.193L63.8714 134.125ZM63.7696 137.533L63.8046 137.622L63.8714 137.597V137.495L63.7696 137.533ZM63.5407 136.951L63.5757 137.04L63.8714 136.923V136.821L63.5407 136.951ZM62.9048 140.229L62.8857 140.322L63.8587 140.541V140.442L62.9048 140.229ZM63.8587 139.8L63.0447 139.616L63.0224 139.708L63.8587 139.899V139.8ZM55.0861 132.35L56.4756 134.048L56.5487 133.988L55.1592 132.293L55.0861 132.35ZM56.0622 134.385L54.6727 132.691L54.6028 132.748L55.9891 134.446L56.0622 134.385ZM53.4613 135.498L52.8254 133.724L52.7809 133.88L53.3755 135.53L53.4613 135.498ZM54.0495 135.285L53.3055 133.222L53.2165 133.253L53.9605 135.317L54.0495 135.285ZM52.7777 137.673L52.695 137.625L51.6044 139.533L51.6871 139.581L52.7777 137.673ZM52.1418 137.317L51.4709 138.519L51.3659 138.891L52.2467 137.352L52.1418 137.317ZM60.9843 137.368L60.8953 137.345L60.3547 139.469L60.4469 139.492L60.9843 137.368ZM61.5948 137.52L61.5026 137.498L60.962 139.625L61.0543 139.648L61.5948 137.52ZM58.0463 139.314L56.0273 138.458L55.9891 138.544L58.0082 139.4L58.0463 139.314ZM58.2912 138.735L56.2721 137.88L56.2339 137.966L58.253 138.824L58.2912 138.735ZM54.3993 139.463L54.7999 140.792H54.8985L54.4883 139.435L54.3993 139.463ZM53.8906 139.616L53.7983 139.641L54.1449 140.792H54.2435L53.8906 139.616ZM60.1194 135.355L60.0463 135.295L58.6695 136.999L58.7427 137.059L60.1194 135.355ZM59.5598 134.9L58.1799 136.605L58.253 136.665L59.633 134.961L59.5598 134.9ZM59.9477 131.67H59.8524L59.6075 133.848H59.6997L59.9477 131.67ZM59.2291 131.59L58.9843 133.768H59.0797L59.3245 131.587L59.2291 131.59ZM60.7713 130.538L61.4485 129.355H61.3277L60.6918 130.49L60.7713 130.538ZM62.0622 129.355L61.2323 130.802L61.315 130.85L62.1703 129.355H62.0622ZM58.6536 130.233L58.7268 130.172L58.0559 129.355H57.935L58.6536 130.233ZM59.1369 129.835L59.2101 129.775L58.8667 129.355H58.7427L59.1369 129.835ZM56.1227 131.272L55.4295 129.365H55.3309L56.0336 131.314L56.1227 131.272ZM56.625 131.094L56.7141 131.059L56.0972 129.355H55.9955L56.625 131.094ZM52.2054 129.883L52.2594 130.058L52.4375 129.355H52.3421L52.2054 129.883ZM52.6855 130.544L52.7745 130.567L53.0925 129.355H52.9939L52.6855 130.544ZM41.2166 114.993L41.2515 115.082L41.3183 115.053V114.955L41.2166 114.993ZM41.3183 114.28L41.0004 114.411L41.0353 114.497L41.331 114.382L41.3183 114.28ZM40.3422 117.778L41.3183 117.997V117.902L40.3644 117.686L40.3422 117.778ZM40.4821 117.168L41.3183 117.355V117.26L40.5012 117.056L40.4821 117.168ZM41.3183 124.621L40.3644 124.382L40.3422 124.474L41.2961 124.719L41.3183 124.621ZM40.533 123.775L40.5107 123.867L41.3183 124.071V123.975L40.533 123.775ZM41.3183 127.396V127.295L40.6824 127.508L40.711 127.597L41.3183 127.396ZM41.3183 126.735V126.637L40.4789 126.913L40.5075 127.002L41.3183 126.735ZM39.3024 128.643L39.2229 128.598L38.7842 129.365H38.8923L39.3024 128.643ZM39.8462 128.961L39.7667 128.913L39.5059 129.371H39.614L39.8462 128.961ZM34.7079 128.551L35.3756 129.371H35.4996L34.781 128.49L34.7079 128.551ZM35.1912 128.153L36.1864 129.371H36.3072L35.2643 128.099L35.1912 128.153ZM33.4106 129.015L33.3216 129.047L33.4392 129.365H33.541L33.4106 129.015ZM32.0434 110.223L32.3613 110.63L32.0434 110.207V110.223ZM30.0688 110.932L30.816 112.993L30.9019 112.961L30.1674 110.869L30.0688 110.932ZM30.6602 110.719L31.4042 112.78L31.4933 112.748L30.7492 110.688L30.6602 110.719ZM38.4344 125.905L36.4153 125.05L36.3804 125.136L38.3994 125.991L38.4344 125.905ZM38.1896 126.484L36.1737 125.625L36.1355 125.714L38.1546 126.57L38.1896 126.484ZM38.4344 120.309L37.8366 122.42L37.9257 122.446L38.5234 120.335L38.4344 120.309ZM39.1276 120.506L39.0353 120.481L38.4408 122.589L38.5298 122.614L39.1276 120.506ZM35.8939 120.732L35.258 118.633L35.1689 118.659L35.8048 120.761L35.8939 120.732ZM36.4916 120.551L35.8557 118.452L35.7667 118.478L36.4026 120.579L36.4916 120.551ZM30.2214 115.107L30.1419 115.06L29.0513 116.967L29.134 117.012L30.2214 115.107ZM29.6777 114.789L29.5982 114.742L28.5076 116.649L28.5903 116.694L29.6777 114.789ZM35.4869 116.738L33.4678 115.883L33.4328 115.969L35.4519 116.827L35.4869 116.738ZM35.7317 116.163L33.7127 115.308L33.6777 115.393L35.6967 116.249L35.7317 116.163ZM31.9352 126.071L34.1069 125.753V125.66L31.9352 125.978V126.071ZM32.0243 126.691L34.196 126.373V126.28L32.0243 126.598V126.691ZM33.6141 124.02L33.7063 124.039L34.196 121.902L34.1037 121.88L33.6141 124.02ZM34.7142 122.02L34.2246 124.16L34.3168 124.179L34.8064 122.042L34.7142 122.02ZM28.7365 118.236L27.9003 118.602L27.9321 118.691L28.7747 118.322L28.7365 118.236ZM28.9846 118.811L28.1038 119.196L28.1356 119.285L29.0227 118.897L28.9846 118.811ZM31.8462 116.904L32.4821 119.005L32.5743 118.977L31.9384 116.878L31.8462 116.904ZM31.2453 117.085L31.8812 119.183L31.9734 119.158L31.3375 117.059L31.2453 117.085ZM26.444 113.018L26.5013 113.091L28.2532 111.772L28.196 111.695L26.444 113.018ZM28.6316 112.271L28.5744 112.198L26.8224 113.517L26.8796 113.594L28.6316 112.271ZM31.9416 123.053L29.9225 122.198L29.8844 122.284L31.9034 123.139L31.9416 123.053ZM30.1292 121.705L32.1483 122.56L32.1864 122.474L30.1674 121.603L30.1292 121.705ZM40.4694 131.085L40.4248 131.167L40.5043 131.104L40.4694 131.085ZM40.7651 130.535L40.7205 130.617L40.9527 130.741L41.029 130.675L40.7651 130.535ZM37.1625 132.83H37.2579L37.3883 131.654H37.2961L37.1625 132.83ZM36.5266 132.722L36.6188 132.751L36.7492 131.584H36.657L36.5266 132.722ZM38.8764 129.339H38.7683L38.1323 130.474L38.2118 130.522L38.8764 129.339ZM39.5981 129.339H39.49L38.6602 130.786L38.7428 130.834L39.5981 129.339ZM36.0815 130.217L36.1514 130.156L35.4837 129.339H35.3597L36.0815 130.217ZM36.5648 129.819L36.6379 129.759L36.2913 129.339H36.1705L36.5648 129.819ZM33.4233 129.339L33.878 130.611L34.0529 130.815L33.5251 129.352L33.4233 129.339Z" fill="white"/>
<path d="M59.7888 95.7528C59.7888 95.7528 54.6251 95.0342 52.2403 96.5763C49.8556 98.1185 38.0719 118.258 38.0719 118.258L31.5632 109.498L25.9194 112.033C25.9194 112.033 28.5649 122.271 31.6427 127.365C34.7206 132.458 36.4758 132.974 37.5314 132.805C40.6729 132.306 49.773 121.778 49.773 121.778L53.0798 132.78L50.8349 140.776H92.647L87.5755 132.319C87.5755 132.319 94.1923 101.794 92.5071 98.5604C90.8219 95.3267 81.0032 95.7528 77.9158 95.7528H69.0765C67.7368 96.0185 66.3754 96.159 65.0097 96.1725C63.2634 96.1217 61.5208 95.9816 59.7888 95.7528V95.7528Z" stroke="#263238" stroke-width="0.985332"/>
<path d="M49.7761 121.778C48.5656 119.359 48.0956 116.638 48.4248 113.953C49.0384 109.67 51.6902 104.98 51.6902 104.98C51.6902 104.98 46.3994 112.611 46.3994 115.155C46.3994 117.699 47.9733 121.419 47.9733 121.419L46.5997 125.339L49.7761 121.778Z" fill="#263238" stroke="#263238" stroke-width="0.985332" stroke-linecap="round" stroke-linejoin="round"/>
<path d="M64.1671 91.5334L64.307 96.0231L60.5201 96.163C60.5201 96.163 59.7379 112.637 63.1083 115.584C66.4787 118.532 76.6535 95.7528 76.6535 95.7528L73.1559 95.0501L72.0335 85.9309L64.1671 91.5334Z" fill="#CFCFCF" stroke="#263238" stroke-width="0.985332" stroke-linecap="round" stroke-linejoin="round"/>
<path d="M72.4373 87.7115L64.3388 95.3426V92.6431L72.4373 87.7115Z" fill="#263238" stroke="#263238" stroke-width="0.985332" stroke-linecap="round" stroke-linejoin="round"/>
<path d="M63.1083 115.584C63.1083 115.584 63.5153 112.932 65.5534 109.467L63.1083 115.584Z" fill="white"/>
<path d="M63.1083 115.584C63.1083 115.584 63.5153 112.932 65.5534 109.467" stroke="#263238" stroke-width="0.985332" stroke-linecap="round" stroke-linejoin="round"/>
<path d="M62.5359 66.2173L53.315 75.8039C54.0395 77.8442 54.3906 79.9983 54.3516 82.1631C54.2435 85.5589 57.3309 90.5541 59.8555 92.8753C62.3801 95.1964 67.5311 91.6289 69.4548 90.3697C70.7396 89.4991 71.9375 88.5067 73.0319 87.4063C73.7335 87.3759 74.416 87.168 75.0154 86.8021C75.6149 86.4362 76.1117 85.9242 76.4595 85.3141C76.4595 85.3141 63.0606 70.9963 62.5359 66.2173Z" fill="#CFCFCF" stroke="#263238" stroke-width="0.985332" stroke-linecap="round" stroke-linejoin="round"/>
<path d="M60.0368 76.0614C60.3556 76.7109 60.562 77.4097 60.6473 78.1282C60.6759 79.0153 59.121 83.171 59.3436 83.4477C59.5662 83.7243 60.2625 84.64 60.8062 84.5224" stroke="#263238" stroke-width="0.985332" stroke-linecap="round" stroke-linejoin="round"/>
<path d="M63.8714 80.6051C65.1706 80.1183 66.5992 80.1014 67.9095 80.5574" stroke="#263238" stroke-width="0.492666" stroke-linecap="round" stroke-linejoin="round"/>
<path d="M56.695 80.9358C57.3895 80.7407 58.1071 80.6402 58.8285 80.6369" stroke="#263238" stroke-width="0.492666" stroke-linecap="round" stroke-linejoin="round"/>
<path d="M58.873 73.7116C58.5168 73.6852 58.1592 73.7415 57.8282 73.876C57.4973 74.0106 57.202 74.2199 56.9653 74.4875C56.1672 75.4064 55.7793 76.2076 55.5789 75.559C55.3786 74.9104 56.2689 73.718 56.5837 73.4764C56.8985 73.2347 58.3738 72.2872 58.873 73.7116Z" fill="#263238"/>
<path d="M62.8189 73.1775C63.7543 73.174 64.6771 73.3919 65.5121 73.8134C66.7299 74.4811 66.148 73.1266 65.2927 72.7387C64.4374 72.3508 62.9557 72.3889 62.8189 73.1775Z" fill="#263238"/>
<path d="M76.9365 89.1233C76.9937 90.0772 76.5009 90.8721 75.8427 90.9103C75.1845 90.9484 74.6026 90.2107 74.5454 89.2632C74.4882 88.3157 74.8856 85.8705 75.5438 85.8324C76.202 85.7942 76.8824 88.1726 76.9365 89.1233Z" fill="#92E3A9" stroke="#263238" stroke-width="0.985332" stroke-linecap="round" stroke-linejoin="round"/>
<path d="M58.4947 79.2188C58.5392 79.8547 58.2975 80.3698 57.9573 80.3921C57.6171 80.4143 57.3214 79.9278 57.2673 79.3046C57.2133 78.6814 57.4645 78.1536 57.8047 78.1313C58.1449 78.1091 58.466 78.6083 58.4947 79.2188Z" fill="#263238"/>
<path d="M65.3563 78.9739C65.4008 79.6099 65.1592 80.1218 64.8221 80.1472C64.4851 80.1727 64.1862 79.683 64.129 79.0566C64.0717 78.4302 64.3293 77.9088 64.6663 77.8865C65.0034 77.8642 65.315 78.3507 65.3563 78.9739Z" fill="#263238"/>
<path d="M60.7617 86.3316C60.7617 86.3316 62.3801 86.8499 64.5773 84.9707" stroke="#263238" stroke-width="0.985332" stroke-linecap="round" stroke-linejoin="round"/>
<path d="M31.5632 109.505L28.603 105.54C28.4663 104.484 28.2024 102.303 28.1578 100.831C28.0974 98.8275 28.196 97.6034 27.0577 95.8259C25.9194 94.0485 22.7429 91.2409 22.4441 90.5891C22.1452 89.9373 21.2803 91.7751 21.824 92.9675C22.3678 94.1598 22.8638 94.5255 22.8638 94.5255C22.8638 94.5255 17.0164 91.6193 16.8225 92.0931C16.6285 92.5668 19.5442 100.945 20.8797 103.155C21.4361 104.077 22.9782 105.311 23.7223 106.379C24.0862 106.906 24.3982 107.467 24.6539 108.055C25.3471 111.002 26.1547 114.246 26.5617 114.363C27.4869 114.633 31.4138 114.697 31.5632 109.505Z" fill="#CFCFCF" stroke="#263238" stroke-width="0.985332" stroke-miterlimit="10"/>
<path d="M23.2517 100.395C23.1982 100.409 23.1425 100.413 23.0876 100.406C23.0327 100.399 22.9798 100.381 22.9319 100.353C22.8841 100.325 22.8421 100.288 22.8086 100.244C22.7751 100.2 22.7506 100.15 22.7366 100.096L18.0848 82.8976C18.0599 82.7936 18.0757 82.684 18.1289 82.5912C18.182 82.4985 18.2686 82.4295 18.371 82.3984C18.4784 82.3701 18.5928 82.3853 18.6891 82.4406C18.7855 82.4959 18.8563 82.587 18.886 82.6941L23.5506 99.8863C23.5769 99.9934 23.5603 100.106 23.5045 100.201C23.4487 100.296 23.358 100.366 23.2517 100.395Z" fill="#263238" stroke="#263238" stroke-width="0.985332" stroke-miterlimit="10"/>
<path d="M19.8972 89.454C19.8972 89.454 15.4076 91.826 15.6842 92.2902C15.9608 92.7544 16.7812 94.411 17.1564 94.3729C17.5315 94.3347 20.2565 92.109 20.4536 91.8292C20.6508 91.5494 19.8972 89.454 19.8972 89.454Z" fill="#CFCFCF" stroke="#263238" stroke-width="0.985332" stroke-miterlimit="10"/>
<path d="M20.6984 92.3665C20.6984 92.3665 16.9687 95.1169 17.0896 95.5175C17.2104 95.9182 19.0387 100.659 19.3566 101.044C19.6746 101.428 22.5935 100.09 22.5935 100.09L20.6984 92.3665Z" fill="#CFCFCF" stroke="#263238" stroke-width="0.985332" stroke-miterlimit="10"/>
<path d="M21.2644 94.9229C21.2644 94.9229 17.6937 97.7274 17.929 97.8164" stroke="#263238" stroke-width="0.985332" stroke-miterlimit="10"/>
<path d="M21.9385 97.9626L18.937 99.721" stroke="#263238" stroke-width="0.985332" stroke-miterlimit="10"/>
<path d="M22.8542 94.5255L24.5013 96.1344C24.5013 96.1344 22.3137 100.805 24.4091 103.384" stroke="#263238" stroke-width="0.985332" stroke-miterlimit="10"/>
<path d="M87.8426 96.748C87.8426 96.748 91.8394 96.2266 93.5659 99.5302C95.2925 102.834 106.081 132.032 106.256 134.824C106.431 137.616 99.1271 138.299 96.6947 137.085C94.2623 135.87 87.4738 121.441 86.787 119.527" fill="#92E3A9"/>
<path d="M89.1132 116.967L88.5208 119.073L88.6124 119.099L89.2048 116.992L89.1132 116.967Z" fill="white"/>
<path d="M90.4944 111.028L89.8871 108.92L89.7949 108.948L90.4054 111.053L90.4944 111.028Z" fill="white"/>
<path d="M90.1971 117.176L89.5983 119.286L89.6901 119.312L90.2889 117.202L90.1971 117.176Z" fill="white"/>
<path d="M91.1176 115.794L89.7281 114.096L89.655 114.156L91.0445 115.851L91.1176 115.794Z" fill="white"/>
<path d="M94.1165 118.069L92.1056 118.946L92.1438 119.034L94.1547 118.156L94.1165 118.069Z" fill="white"/>
<path d="M93.9284 120.598L93.8489 120.548L92.6756 122.401L92.7551 122.452L93.9284 120.598Z" fill="white"/>
<path d="M89.1939 109.12L89.8012 111.228L89.8935 111.199L89.283 109.095L89.1939 109.12Z" fill="white"/>
<path d="M92.1446 122.064L92.2241 122.115L93.3974 120.265L93.3179 120.214L92.1446 122.064Z" fill="white"/>
<path d="M91.6009 115.397L90.2146 113.699L90.1415 113.759L91.5278 115.454L91.6009 115.397Z" fill="white"/>
<path d="M93.7038 111.439L91.95 112.757L92.0074 112.834L93.7611 111.515L93.7038 111.439Z" fill="white"/>
<path d="M93.2639 102.103L93.8966 104.204L93.9856 104.176L93.3561 102.077L93.2639 102.103Z" fill="white"/>
<path d="M93.3815 111.021L93.3243 110.945L91.5723 112.265L91.6295 112.341L93.3815 111.021Z" fill="white"/>
<path d="M92.2241 99.5684L92.8823 98.5286C92.86 98.5064 92.841 98.4809 92.8187 98.4555L92.1446 99.5175L92.2241 99.5684Z" fill="white"/>
<path d="M90.3004 103.527L90.3768 103.584L91.709 101.842L91.6359 101.785L90.3004 103.527Z" fill="white"/>
<path d="M91.496 106.385L93.515 107.241L93.5532 107.155L91.5341 106.3L91.496 106.385Z" fill="white"/>
<path d="M93.8648 101.921L94.4976 104.023L94.5866 103.994L93.957 101.896L93.8648 101.921Z" fill="white"/>
<path d="M93.7313 115.963L94.8219 114.058L94.7392 114.013L93.6518 115.915L93.7313 115.963Z" fill="white"/>
<path d="M91.292 106.884L91.256 106.969L93.2756 107.826L93.3117 107.741L91.292 106.884Z" fill="white"/>
<path d="M93.8603 117.507L91.8492 118.384L91.8874 118.471L93.8984 117.594L93.8603 117.507Z" fill="white"/>
<path d="M98.8473 137.129L98.8123 137.215L99.8266 137.648H100.075L98.8473 137.129Z" fill="white"/>
<path d="M99.2861 130.309L98.6692 128.602L98.542 128.249L98.453 128.28L98.5706 128.602L99.197 130.341L99.2861 130.309Z" fill="white"/>
<path d="M97.1748 132.013L98.5643 133.711L98.6343 133.651L97.2479 131.953L97.1748 132.013Z" fill="white"/>
<path d="M98.6947 130.522L98.0047 128.602L97.9506 128.462L97.8648 128.49L97.9029 128.602L98.6088 130.554L98.6947 130.522Z" fill="white"/>
<path d="M99.3115 125.559L97.1398 125.864L97.1526 125.956L99.3242 125.651L99.3115 125.559Z" fill="white"/>
<path d="M105.62 134.932L106.208 134.423L106.189 134.319L105.553 134.862L105.62 134.932Z" fill="white"/>
<path d="M89.8044 103.145L89.8775 103.203L91.213 101.46L91.1367 101.403L89.8044 103.145Z" fill="white"/>
<path d="M87.3014 114.677L87.2117 114.709L87.9567 116.773L88.0464 116.74L87.3014 114.677Z" fill="white"/>
<path d="M105.207 134.458L106.046 133.733C106.036 133.7 106.027 133.666 106.021 133.632L105.146 134.388L105.207 134.458Z" fill="white"/>
<path d="M99.1207 133.253L97.7312 131.559L97.6581 131.616L99.0476 133.314L99.1207 133.253Z" fill="white"/>
<path d="M87.7311 109.039L87.6037 111.229L87.6989 111.234L87.8264 109.044L87.7311 109.039Z" fill="white"/>
<path d="M97.6931 118.226L97.0635 116.128L96.9713 116.153L97.6041 118.255L97.6931 118.226Z" fill="white"/>
<path d="M95.8786 109.915L95.7919 109.946L96.5365 112.01L96.6233 111.979L95.8786 109.915Z" fill="white"/>
<path d="M95.5595 106.045L95.2575 107.238L95.3497 107.26L95.6581 106.045L95.8902 105.133L95.798 105.11L95.5595 106.045Z" fill="white"/>
<path d="M94.9141 106.045L94.6502 107.082L94.7424 107.104L95.0095 106.045L95.2829 104.98L95.1907 104.958L94.9141 106.045Z" fill="white"/>
<path d="M96.3704 116.335L97.0031 118.433L97.0921 118.408L96.4626 116.306L96.3704 116.335Z" fill="white"/>
<path d="M95.2842 110.137L95.1974 110.168L95.9424 112.232L96.0292 112.2L95.2842 110.137Z" fill="white"/>
<path d="M87.8949 114.458L87.8052 114.49L88.5498 116.554L88.6395 116.521L87.8949 114.458Z" fill="white"/>
<path d="M92.7551 99.8863L93.2893 99.0437L93.2321 98.9547L92.6756 99.8386L92.7551 99.8863Z" fill="white"/>
<path d="M95.2575 120.955L97.2765 121.81L97.3115 121.724L95.2925 120.869L95.2575 120.955Z" fill="white"/>
<path d="M89.709 98.2774L89.6264 98.2297L88.5358 100.131L88.6184 100.179L89.709 98.2774Z" fill="white"/>
<path d="M104.571 128.916L104.529 128.799L103.814 130.051L103.893 130.096L104.571 128.916Z" fill="white"/>
<path d="M102.52 130.919L102.428 130.91L102.18 133.088L102.275 133.098L102.52 130.919Z" fill="white"/>
<path d="M101.319 124.901L101.283 124.986L103.302 125.843L103.338 125.758L101.319 124.901Z" fill="white"/>
<path d="M104.021 128.602L104.297 128.121L104.259 128.001L103.912 128.602L103.261 129.74L103.343 129.784L104.021 128.602Z" fill="white"/>
<path d="M102.695 134.605L102.622 134.544L101.242 136.249L101.315 136.309L102.695 134.605Z" fill="white"/>
<path d="M103.238 125.028L101.56 124.315L101.525 124.401L103.28 125.145L103.238 125.028Z" fill="white"/>
<path d="M102.205 134.21L102.132 134.15L100.755 135.854L100.828 135.915L102.205 134.21Z" fill="white"/>
<path d="M99.9347 121.307L99.8425 121.285L99.3528 123.422L99.4451 123.444L99.9347 121.307Z" fill="white"/>
<path d="M101.226 129.482L101.299 129.422L100.628 128.602L99.9093 127.724L99.8362 127.784L100.507 128.602L101.226 129.482Z" fill="white"/>
<path d="M89.0795 100.443L89.1621 100.49L90.2528 98.5859L90.1701 98.5414L89.0795 100.443Z" fill="white"/>
<path d="M95.2836 132.692L95.1969 132.723L95.9419 134.786L96.0286 134.755L95.2836 132.692Z" fill="white"/>
<path d="M103.585 136.624L103.493 136.598L103.324 137.26L103.429 137.231L103.585 136.624Z" fill="white"/>
<path d="M95.8807 132.471L95.794 132.502L96.5386 134.566L96.6254 134.535L95.8807 132.471Z" fill="white"/>
<path d="M98.8091 114.659L99.6486 115.015C99.6486 114.974 99.6168 114.932 99.604 114.894L98.8441 114.576L98.8091 114.659Z" fill="white"/>
<path d="M104.192 136.77L104.1 136.748L104.024 137.043L104.132 137.005L104.192 136.77Z" fill="white"/>
<path d="M93.3084 130.29L91.6422 129.584L91.7122 129.714L93.2702 130.376L93.3084 130.29Z" fill="white"/>
<path d="M87.6136 101.718L88.6979 102.847L88.7678 102.783L87.62 101.591L87.6136 101.718Z" fill="white"/>
<path d="M97.1748 109.457L97.9188 110.363L97.8139 110.09L97.2575 109.397L97.1748 109.457Z" fill="white"/>
<path d="M88.2464 103.282L88.3132 103.215L87.5819 102.452L87.5755 102.583L88.2464 103.282Z" fill="white"/>
<path d="M100.313 117.924L100.946 120.026L101.035 119.997L100.405 117.899L100.313 117.924Z" fill="white"/>
<path d="M93.5532 129.714L91.5341 128.856L91.496 128.942L93.515 129.8L93.5532 129.714Z" fill="white"/>
<path d="M91.213 124.02L91.1367 123.962L89.8044 125.702L89.8775 125.759L91.213 124.02Z" fill="white"/>
<path d="M94.5866 126.554L93.957 124.452L93.8648 124.481L94.4976 126.579L94.5866 126.554Z" fill="white"/>
<path d="M93.9856 126.735L93.3561 124.633L93.2639 124.662L93.8966 126.761L93.9856 126.735Z" fill="white"/>
<path d="M91.709 124.398L91.6359 124.344L90.3004 126.083L90.3768 126.141L91.709 124.398Z" fill="white"/>
<path d="M88.504 107.069L88.5962 107.095L88.8919 106.045L89.1908 104.986L89.1017 104.958L88.7933 106.045L88.504 107.069Z" fill="white"/>
<path d="M88.1415 106.045L87.8998 106.901L87.992 106.926L88.2401 106.045L88.5866 104.815L88.4976 104.789L88.1415 106.045Z" fill="white"/>
<path d="M89.709 120.834L89.6264 120.786L88.5358 122.691L88.6184 122.735L89.709 120.834Z" fill="white"/>
<path d="M90.2528 121.145L90.1701 121.098L89.0795 123.002L89.1621 123.047L90.2528 121.145Z" fill="white"/>
<path d="M95.2861 114.325L94.1955 116.226L94.275 116.274L95.3656 114.37L95.2861 114.325Z" fill="white"/>
<path d="M99.232 121.145L98.7424 123.282L98.8346 123.304L99.3242 121.168L99.232 121.145Z" fill="white"/>
<path d="M99.8997 115.699L98.5993 115.149L98.5643 115.234L99.9443 115.819C99.9284 115.784 99.9156 115.74 99.8997 115.699Z" fill="white"/>
<path d="M99.2384 125.031L99.2256 124.939L97.054 125.244L97.0667 125.336L99.2384 125.031Z" fill="white"/>
<path d="M100.396 127.326L100.323 127.387L101.318 128.602L101.712 129.085L101.785 129.024L101.439 128.602L100.396 127.326Z" fill="white"/>
<path d="M95.6581 128.602L95.8902 127.692L95.798 127.67L95.5595 128.602L95.2575 129.794L95.3497 129.816L95.6581 128.602Z" fill="white"/>
<path d="M95.0494 121.455L95.0134 121.54L97.033 122.397L97.0691 122.312L95.0494 121.455Z" fill="white"/>
<path d="M95.0095 128.602L95.2829 127.536L95.1907 127.514L94.9141 128.602L94.6502 129.638L94.7424 129.664L95.0095 128.602Z" fill="white"/>
<path d="M101.652 133.028L101.897 130.85L101.804 130.84L101.556 133.018L101.652 133.028Z" fill="white"/>
<path d="M87.8426 96.748C87.8426 96.748 91.8394 96.2266 93.5659 99.5302C95.2925 102.834 106.081 132.032 106.256 134.824C106.431 137.616 99.1271 138.299 96.6947 137.085C94.2623 135.87 87.4738 121.441 86.787 119.527" stroke="#263238" stroke-width="0.985332"/>
<path d="M63.6806 136.554C63.6806 136.554 55.5121 135.511 54.1195 135.683C52.7268 135.854 46.4725 140.029 46.4725 140.029H64.1893L63.6806 136.554Z" fill="#CFCFCF" stroke="#263238" stroke-width="0.985332" stroke-linecap="round" stroke-linejoin="round"/>
<path d="M97.4006 130.989L63.6965 136.554L64.1894 140.029H105.747C106.07 138.309 106.245 136.564 106.269 134.815C106.269 132.207 104.704 129.253 104.704 129.253" fill="#92E3A9"/>
<path d="M100.192 136.729L100.825 138.827L100.914 138.802L100.284 136.7L100.192 136.729Z" fill="white"/>
<path d="M102.501 130.789L101.121 132.493L101.194 132.554L102.574 130.85L102.501 130.789Z" fill="white"/>
<path d="M100.634 132.099L100.707 132.16L102.084 130.455L102.011 130.395L100.634 132.099Z" fill="white"/>
<path d="M96.2495 135.136L96.8823 137.237L96.9713 137.209L96.3417 135.11L96.2495 135.136Z" fill="white"/>
<path d="M101.515 138.621L100.882 136.519L100.793 136.547L101.426 138.646L101.515 138.621Z" fill="white"/>
<path d="M97.5722 137.031L96.9427 134.929L96.8505 134.958L97.4832 137.056L97.5722 137.031Z" fill="white"/>
<path d="M103.374 132.845L102.834 134.971L102.926 134.994L103.467 132.868L103.374 132.845Z" fill="white"/>
<path d="M102.987 140.029H103.086L103.547 138.401L103.455 138.376L102.987 140.029Z" fill="white"/>
<path d="M95.1716 139.67L95.1367 139.756L95.7789 140.029H96.0206L95.1716 139.67Z" fill="white"/>
<path d="M103.973 132.984L103.433 135.11L103.525 135.133L104.066 133.007L103.973 132.984Z" fill="white"/>
<path d="M87.7712 133.259L87.6815 133.291L88.4261 135.355L88.5158 135.322L87.7712 133.259Z" fill="white"/>
<path d="M98.4435 134.039L100.459 134.894L100.498 134.808L98.4785 133.95L98.4435 134.039Z" fill="white"/>
<path d="M99.1112 139.95L99.0921 140.029H99.1875L99.2034 139.969L99.1112 139.95Z" fill="white"/>
<path d="M98.7237 133.381L98.6877 133.466L100.707 134.323L100.743 134.238L98.7237 133.381Z" fill="white"/>
<path d="M89.5341 132.958L90.9236 134.656L90.9968 134.595L89.6073 132.897L89.5341 132.958Z" fill="white"/>
<path d="M91.4801 134.198L90.0906 132.503L90.0206 132.56L91.407 134.258L91.4801 134.198Z" fill="white"/>
<path d="M105.089 130.703L105.283 130.535L105.245 130.443L105.028 130.633L105.089 130.703Z" fill="white"/>
<path d="M89.473 135.808L88.8741 137.919L88.9659 137.945L89.5648 135.834L89.473 135.808Z" fill="white"/>
<path d="M105.493 135.218L106.259 135.393C106.259 135.361 106.259 135.33 106.259 135.298L105.509 135.126L105.493 135.218Z" fill="white"/>
<path d="M93.7281 139.352L93.2988 140.029H93.4101L93.8076 139.4L93.7281 139.352Z" fill="white"/>
<path d="M106.237 135.934L105.375 135.74L105.353 135.829L106.23 136.029C106.234 135.997 106.237 135.966 106.237 135.934Z" fill="white"/>
<path d="M105.499 131.177L105.521 131.158L105.486 131.063L105.439 131.107L105.499 131.177Z" fill="white"/>
<path d="M93.7384 136.306L91.7273 137.183L91.7654 137.27L93.7765 136.393L93.7384 136.306Z" fill="white"/>
<path d="M93.2766 139.066L93.1971 139.015L92.5548 140.029H92.6661L93.2766 139.066Z" fill="white"/>
<path d="M90.0828 135.995L89.484 138.106L89.5758 138.132L90.1746 136.021L90.0828 135.995Z" fill="white"/>
<path d="M93.9957 136.873L91.9848 137.75L92.0229 137.837L94.0339 136.96L93.9957 136.873Z" fill="white"/>
<path d="M95.2448 133.174L95.1653 133.126L94.0746 135.031L94.1541 135.078L95.2448 133.174Z" fill="white"/>
<path d="M93.5309 134.719L93.6104 134.764L94.701 132.862L94.6184 132.815L93.5309 134.719Z" fill="white"/>
<path d="M71.1832 136.308L69.1721 137.185L69.2102 137.272L71.2213 136.395L71.1832 136.308Z" fill="white"/>
<path d="M67.032 139.635L66.9493 139.59L66.6981 140.029H66.8062L67.032 139.635Z" fill="white"/>
<path d="M66.4087 137.946L66.9556 136.013L66.8539 136.029L66.3197 137.921L66.4087 137.946Z" fill="white"/>
<path d="M67.5757 139.946L67.493 139.902L67.4199 140.029H67.528L67.5757 139.946Z" fill="white"/>
<path d="M78.1479 134.315L78.1861 134.229L78.0653 134.182L77.8936 134.207L78.1479 134.315Z" fill="white"/>
<path d="M80.4309 140.029H80.5295L80.9873 138.401L80.8983 138.376L80.4309 140.029Z" fill="white"/>
<path d="M81.2544 133.654L80.8824 135.123L80.9714 135.148L81.3561 133.638L81.2544 133.654Z" fill="white"/>
<path d="M70.7203 139.066L70.6408 139.015L69.9985 140.029H70.1098L70.7203 139.066Z" fill="white"/>
<path d="M71.2513 139.4L71.1718 139.352L70.7394 140.029H70.8507L71.2513 139.4Z" fill="white"/>
<path d="M90.0493 139.902L89.9761 140.029H90.0842L90.1319 139.946L90.0493 139.902Z" fill="white"/>
<path d="M104.059 138.547L103.639 140.029H103.738L104.148 138.573L104.059 138.547Z" fill="white"/>
<path d="M87.1808 133.476L87.0911 133.509L87.8361 135.572L87.9258 135.54L87.1808 133.476Z" fill="white"/>
<path d="M81.4992 138.547L81.0827 140.029H81.1781L81.5914 138.573L81.4992 138.547Z" fill="white"/>
<path d="M72.6154 139.67L72.5772 139.756L73.2227 140.029H73.4611L72.6154 139.67Z" fill="white"/>
<path d="M89.5882 139.635L89.5055 139.59L89.2543 140.029H89.3624L89.5882 139.635Z" fill="white"/>
<path d="M67.0402 135.849L66.4478 137.955L66.5394 137.981L67.1317 135.874L67.0402 135.849Z" fill="white"/>
<path d="M85.1272 137.444L85.0381 137.409L84.2369 139.45L84.3227 139.485L85.1272 137.444Z" fill="white"/>
<path d="M71.4336 136.881L69.4226 137.758L69.4607 137.845L71.4718 136.968L71.4336 136.881Z" fill="white"/>
<path d="M85.7091 137.67L85.62 137.638L84.8188 139.679L84.9078 139.711L85.7091 137.67Z" fill="white"/>
<path d="M82.7965 135.832L83.7695 136.051L84.9332 136.312L84.9555 136.22L83.7695 135.953L82.8156 135.74L82.7965 135.832Z" fill="white"/>
<path d="M85.0731 135.702L85.0954 135.609L83.7695 135.311L82.9555 135.126L82.9333 135.218L83.7695 135.406L85.0731 135.702Z" fill="white"/>
<path d="M80.3673 134.993L80.6821 133.749L80.5803 133.765L80.2751 134.97L80.3673 134.993Z" fill="white"/>
<path d="M77.9412 134.808L76.911 134.369L76.7393 134.398L77.9031 134.894L77.9412 134.808Z" fill="white"/>
<path d="M74.9238 137.056L75.016 137.031L74.3832 134.929L74.2942 134.958L74.9238 137.056Z" fill="white"/>
<path d="M74.415 137.209L73.7823 135.11L73.6933 135.136L74.326 137.237L74.415 137.209Z" fill="white"/>
<path d="M77.636 136.729L78.2687 138.827L78.3578 138.802L77.725 136.7L77.636 136.729Z" fill="white"/>
<path d="M76.5517 139.95L76.5327 140.029H76.6312L76.6439 139.969L76.5517 139.95Z" fill="white"/>
<path d="M78.9587 138.621L78.326 136.519L78.2369 136.547L78.8665 138.646L78.9587 138.621Z" fill="white"/>
<path d="M97.4006 130.989L63.6965 136.554L64.1894 140.029H105.747C106.07 138.309 106.245 136.564 106.269 134.815C106.269 132.207 104.704 129.253 104.704 129.253" stroke="#263238" stroke-width="0.985332"/>
<path d="M104.812 139.466H62.9175L61.5439 116.42C61.5065 116.196 61.5185 115.966 61.5789 115.747C61.6393 115.527 61.7468 115.324 61.8938 115.15C62.0409 114.976 62.224 114.837 62.4304 114.741C62.6368 114.645 62.8616 114.595 63.0892 114.595H104.634C104.862 114.595 105.087 114.644 105.294 114.74C105.5 114.835 105.684 114.975 105.831 115.149C105.978 115.323 106.086 115.526 106.146 115.746C106.206 115.966 106.217 116.196 106.179 116.42L104.812 139.466Z" fill="#263238" stroke="#263238" stroke-width="0.985332" stroke-linecap="round" stroke-linejoin="round"/>
<path d="M64.9747 115.149H104.332C104.554 115.146 104.774 115.192 104.977 115.284C105.179 115.376 105.359 115.51 105.505 115.679C105.65 115.847 105.756 116.045 105.817 116.259C105.877 116.473 105.89 116.697 105.855 116.916" stroke="white" stroke-width="0.985332" stroke-linecap="round" stroke-linejoin="round"/>
<path d="M61.8555 116.563C61.8853 116.177 62.0607 115.815 62.3463 115.553C62.6319 115.29 63.0065 115.146 63.3944 115.149" stroke="white" stroke-width="0.985332" stroke-linecap="round" stroke-linejoin="round"/>
<path d="M104.987 137.222H62.7363V139.466H104.987V137.222Z" fill="white" stroke="#263238" stroke-width="0.985332" stroke-linecap="round" stroke-linejoin="round"/>
<path d="M86.7075 127.123C86.7075 128.115 85.3656 128.92 83.7122 128.92C82.0588 128.92 80.7202 128.115 80.7202 127.123C80.7202 126.131 82.062 125.327 83.7122 125.327C85.3625 125.327 86.7075 126.131 86.7075 127.123Z" fill="white" stroke="#263238" stroke-width="0.985332" stroke-linecap="round" stroke-linejoin="round"/>
<path d="M21.2454 137.152C20.3574 137.108 19.4852 136.899 18.673 136.538C18.4661 136.438 18.3057 136.263 18.2252 136.048C18.1448 135.833 18.1505 135.595 18.2411 135.384C18.3318 135.173 18.5005 135.005 18.7119 134.916C18.9233 134.826 19.1612 134.822 19.3757 134.904C20.1961 135.253 21.2485 135.47 21.5315 135.349C22.0466 134.767 22.8447 131.253 21.8145 129.578C21.7604 129.459 21.6788 129.356 21.5764 129.276C21.4741 129.195 21.354 129.141 21.2263 129.117C20.6412 129.037 19.7764 129.638 19.4711 129.924C19.2971 130.076 19.0711 130.154 18.8407 130.142C18.6104 130.13 18.3937 130.029 18.2363 129.86C18.0788 129.692 17.993 129.469 17.9967 129.238C18.0005 129.007 18.0936 128.787 18.2565 128.624C18.4187 128.471 19.894 127.145 21.4616 127.352C21.8507 127.41 22.2213 127.557 22.5448 127.78C22.8684 128.004 23.1363 128.299 23.328 128.643C24.8447 131.11 23.8081 135.816 22.6412 136.738C22.2361 137.03 21.744 137.176 21.2454 137.152Z" fill="#263238" stroke="#263238" stroke-width="0.985332" stroke-linecap="round" stroke-linejoin="round"/>
<path d="M19.6714 126.627H9.8623V139.648H19.6714V126.627Z" fill="#263238" stroke="#263238" stroke-width="0.985332" stroke-linecap="round" stroke-linejoin="round"/>
<path d="M10.7526 125.915C10.7526 125.915 10.7526 124.831 12.7399 123.746C14.7272 122.662 15.8114 121.037 14.7272 117.966C13.6429 114.894 13.8241 112.726 15.999 110.916" stroke="#263238" stroke-width="0.985332" stroke-linecap="round" stroke-linejoin="round"/>
<path d="M11.2041 114.357C11.3058 113.037 11.8941 111.921 13.1119 110.916" stroke="#263238" stroke-width="0.985332" stroke-linecap="round" stroke-linejoin="round"/>
<path d="M11.8369 117.966C11.6383 117.418 11.4779 116.857 11.3568 116.287" stroke="#263238" stroke-width="0.985332" stroke-linecap="round" stroke-linejoin="round"/>
<path d="M18.8225 119.025C18.7463 118.665 18.6454 118.311 18.5204 117.966L18.3551 117.476" stroke="#263238" stroke-width="0.985332" stroke-linecap="round" stroke-linejoin="round"/>
<path d="M14.5459 125.915C14.5459 125.915 14.5459 124.83 16.5332 123.746C17.8368 123.034 18.7589 122.09 18.9211 120.659" stroke="#263238" stroke-width="0.985332" stroke-linecap="round" stroke-linejoin="round"/>
<path d="M148.777 139.425H0.784424V142.7H148.777V139.425Z" fill="#263238"/>
</svg>
