<svg width="259" height="259" viewBox="0 0 259 259" fill="none" xmlns="http://www.w3.org/2000/svg">
<path d="M180.108 173.565H145.123C142.484 173.561 139.954 172.511 138.088 170.646C136.222 168.78 135.172 166.25 135.169 163.611V43.4197C135.172 40.7815 136.223 38.2526 138.089 36.3878C139.955 34.523 142.484 33.4746 145.123 33.4728H180.108V34.1472H145.123C142.663 34.149 140.305 35.1263 138.565 36.8646C136.826 38.603 135.847 40.9604 135.843 43.4197V163.611C135.845 166.072 136.823 168.431 138.563 170.171C140.303 171.91 142.662 172.889 145.123 172.89H180.108V173.565Z" fill="#263238"/>
<path d="M216.524 173.565H157.632C154.77 173.565 152.026 172.428 150.002 170.405C147.979 168.381 146.842 165.637 146.842 162.775V44.2626C146.842 41.401 147.979 38.6566 150.002 36.6331C152.026 34.6096 154.77 33.4728 157.632 33.4728H216.524C219.386 33.4728 222.13 34.6096 224.153 36.6331C226.177 38.6566 227.314 41.401 227.314 44.2626V162.775C227.314 165.637 226.177 168.381 224.153 170.405C222.13 172.428 219.386 173.565 216.524 173.565ZM157.632 34.1472C154.949 34.1472 152.376 35.2129 150.479 37.1099C148.582 39.007 147.516 41.5799 147.516 44.2626V162.775C147.516 165.458 148.582 168.031 150.479 169.928C152.376 171.825 154.949 172.89 157.632 172.89H216.524C219.207 172.89 221.78 171.825 223.677 169.928C225.574 168.031 226.639 165.458 226.639 162.775V44.2626C226.639 41.5799 225.574 39.007 223.677 37.1099C221.78 35.2129 219.207 34.1472 216.524 34.1472H157.632Z" fill="#263238"/>
<path d="M215.465 60.1034H158.232C157.797 60.1233 157.362 60.0548 156.954 59.9019C156.546 59.7491 156.173 59.5151 155.858 59.2142C155.543 58.9132 155.292 58.5515 155.121 58.1508C154.95 57.7502 154.861 57.319 154.861 56.8833C154.861 56.4476 154.95 56.0164 155.121 55.6158C155.292 55.2152 155.543 54.8534 155.858 54.5524C156.173 54.2515 156.546 54.0175 156.954 53.8647C157.362 53.7118 157.797 53.6433 158.232 53.6632H215.465C215.9 53.6433 216.335 53.7118 216.743 53.8647C217.151 54.0175 217.524 54.2515 217.839 54.5524C218.154 54.8534 218.405 55.2152 218.576 55.6158C218.748 56.0164 218.836 56.4476 218.836 56.8833C218.836 57.319 218.748 57.7502 218.576 58.1508C218.405 58.5515 218.154 58.9132 217.839 59.2142C217.524 59.5151 217.151 59.7491 216.743 59.9019C216.335 60.0548 215.9 60.1233 215.465 60.1034ZM158.259 54.3376C157.914 54.3198 157.568 54.3725 157.244 54.4924C156.92 54.6123 156.623 54.7969 156.372 55.0351C156.122 55.2732 155.922 55.5599 155.786 55.8776C155.649 56.1953 155.579 56.5375 155.579 56.8833C155.579 57.2291 155.649 57.5713 155.786 57.889C155.922 58.2067 156.122 58.4934 156.372 58.7315C156.623 58.9697 156.92 59.1543 157.244 59.2742C157.568 59.3941 157.914 59.4468 158.259 59.429H215.465C215.811 59.4468 216.156 59.3941 216.48 59.2742C216.805 59.1543 217.101 58.9697 217.352 58.7315C217.603 58.4934 217.802 58.2067 217.939 57.889C218.075 57.5713 218.145 57.2291 218.145 56.8833C218.145 56.5375 218.075 56.1953 217.939 55.8776C217.802 55.5599 217.603 55.2732 217.352 55.0351C217.101 54.7969 216.805 54.6123 216.48 54.4924C216.156 54.3725 215.811 54.3198 215.465 54.3376H158.259Z" fill="#263238"/>
<path d="M215.465 155.182H158.232C157.377 155.182 156.557 154.842 155.953 154.238C155.348 153.633 155.009 152.813 155.009 151.958C155.009 151.103 155.348 150.283 155.953 149.679C156.557 149.074 157.377 148.735 158.232 148.735H215.465C216.32 148.735 217.14 149.074 217.745 149.679C218.349 150.283 218.689 151.103 218.689 151.958C218.689 152.813 218.349 153.633 217.745 154.238C217.14 154.842 216.32 155.182 215.465 155.182ZM158.259 149.409C157.583 149.409 156.935 149.678 156.457 150.156C155.979 150.634 155.71 151.282 155.71 151.958C155.71 152.634 155.979 153.283 156.457 153.761C156.935 154.239 157.583 154.507 158.259 154.507H215.465C216.141 154.507 216.79 154.239 217.268 153.761C217.746 153.283 218.014 152.634 218.014 151.958C218.014 151.282 217.746 150.634 217.268 150.156C216.79 149.678 216.141 149.409 215.465 149.409H158.259Z" fill="#263238"/>
<path d="M198.134 71.6417H158.232C157.797 71.6616 157.362 71.5931 156.954 71.4403C156.546 71.2874 156.173 71.0535 155.858 70.7525C155.543 70.4515 155.292 70.0898 155.121 69.6892C154.95 69.2886 154.861 68.8574 154.861 68.4216C154.861 67.9859 154.95 67.5547 155.121 67.1541C155.292 66.7535 155.543 66.3918 155.858 66.0908C156.173 65.7898 156.546 65.5558 156.954 65.403C157.362 65.2502 157.797 65.1816 158.232 65.2016H198.134C198.569 65.1816 199.004 65.2502 199.412 65.403C199.82 65.5558 200.193 65.7898 200.508 66.0908C200.823 66.3918 201.074 66.7535 201.245 67.1541C201.417 67.5547 201.505 67.9859 201.505 68.4216C201.505 68.8574 201.417 69.2886 201.245 69.6892C201.074 70.0898 200.823 70.4515 200.508 70.7525C200.193 71.0535 199.82 71.2874 199.412 71.4403C199.004 71.5931 198.569 71.6616 198.134 71.6417ZM158.232 65.8759C157.887 65.8581 157.541 65.9108 157.217 66.0307C156.893 66.1506 156.596 66.3353 156.346 66.5734C156.095 66.8115 155.895 67.0982 155.759 67.4159C155.622 67.7337 155.552 68.0758 155.552 68.4216C155.552 68.7674 155.622 69.1096 155.759 69.4273C155.895 69.7451 156.095 70.0317 156.346 70.2699C156.596 70.508 156.893 70.6927 157.217 70.8126C157.541 70.9325 157.887 70.9851 158.232 70.9673H198.134C198.479 70.9851 198.825 70.9325 199.149 70.8126C199.473 70.6927 199.77 70.508 200.021 70.2699C200.271 70.0317 200.471 69.7451 200.607 69.4273C200.744 69.1096 200.814 68.7674 200.814 68.4216C200.814 68.0758 200.744 67.7337 200.607 67.4159C200.471 67.0982 200.271 66.8115 200.021 66.5734C199.77 66.3353 199.473 66.1506 199.149 66.0307C198.825 65.9108 198.479 65.8581 198.134 65.8759H158.232Z" fill="#263238"/>
<path d="M210.151 73.2332C212.807 73.2332 214.959 71.0805 214.959 68.425C214.959 65.7695 212.807 63.6168 210.151 63.6168C207.496 63.6168 205.343 65.7695 205.343 68.425C205.343 71.0805 207.496 73.2332 210.151 73.2332Z" fill="#92E3A9"/>
<path d="M210.151 73.5704C209.134 73.5704 208.139 73.2686 207.293 72.7032C206.446 72.1378 205.787 71.3342 205.398 70.394C205.008 69.4539 204.906 68.4193 205.105 67.4212C205.303 66.4231 205.793 65.5063 206.513 64.7867C207.233 64.0671 208.149 63.577 209.147 63.3785C210.146 63.18 211.18 63.2818 212.12 63.6713C213.061 64.0607 213.864 64.7202 214.429 65.5664C214.995 66.4125 215.297 67.4073 215.297 68.425C215.293 69.7885 214.75 71.0952 213.786 72.0594C212.821 73.0236 211.515 73.5668 210.151 73.5704ZM210.151 63.954C209.267 63.954 208.403 64.2162 207.667 64.7075C206.932 65.1988 206.359 65.897 206.021 66.714C205.682 67.531 205.594 68.43 205.766 69.2973C205.939 70.1645 206.364 70.9612 206.99 71.5865C207.615 72.2118 208.412 72.6376 209.279 72.8101C210.146 72.9826 211.045 72.8941 211.862 72.5557C212.679 72.2173 213.377 71.6442 213.869 70.909C214.36 70.1737 214.622 69.3093 214.622 68.425C214.623 67.837 214.508 67.2545 214.284 66.7109C214.06 66.1673 213.731 65.6732 213.316 65.2568C212.9 64.8403 212.407 64.5098 211.864 64.2839C211.321 64.0581 210.739 63.9414 210.151 63.9405V63.954Z" fill="#263238"/>
<path d="M163.276 98.0835C161.83 98.0835 160.417 97.6546 159.214 96.851C158.012 96.0475 157.075 94.9054 156.522 93.5693C155.969 92.2331 155.825 90.763 156.107 89.3448C156.39 87.9266 157.087 86.6241 158.11 85.602C159.133 84.5799 160.436 83.8842 161.854 83.6029C163.273 83.3216 164.743 83.4674 166.079 84.0217C167.414 84.576 168.555 85.514 169.358 86.717C170.16 87.9201 170.588 89.334 170.586 90.7801C170.585 92.7177 169.814 94.5753 168.443 95.9448C167.072 97.3142 165.214 98.0835 163.276 98.0835ZM163.276 84.1444C161.964 84.1444 160.681 84.5336 159.59 85.2627C158.499 85.9919 157.648 87.0282 157.146 88.2407C156.644 89.4533 156.512 90.7875 156.768 92.0747C157.024 93.3619 157.656 94.5443 158.584 95.4723C159.512 96.4003 160.695 97.0323 161.982 97.2883C163.269 97.5444 164.603 97.413 165.816 96.9107C167.028 96.4085 168.065 95.558 168.794 94.4667C169.523 93.3755 169.912 92.0926 169.912 90.7801C169.905 89.0249 169.203 87.344 167.959 86.1054C166.715 84.8668 165.032 84.1714 163.276 84.1714V84.1444Z" fill="#263238"/>
<path d="M187.074 98.0835C185.628 98.0835 184.215 97.6546 183.013 96.851C181.81 96.0475 180.873 94.9054 180.32 93.5693C179.767 92.2331 179.623 90.763 179.905 89.3448C180.188 87.9266 180.885 86.6241 181.908 85.602C182.931 84.5799 184.234 83.8842 185.653 83.6029C187.071 83.3216 188.541 83.4674 189.877 84.0217C191.212 84.576 192.353 85.514 193.156 86.717C193.958 87.9201 194.386 89.334 194.385 90.7801C194.381 92.7172 193.609 94.5738 192.239 95.9428C190.869 97.3119 189.012 98.0817 187.074 98.0835ZM187.074 84.1444C185.762 84.1444 184.479 84.5336 183.388 85.2627C182.297 85.9919 181.446 87.0282 180.944 88.2407C180.442 89.4533 180.31 90.7875 180.566 92.0747C180.822 93.3619 181.454 94.5443 182.382 95.4723C183.31 96.4003 184.493 97.0323 185.78 97.2883C187.067 97.5444 188.401 97.413 189.614 96.9107C190.826 96.4085 191.863 95.558 192.592 94.4667C193.321 93.3755 193.71 92.0926 193.71 90.7801C193.701 89.0255 192.998 87.3456 191.755 86.1074C190.512 84.8691 188.829 84.1731 187.074 84.1714V84.1444Z" fill="#263238"/>
<path d="M210.873 98.0834C209.426 98.0874 208.01 97.6619 206.805 96.8608C205.6 96.0597 204.66 94.9191 204.104 93.5833C203.548 92.2475 203.401 90.7767 203.681 89.3572C203.961 87.9377 204.657 86.6332 205.679 85.6092C206.701 84.5851 208.004 83.8874 209.423 83.6044C210.842 83.3215 212.313 83.466 213.65 84.0197C214.987 84.5735 216.129 85.5114 216.932 86.7149C217.736 87.9184 218.164 89.3332 218.163 90.7801C218.159 92.7136 217.39 94.5672 216.024 95.9357C214.658 97.3041 212.806 98.0763 210.873 98.0834ZM210.873 84.1444C209.559 84.1404 208.275 84.5261 207.181 85.2528C206.087 85.9796 205.233 87.0145 204.728 88.2267C204.222 89.4388 204.088 90.7737 204.342 92.0622C204.596 93.3508 205.226 94.535 206.153 95.4651C207.08 96.3951 208.263 97.0291 209.55 97.2868C210.838 97.5445 212.173 97.4143 213.387 96.9126C214.601 96.411 215.638 95.5605 216.368 94.4688C217.099 93.3771 217.488 92.0934 217.488 90.7801C217.479 89.0289 216.779 87.3521 215.54 86.1144C214.301 84.8768 212.624 84.1784 210.873 84.1714V84.1444Z" fill="#263238"/>
<path d="M163.276 116.359C161.831 116.359 160.417 115.93 159.215 115.127C158.013 114.323 157.076 113.182 156.523 111.846C155.969 110.51 155.825 109.04 156.107 107.622C156.389 106.204 157.085 104.902 158.107 103.88C159.13 102.857 160.432 102.161 161.85 101.879C163.268 101.597 164.738 101.742 166.074 102.295C167.41 102.848 168.551 103.785 169.355 104.987C170.158 106.189 170.586 107.603 170.586 109.049C170.585 110.987 169.814 112.845 168.443 114.216C167.073 115.586 165.215 116.357 163.276 116.359ZM163.276 102.413C161.964 102.413 160.681 102.802 159.59 103.531C158.499 104.26 157.648 105.297 157.146 106.509C156.644 107.722 156.512 109.056 156.768 110.343C157.024 111.63 157.656 112.813 158.584 113.741C159.512 114.669 160.695 115.301 161.982 115.557C163.269 115.813 164.603 115.681 165.816 115.179C167.028 114.677 168.065 113.826 168.794 112.735C169.523 111.644 169.912 110.361 169.912 109.049C169.912 107.289 169.213 105.601 167.969 104.356C166.724 103.112 165.036 102.413 163.276 102.413Z" fill="#263238"/>
<path d="M187.074 116.359C185.629 116.359 184.215 115.93 183.013 115.127C181.811 114.323 180.874 113.182 180.321 111.846C179.768 110.51 179.623 109.04 179.905 107.622C180.187 106.204 180.883 104.902 181.905 103.88C182.928 102.857 184.23 102.161 185.648 101.879C187.066 101.597 188.536 101.742 189.872 102.295C191.208 102.848 192.349 103.785 193.153 104.987C193.956 106.189 194.385 107.603 194.385 109.049C194.381 110.986 193.61 112.843 192.24 114.214C190.869 115.584 189.012 116.355 187.074 116.359ZM187.074 102.413C185.762 102.413 184.479 102.802 183.388 103.531C182.297 104.26 181.446 105.297 180.944 106.509C180.442 107.722 180.31 109.056 180.566 110.343C180.822 111.63 181.454 112.813 182.382 113.741C183.31 114.669 184.493 115.301 185.78 115.557C187.067 115.813 188.401 115.681 189.614 115.179C190.826 114.677 191.863 113.826 192.592 112.735C193.321 111.644 193.71 110.361 193.71 109.049C193.708 107.289 193.009 105.602 191.765 104.358C190.521 103.114 188.834 102.415 187.074 102.413Z" fill="#263238"/>
<path d="M210.873 116.359C209.426 116.363 208.011 115.937 206.806 115.137C205.601 114.336 204.661 113.195 204.105 111.86C203.548 110.525 203.401 109.054 203.68 107.635C203.96 106.216 204.655 104.911 205.676 103.887C206.698 102.862 208 102.164 209.419 101.88C210.837 101.597 212.308 101.74 213.645 102.293C214.982 102.846 216.125 103.783 216.929 104.985C217.733 106.188 218.163 107.602 218.163 109.049C218.159 110.983 217.391 112.837 216.025 114.207C214.659 115.576 212.807 116.35 210.873 116.359ZM210.873 102.413C209.56 102.413 208.277 102.802 207.186 103.531C206.095 104.26 205.244 105.297 204.742 106.509C204.24 107.722 204.108 109.056 204.365 110.343C204.621 111.63 205.253 112.813 206.181 113.741C207.109 114.669 208.291 115.301 209.578 115.557C210.865 115.813 212.2 115.681 213.412 115.179C214.625 114.677 215.661 113.826 216.39 112.735C217.119 111.644 217.508 110.361 217.508 109.049C217.507 107.289 216.807 105.602 215.563 104.358C214.319 103.114 212.632 102.415 210.873 102.413Z" fill="#263238"/>
<path d="M163.276 134.627C161.83 134.627 160.416 134.198 159.214 133.394C158.011 132.59 157.074 131.448 156.521 130.111C155.969 128.775 155.825 127.304 156.108 125.886C156.391 124.468 157.088 123.165 158.112 122.143C159.136 121.121 160.44 120.426 161.859 120.146C163.277 119.865 164.748 120.012 166.083 120.567C167.419 121.123 168.559 122.062 169.361 123.266C170.163 124.469 170.589 125.884 170.586 127.331C170.581 129.266 169.809 131.121 168.439 132.489C167.069 133.856 165.212 134.625 163.276 134.627ZM163.276 120.681C161.964 120.681 160.681 121.07 159.59 121.8C158.499 122.529 157.648 123.565 157.146 124.778C156.644 125.99 156.512 127.324 156.768 128.612C157.024 129.899 157.656 131.081 158.584 132.009C159.512 132.937 160.695 133.569 161.982 133.825C163.269 134.081 164.603 133.95 165.816 133.448C167.028 132.945 168.065 132.095 168.794 131.004C169.523 129.912 169.912 128.629 169.912 127.317C169.912 125.557 169.213 123.869 167.969 122.625C166.724 121.38 165.036 120.681 163.276 120.681Z" fill="#263238"/>
<path d="M187.074 134.627C185.628 134.627 184.214 134.198 183.012 133.394C181.809 132.59 180.872 131.448 180.32 130.111C179.767 128.775 179.623 127.304 179.906 125.886C180.189 124.468 180.887 123.165 181.91 122.143C182.934 121.121 184.238 120.426 185.657 120.146C187.076 119.865 188.546 120.012 189.881 120.567C191.217 121.123 192.358 122.062 193.159 123.266C193.961 124.469 194.387 125.884 194.385 127.331C194.377 129.266 193.605 131.12 192.235 132.487C190.865 133.854 189.01 134.624 187.074 134.627ZM187.074 120.681C185.762 120.681 184.479 121.07 183.388 121.8C182.297 122.529 181.446 123.565 180.944 124.778C180.442 125.99 180.31 127.324 180.566 128.612C180.822 129.899 181.454 131.081 182.382 132.009C183.31 132.937 184.493 133.569 185.78 133.825C187.067 134.081 188.401 133.95 189.614 133.448C190.826 132.945 191.863 132.095 192.592 131.004C193.321 129.912 193.71 128.629 193.71 127.317C193.708 125.558 193.009 123.871 191.765 122.627C190.521 121.383 188.834 120.683 187.074 120.681Z" fill="#263238"/>
<path d="M210.873 134.627C209.425 134.631 208.01 134.205 206.805 133.404C205.599 132.603 204.659 131.462 204.103 130.125C203.547 128.789 203.401 127.318 203.681 125.898C203.962 124.479 204.658 123.174 205.681 122.15C206.704 121.127 208.008 120.429 209.427 120.147C210.847 119.865 212.318 120.011 213.655 120.565C214.991 121.12 216.133 122.059 216.936 123.264C217.738 124.468 218.165 125.883 218.163 127.331C218.155 129.262 217.385 131.113 216.02 132.48C214.655 133.846 212.805 134.618 210.873 134.627ZM210.873 120.681C209.56 120.677 208.276 121.063 207.182 121.789C206.088 122.515 205.235 123.549 204.729 124.761C204.223 125.972 204.088 127.306 204.341 128.594C204.594 129.882 205.223 131.067 206.148 131.997C207.074 132.928 208.255 133.563 209.542 133.822C210.829 134.081 212.164 133.953 213.378 133.453C214.592 132.954 215.63 132.105 216.362 131.016C217.094 129.926 217.486 128.643 217.488 127.331C217.49 125.572 216.795 123.885 215.555 122.639C214.315 121.392 212.631 120.688 210.873 120.681Z" fill="#263238"/>
<path d="M90.8296 0.94162H90.1552V255.176H90.8296V0.94162Z" fill="#263238"/>
<path d="M98.5375 0.94162H97.8632V255.176H98.5375V0.94162Z" fill="#263238"/>
<path d="M125.222 0.94162H124.548V255.176H125.222V0.94162Z" fill="#263238"/>
<path d="M89.3889 33.8438L23.1189 94.5904L23.5746 95.0875L89.8446 34.3409L89.3889 33.8438Z" fill="#263238"/>
<path d="M64.3265 64.4171L59.0322 69.2701L59.4879 69.7672L64.7821 64.9142L64.3265 64.4171Z" fill="#263238"/>
<path d="M89.3893 41.4407L70.3947 58.8522L70.8503 59.3493L89.845 41.9378L89.3893 41.4407Z" fill="#263238"/>
<path d="M89.408 93.072L47.9621 131.01L48.4174 131.508L89.8633 93.5694L89.408 93.072Z" fill="#263238"/>
<path d="M73.733 112.156L70.4222 115.191L70.8779 115.688L74.1887 112.653L73.733 112.156Z" fill="#263238"/>
<path d="M89.3963 97.8L77.5252 108.682L77.9809 109.179L89.8519 98.2971L89.3963 97.8Z" fill="#263238"/>
<path d="M52.8833 161.858C50.5163 167.684 48.0953 162.998 48.4797 138.572C48.6618 127.108 49.4643 103.728 62.1288 108.9C74.2673 113.843 58.2647 148.431 58.2647 148.431L52.8833 161.858ZM70.2683 165.324C70.2683 165.324 96.6696 137.817 86.77 129.185C76.4657 120.203 68.1036 142.065 64.2126 152.835C55.9179 175.817 56.6867 181.037 60.8407 176.289L70.2683 165.324ZM75.8723 190.046C75.8723 190.046 100.041 172.836 93.7226 164.805C87.1409 156.443 77.5851 171.946 73.0467 179.641C63.3763 196.008 63.2077 200.108 67.0516 197.08L75.8723 190.046ZM82.4136 214.654C82.4136 214.654 106.583 197.451 100.264 189.419C93.6822 181.057 84.1265 196.561 79.5947 204.255C69.9177 220.622 69.7491 224.722 73.5929 221.694L82.4136 214.654ZM40.2053 165.169C40.2053 165.169 6.39276 147.568 0.889964 159.498C-4.83537 171.906 18.4976 173.787 29.928 174.489C54.3129 175.992 59.1076 173.814 53.389 171.164L40.2053 165.169ZM44.9663 184.55C44.9663 184.55 8.32818 174.017 5.30703 186.803C2.16451 200.101 25.403 197.309 36.7458 195.724C60.9419 192.353 65.2039 189.237 59.0807 187.801L44.9663 184.55ZM53.3553 205.671C53.3553 205.671 22.1256 197.619 19.8665 208.497C17.5197 219.819 37.1099 216.913 46.6589 215.315C67.0449 211.902 70.5785 209.171 65.3657 208.099L53.3553 205.671ZM58.2107 223.09C58.2107 223.09 27.9926 211.754 24.6208 222.335C21.0804 233.34 40.8661 232.531 50.5365 231.958C71.172 230.724 74.9686 228.384 69.9042 226.765L58.2107 223.09ZM37.9799 134.749C37.9799 134.749 24.1892 91.9063 8.54397 99.6817C-7.74861 107.774 11.0863 127.088 20.5004 136.34C40.5897 156.072 46.8005 157.461 44.157 150.569L37.9799 134.749Z" fill="#92E3A9"/>
<path opacity="0.4" d="M52.8833 161.858C50.5163 167.684 48.0953 162.998 48.4797 138.572C48.6618 127.108 49.4643 103.728 62.1288 108.9C74.2673 113.843 58.2647 148.431 58.2647 148.431L52.8833 161.858ZM70.2683 165.324C70.2683 165.324 96.6696 137.817 86.77 129.185C76.4657 120.203 68.1036 142.065 64.2126 152.835C55.9179 175.817 56.6867 181.037 60.8407 176.289L70.2683 165.324ZM75.8723 190.046C75.8723 190.046 100.041 172.836 93.7226 164.805C87.1409 156.443 77.5851 171.946 73.0467 179.641C63.3763 196.008 63.2077 200.108 67.0516 197.08L75.8723 190.046ZM82.4136 214.654C82.4136 214.654 106.583 197.451 100.264 189.419C93.6822 181.057 84.1265 196.561 79.5947 204.255C69.9177 220.622 69.7491 224.722 73.5929 221.694L82.4136 214.654ZM40.2053 165.169C40.2053 165.169 6.39276 147.568 0.889964 159.498C-4.83537 171.906 18.4976 173.787 29.928 174.489C54.3129 175.992 59.1076 173.814 53.389 171.164L40.2053 165.169ZM44.9663 184.55C44.9663 184.55 8.32818 174.017 5.30703 186.803C2.16451 200.101 25.403 197.309 36.7458 195.724C60.9419 192.353 65.2039 189.237 59.0807 187.801L44.9663 184.55ZM53.3553 205.671C53.3553 205.671 22.1256 197.619 19.8665 208.497C17.5197 219.819 37.1099 216.913 46.6589 215.315C67.0449 211.902 70.5785 209.171 65.3657 208.099L53.3553 205.671ZM58.2107 223.09C58.2107 223.09 27.9926 211.754 24.6208 222.335C21.0804 233.34 40.8661 232.531 50.5365 231.958C71.172 230.724 74.9686 228.384 69.9042 226.765L58.2107 223.09ZM37.9799 134.749C37.9799 134.749 24.1892 91.9063 8.54397 99.6817C-7.74861 107.774 11.0863 127.088 20.5004 136.34C40.5897 156.072 46.8005 157.461 44.157 150.569L37.9799 134.749Z" fill="white"/>
<path d="M75.1439 253.692C75.0365 253.693 74.9331 253.651 74.8552 253.577C74.7774 253.503 74.731 253.402 74.7258 253.295C73.4311 230.494 67.0381 202.522 57.6173 178.44C49.4507 157.596 15.1325 115.59 14.775 115.165C14.7052 115.078 14.6724 114.967 14.6837 114.856C14.6951 114.745 14.7497 114.643 14.8357 114.572C14.8785 114.536 14.9279 114.51 14.981 114.493C15.0341 114.477 15.0899 114.472 15.1452 114.477C15.2004 114.483 15.254 114.5 15.3028 114.526C15.3515 114.553 15.3945 114.589 15.4292 114.632C15.7798 115.057 50.1925 157.171 58.4063 178.137C67.8473 202.259 74.274 230.326 75.5688 253.214C75.5743 253.325 75.5357 253.435 75.4612 253.518C75.3867 253.601 75.2824 253.652 75.1709 253.659L75.1439 253.692Z" fill="#263238"/>
<path d="M51.1165 164.953H51.0693C50.9575 164.94 50.8557 164.882 50.7862 164.794C50.7166 164.705 50.685 164.593 50.6984 164.481L55.5133 124.201C55.5178 124.144 55.5338 124.089 55.5603 124.038C55.5869 123.987 55.6234 123.943 55.6676 123.906C55.7119 123.87 55.7631 123.843 55.818 123.827C55.873 123.811 55.9306 123.806 55.9874 123.813C56.0443 123.82 56.0992 123.838 56.1488 123.867C56.1984 123.895 56.2417 123.934 56.2761 123.979C56.3106 124.025 56.3354 124.077 56.3492 124.133C56.363 124.188 56.3654 124.246 56.3563 124.303L51.5413 164.582C51.5268 164.685 51.4758 164.779 51.3979 164.847C51.3199 164.915 51.22 164.953 51.1165 164.953Z" fill="#263238"/>
<path d="M58.0151 178.744C57.947 178.745 57.8796 178.729 57.8195 178.697C57.7701 178.672 57.7262 178.637 57.6903 178.595C57.6543 178.553 57.6271 178.504 57.6101 178.452C57.5932 178.399 57.5869 178.343 57.5916 178.288C57.5963 178.233 57.6119 178.179 57.6375 178.13L75.0562 144.271C75.0815 144.221 75.1162 144.178 75.1583 144.142C75.2004 144.106 75.2492 144.079 75.3018 144.062C75.3544 144.045 75.4098 144.039 75.4648 144.043C75.5199 144.048 75.5736 144.063 75.6227 144.088C75.6719 144.114 75.7156 144.148 75.7513 144.19C75.7871 144.233 75.8142 144.281 75.8311 144.334C75.848 144.387 75.8543 144.442 75.8498 144.497C75.8453 144.552 75.83 144.606 75.8048 144.655L58.386 178.515C58.3519 178.584 58.299 178.642 58.2334 178.682C58.1679 178.723 58.0922 178.744 58.0151 178.744Z" fill="#263238"/>
<path d="M55.4661 173.727H55.3851L18.9089 166.309C18.8071 166.278 18.7202 166.211 18.6655 166.12C18.6108 166.029 18.5922 165.921 18.6134 165.817C18.6345 165.713 18.6939 165.62 18.7798 165.558C18.8657 165.495 18.972 165.467 19.0775 165.479L55.5537 172.897C55.6526 172.922 55.7392 172.982 55.7975 173.066C55.8558 173.15 55.8821 173.252 55.8714 173.353C55.8608 173.455 55.814 173.549 55.7395 173.619C55.6651 173.689 55.568 173.729 55.4661 173.733V173.727Z" fill="#263238"/>
<path d="M64.8666 197.956C64.7652 197.958 64.6667 197.922 64.5902 197.855C64.548 197.819 64.5136 197.774 64.4887 197.724C64.4639 197.674 64.4492 197.619 64.4454 197.564C64.4417 197.508 64.4489 197.452 64.4668 197.399C64.4847 197.346 64.5129 197.297 64.5497 197.255L85.9877 172.823C86.0244 172.781 86.069 172.746 86.1191 172.722C86.1692 172.697 86.2236 172.682 86.2794 172.678C86.3351 172.675 86.3911 172.682 86.444 172.7C86.4969 172.718 86.5458 172.746 86.5879 172.783C86.627 172.821 86.6581 172.868 86.6793 172.919C86.7005 172.969 86.7114 173.024 86.7114 173.079C86.7114 173.134 86.7005 173.189 86.6793 173.24C86.6581 173.291 86.627 173.337 86.5879 173.376L65.1431 197.815C65.0717 197.895 64.9732 197.945 64.8666 197.956Z" fill="#263238"/>
<path d="M61.8658 189.905L34.3248 189.669C34.2133 189.667 34.107 189.621 34.0288 189.542C33.9506 189.462 33.9067 189.355 33.9067 189.244C33.9067 189.188 33.9178 189.133 33.9392 189.082C33.9606 189.031 33.992 188.985 34.0316 188.946C34.0711 188.907 34.118 188.876 34.1695 188.856C34.221 188.835 34.2761 188.825 34.3316 188.826L61.8725 189.062C61.9835 189.065 62.0888 189.111 62.1667 189.19C62.2446 189.269 62.289 189.376 62.2906 189.487C62.2906 189.542 62.2796 189.597 62.2582 189.648C62.2367 189.699 62.2053 189.746 62.1658 189.785C62.1263 189.823 62.0794 189.854 62.0279 189.875C61.9764 189.895 61.9213 189.906 61.8658 189.905Z" fill="#263238"/>
<path d="M46.052 210.736C45.9494 210.723 45.855 210.673 45.7867 210.595C45.7183 210.517 45.6805 210.418 45.6805 210.314C45.6805 210.211 45.7183 210.111 45.7867 210.033C45.855 209.956 45.9494 209.906 46.052 209.893L67.173 209.056C67.2323 209.047 67.2929 209.05 67.351 209.066C67.409 209.081 67.463 209.109 67.5095 209.147C67.556 209.185 67.5939 209.233 67.6207 209.286C67.6475 209.34 67.6626 209.399 67.665 209.459C67.6674 209.519 67.657 209.579 67.6346 209.635C67.6122 209.69 67.5782 209.741 67.5349 209.782C67.4916 209.824 67.4399 209.856 67.3834 209.876C67.3268 209.896 67.2666 209.904 67.2067 209.899L46.0857 210.736H46.052Z" fill="#263238"/>
<path d="M71.5091 222.658C71.4175 222.658 71.3283 222.629 71.2529 222.577C71.1637 222.509 71.1052 222.409 71.09 222.297C71.0749 222.186 71.1043 222.074 71.1719 221.984L82.481 206.905C82.5482 206.815 82.6484 206.755 82.7596 206.739C82.8708 206.722 82.984 206.751 83.0744 206.818C83.1636 206.886 83.2221 206.986 83.2373 207.098C83.2524 207.209 83.223 207.322 83.1554 207.411L71.8261 222.49C71.7898 222.54 71.7423 222.582 71.6873 222.611C71.6324 222.64 71.5714 222.657 71.5091 222.658Z" fill="#263238"/>
<path d="M72.3386 228.269L47.6367 227.042C47.5818 227.039 47.5279 227.026 47.4782 227.002C47.4284 226.979 47.3838 226.946 47.3468 226.905C47.3099 226.864 47.2813 226.817 47.2628 226.765C47.2442 226.713 47.2361 226.658 47.2388 226.603C47.2396 226.547 47.2519 226.491 47.2751 226.44C47.2982 226.388 47.3317 226.342 47.3734 226.304C47.4152 226.266 47.4643 226.237 47.5177 226.219C47.5711 226.201 47.6277 226.194 47.6839 226.199L72.3858 227.426C72.4973 227.433 72.6016 227.484 72.6761 227.567C72.7505 227.65 72.7892 227.76 72.7837 227.871C72.7767 227.983 72.7261 228.087 72.6428 228.161C72.5595 228.236 72.4502 228.275 72.3386 228.269Z" fill="#263238"/>
<path d="M49.7812 221.647C47.2483 221.653 44.7201 221.427 42.2283 220.972C34.2978 219.496 27.797 215.301 24.3847 209.461C18.7943 199.872 22.3616 187.686 28.323 179.857C35.9163 169.93 47.3602 164.171 57.5566 159.841C77.1131 151.547 97.8295 146.219 117.885 141.067C123.617 139.597 129.545 138.073 135.358 136.502C138.257 135.72 141.218 134.951 144.212 134.175C165.434 128.666 189.489 122.421 205.397 106.742C216.915 95.3927 225.459 82.1955 230.085 68.5869C232.1 62.9182 233.223 56.9718 233.417 50.959C233.641 44.499 233.175 38.0335 232.028 31.6723L231.589 31.3418C221.851 23.9846 211.001 19.5001 201.823 19.0347C187.203 18.3064 158.144 23.4788 142.573 40.5873L141.899 41.3291C135.251 49.6057 129.426 58.5113 124.507 67.9192C124.433 68.0836 124.326 68.2314 124.193 68.3537C124.06 68.476 123.904 68.5705 123.735 68.6315C123.565 68.6924 123.384 68.7187 123.204 68.7086C123.024 68.6986 122.847 68.6525 122.685 68.573C122.523 68.4936 122.379 68.3824 122.26 68.246C122.142 68.1097 122.052 67.951 121.997 67.7794C121.941 67.6077 121.92 67.4266 121.935 67.2468C121.951 67.0669 122.002 66.892 122.086 66.7324C124.736 61.5728 127.683 56.5718 130.914 51.7548C130.816 51.5375 130.778 51.2982 130.803 51.0613C130.828 50.8244 130.915 50.5983 131.055 50.4061C133.603 46.897 136.329 43.5208 139.222 40.2906C139.901 39.4319 140.595 38.5733 141.306 37.7146C152.561 24.1127 170.654 7.36828 192.915 4.67083C207.191 2.95795 217.61 5.27101 224.758 11.7381C229.478 16.0136 232.688 22.0424 234.462 30.1819C245.252 38.888 249.473 49.8935 246.985 62.9155C243.242 82.472 232.965 97.0382 220.907 112.69C188.841 154.305 153.93 184.651 117.163 202.711C100.143 211.085 82.0162 216.988 63.3291 220.244C58.862 221.101 54.3291 221.57 49.7812 221.647ZM235.231 34.4169C235.976 39.9202 236.272 45.4752 236.114 51.0265C235.914 57.3167 234.743 63.5382 232.641 69.4703C227.873 83.4768 219.107 97.0314 207.292 108.678C190.864 124.862 166.439 131.201 144.893 136.799C141.906 137.574 138.952 138.343 136.066 139.118C130.233 140.696 124.298 142.22 118.532 143.697C98.578 148.822 77.9426 154.123 58.5884 162.337C48.7224 166.531 37.6831 172.081 30.4472 181.509C25.0051 188.623 21.7345 199.609 26.6978 208.112C29.7122 213.278 35.5454 217 42.7004 218.336C49.444 219.583 56.3562 218.707 62.8436 217.58C81.2781 214.373 99.1604 208.551 115.95 200.29C151.853 182.628 187.405 151.776 218.77 111.031C230.611 95.6557 240.707 81.3593 244.335 62.3962C246.425 51.4716 243.364 42.0844 235.231 34.4169ZM201.479 6.80856C198.724 6.82324 195.973 6.99887 193.238 7.33456C177.95 9.16883 164.551 17.9692 153.741 28.3207C169.926 18.8122 190.338 15.7641 201.958 16.3575C213.793 16.9577 224.603 23.1011 231.043 27.6194C229.317 21.6243 226.639 17.0589 222.951 13.7208C217.832 9.09465 210.745 6.80856 201.479 6.80856Z" fill="#263238"/>
<path d="M83.6139 98.2318L102.125 228.485C102.257 229.395 102.744 230.216 103.479 230.768C104.215 231.32 105.139 231.559 106.05 231.432L184.869 220.224C185.78 220.094 186.602 219.607 187.155 218.871C187.707 218.135 187.945 217.21 187.816 216.299L169.298 86.0528C169.235 85.602 169.083 85.1682 168.851 84.7761C168.62 84.3841 168.314 84.0414 167.95 83.7677C167.586 83.4941 167.172 83.2948 166.731 83.1812C166.29 83.0676 165.831 83.042 165.38 83.1059L86.5541 94.2868C86.101 94.3503 85.6649 94.5031 85.2712 94.7363C84.8774 94.9695 84.5339 95.2785 84.2604 95.6455C83.987 96.0124 83.789 96.4299 83.678 96.8738C83.5671 97.3178 83.5453 97.7794 83.6139 98.2318ZM135.169 95.9794L119.153 98.252C118.811 98.3003 118.464 98.2808 118.13 98.1948C117.796 98.1087 117.482 97.9578 117.207 97.7505C116.931 97.5432 116.699 97.2837 116.524 96.9868C116.349 96.6898 116.234 96.3613 116.186 96.0199C116.137 95.6785 116.157 95.3309 116.243 94.9971C116.329 94.6632 116.48 94.3495 116.687 94.074C116.894 93.7985 117.154 93.5665 117.451 93.3912C117.748 93.216 118.076 93.101 118.418 93.0527L134.427 90.7733C134.773 90.716 135.126 90.7284 135.467 90.8096C135.808 90.8909 136.129 91.0395 136.412 91.2466C136.695 91.4538 136.933 91.7153 137.113 92.0159C137.293 92.3165 137.412 92.65 137.461 92.9969C137.51 93.3439 137.49 93.6972 137.401 94.0361C137.312 94.375 137.156 94.6927 136.943 94.9706C136.729 95.2484 136.462 95.4808 136.158 95.654C135.853 95.8273 135.517 95.9379 135.169 95.9794Z" fill="white"/>
<path d="M105.544 231.796C104.629 231.794 103.744 231.462 103.053 230.861C102.362 230.261 101.911 229.432 101.781 228.525L83.2902 98.279C83.1515 97.2806 83.4132 96.268 84.0184 95.4619C84.6236 94.6559 85.523 94.1219 86.5204 93.9766L165.347 82.7754C166.345 82.6348 167.359 82.8959 168.165 83.5014C168.972 84.1069 169.505 85.0074 169.649 86.0056L188.16 216.245C188.233 216.74 188.206 217.244 188.083 217.729C187.959 218.214 187.741 218.669 187.441 219.069C187.141 219.469 186.764 219.805 186.333 220.059C185.902 220.313 185.425 220.479 184.93 220.548L106.097 231.755C105.914 231.783 105.729 231.796 105.544 231.796ZM165.852 83.4363C165.706 83.4265 165.56 83.4265 165.414 83.4363L86.6013 94.6442C86.1944 94.7021 85.8028 94.8396 85.449 95.0489C85.0952 95.2581 84.786 95.5351 84.5393 95.8639C84.2925 96.1926 84.113 96.5668 84.0109 96.965C83.9088 97.3632 83.8862 97.7776 83.9444 98.1846L102.462 228.431C102.581 229.252 103.02 229.993 103.684 230.491C104.347 230.989 105.181 231.203 106.003 231.088L184.822 219.88C185.229 219.824 185.621 219.688 185.975 219.479C186.33 219.271 186.639 218.994 186.886 218.666C187.133 218.338 187.313 217.964 187.414 217.565C187.516 217.167 187.538 216.753 187.479 216.346L168.968 86.1C168.86 85.354 168.487 84.6718 167.917 84.1779C167.348 83.684 166.62 83.4112 165.866 83.4093L165.852 83.4363ZM118.768 98.6432C118.023 98.6348 117.308 98.3461 116.766 97.8346C116.224 97.323 115.894 96.6262 115.842 95.8825C115.79 95.1389 116.02 94.4029 116.486 93.8211C116.952 93.2393 117.62 92.8542 118.357 92.7425L134.366 90.4699C134.752 90.4129 135.144 90.4331 135.522 90.5292C135.899 90.6253 136.254 90.7954 136.565 91.0296C136.877 91.2628 137.141 91.5555 137.34 91.8908C137.539 92.2261 137.67 92.5973 137.725 92.9833C137.78 93.3693 137.758 93.7624 137.661 94.14C137.564 94.5176 137.393 94.8723 137.158 95.1837C136.685 95.8012 135.987 96.2061 135.216 96.3099L119.2 98.5892C119.061 98.6083 118.922 98.6173 118.782 98.6162L118.768 98.6432ZM134.791 91.1105C134.681 91.1008 134.571 91.1008 134.461 91.1105L118.451 93.3831C118.153 93.4274 117.867 93.5299 117.609 93.6849C117.35 93.8398 117.125 94.0442 116.946 94.2862C116.766 94.5282 116.636 94.8032 116.563 95.0955C116.49 95.3877 116.475 95.6915 116.519 95.9895C116.564 96.2875 116.666 96.5739 116.821 96.8323C116.976 97.0906 117.18 97.316 117.422 97.4954C117.665 97.6748 117.94 97.8047 118.232 97.8779C118.524 97.951 118.828 97.9659 119.126 97.9216L135.122 95.6355C135.42 95.5956 135.708 95.4963 135.967 95.3434C136.227 95.1905 136.453 94.9872 136.632 94.7453C136.995 94.2581 137.153 93.648 137.071 93.0459C136.991 92.5007 136.719 92.002 136.303 91.6406C135.887 91.2793 135.356 91.0792 134.805 91.0768L134.791 91.1105Z" fill="#263238"/>
<path d="M166.669 98.038L89.4554 109.013L106.156 226.507L183.37 215.531L166.669 98.038Z" fill="#92E3A9"/>
<path d="M106.165 226.839C106.084 226.839 106.006 226.809 105.946 226.756C105.885 226.702 105.845 226.629 105.834 226.549L89.1303 109.062C89.124 109.017 89.1267 108.971 89.1383 108.927C89.1499 108.883 89.1701 108.842 89.1977 108.806C89.2233 108.771 89.2556 108.742 89.2927 108.72C89.3297 108.698 89.3708 108.684 89.4135 108.678L166.635 97.6991C166.679 97.6933 166.723 97.6963 166.766 97.7079C166.809 97.7195 166.849 97.7394 166.884 97.7665C166.921 97.7916 166.951 97.8247 166.974 97.8632C166.996 97.9017 167.009 97.9447 167.012 97.989L183.716 215.476C183.723 215.52 183.721 215.565 183.71 215.608C183.7 215.651 183.681 215.692 183.654 215.727C183.628 215.763 183.595 215.793 183.557 215.816C183.519 215.839 183.477 215.854 183.433 215.861L106.219 226.839H106.165ZM89.8451 109.298L106.455 226.125L183.001 215.24L166.392 98.4139L89.8451 109.298Z" fill="#263238"/>
<path d="M114.985 63.3673L119.362 94.1587C119.383 94.314 119.435 94.4634 119.515 94.5985C119.594 94.7335 119.7 94.8515 119.825 94.9455C119.951 95.0396 120.094 95.1079 120.246 95.1464C120.397 95.185 120.555 95.1931 120.711 95.1702L132.761 93.4574C132.917 93.4359 133.066 93.3838 133.201 93.3043C133.336 93.2247 133.454 93.1192 133.548 92.9938C133.642 92.8684 133.711 92.7256 133.749 92.5737C133.788 92.4218 133.796 92.2637 133.773 92.1086L129.396 61.3173L114.985 63.3673ZM123.32 70.2863C122.819 70.3572 122.307 70.2778 121.851 70.0581C121.394 69.8384 121.013 69.4883 120.755 69.0521C120.498 68.6158 120.375 68.113 120.403 67.6071C120.431 67.1012 120.608 66.615 120.913 66.2099C121.217 65.8047 121.635 65.4989 122.113 65.3311C122.591 65.1632 123.108 65.1408 123.599 65.2668C124.089 65.3927 124.532 65.6613 124.87 66.0386C125.208 66.4159 125.427 66.8849 125.499 67.3865C125.593 68.0556 125.421 68.7352 125.018 69.278C124.615 69.8207 124.015 70.183 123.347 70.2863H123.32Z" fill="white"/>
<path d="M120.569 95.5209C120.196 95.5186 119.837 95.3803 119.559 95.132C119.281 94.8837 119.103 94.5424 119.058 94.1722L114.675 63.3808C114.665 63.2918 114.69 63.2024 114.744 63.131C114.798 63.0595 114.877 63.0114 114.965 62.9964L129.376 60.9733C129.465 60.9639 129.554 60.9879 129.626 61.0408C129.662 61.0671 129.692 61.1003 129.715 61.1385C129.739 61.1767 129.754 61.2191 129.761 61.2633L134.137 92.0547C134.166 92.254 134.155 92.4569 134.105 92.6519C134.055 92.847 133.967 93.0302 133.846 93.1912C133.725 93.3522 133.574 93.4878 133.4 93.5901C133.227 93.6925 133.035 93.7597 132.836 93.7878L120.785 95.5007L120.569 95.5209ZM115.39 63.6505L119.706 94.1115C119.738 94.3357 119.857 94.5382 120.038 94.6747C120.218 94.8112 120.446 94.8706 120.67 94.8398L132.721 93.1269C132.947 93.0932 133.15 92.9721 133.287 92.7897C133.355 92.7 133.404 92.5978 133.432 92.489C133.46 92.3802 133.466 92.2669 133.449 92.1558L129.147 61.7016L115.39 63.6505ZM122.983 70.6437C122.237 70.5904 121.541 70.2498 121.042 69.6936C120.542 69.1374 120.278 68.409 120.304 67.6618C120.331 66.9146 120.647 66.2069 121.185 65.6878C121.723 65.1686 122.441 64.8785 123.189 64.8785C123.937 64.8785 124.655 65.1686 125.193 65.6878C125.731 66.2069 126.047 66.9146 126.073 67.6618C126.1 68.409 125.836 69.1374 125.336 69.6936C124.836 70.2498 124.14 70.5904 123.395 70.6437C123.258 70.6537 123.12 70.6537 122.983 70.6437ZM122.99 65.5253H122.673C122.384 65.5652 122.106 65.6621 121.855 65.8103C121.604 65.9584 121.384 66.155 121.21 66.3884C120.855 66.8612 120.702 67.4554 120.785 68.0406C120.825 68.3295 120.922 68.6076 121.07 68.8588C121.218 69.11 121.414 69.3293 121.648 69.504C122.121 69.8588 122.715 70.0116 123.3 69.9288C123.735 69.8664 124.142 69.6767 124.469 69.3834C124.796 69.0902 125.03 68.7067 125.139 68.2812C125.249 67.8557 125.23 67.4073 125.085 66.9924C124.94 66.5776 124.676 66.2149 124.325 65.9501C123.939 65.6662 123.47 65.517 122.99 65.5253Z" fill="#263238"/>
<path d="M116.882 76.5305L131.296 74.4815L133.788 92.014C133.837 92.354 133.748 92.6993 133.542 92.9738C133.335 93.2484 133.029 93.4298 132.689 93.4781L120.838 95.1626C120.498 95.211 120.153 95.1223 119.878 94.916C119.603 94.7098 119.422 94.4029 119.374 94.063L116.882 76.5305Z" fill="white"/>
<path d="M120.657 95.5074C120.264 95.5053 119.885 95.3627 119.588 95.1054C119.291 94.8482 119.096 94.4932 119.038 94.1047L116.55 76.5713C116.542 76.5278 116.544 76.4832 116.554 76.4403C116.565 76.3974 116.584 76.357 116.61 76.3218C116.637 76.2857 116.67 76.2552 116.708 76.232C116.746 76.2089 116.789 76.1935 116.833 76.1869L131.251 74.1638C131.339 74.1541 131.428 74.1789 131.498 74.2329C131.568 74.2869 131.615 74.3661 131.629 74.4538L134.124 91.9872C134.183 92.4163 134.071 92.8515 133.81 93.1978C133.55 93.5441 133.163 93.7732 132.734 93.835L120.886 95.5209L120.657 95.5074ZM117.285 76.8073L119.706 94.0103C119.742 94.2616 119.877 94.488 120.081 94.6398C120.285 94.7915 120.54 94.8562 120.792 94.8195L132.64 93.1404C132.765 93.123 132.885 93.0811 132.994 93.0171C133.103 92.953 133.198 92.8681 133.274 92.7672C133.35 92.6663 133.405 92.5514 133.436 92.4291C133.467 92.3068 133.474 92.1796 133.456 92.0547L131.008 74.8517L117.285 76.8073Z" fill="#263238"/>
<path d="M127.461 80.5298C127.388 80.0148 127.163 79.533 126.816 79.1455C126.469 78.758 126.015 78.4821 125.511 78.3527C125.007 78.2234 124.476 78.2464 123.986 78.4188C123.495 78.5912 123.066 78.9053 122.754 79.3214C122.441 79.7375 122.26 80.2368 122.231 80.7562C122.203 81.2757 122.329 81.7919 122.594 82.2396C122.859 82.6873 123.251 83.0464 123.72 83.2714C124.189 83.4964 124.714 83.5773 125.229 83.5038C125.918 83.4035 126.54 83.0345 126.958 82.4773C127.377 81.92 127.557 81.2199 127.461 80.5298Z" fill="white"/>
<path d="M124.851 83.8679C124.211 83.8694 123.588 83.6609 123.078 83.2745C122.607 82.9245 122.25 82.4424 122.054 81.8895C121.857 81.3366 121.829 80.7378 121.974 80.169C122.119 79.6003 122.429 79.0874 122.865 78.6953C123.302 78.3033 123.845 78.0499 124.426 77.9673C124.813 77.9082 125.208 77.9266 125.588 78.0214C125.968 78.1162 126.325 78.2856 126.638 78.5196C126.952 78.7536 127.216 79.0477 127.415 79.3847C127.614 79.7217 127.745 80.0949 127.798 80.4826C127.855 80.8693 127.836 81.2635 127.74 81.6425C127.645 82.0216 127.475 82.378 127.241 82.6913C127.008 83.0046 126.714 83.2687 126.378 83.4683C126.042 83.6679 125.67 83.7991 125.283 83.8544C125.139 83.8693 124.995 83.8738 124.851 83.8679ZM124.851 78.6079C124.741 78.5976 124.631 78.5976 124.521 78.6079C124.071 78.6697 123.65 78.8641 123.311 79.1662C122.972 79.4684 122.73 79.8647 122.617 80.3046C122.505 80.7444 122.525 81.2079 122.677 81.636C122.829 82.0641 123.104 82.4373 123.469 82.708C123.832 82.9787 124.266 83.136 124.718 83.16C125.17 83.184 125.619 83.0737 126.009 82.8429C126.398 82.6121 126.711 82.2712 126.907 81.8632C127.103 81.4552 127.174 80.9983 127.11 80.5501C127.034 80.0048 126.763 79.5054 126.348 79.1437C125.933 78.7819 125.402 78.5821 124.851 78.5809V78.6079Z" fill="#263238"/>
<path d="M125.822 80.7995C125.778 80.5509 125.638 80.3292 125.434 80.1809C125.229 80.0326 124.975 79.9693 124.725 80.0042C124.475 80.0391 124.248 80.1694 124.091 80.368C123.935 80.5666 123.862 80.8179 123.887 81.0693C123.9 81.2003 123.939 81.3273 124.002 81.4428C124.066 81.5582 124.152 81.6597 124.255 81.7411C124.359 81.8225 124.478 81.8822 124.605 81.9166C124.732 81.9509 124.864 81.9593 124.995 81.9411C125.125 81.9229 125.251 81.8786 125.363 81.8108C125.476 81.743 125.574 81.6531 125.652 81.5465C125.729 81.4399 125.784 81.3188 125.813 81.1904C125.842 81.0621 125.846 80.9291 125.822 80.7995Z" fill="white"/>
<path d="M124.858 82.2157C124.596 82.2233 124.337 82.1544 124.114 82.0174C123.891 81.8805 123.712 81.6814 123.6 81.4445C123.488 81.2076 123.447 80.9432 123.483 80.6836C123.519 80.424 123.629 80.1804 123.801 79.9827C123.973 79.7849 124.199 79.6415 124.451 79.57C124.703 79.4985 124.971 79.502 125.221 79.5801C125.471 79.6581 125.693 79.8074 125.86 80.0096C126.026 80.2118 126.131 80.4582 126.159 80.7186C126.204 81.0624 126.115 81.4101 125.91 81.6897C125.806 81.8288 125.676 81.9458 125.527 82.0338C125.377 82.1218 125.212 82.1791 125.04 82.2022L124.858 82.2157ZM124.858 80.2601H124.764C124.6 80.2927 124.455 80.3844 124.356 80.5175C124.256 80.6507 124.209 80.816 124.224 80.9816C124.255 81.1459 124.346 81.2928 124.48 81.3938C124.613 81.4947 124.779 81.5425 124.946 81.5279C125.114 81.5013 125.265 81.4121 125.37 81.2784C125.468 81.1416 125.512 80.9733 125.492 80.8063C125.463 80.6572 125.385 80.5221 125.27 80.423C125.155 80.3238 125.01 80.2664 124.858 80.2601Z" fill="#263238"/>
<path d="M122.498 64.3114C121.817 64.4077 121.181 64.7037 120.669 65.1618C120.157 65.6199 119.792 66.2197 119.621 66.8851C119.45 67.5506 119.48 68.2518 119.707 68.9001C119.935 69.5485 120.35 70.1147 120.899 70.5273C121.449 70.9399 122.108 71.1802 122.794 71.2178C123.48 71.2555 124.162 71.0888 124.753 70.7388C125.345 70.3889 125.819 69.8714 126.116 69.2518C126.413 68.6323 126.52 67.9385 126.422 67.2584C126.359 66.8069 126.207 66.3725 125.975 65.9799C125.743 65.5873 125.436 65.2444 125.071 64.9706C124.707 64.6969 124.292 64.4977 123.85 64.3846C123.409 64.2715 122.949 64.2466 122.498 64.3114ZM123.347 70.2862C122.846 70.3572 122.334 70.2778 121.878 70.0581C121.421 69.8384 121.04 69.4883 120.782 69.052C120.525 68.6158 120.402 68.1129 120.43 67.607C120.458 67.1012 120.635 66.6149 120.94 66.2098C121.244 65.8047 121.662 65.4989 122.14 65.331C122.618 65.1632 123.135 65.1408 123.626 65.2667C124.116 65.3927 124.559 65.6612 124.897 66.0385C125.235 66.4158 125.454 66.8849 125.525 67.3865C125.62 68.0597 125.444 68.7428 125.035 69.2863C124.627 69.8298 124.02 70.1894 123.347 70.2862Z" fill="white"/>
<path d="M122.983 71.5608C122.275 71.5605 121.581 71.3628 120.979 70.99C120.377 70.6172 119.891 70.0839 119.575 69.4501C119.259 68.8163 119.126 68.107 119.191 67.4018C119.256 66.6966 119.516 66.0234 119.942 65.4578C120.24 65.0562 120.616 64.718 121.047 64.4633C121.477 64.2086 121.955 64.0423 122.45 63.9742C122.946 63.9029 123.451 63.9305 123.936 64.0556C124.421 64.1806 124.876 64.4005 125.276 64.7026C125.678 65.0005 126.017 65.376 126.272 65.8068C126.526 66.2377 126.692 66.7152 126.76 67.2112C126.9 68.2116 126.638 69.2269 126.032 70.0347C125.425 70.8424 124.523 71.3767 123.523 71.5203C123.344 71.5472 123.164 71.5607 122.983 71.5608ZM122.545 64.6149C121.825 64.7162 121.162 65.0641 120.67 65.5993C120.178 66.1345 119.886 66.8238 119.845 67.5498C119.804 68.2758 120.016 68.9936 120.445 69.5807C120.874 70.1678 121.494 70.588 122.198 70.7696C122.902 70.9513 123.647 70.8831 124.307 70.5768C124.966 70.2705 125.499 69.7449 125.814 69.0897C126.13 68.4345 126.208 67.6902 126.036 66.9836C125.864 66.2771 125.453 65.6521 124.871 65.2151C124.543 64.9653 124.168 64.7836 123.769 64.6806C123.369 64.5775 122.953 64.5552 122.545 64.6149ZM122.983 70.6167C122.255 70.6079 121.557 70.3258 121.028 69.8262C120.499 69.3266 120.176 68.6463 120.125 67.9201C120.074 67.194 120.298 66.4753 120.753 65.9067C121.207 65.3381 121.859 64.9612 122.579 64.8509C123.327 64.7688 124.078 64.9811 124.673 65.4429C125.268 65.9047 125.66 66.5797 125.766 67.3252C125.872 68.0707 125.683 68.8282 125.241 69.4374C124.798 70.0467 124.136 70.4599 123.395 70.5897C123.259 70.6178 123.121 70.6358 122.983 70.6437V70.6167ZM122.99 65.4983C122.884 65.4916 122.778 65.4916 122.673 65.4983C122.384 65.5383 122.106 65.6351 121.855 65.7833C121.604 65.9315 121.384 66.128 121.21 66.3615C120.855 66.8342 120.702 67.4284 120.785 68.0137C120.825 68.3025 120.922 68.5806 121.07 68.8318C121.218 69.083 121.414 69.3023 121.648 69.477C121.929 69.6902 122.257 69.8334 122.605 69.8948C122.952 69.9563 123.309 69.9342 123.647 69.8304C123.984 69.7267 124.292 69.5442 124.544 69.298C124.797 69.0518 124.988 68.749 125.101 68.4146C125.214 68.0803 125.245 67.7238 125.193 67.3748C125.141 67.0258 125.007 66.6941 124.801 66.4073C124.596 66.1204 124.325 65.8866 124.011 65.725C123.697 65.5634 123.35 65.4788 122.997 65.4781L122.99 65.4983Z" fill="#263238"/>
<path d="M154.861 104.744L102.684 112.161L113.552 188.613L165.729 181.197L154.861 104.744Z" fill="white"/>
<path d="M113.556 188.947C113.48 188.948 113.407 188.925 113.347 188.88C113.278 188.824 113.232 188.745 113.218 188.657L102.348 112.205C102.336 112.115 102.36 112.025 102.414 111.953C102.468 111.881 102.549 111.834 102.638 111.82L154.813 104.402C154.902 104.391 154.993 104.415 155.064 104.469C155.136 104.523 155.184 104.603 155.197 104.692L166.068 181.145C166.078 181.233 166.054 181.322 166.001 181.394C165.974 181.43 165.941 181.461 165.903 181.484C165.865 181.507 165.822 181.522 165.778 181.529L113.603 188.947H113.556ZM103.063 112.441L113.852 188.232L165.367 180.909L154.577 105.124L103.063 112.441Z" fill="#263238"/>
<path d="M113.556 188.61C123.509 187.261 154.928 182.541 165.731 181.192C164.841 174.947 163.667 166.828 163.526 162.937C162.116 161.925 159.655 161.055 156.108 159.181C150.544 156.247 141.515 150.083 141.515 150.083L137.846 150.475L137.812 150.259L134.879 150.785L131.905 151.095V151.311L128.27 151.985C128.27 151.985 121.318 160.421 116.806 164.798C113.825 167.678 111.964 168.993 110.932 170.395C111.013 170.631 112.544 181.394 113.556 188.61Z" fill="white"/>
<path d="M113.549 188.866C113.488 188.865 113.429 188.842 113.383 188.801C113.337 188.76 113.307 188.704 113.299 188.644C112.281 181.367 110.771 170.705 110.71 170.436C110.702 170.401 110.702 170.364 110.71 170.329C110.718 170.294 110.734 170.261 110.757 170.233C111.591 169.217 112.526 168.288 113.549 167.462C114.392 166.713 115.444 165.783 116.658 164.602C121.122 160.3 128.048 151.911 128.122 151.823C128.161 151.776 128.216 151.744 128.277 151.736L131.649 151.129C131.646 151.098 131.649 151.068 131.658 151.039C131.668 151.01 131.683 150.983 131.703 150.96C131.723 150.933 131.748 150.911 131.777 150.895C131.806 150.879 131.838 150.869 131.871 150.866L134.845 150.556L137.765 150.03C137.798 150.023 137.831 150.023 137.864 150.03C137.897 150.037 137.927 150.05 137.954 150.07C138.005 150.105 138.041 150.158 138.055 150.218L141.481 149.854C141.54 149.85 141.599 149.864 141.65 149.895C141.744 149.962 150.733 156.085 156.216 158.978C157.76 159.794 159.075 160.408 160.262 160.947C161.454 161.449 162.6 162.054 163.688 162.755C163.72 162.776 163.747 162.805 163.765 162.839C163.784 162.873 163.795 162.911 163.796 162.95C163.924 166.639 165.003 174.192 165.866 180.261L165.994 181.178C166 181.211 165.999 181.245 165.991 181.278C165.983 181.31 165.968 181.341 165.947 181.367C165.905 181.42 165.845 181.456 165.778 181.468C158.967 182.298 144.28 184.442 131.318 186.33C123.786 187.43 117.285 188.354 113.603 188.88L113.549 188.866ZM111.222 170.429C111.418 171.663 112.875 181.954 113.765 188.327C117.487 187.814 123.88 186.883 131.231 185.811C144.044 183.943 158.522 181.832 165.448 180.976L165.353 180.302C164.497 174.286 163.431 166.814 163.283 163.058C162.243 162.416 161.157 161.852 160.033 161.372C158.873 160.833 157.551 160.212 155.986 159.39C150.753 156.632 142.344 150.94 141.447 150.333L137.873 150.711C137.815 150.714 137.758 150.699 137.709 150.668C137.661 150.636 137.624 150.59 137.603 150.535L134.906 151.021L132.175 151.311C132.174 151.369 132.152 151.424 132.114 151.467C132.075 151.511 132.023 151.539 131.966 151.547L128.425 152.181C127.751 153.017 121.25 160.819 116.961 164.933C115.741 166.12 114.682 167.057 113.832 167.806C112.886 168.601 112.013 169.479 111.222 170.429Z" fill="#263238"/>
<path d="M163.539 162.937C162.162 162.089 160.722 161.349 159.23 160.725L158.859 160.55L158.367 160.314L157.693 159.983L157.295 159.781C156.917 159.592 156.533 159.396 156.128 159.181C150.565 156.247 141.535 150.083 141.535 150.083L137.866 150.475L137.833 150.259L134.899 150.785L131.925 151.095V151.311L128.29 151.985C128.29 151.985 121.338 160.421 116.826 164.798C116.523 165.095 116.233 165.371 115.943 165.641C113.475 167.941 111.897 169.134 110.953 170.395C110.953 170.49 111.155 171.778 111.438 173.72L163.769 166.302C163.647 164.973 163.539 163.84 163.539 162.937Z" fill="#263238"/>
<path d="M164.436 171.838L112.234 179.256C112.504 181.178 112.794 183.215 113.07 185.164L165.239 177.746C164.962 175.79 164.686 173.767 164.436 171.838Z" fill="#263238"/>
<path d="M136.619 164.259L138.575 176.748L141.704 176.303L138.682 163.787C138.682 163.787 136.868 163.517 136.619 164.259Z" fill="white"/>
<path d="M138.588 176.997C138.529 176.997 138.471 176.976 138.426 176.937C138.38 176.899 138.349 176.847 138.338 176.788L136.383 164.299C136.373 164.259 136.373 164.218 136.383 164.178C136.686 163.261 138.514 163.503 138.723 163.537C138.772 163.544 138.817 163.566 138.853 163.6C138.89 163.634 138.915 163.678 138.925 163.726L141.96 176.242C141.969 176.276 141.971 176.312 141.965 176.347C141.959 176.382 141.946 176.415 141.926 176.444C141.906 176.473 141.88 176.498 141.85 176.517C141.819 176.535 141.786 176.547 141.751 176.552L138.622 176.997H138.588ZM136.895 164.292L138.797 176.431L141.407 176.06L138.493 163.989C137.866 163.955 137.057 163.996 136.882 164.292H136.895Z" fill="#263238"/>
<path d="M138.73 167.664C138.72 167.599 138.699 167.536 138.665 167.48C138.632 167.423 138.587 167.373 138.535 167.334C138.482 167.294 138.422 167.266 138.358 167.249C138.295 167.233 138.228 167.23 138.163 167.239C138.066 167.254 137.974 167.296 137.901 167.362C137.828 167.428 137.776 167.514 137.752 167.61C137.727 167.705 137.732 167.806 137.765 167.899C137.797 167.992 137.857 168.073 137.936 168.132C138.015 168.191 138.109 168.226 138.208 168.231C138.306 168.237 138.404 168.213 138.489 168.163C138.574 168.113 138.642 168.039 138.685 167.95C138.728 167.861 138.743 167.762 138.73 167.664Z" fill="white"/>
<path d="M138.237 168.467C138.074 168.467 137.915 168.412 137.785 168.311C137.627 168.192 137.52 168.016 137.489 167.819C137.475 167.721 137.482 167.621 137.507 167.525C137.533 167.429 137.577 167.338 137.637 167.259C137.725 167.138 137.848 167.046 137.989 166.995C138.13 166.944 138.283 166.936 138.428 166.973C138.574 167.01 138.705 167.09 138.804 167.203C138.903 167.315 138.967 167.455 138.986 167.603C139.002 167.701 138.998 167.802 138.973 167.898C138.949 167.994 138.905 168.085 138.844 168.163C138.786 168.242 138.712 168.308 138.627 168.358C138.543 168.408 138.449 168.44 138.352 168.453L138.237 168.467ZM138.237 167.462H138.204C138.171 167.465 138.14 167.475 138.112 167.491C138.084 167.507 138.06 167.53 138.042 167.556C138.021 167.581 138.006 167.611 137.998 167.642C137.99 167.673 137.989 167.706 137.995 167.738C137.998 167.771 138.008 167.802 138.024 167.83C138.04 167.858 138.062 167.882 138.089 167.9C138.141 167.938 138.207 167.955 138.271 167.947C138.303 167.944 138.334 167.934 138.362 167.918C138.39 167.902 138.414 167.879 138.433 167.853C138.472 167.801 138.489 167.735 138.48 167.671C138.466 167.617 138.435 167.569 138.391 167.535C138.347 167.5 138.293 167.482 138.237 167.482V167.462Z" fill="#263238"/>
<path d="M140.078 173.605C140.074 173.536 140.056 173.469 140.024 173.408C139.993 173.346 139.949 173.292 139.895 173.249C139.842 173.205 139.78 173.173 139.713 173.155C139.647 173.136 139.577 173.132 139.509 173.142C139.441 173.151 139.375 173.175 139.317 173.212C139.258 173.248 139.208 173.296 139.169 173.353C139.13 173.41 139.103 173.474 139.09 173.542C139.077 173.61 139.078 173.68 139.094 173.747C139.102 173.812 139.123 173.874 139.156 173.931C139.189 173.988 139.232 174.037 139.284 174.077C139.336 174.116 139.396 174.145 139.459 174.161C139.523 174.178 139.589 174.181 139.653 174.172C139.719 174.163 139.781 174.141 139.838 174.107C139.895 174.074 139.944 174.03 139.984 173.977C140.023 173.924 140.052 173.864 140.068 173.8C140.084 173.737 140.088 173.67 140.078 173.605Z" fill="white"/>
<path d="M139.586 174.428C139.4 174.429 139.221 174.36 139.084 174.235C138.947 174.11 138.861 173.938 138.844 173.754C138.826 173.657 138.829 173.557 138.854 173.461C138.878 173.366 138.923 173.277 138.986 173.201C139.074 173.079 139.196 172.987 139.337 172.936C139.479 172.885 139.632 172.877 139.777 172.914C139.922 172.951 140.053 173.031 140.153 173.144C140.252 173.256 140.315 173.396 140.335 173.545C140.351 173.643 140.347 173.743 140.322 173.839C140.298 173.936 140.254 174.026 140.193 174.104C140.073 174.261 139.896 174.365 139.701 174.394L139.586 174.428ZM139.586 173.43H139.552C139.511 173.435 139.472 173.45 139.439 173.474C139.405 173.497 139.378 173.529 139.359 173.566C139.341 173.603 139.332 173.644 139.333 173.685C139.334 173.726 139.346 173.766 139.366 173.802C139.387 173.838 139.416 173.868 139.451 173.89C139.486 173.911 139.526 173.924 139.567 173.927C139.608 173.929 139.649 173.922 139.687 173.904C139.724 173.887 139.757 173.861 139.782 173.828C139.802 173.803 139.817 173.773 139.825 173.742C139.833 173.71 139.834 173.678 139.829 173.646C139.822 173.586 139.794 173.531 139.749 173.491C139.704 173.451 139.646 173.43 139.586 173.43Z" fill="#263238"/>
<path d="M128.837 148.168C128.837 148.168 126.814 148.984 126.254 152.437C125.694 155.89 126.193 164.501 125.944 166.484C125.694 168.467 126.267 168.743 127.582 168.028C128.897 167.313 130.118 164.656 132.202 164.353C134.037 164.205 135.883 164.239 137.711 164.454C137.711 164.454 140.746 162.074 142.83 161.757C144.913 161.44 148.063 164.913 148.899 164.791C149.735 164.67 147.665 157.373 145.756 152.653C143.848 147.932 140.571 146.118 136.922 146.637C133.274 147.157 128.837 148.168 128.837 148.168Z" fill="white"/>
<path d="M126.544 168.642C126.376 168.646 126.212 168.599 126.072 168.507C125.667 168.231 125.552 167.597 125.694 166.45C125.789 165.675 125.768 163.82 125.741 161.676C125.701 158.473 125.654 154.487 126.004 152.39C126.591 148.843 128.655 147.966 128.742 147.932H128.783C128.83 147.932 133.301 146.934 136.922 146.422C140.968 145.849 144.172 148.04 146.026 152.592C147.53 156.288 149.91 163.76 149.277 164.859C149.247 164.916 149.203 164.965 149.151 165.003C149.098 165.04 149.037 165.065 148.973 165.075C148.548 165.135 147.975 164.737 146.91 163.969C145.696 163.085 144.023 161.878 142.863 162.047C140.874 162.33 137.9 164.643 137.866 164.67C137.815 164.711 137.75 164.73 137.684 164.724C135.876 164.51 134.051 164.474 132.235 164.616C131.035 164.791 130.104 165.85 129.282 166.787C128.84 167.361 128.307 167.858 127.704 168.258C127.354 168.477 126.956 168.609 126.544 168.642ZM128.918 148.411C128.729 148.506 127.016 149.396 126.503 152.457C126.159 154.48 126.213 158.466 126.247 161.649C126.247 163.814 126.301 165.695 126.193 166.497C126.052 167.671 126.234 167.981 126.355 168.069C126.476 168.156 126.766 168.163 127.461 167.786C128.006 167.41 128.493 166.956 128.904 166.437C129.781 165.439 130.779 164.299 132.168 164.104C133.989 163.949 135.822 163.981 137.637 164.198C138.15 163.8 140.834 161.811 142.796 161.5C144.145 161.312 145.851 162.532 147.206 163.524C147.702 163.941 148.256 164.284 148.852 164.542C149.182 163.793 147.57 157.697 145.554 152.747C143.801 148.431 140.766 146.348 136.99 146.887C133.53 147.4 129.282 148.323 128.918 148.404V148.411Z" fill="#263238"/>
<path d="M114.574 172.513C113.138 169.991 111.876 170.328 111.081 171.164C111.465 173.821 112.692 182.473 113.549 188.59H113.744C115.349 188.374 117.474 188.07 119.955 187.713L120.07 187.652C118.485 182.48 116.159 175.332 114.574 172.513Z" fill="white"/>
<path d="M113.549 188.853C113.488 188.852 113.429 188.828 113.383 188.788C113.337 188.747 113.307 188.691 113.299 188.63C112.49 182.851 111.236 173.976 110.831 171.205C110.825 171.166 110.827 171.126 110.839 171.089C110.851 171.051 110.871 171.017 110.899 170.989C111.098 170.755 111.349 170.572 111.633 170.455C111.917 170.337 112.225 170.289 112.531 170.314C113.306 170.422 114.068 171.124 114.79 172.398C116.368 175.177 118.667 182.176 120.313 187.558C120.332 187.62 120.327 187.688 120.298 187.747C120.27 187.806 120.219 187.852 120.158 187.875L120.056 187.922H119.996C117.507 188.279 115.383 188.596 113.778 188.799H113.569L113.549 188.853ZM111.35 171.258C111.762 174.131 112.969 182.628 113.765 188.327L119.753 187.477C118.121 182.156 115.882 175.338 114.358 172.641C113.717 171.508 113.084 170.894 112.47 170.807C112.261 170.792 112.052 170.826 111.858 170.904C111.664 170.982 111.491 171.103 111.35 171.258Z" fill="#263238"/>
<path d="M159.817 181.954C161.765 181.557 163.732 181.265 165.711 181.077C164.935 175.608 163.944 168.763 163.62 164.562C159.311 166.342 159.291 175.595 159.817 181.954Z" fill="white"/>
<path d="M159.817 182.176C159.763 182.175 159.711 182.156 159.668 182.122C159.64 182.103 159.616 182.076 159.598 182.046C159.581 182.016 159.57 181.982 159.567 181.947C158.981 174.9 159.19 166.12 163.526 164.299C163.561 164.281 163.601 164.271 163.64 164.271C163.68 164.271 163.72 164.281 163.755 164.299C163.789 164.322 163.817 164.352 163.838 164.387C163.859 164.422 163.872 164.461 163.876 164.501C164.18 168.487 165.104 174.974 165.846 180.18L165.96 180.989C165.965 181.024 165.963 181.059 165.954 181.093C165.945 181.127 165.929 181.158 165.906 181.185C165.886 181.212 165.861 181.234 165.832 181.25C165.803 181.267 165.771 181.276 165.738 181.279C163.768 181.467 161.809 181.759 159.871 182.156L159.817 182.176ZM163.398 164.919C159.527 167.023 159.608 176.1 160.026 181.617C161.705 181.279 163.472 181.016 165.421 180.814L165.347 180.268C164.625 175.21 163.735 168.945 163.398 164.919Z" fill="#263238"/>
<path d="M142.479 130.547C142.479 130.547 142.749 124.923 145.426 128.801C148.103 132.678 143.369 138.673 142.729 137.702C142.088 136.731 142.479 130.547 142.479 130.547Z" fill="white"/>
<path d="M142.911 138.06C142.828 138.062 142.747 138.043 142.674 138.006C142.601 137.968 142.538 137.912 142.492 137.844C141.818 136.832 142.182 131.188 142.229 130.534C142.229 130.21 142.405 127.546 143.578 127.216C144.185 127.047 144.866 127.513 145.655 128.652C147.206 130.898 146.33 133.582 145.655 134.978C144.88 136.616 143.679 137.999 142.958 138.06H142.911ZM143.807 127.688H143.7C143.066 127.87 142.776 129.711 142.735 130.547C142.56 132.901 142.459 136.886 142.911 137.54C143.025 137.54 143.646 137.196 144.408 136.09C145.756 134.169 146.748 131.134 145.217 128.922C144.657 128.126 144.158 127.688 143.807 127.688Z" fill="#263238"/>
<path d="M142.803 133.791H142.755C142.722 133.785 142.691 133.773 142.663 133.755C142.634 133.737 142.61 133.713 142.591 133.686C142.572 133.658 142.559 133.627 142.553 133.594C142.546 133.561 142.546 133.527 142.553 133.494C142.661 132.914 143.261 129.994 144.044 129.522C144.148 129.449 144.269 129.402 144.396 129.385C144.523 129.369 144.652 129.383 144.772 129.428C144.94 129.522 145.087 129.651 145.203 129.805C145.319 129.96 145.402 130.137 145.446 130.325C145.46 130.39 145.449 130.458 145.413 130.515C145.378 130.571 145.322 130.612 145.257 130.628C145.225 130.637 145.192 130.64 145.159 130.635C145.126 130.631 145.095 130.62 145.066 130.603C145.038 130.586 145.013 130.563 144.994 130.536C144.975 130.509 144.961 130.478 144.954 130.446C144.913 130.298 144.785 129.967 144.603 129.9C144.603 129.9 144.495 129.853 144.334 129.954C143.902 130.217 143.335 132.24 143.079 133.589C143.065 133.65 143.029 133.704 142.978 133.741C142.928 133.778 142.865 133.796 142.803 133.791Z" fill="#263238"/>
<path d="M144.489 133.771C144.448 133.771 144.407 133.762 144.371 133.743C144.334 133.724 144.303 133.697 144.28 133.663C144.243 133.607 144.23 133.539 144.242 133.474C144.255 133.408 144.292 133.35 144.347 133.312C144.482 133.209 144.583 133.068 144.636 132.907C144.689 132.745 144.692 132.571 144.644 132.408C144.637 132.378 144.623 132.349 144.603 132.324C144.583 132.299 144.558 132.28 144.529 132.267C144.102 132.202 143.666 132.272 143.281 132.469C143.251 132.483 143.219 132.49 143.186 132.491C143.153 132.492 143.12 132.486 143.09 132.474C143.059 132.462 143.031 132.444 143.007 132.421C142.983 132.399 142.964 132.371 142.951 132.341C142.937 132.311 142.929 132.279 142.927 132.245C142.926 132.212 142.931 132.179 142.943 132.148C142.955 132.117 142.974 132.089 142.997 132.065C143.02 132.042 143.048 132.023 143.079 132.011C143.592 131.754 144.178 131.682 144.738 131.808C144.834 131.849 144.92 131.912 144.988 131.991C145.056 132.071 145.104 132.165 145.129 132.267C145.207 132.532 145.201 132.814 145.113 133.076C145.025 133.338 144.859 133.566 144.637 133.73C144.592 133.757 144.541 133.771 144.489 133.771Z" fill="#263238"/>
<path d="M121.729 133.501C121.729 133.501 119.901 128.167 118.411 132.638C116.921 137.109 123.132 141.546 123.509 140.433C123.887 139.321 121.729 133.501 121.729 133.501Z" fill="white"/>
<path d="M123.219 140.858C123.065 140.853 122.912 140.824 122.767 140.771C121.122 140.224 116.88 136.434 118.175 132.557C118.613 131.242 119.139 130.601 119.766 130.601C120.967 130.601 121.864 133.11 121.965 133.413C122.194 134.034 124.136 139.341 123.752 140.508C123.715 140.617 123.642 140.711 123.546 140.774C123.449 140.838 123.334 140.867 123.219 140.858ZM119.773 131.107C119.396 131.107 119.004 131.68 118.654 132.719C117.804 135.275 119.618 137.905 121.432 139.381C122.471 140.231 123.172 140.413 123.287 140.339C123.529 139.597 122.316 135.801 121.493 133.595C121.142 132.55 120.38 131.107 119.773 131.107Z" fill="#263238"/>
<path d="M122.262 136.711C122.214 136.71 122.168 136.697 122.127 136.672C122.087 136.647 122.054 136.611 122.032 136.569C121.405 135.342 120.299 133.562 119.807 133.427C119.625 133.38 119.557 133.427 119.537 133.427C119.382 133.541 119.348 133.892 119.355 134.047C119.357 134.114 119.333 134.179 119.287 134.228C119.242 134.277 119.179 134.307 119.112 134.31C119.079 134.312 119.046 134.307 119.014 134.296C118.983 134.284 118.954 134.267 118.93 134.244C118.905 134.222 118.885 134.194 118.871 134.164C118.858 134.134 118.85 134.101 118.849 134.067C118.834 133.878 118.86 133.687 118.924 133.508C118.988 133.33 119.089 133.166 119.22 133.029C119.321 132.95 119.44 132.899 119.566 132.878C119.692 132.858 119.822 132.871 119.942 132.914C120.825 133.15 122.214 135.787 122.484 136.286C122.513 136.345 122.518 136.413 122.498 136.476C122.478 136.539 122.434 136.592 122.376 136.623C122.346 136.662 122.307 136.692 122.262 136.711Z" fill="#263238"/>
<path d="M120.63 137.163C120.603 137.169 120.575 137.169 120.549 137.163C120.289 137.067 120.065 136.895 119.907 136.668C119.749 136.441 119.665 136.171 119.665 135.895C119.664 135.791 119.686 135.688 119.729 135.594C119.772 135.5 119.836 135.416 119.915 135.349C120.419 135.073 121.002 134.978 121.567 135.079C121.6 135.083 121.632 135.094 121.66 135.11C121.689 135.127 121.714 135.149 121.734 135.175C121.754 135.202 121.769 135.232 121.777 135.264C121.786 135.296 121.788 135.329 121.783 135.362C121.78 135.395 121.77 135.428 121.753 135.457C121.737 135.486 121.715 135.512 121.688 135.532C121.662 135.552 121.631 135.567 121.599 135.575C121.566 135.583 121.533 135.584 121.5 135.578C121.076 135.497 120.637 135.551 120.245 135.733C120.222 135.753 120.204 135.778 120.191 135.806C120.178 135.834 120.171 135.864 120.171 135.895C120.17 136.066 120.221 136.233 120.317 136.374C120.413 136.515 120.551 136.623 120.711 136.684C120.775 136.705 120.828 136.752 120.858 136.812C120.889 136.873 120.894 136.943 120.872 137.008C120.851 137.054 120.817 137.094 120.774 137.121C120.731 137.149 120.681 137.163 120.63 137.163Z" fill="#263238"/>
<path d="M127.279 144.662C127.279 144.662 130.199 154.871 130.765 156.76C131.44 158.965 135.378 164.259 137.394 163.443C139.411 162.627 139.782 156.537 140.051 154.73C140.321 152.923 139.788 142.888 139.788 142.888L127.279 144.662Z" fill="white"/>
<path d="M136.936 163.78C136.58 163.77 136.231 163.678 135.917 163.51C133.78 162.492 131.089 158.682 130.523 156.827C129.956 154.973 127.063 144.837 127.029 144.736C127.014 144.703 127.006 144.667 127.006 144.631C127.006 144.595 127.014 144.56 127.029 144.527C127.049 144.497 127.075 144.471 127.105 144.451C127.135 144.432 127.169 144.418 127.205 144.412L139.721 142.639C139.755 142.632 139.791 142.633 139.825 142.643C139.859 142.652 139.89 142.669 139.916 142.692C139.944 142.714 139.966 142.742 139.981 142.773C139.997 142.805 140.004 142.84 140.004 142.875C140.004 143.286 140.544 152.95 140.267 154.764C140.227 155.04 140.186 155.404 140.132 155.843C139.728 159.268 139.154 162.984 137.435 163.672C137.276 163.738 137.107 163.775 136.936 163.78ZM127.596 144.864C128.075 146.516 130.502 154.979 131.008 156.672C131.514 158.365 134.144 162.067 136.133 163.045C136.306 163.148 136.498 163.215 136.698 163.24C136.897 163.266 137.1 163.25 137.293 163.193C138.864 162.552 139.404 157.974 139.667 155.775C139.721 155.337 139.761 154.959 139.802 154.683C140.045 153.084 139.633 144.79 139.552 143.171L127.596 144.864Z" fill="#263238"/>
<path d="M120.218 121.207C120.218 121.207 120.805 130.965 122.848 137.864C124.892 144.763 131.001 150.279 134.171 150.097C137.34 149.915 143.342 141.607 142.978 137.129C142.614 132.651 143.396 121.369 141.198 117.154C138.999 112.94 135.951 112.049 129.653 112.677C123.354 113.304 119.065 116.844 120.218 121.207Z" fill="white"/>
<path d="M134.016 150.353C130.563 150.353 124.575 144.628 122.612 137.938C120.65 131.249 120.003 121.801 119.969 121.248C119.755 120.47 119.717 119.655 119.86 118.862C120.002 118.068 120.32 117.316 120.792 116.662C122.383 114.369 125.6 112.825 129.626 112.427C136.302 111.753 139.276 112.926 141.427 117.04C143.025 120.108 143.066 126.69 143.099 131.984C143.099 134.061 143.099 135.848 143.228 137.109C143.47 140.022 141.11 144.412 138.655 147.224C137.684 148.344 135.81 150.239 134.184 150.333L134.016 150.353ZM132.829 112.751C131.885 112.751 130.84 112.811 129.673 112.926C125.856 113.311 122.686 114.814 121.21 116.972C120.779 117.569 120.488 118.256 120.358 118.981C120.229 119.706 120.264 120.451 120.461 121.16C120.464 121.176 120.464 121.192 120.461 121.207C120.461 121.308 121.075 131.026 123.084 137.81C125.107 144.702 131.264 150.043 134.151 149.861C135.196 149.8 136.7 148.728 138.264 146.927C140.651 144.183 142.944 139.948 142.715 137.176C142.607 135.895 142.6 134.094 142.587 132.011C142.553 126.771 142.513 120.256 140.968 117.296C139.262 114.039 137.138 112.751 132.829 112.751Z" fill="#263238"/>
<path d="M121.142 132.779C121.142 132.779 122.214 132.402 121.965 130.628C121.715 128.855 121.338 127.782 121.965 127.357C122.592 126.933 123.543 126.568 123.502 124.66C123.462 122.752 121.034 121.625 121.547 119.636C121.885 118.589 122.571 117.689 123.491 117.085C124.411 116.482 125.509 116.211 126.604 116.318C128.891 116.561 129.504 120.081 133.153 121.936C136.801 123.79 141.097 123.062 141.097 123.062C140.9 123.372 140.81 123.737 140.842 124.103C140.874 124.469 141.025 124.814 141.272 125.085C141.734 125.626 142.025 126.293 142.108 127C142.108 127 142.418 130.79 143.086 130.696C143.754 130.601 143.423 121.963 143.234 120.634C143.045 119.306 143.288 113.89 139.188 112.07C135.088 110.249 129.187 110.782 125.633 111.962C122.08 113.142 120.239 115.104 119.436 118.375C118.634 121.646 121.142 132.779 121.142 132.779Z" fill="#263238"/>
<path d="M121.142 133.029C121.102 133.038 121.061 133.038 121.021 133.029C120.96 132.989 120.915 132.93 120.893 132.86C120.791 132.402 118.404 121.612 119.186 118.321C119.969 115.03 121.945 112.926 125.546 111.733C129.349 110.465 135.29 110.101 139.282 111.84C142.958 113.452 143.261 117.788 143.41 119.879C143.41 120.182 143.443 120.432 143.47 120.607C143.571 121.281 143.693 123.81 143.72 126.13C143.76 130.851 143.383 130.911 143.106 130.952C143.045 130.962 142.982 130.958 142.923 130.94C142.863 130.923 142.808 130.892 142.762 130.851C142.162 130.372 141.906 127.803 141.845 127.027C141.754 126.371 141.481 125.754 141.056 125.247C140.848 124.992 140.703 124.692 140.634 124.371C140.565 124.05 140.573 123.716 140.658 123.399C138.05 123.698 135.411 123.279 133.024 122.185C131.471 121.328 130.137 120.123 129.127 118.665C128.27 117.572 127.589 116.703 126.564 116.601C125.53 116.5 124.492 116.755 123.622 117.322C122.752 117.89 122.101 118.737 121.776 119.724C121.527 120.695 122.079 121.464 122.659 122.273C123.256 122.93 123.637 123.753 123.752 124.633C123.799 126.467 122.949 127.007 122.329 127.405L122.106 127.546C121.776 127.776 121.864 128.376 122.059 129.509C122.113 129.832 122.174 130.183 122.228 130.574C122.504 132.523 121.29 132.975 121.243 132.995C121.213 133.015 121.178 133.026 121.142 133.029ZM132.66 111.146C130.302 111.135 127.957 111.49 125.708 112.198C122.241 113.351 120.441 115.212 119.679 118.422C119.004 121.275 120.899 130.453 121.311 132.381C121.514 132.158 121.658 131.888 121.731 131.595C121.804 131.302 121.803 130.995 121.729 130.702C121.675 130.318 121.614 129.967 121.56 129.644C121.344 128.423 121.21 127.62 121.823 127.182L122.053 127.034C122.632 126.663 123.287 126.252 123.246 124.701C123.142 123.909 122.799 123.167 122.262 122.576C121.641 121.706 120.994 120.809 121.297 119.602C121.843 117.465 124.285 115.86 126.625 116.102C127.866 116.231 128.648 117.222 129.538 118.362C130.502 119.76 131.779 120.914 133.267 121.733C136.801 123.527 141.016 122.846 141.056 122.839C141.105 122.828 141.157 122.834 141.203 122.854C141.249 122.875 141.287 122.91 141.312 122.954C141.342 122.995 141.358 123.045 141.358 123.096C141.358 123.146 141.342 123.196 141.312 123.237C141.153 123.502 141.084 123.812 141.116 124.119C141.147 124.427 141.278 124.716 141.488 124.943C141.985 125.525 142.293 126.245 142.371 127.007C142.419 128.159 142.646 129.297 143.045 130.379C143.423 129.225 143.207 122.084 143.012 120.675C143.012 120.492 142.964 120.229 142.944 119.913C142.803 117.889 142.519 113.789 139.121 112.306C137.068 111.487 134.87 111.092 132.66 111.146Z" fill="#263238"/>
<path d="M126.901 136.826C125.618 136.828 124.384 136.331 123.459 135.44C122.535 134.55 121.993 133.335 121.947 132.052C121.901 130.77 122.355 129.519 123.214 128.565C124.072 127.611 125.268 127.028 126.548 126.938C127.828 126.848 129.093 127.26 130.076 128.085C131.059 128.91 131.683 130.085 131.817 131.362C131.95 132.638 131.582 133.917 130.791 134.927C130 135.938 128.847 136.601 127.576 136.778C127.352 136.809 127.127 136.825 126.901 136.826ZM126.901 127.384C126.687 127.385 126.473 127.398 126.261 127.425C125.238 127.57 124.297 128.064 123.598 128.825C122.899 129.586 122.485 130.566 122.428 131.597C122.371 132.628 122.673 133.648 123.283 134.482C123.893 135.315 124.773 135.912 125.774 136.169C126.774 136.426 127.833 136.328 128.769 135.893C129.706 135.457 130.462 134.709 130.91 133.778C131.357 132.847 131.467 131.789 131.222 130.786C130.977 129.782 130.391 128.895 129.565 128.275C128.799 127.705 127.869 127.399 126.915 127.405L126.901 127.384Z" fill="#263238"/>
<path d="M137.63 135.301C136.374 135.299 135.165 134.821 134.248 133.962C133.33 133.104 132.773 131.93 132.687 130.676C132.601 129.423 132.994 128.183 133.787 127.208C134.579 126.233 135.712 125.595 136.956 125.422C137.602 125.33 138.259 125.365 138.891 125.527C139.523 125.689 140.117 125.974 140.638 126.365C141.16 126.757 141.599 127.247 141.931 127.808C142.263 128.37 142.482 128.991 142.573 129.637C142.676 130.341 142.626 131.06 142.426 131.743C142.226 132.426 141.88 133.058 141.414 133.596C140.947 134.134 140.37 134.564 139.722 134.859C139.073 135.153 138.369 135.304 137.657 135.301H137.63ZM137.63 125.86C137.421 125.861 137.211 125.874 137.003 125.901C135.85 126.057 134.802 126.655 134.081 127.568C133.359 128.481 133.021 129.639 133.136 130.797C133.252 131.956 133.812 133.024 134.7 133.777C135.588 134.53 136.733 134.908 137.894 134.834C139.056 134.759 140.143 134.236 140.926 133.375C141.71 132.514 142.129 131.383 142.094 130.22C142.06 129.056 141.576 127.951 140.743 127.138C139.91 126.325 138.794 125.867 137.63 125.86Z" fill="#263238"/>
<path d="M128.021 131.97C128.129 132.732 127.899 133.4 127.501 133.454C127.104 133.508 126.692 132.934 126.584 132.172C126.476 131.41 126.712 130.743 127.11 130.689C127.508 130.635 127.913 131.208 128.021 131.97Z" fill="#263238"/>
<path d="M137.091 130.702C137.199 131.464 136.969 132.125 136.572 132.186C136.174 132.247 135.762 131.667 135.654 130.905C135.547 130.143 135.776 129.475 136.174 129.421C136.572 129.367 136.983 129.913 137.091 130.702Z" fill="#263238"/>
<path d="M132.552 128.106C132.551 130.462 132.697 132.816 132.991 135.153C133.395 137.244 133.807 138.525 132.478 138.727C131.15 138.93 131.17 136.657 131.17 136.657" fill="white"/>
<path d="M132.33 138.99C132.061 138.993 131.801 138.895 131.602 138.714C130.927 138.12 130.927 136.691 130.927 136.65C130.929 136.585 130.956 136.522 131.002 136.476C131.049 136.429 131.111 136.402 131.177 136.401C131.245 136.401 131.31 136.428 131.358 136.476C131.406 136.524 131.433 136.589 131.433 136.657C131.402 137.258 131.58 137.852 131.939 138.336C132.008 138.396 132.09 138.44 132.179 138.465C132.268 138.489 132.361 138.494 132.451 138.478C132.557 138.472 132.661 138.445 132.756 138.397C132.852 138.349 132.936 138.283 133.004 138.201C133.281 137.81 133.092 136.92 132.863 135.787L132.748 135.2C132.451 132.849 132.302 130.482 132.303 128.113C132.303 128.045 132.33 127.98 132.378 127.932C132.426 127.884 132.491 127.857 132.559 127.857C132.592 127.856 132.625 127.861 132.656 127.874C132.686 127.886 132.714 127.904 132.738 127.928C132.761 127.951 132.779 127.979 132.792 128.009C132.804 128.04 132.81 128.073 132.809 128.106C132.808 130.446 132.955 132.784 133.247 135.106L133.362 135.686C133.625 136.987 133.82 137.925 133.416 138.498C133.309 138.635 133.174 138.749 133.021 138.832C132.868 138.914 132.699 138.963 132.525 138.977L132.33 138.99Z" fill="#263238"/>
<path d="M128.641 140.285C128.641 140.285 132.492 142.787 137.266 139.058L128.641 140.285Z" fill="white"/>
<path d="M131.891 141.351C130.713 141.367 129.55 141.074 128.52 140.501C128.491 140.483 128.467 140.46 128.448 140.432C128.429 140.405 128.415 140.374 128.408 140.341C128.401 140.308 128.401 140.275 128.408 140.242C128.414 140.209 128.427 140.178 128.446 140.15C128.463 140.122 128.485 140.098 128.512 140.079C128.539 140.06 128.569 140.046 128.602 140.039C128.634 140.032 128.667 140.032 128.699 140.038C128.732 140.045 128.762 140.057 128.789 140.076C128.945 140.17 132.559 142.423 137.125 138.862C137.151 138.842 137.181 138.827 137.212 138.818C137.244 138.809 137.278 138.807 137.311 138.811C137.344 138.815 137.375 138.825 137.404 138.842C137.433 138.858 137.458 138.88 137.479 138.906C137.499 138.932 137.514 138.962 137.523 138.994C137.532 139.026 137.534 139.059 137.53 139.092C137.526 139.125 137.515 139.157 137.499 139.186C137.483 139.214 137.461 139.24 137.435 139.26C135.88 140.569 133.924 141.306 131.891 141.351Z" fill="#263238"/>
<path d="M131.682 130.965C131.621 130.967 131.562 130.946 131.515 130.906C131.469 130.866 131.44 130.81 131.433 130.75C131.428 130.717 131.43 130.683 131.438 130.651C131.447 130.619 131.461 130.589 131.481 130.563C131.501 130.536 131.527 130.514 131.555 130.498C131.584 130.481 131.616 130.47 131.649 130.466L132.997 130.278C133.031 130.271 133.065 130.271 133.099 130.279C133.132 130.286 133.163 130.3 133.191 130.321C133.218 130.341 133.241 130.367 133.257 130.397C133.274 130.426 133.284 130.459 133.287 130.493C133.295 130.559 133.277 130.626 133.237 130.679C133.196 130.731 133.137 130.766 133.072 130.777L131.723 130.965H131.682Z" fill="#263238"/>
<path d="M120.967 132.604C120.906 132.599 120.848 132.572 120.805 132.528C120.762 132.485 120.736 132.427 120.732 132.366C120.728 132.304 120.746 132.244 120.783 132.195C120.82 132.146 120.873 132.111 120.933 132.098L121.931 131.957C121.995 131.954 122.057 131.976 122.106 132.017C122.155 132.058 122.187 132.116 122.195 132.179C122.204 132.242 122.188 132.306 122.152 132.359C122.115 132.411 122.061 132.448 121.999 132.462L121.007 132.604H120.967Z" fill="#263238"/>
<path d="M142.31 129.569C142.25 129.569 142.192 129.546 142.146 129.507C142.101 129.468 142.07 129.413 142.061 129.354C142.051 129.287 142.069 129.218 142.109 129.164C142.149 129.11 142.21 129.074 142.277 129.064L143.275 128.922C143.338 128.92 143.401 128.941 143.45 128.982C143.498 129.023 143.53 129.081 143.539 129.144C143.547 129.207 143.532 129.272 143.495 129.324C143.459 129.376 143.404 129.413 143.342 129.428L142.351 129.569H142.31Z" fill="#263238"/>
<path d="M123.671 128.241C123.558 128.24 123.447 128.212 123.347 128.16C123.27 128.117 123.202 128.059 123.146 127.99C123.091 127.921 123.05 127.841 123.026 127.756C123.001 127.671 122.994 127.582 123.004 127.494C123.014 127.406 123.041 127.32 123.084 127.243C123.759 126.029 125.836 124.148 128.978 125.685C129.139 125.764 129.262 125.903 129.32 126.073C129.379 126.242 129.367 126.428 129.288 126.589C129.21 126.75 129.07 126.873 128.901 126.931C128.731 126.989 128.546 126.978 128.385 126.899C125.6 125.55 124.339 127.796 124.264 127.89C124.206 127.997 124.12 128.085 124.016 128.147C123.911 128.209 123.792 128.241 123.671 128.241Z" fill="#263238"/>
<path d="M134.292 126.73C134.175 126.731 134.06 126.7 133.958 126.643C133.856 126.585 133.771 126.501 133.711 126.401C133.651 126.3 133.618 126.185 133.616 126.068C133.614 125.951 133.643 125.835 133.699 125.732C134.373 124.518 136.457 122.637 139.593 124.175C139.749 124.255 139.867 124.394 139.922 124.56C139.978 124.727 139.966 124.909 139.89 125.067C139.813 125.225 139.678 125.347 139.513 125.407C139.348 125.467 139.166 125.46 139.006 125.388C136.221 124.04 134.96 126.285 134.879 126.38C134.821 126.485 134.736 126.573 134.633 126.635C134.53 126.697 134.412 126.729 134.292 126.73Z" fill="#263238"/>
<path d="M126.544 134.519C126.484 134.509 126.429 134.479 126.39 134.432C126.351 134.386 126.329 134.327 126.329 134.266C126.329 134.206 126.351 134.147 126.39 134.1C126.429 134.054 126.484 134.023 126.544 134.013L128.756 133.703C128.789 133.698 128.822 133.699 128.855 133.707C128.887 133.715 128.918 133.729 128.944 133.749C128.971 133.77 128.993 133.795 129.009 133.824C129.026 133.854 129.036 133.886 129.039 133.919C129.044 133.952 129.042 133.985 129.034 134.017C129.025 134.049 129.011 134.08 128.99 134.106C128.97 134.132 128.945 134.154 128.917 134.171C128.888 134.188 128.856 134.198 128.823 134.202L126.611 134.519H126.544Z" fill="#263238"/>
<path d="M135.614 133.231C135.553 133.232 135.494 133.21 135.449 133.17C135.403 133.131 135.373 133.076 135.364 133.015C135.355 132.948 135.372 132.88 135.413 132.826C135.453 132.772 135.513 132.735 135.58 132.725L137.792 132.415C137.857 132.406 137.924 132.422 137.977 132.461C138.03 132.5 138.065 132.559 138.075 132.624C138.085 132.691 138.068 132.759 138.027 132.814C137.987 132.868 137.927 132.904 137.86 132.914L135.648 133.224L135.614 133.231Z" fill="#263238"/>
<path d="M179.614 189.069L102.4 200.045L106.162 226.51L183.376 215.535L179.614 189.069Z" fill="#263238"/>
<path d="M152.918 196.927L129.679 200.213L129.868 201.548L153.107 198.262L152.918 196.927Z" fill="white"/>
<path d="M172.522 208.909L114.185 217.158L114.374 218.494L172.711 210.244L172.522 208.909Z" fill="white"/>
<path d="M156.749 200.012L126.867 204.238L127.055 205.573L156.938 201.347L156.749 200.012Z" fill="white"/>
<path d="M122.472 207.171L122.164 207.215L122.913 212.509L123.22 212.466L122.472 207.171Z" fill="#263238"/>
<path d="M125.621 206.728L125.314 206.772L126.063 212.066L126.37 212.023L125.621 206.728Z" fill="#263238"/>
<path d="M126.453 206.523L126.146 206.567L126.899 211.861L127.206 211.818L126.453 206.523Z" fill="#263238"/>
<path d="M127.206 206.418L126.899 206.462L127.652 211.756L127.959 211.712L127.206 206.418Z" fill="#263238"/>
<path d="M128.856 206.181L128.549 206.225L129.301 211.519L129.608 211.475L128.856 206.181Z" fill="#263238"/>
<path d="M129.491 206.093L129.184 206.136L129.937 211.431L130.244 211.387L129.491 206.093Z" fill="#263238"/>
<path d="M123.64 207.003L123.026 207.09L123.775 212.384L124.389 212.297L123.64 207.003Z" fill="#263238"/>
<path d="M132.503 205.66L132.196 205.704L132.948 210.998L133.255 210.955L132.503 205.66Z" fill="#263238"/>
<path d="M133.665 205.497L133.051 205.585L133.803 210.879L134.417 210.792L133.665 205.497Z" fill="#263238"/>
<path d="M125.343 206.677L124.728 206.764L125.481 212.059L126.095 211.971L125.343 206.677Z" fill="#263238"/>
<path d="M128.191 206.359L127.577 206.445L128.326 211.74L128.94 211.653L128.191 206.359Z" fill="#263238"/>
<path d="M130.865 205.9L130.558 205.944L131.311 211.238L131.618 211.195L130.865 205.9Z" fill="#263238"/>
<path d="M131.507 205.805L131.2 205.849L131.953 211.143L132.26 211.099L131.507 205.805Z" fill="#263238"/>
<path d="M130.398 205.966L129.783 206.053L130.536 211.347L131.15 211.26L130.398 205.966Z" fill="#263238"/>
<path d="M134.886 205.333L134.579 205.377L135.332 210.672L135.639 210.628L134.886 205.333Z" fill="#263238"/>
<path d="M138.042 204.88L137.734 204.924L138.487 210.218L138.794 210.175L138.042 204.88Z" fill="#263238"/>
<path d="M138.677 204.786L138.37 204.83L139.123 210.124L139.43 210.081L138.677 204.786Z" fill="#263238"/>
<path d="M139.423 204.681L139.116 204.725L139.869 210.019L140.176 209.975L139.423 204.681Z" fill="#263238"/>
<path d="M141.093 204.436L140.786 204.48L141.538 209.774L141.846 209.731L141.093 204.436Z" fill="#263238"/>
<path d="M141.699 204.365L141.392 204.409L142.146 209.703L142.453 209.659L141.699 204.365Z" fill="#263238"/>
<path d="M136.072 205.141L135.458 205.228L136.211 210.522L136.826 210.435L136.072 205.141Z" fill="#263238"/>
<path d="M144.717 203.932L144.41 203.976L145.164 209.27L145.471 209.227L144.717 203.932Z" fill="#263238"/>
<path d="M145.889 203.76L145.274 203.848L146.027 209.142L146.641 209.055L145.889 203.76Z" fill="#263238"/>
<path d="M137.377 205.059L136.763 205.146L137.512 210.44L138.126 210.353L137.377 205.059Z" fill="#263238"/>
<path d="M140.416 204.631L139.801 204.717L140.55 210.012L141.164 209.925L140.416 204.631Z" fill="#263238"/>
<path d="M143.103 204.162L142.796 204.206L143.549 209.5L143.856 209.457L143.103 204.162Z" fill="#263238"/>
<path d="M143.731 204.061L143.424 204.105L144.177 209.399L144.484 209.356L143.731 204.061Z" fill="#263238"/>
<path d="M142.621 204.229L142.007 204.316L142.76 209.61L143.374 209.523L142.621 204.229Z" fill="#263238"/>
<path d="M146.756 203.639L146.449 203.683L147.201 208.978L147.509 208.934L146.756 203.639Z" fill="#263238"/>
<path d="M147.392 203.545L147.084 203.589L147.837 208.884L148.144 208.84L147.392 203.545Z" fill="#263238"/>
<path d="M150.404 203.119L150.097 203.162L150.849 208.457L151.156 208.413L150.404 203.119Z" fill="#263238"/>
<path d="M151.559 202.957L150.945 203.044L151.698 208.339L152.312 208.251L151.559 202.957Z" fill="#263238"/>
<path d="M148.78 203.345L148.473 203.389L149.225 208.683L149.532 208.64L148.78 203.345Z" fill="#263238"/>
<path d="M149.402 203.264L149.095 203.308L149.847 208.603L150.154 208.559L149.402 203.264Z" fill="#263238"/>
<path d="M148.116 203.544L147.502 203.631L148.251 208.925L148.865 208.838L148.116 203.544Z" fill="#263238"/>
<path d="M152.605 202.908L152.298 202.952L153.046 208.246L153.354 208.203L152.605 202.908Z" fill="#263238"/>
<path d="M155.755 202.472L155.448 202.515L156.196 207.81L156.503 207.766L155.755 202.472Z" fill="#263238"/>
<path d="M156.571 202.252L156.264 202.296L157.017 207.59L157.324 207.547L156.571 202.252Z" fill="#263238"/>
<path d="M157.331 202.139L157.024 202.183L157.776 207.477L158.084 207.434L157.331 202.139Z" fill="#263238"/>
<path d="M158.981 201.902L158.674 201.946L159.426 207.241L159.733 207.197L158.981 201.902Z" fill="#263238"/>
<path d="M159.428 201.942L159.12 201.986L159.869 207.28L160.176 207.237L159.428 201.942Z" fill="#263238"/>
<path d="M153.966 202.597L153.352 202.684L154.105 207.979L154.719 207.891L153.966 202.597Z" fill="#263238"/>
<path d="M162.628 201.375L162.321 201.419L163.073 206.713L163.38 206.669L162.628 201.375Z" fill="#263238"/>
<path d="M163.783 201.22L163.169 201.307L163.921 206.602L164.536 206.514L163.783 201.22Z" fill="#263238"/>
<path d="M155.467 202.398L154.853 202.486L155.606 207.78L156.22 207.693L155.467 202.398Z" fill="#263238"/>
<path d="M158.324 202.102L157.71 202.189L158.459 207.483L159.073 207.396L158.324 202.102Z" fill="#263238"/>
<path d="M160.997 201.615L160.69 201.659L161.442 206.953L161.75 206.909L160.997 201.615Z" fill="#263238"/>
<path d="M161.622 201.539L161.315 201.583L162.069 206.877L162.376 206.834L161.622 201.539Z" fill="#263238"/>
<path d="M160.528 201.68L159.914 201.768L160.667 207.062L161.281 206.975L160.528 201.68Z" fill="#263238"/>
<path d="M122.99 69.0926C122.865 69.0935 122.74 69.0776 122.619 69.0454C122.449 68.9972 122.289 68.9159 122.15 68.8061C122.011 68.6962 121.895 68.5601 121.809 68.4054C121.722 68.2507 121.667 68.0805 121.646 67.9045C121.626 67.7286 121.64 67.5502 121.688 67.3798C121.763 67.1168 123.597 60.771 131.055 50.4195C131.265 50.1289 131.581 49.9333 131.934 49.8758C132.288 49.8182 132.649 49.9035 132.94 50.1127C133.231 50.322 133.426 50.6381 133.484 50.9916C133.541 51.3451 133.456 51.7069 133.247 51.9976C126.105 61.9107 124.305 68.0541 124.285 68.1148C124.204 68.3962 124.034 68.6438 123.801 68.8202C123.567 68.9966 123.283 69.0922 122.99 69.0926Z" fill="#263238"/>
</svg>
