<svg width="21" height="20" viewBox="0 0 21 20" fill="none" xmlns="http://www.w3.org/2000/svg">
<path fill-rule="evenodd" clip-rule="evenodd" d="M2.35675 0.638997C2.57542 0.420302 2.8381 0.250603 3.12735 0.141159C3.4166 0.0317151 3.72582 -0.0149727 4.03449 0.00419304C4.34315 0.0233588 4.64422 0.10794 4.91771 0.252325C5.1912 0.396711 5.43087 0.5976 5.6208 0.841667L7.86217 3.72438C8.27417 4.25238 8.41951 4.94173 8.25684 5.59107L7.57283 8.32844C7.53726 8.47048 7.53907 8.61931 7.57809 8.76044C7.61711 8.90158 7.69201 9.0302 7.7955 9.13379L10.8675 12.2045C10.9711 12.308 11.0998 12.3829 11.2409 12.4219C11.382 12.4609 11.5309 12.4627 11.6729 12.4272L14.4089 11.7432C14.7298 11.663 15.0648 11.6569 15.3884 11.7253C15.712 11.7936 16.0159 11.9347 16.277 12.1378L19.1597 14.3792C20.1957 15.1845 20.2917 16.7166 19.3637 17.6432L18.0703 18.9366C17.1463 19.8606 15.7636 20.2673 14.4743 19.8139C11.1761 18.6531 8.18158 16.7646 5.7128 14.2885C3.23629 11.8199 1.34733 8.82536 0.186055 5.52707C-0.267285 4.23772 0.139388 2.85503 1.0634 1.92968L2.35675 0.637664V0.638997Z" fill="white"/>
</svg>
