<svg width="155" height="142" viewBox="0 0 155 142" fill="none" xmlns="http://www.w3.org/2000/svg">
<path d="M80.0061 141.7C116.953 141.7 146.905 139.07 146.905 135.826C146.905 132.582 116.953 129.952 80.0061 129.952C43.0588 129.952 13.1071 132.582 13.1071 135.826C13.1071 139.07 43.0588 141.7 80.0061 141.7Z" fill="#92E3A9"/>
<path opacity="0.5" d="M80.0061 141.7C116.953 141.7 146.905 139.07 146.905 135.826C146.905 132.582 116.953 129.952 80.0061 129.952C43.0588 129.952 13.1071 132.582 13.1071 135.826C13.1071 139.07 43.0588 141.7 80.0061 141.7Z" fill="white"/>
<path d="M11.7874 61.5293V65.0029" stroke="#263238" stroke-linecap="round" stroke-linejoin="round"/>
<path d="M13.5261 63.2681H10.0526" stroke="#263238" stroke-linecap="round" stroke-linejoin="round"/>
<path d="M130.316 31.7668V35.2404" stroke="#263238" stroke-linecap="round" stroke-linejoin="round"/>
<path d="M132.051 33.5056H128.578" stroke="#263238" stroke-linecap="round" stroke-linejoin="round"/>
<path d="M80.9734 4.87878V8.35238" stroke="#263238" stroke-linecap="round" stroke-linejoin="round"/>
<path d="M82.7082 6.61363H79.2346" stroke="#263238" stroke-linecap="round" stroke-linejoin="round"/>
<path d="M23.7981 100.432V103.906" stroke="#263238" stroke-linecap="round" stroke-linejoin="round"/>
<path d="M25.533 102.167H22.0594" stroke="#263238" stroke-linecap="round" stroke-linejoin="round"/>
<path d="M128.762 19.247C128.763 19.8157 128.595 20.3718 128.279 20.845C127.964 21.3182 127.515 21.6873 126.99 21.9054C126.465 22.1236 125.887 22.1811 125.329 22.0706C124.771 21.9601 124.259 21.6867 123.856 21.2848C123.454 20.883 123.18 20.3708 123.068 19.8131C122.957 19.2554 123.014 18.6773 123.231 18.1518C123.449 17.6264 123.817 17.1772 124.29 16.8612C124.763 16.5452 125.319 16.3765 125.887 16.3765C126.649 16.3765 127.38 16.6788 127.918 17.217C128.457 17.7552 128.761 18.4853 128.762 19.247Z" stroke="#263238" stroke-linecap="round" stroke-linejoin="round"/>
<path d="M5.849 88.2158C7.31367 87.6092 8.0092 85.93 7.40252 84.4653C6.79583 83.0007 5.11667 82.3051 3.65201 82.9118C2.18734 83.5185 1.49182 85.1977 2.0985 86.6623C2.70518 88.127 4.38434 88.8225 5.849 88.2158Z" stroke="#263238" stroke-linecap="round" stroke-linejoin="round"/>
<path d="M141.814 48.6179C141.821 48.7078 141.809 48.7981 141.78 48.8832C141.75 48.9684 141.703 49.0465 141.642 49.1127C141.581 49.1788 141.507 49.2316 141.424 49.2677C141.341 49.3038 141.252 49.3224 141.162 49.3224C141.072 49.3224 140.983 49.3038 140.9 49.2677C140.818 49.2316 140.743 49.1788 140.682 49.1127C140.621 49.0465 140.574 48.9684 140.544 48.8832C140.515 48.7981 140.503 48.7078 140.51 48.6179C140.523 48.4537 140.597 48.3003 140.718 48.1885C140.839 48.0766 140.997 48.0145 141.162 48.0145C141.327 48.0145 141.485 48.0766 141.606 48.1885C141.727 48.3003 141.801 48.4537 141.814 48.6179Z" stroke="#263238" stroke-linecap="round" stroke-linejoin="round"/>
<path d="M42.2156 39.2192C42.2164 39.3487 42.1787 39.4755 42.1073 39.5836C42.0359 39.6917 41.934 39.7761 41.8146 39.8262C41.6952 39.8763 41.5636 39.8898 41.4364 39.865C41.3093 39.8402 41.1924 39.7782 41.1006 39.6869C41.0087 39.5956 40.946 39.4791 40.9205 39.3521C40.8949 39.2252 40.9077 39.0935 40.957 38.9738C41.0064 38.854 41.0902 38.7517 41.1979 38.6796C41.3055 38.6076 41.4321 38.5691 41.5616 38.5691C41.7344 38.5691 41.9001 38.6375 42.0227 38.7593C42.1452 38.8811 42.2146 39.0464 42.2156 39.2192V39.2192Z" stroke="#263238" stroke-linecap="round" stroke-linejoin="round"/>
<path d="M151.965 77.7303V77.7107H151.941V77.6911C151.397 77.6363 145.762 77.1546 140.62 79.8254C142.891 76.972 143.939 73.3345 143.533 69.7101C142.292 57.296 130.579 50.1921 129.674 49.6595V49.6635H129.647H129.619C128.715 50.1961 117.002 57.2999 115.76 69.714C115.495 72.117 115.865 74.5477 116.833 76.763C110.239 72.8195 102.547 73.4852 101.838 73.5557V73.5322V73.5596H101.811V73.5792C101.463 74.382 97.0608 84.9672 102.348 93.9626C107.078 102.006 116.998 99.8798 119.692 99.124C121.956 101.501 126.083 106.913 127.916 116.147H125.347L126.541 133.66H132.322L133.59 116.171H130.563C131.95 109.912 134.452 103.953 137.949 98.5797C140.647 99.2532 147.947 100.389 151.546 94.2719C155.822 86.9684 152.251 78.3843 151.965 77.7303ZM129.463 77.6637L123.354 69.1775C123.341 69.16 123.331 69.1402 123.326 69.1191C123.321 69.098 123.32 69.0761 123.323 69.0546C123.326 69.0331 123.334 69.0125 123.345 68.9939C123.356 68.9753 123.371 68.9592 123.389 68.9464C123.425 68.92 123.47 68.9089 123.514 68.9155C123.558 68.9221 123.597 68.9459 123.624 68.9817L129.474 77.1076V68.5117L123.365 60.0294C123.339 59.9935 123.328 59.9487 123.334 59.9047C123.341 59.8606 123.365 59.821 123.401 59.7944C123.437 59.7695 123.482 59.7596 123.526 59.7669C123.57 59.7742 123.609 59.7981 123.636 59.8336L129.486 67.9596V55.428C129.486 55.4064 129.491 55.385 129.499 55.365C129.507 55.3451 129.519 55.327 129.534 55.3117C129.55 55.2964 129.568 55.2843 129.588 55.276C129.608 55.2678 129.629 55.2635 129.651 55.2635C129.694 55.2635 129.736 55.2808 129.767 55.3117C129.798 55.3425 129.815 55.3844 129.815 55.428V67.5249L136.159 59.4812C136.186 59.4464 136.226 59.4237 136.27 59.4182C136.313 59.4127 136.358 59.4248 136.392 59.4518C136.427 59.4788 136.45 59.5185 136.455 59.5622C136.461 59.6059 136.449 59.65 136.422 59.6848L129.815 68.0614V76.6768L136.159 68.6292C136.187 68.5947 136.227 68.5724 136.271 68.5673C136.315 68.5622 136.359 68.5746 136.394 68.6018C136.411 68.6152 136.425 68.6317 136.436 68.6506C136.447 68.6694 136.453 68.6902 136.456 68.7116C136.458 68.7331 136.457 68.7548 136.451 68.7756C136.445 68.7964 136.435 68.8159 136.422 68.8328L129.815 77.2133V84.5169L136.159 76.4732C136.186 76.4384 136.226 76.4158 136.27 76.4102C136.313 76.4047 136.358 76.4168 136.392 76.4438C136.427 76.4708 136.45 76.5105 136.455 76.5542C136.461 76.5979 136.449 76.642 136.422 76.6768L129.815 85.0534V85.214H129.283L123.373 76.9901C123.347 76.9542 123.336 76.9094 123.342 76.8654C123.349 76.8213 123.373 76.7817 123.408 76.7551C123.445 76.7302 123.49 76.7203 123.534 76.7276C123.578 76.7349 123.617 76.7588 123.643 76.7943L129.474 84.9085V77.648L129.463 77.6637ZM119.755 98.376L119.156 97.5536L110.54 95.157C110.506 95.1453 110.477 95.1211 110.459 95.0892C110.442 95.0572 110.437 95.0199 110.446 94.9847C110.456 94.949 110.48 94.9187 110.512 94.9003C110.544 94.882 110.583 94.8771 110.618 94.8868L118.874 97.1894L115.282 92.2786L106.667 89.882C106.631 89.8719 106.601 89.8482 106.583 89.8159C106.564 89.7837 106.56 89.7455 106.569 89.7097C106.581 89.6752 106.605 89.6464 106.637 89.629C106.669 89.6116 106.706 89.6069 106.741 89.6157L115.001 91.9183L110.755 86.1068L102.14 83.7102C102.123 83.7057 102.106 83.6977 102.092 83.6867C102.078 83.6757 102.066 83.6619 102.057 83.6461C102.048 83.6304 102.043 83.613 102.041 83.5951C102.039 83.5771 102.041 83.559 102.046 83.5418C102.051 83.5242 102.059 83.5078 102.07 83.4934C102.08 83.4789 102.094 83.4668 102.11 83.4577C102.125 83.4486 102.143 83.4427 102.161 83.4403C102.179 83.4379 102.197 83.4392 102.214 83.4439L110.474 85.7466L104.501 77.5775C104.48 77.5473 104.471 77.5098 104.477 77.4732C104.483 77.4365 104.503 77.4037 104.533 77.3817C104.547 77.3706 104.564 77.3625 104.581 77.3581C104.599 77.3536 104.618 77.3528 104.635 77.3558C104.653 77.3587 104.671 77.3653 104.686 77.3752C104.701 77.385 104.715 77.3979 104.725 77.413L110.904 85.864L110.877 77.4875C110.878 77.4504 110.893 77.4151 110.919 77.3889C110.945 77.3626 110.981 77.3475 111.018 77.3465C111.055 77.3475 111.089 77.3628 111.115 77.3891C111.141 77.4155 111.155 77.4507 111.155 77.4875L111.218 86.2321L115.463 92.0397L115.4 83.6632C115.397 83.643 115.398 83.6223 115.403 83.6025C115.408 83.5827 115.418 83.5644 115.431 83.5487C115.445 83.5331 115.461 83.5205 115.48 83.5119C115.498 83.5033 115.519 83.4988 115.539 83.4988C115.559 83.4988 115.58 83.5033 115.598 83.5119C115.617 83.5205 115.633 83.5331 115.647 83.5487C115.66 83.5644 115.67 83.5827 115.675 83.6025C115.68 83.6223 115.681 83.643 115.678 83.6632L115.741 92.4118L119.328 97.3187L119.265 88.9421C119.266 88.9054 119.282 88.8705 119.308 88.8449C119.334 88.8193 119.369 88.805 119.406 88.805C119.443 88.805 119.477 88.8195 119.503 88.8452C119.529 88.8709 119.543 88.9057 119.543 88.9421L119.606 97.6907L120.119 98.3917L119.755 98.376ZM120.734 98.376C121.987 96.4689 125.605 90.207 123.444 84.1801C125.124 85.2887 126.922 86.2081 128.805 86.9214V114.115C126.819 105.781 123.083 100.8 120.804 98.376H120.734ZM130.132 112.439V87.0467C131.924 86.3961 133.642 85.5587 135.259 84.5482C131.809 90.0778 135.674 96.4649 136.692 97.9727C133.793 102.439 131.582 107.315 130.132 112.439ZM151.64 85.9306L144.665 87.8887L141.219 92.588L147.919 90.72C147.934 90.7153 147.949 90.7135 147.964 90.715C147.979 90.7164 147.994 90.7209 148.007 90.7283C148.02 90.7356 148.032 90.7457 148.041 90.7577C148.05 90.7698 148.057 90.7836 148.06 90.7983C148.068 90.8269 148.064 90.8571 148.049 90.8827C148.034 90.9083 148.01 90.9272 147.982 90.9354L141.007 92.8935L138.094 96.8761L144.794 95.0082C144.823 95.0009 144.853 95.005 144.879 95.0196C144.904 95.0342 144.923 95.0582 144.931 95.0865C144.939 95.1155 144.935 95.1463 144.92 95.1725C144.906 95.1987 144.882 95.2184 144.853 95.2275L137.878 97.1855L137.51 97.6868C137.444 97.6476 137.381 97.6124 137.318 97.5693L137.526 97.2834L137.581 90.1874C137.578 90.171 137.578 90.1541 137.583 90.138C137.587 90.1218 137.594 90.1068 137.605 90.0939C137.616 90.0811 137.629 90.0707 137.644 90.0636C137.659 90.0565 137.676 90.0529 137.692 90.0529C137.709 90.0529 137.726 90.0565 137.741 90.0636C137.756 90.0707 137.769 90.0811 137.78 90.0939C137.791 90.1068 137.798 90.1218 137.802 90.138C137.807 90.1541 137.807 90.171 137.804 90.1874L137.757 96.9858L140.639 92.9835L140.69 85.8875C140.69 85.8728 140.693 85.8582 140.699 85.8446C140.705 85.8311 140.713 85.8188 140.724 85.8086C140.734 85.7983 140.747 85.7903 140.761 85.7851C140.774 85.7798 140.789 85.7773 140.804 85.7779C140.819 85.7779 140.833 85.7808 140.847 85.7865C140.861 85.7922 140.874 85.8006 140.884 85.8111C140.895 85.8217 140.903 85.8342 140.909 85.848C140.914 85.8618 140.917 85.8765 140.917 85.8914L140.866 92.6859L144.313 87.9866L144.364 80.8906C144.364 80.8756 144.367 80.8609 144.372 80.8471C144.378 80.8333 144.386 80.8208 144.397 80.8103C144.407 80.7997 144.42 80.7913 144.434 80.7856C144.447 80.7799 144.462 80.777 144.477 80.777C144.492 80.777 144.506 80.7799 144.52 80.7857C144.534 80.7915 144.546 80.7999 144.556 80.8105C144.566 80.8211 144.574 80.8336 144.58 80.8474C144.585 80.8612 144.587 80.8758 144.587 80.8906L144.54 87.685L149.552 80.8279C149.57 80.8044 149.597 80.7887 149.626 80.7843C149.655 80.7799 149.685 80.7871 149.709 80.8044C149.721 80.8129 149.731 80.8238 149.739 80.8364C149.747 80.849 149.752 80.8631 149.754 80.8777C149.756 80.8923 149.756 80.9073 149.752 80.9216C149.748 80.9359 149.742 80.9493 149.733 80.9611L144.888 87.591L151.589 85.723C151.617 85.7158 151.648 85.7199 151.673 85.7345C151.699 85.7491 151.718 85.7731 151.726 85.8014C151.729 85.8156 151.73 85.8303 151.727 85.8447C151.725 85.859 151.719 85.8727 151.711 85.8848C151.703 85.897 151.692 85.9073 151.68 85.9152C151.668 85.9231 151.654 85.9283 151.64 85.9306Z" fill="#263238"/>
<path d="M113.575 16.7994H53.1103C51.6504 16.7994 50.4669 17.9829 50.4669 19.4428V132.654C50.4669 134.114 51.6504 135.297 53.1103 135.297H113.575C115.035 135.297 116.218 134.114 116.218 132.654V19.4428C116.218 17.9829 115.035 16.7994 113.575 16.7994Z" fill="#263238" stroke="#263238" stroke-linecap="round" stroke-linejoin="round"/>
<path d="M111.488 16.7994H51.023C49.5631 16.7994 48.3796 17.9829 48.3796 19.4428V132.654C48.3796 134.114 49.5631 135.297 51.023 135.297H111.488C112.948 135.297 114.131 134.114 114.131 132.654V19.4428C114.131 17.9829 112.948 16.7994 111.488 16.7994Z" fill="white"/>
<path d="M114.131 61.5136L56.3136 135.301H111.492C112.192 135.3 112.863 135.021 113.358 134.525C113.853 134.03 114.131 133.358 114.131 132.658V61.5136Z" fill="#92E3A9"/>
<path opacity="0.5" d="M114.131 61.5136L56.3136 135.301H111.492C112.192 135.3 112.863 135.021 113.358 134.525C113.853 134.03 114.131 133.358 114.131 132.658V61.5136Z" fill="white"/>
<path d="M111.488 16.7994H51.023C49.5631 16.7994 48.3796 17.9829 48.3796 19.4428V132.654C48.3796 134.114 49.5631 135.297 51.023 135.297H111.488C112.948 135.297 114.131 134.114 114.131 132.654V19.4428C114.131 17.9829 112.948 16.7994 111.488 16.7994Z" stroke="#263238" stroke-linecap="round" stroke-linejoin="round"/>
<path d="M85.8137 23.8798H77.629C77.4057 23.8798 77.1916 23.791 77.0337 23.6332C76.8758 23.4753 76.7871 23.2611 76.7871 23.0378C76.7871 22.9274 76.8089 22.8181 76.8512 22.7162C76.8936 22.6142 76.9557 22.5217 77.0339 22.4438C77.1122 22.3659 77.205 22.3043 77.3071 22.2624C77.4093 22.2205 77.5187 22.1992 77.629 22.1997H85.8137C86.036 22.1997 86.2492 22.288 86.4063 22.4452C86.5635 22.6024 86.6518 22.8155 86.6518 23.0378C86.6523 23.1482 86.631 23.2576 86.5891 23.3597C86.5472 23.4618 86.4856 23.5547 86.4077 23.6329C86.3298 23.7112 86.2373 23.7732 86.1353 23.8156C86.0334 23.858 85.9241 23.8798 85.8137 23.8798Z" fill="#263238" stroke="#263238" stroke-linecap="round" stroke-linejoin="round"/>
<path d="M109.976 124.708H52.5267V23.9777H66.1431L67.6743 25.2465C68.2087 25.6915 68.8821 25.9354 69.5775 25.9357H93.6029C94.3241 25.9328 95.0198 25.6684 95.5609 25.1917L96.9472 23.9777H109.976V124.708Z" fill="#263238" stroke="#263238" stroke-linecap="round" stroke-linejoin="round"/>
<path d="M63.3117 102.989H99.199" stroke="white" stroke-linecap="round" stroke-linejoin="round"/>
<path d="M63.3117 107.712H99.199" stroke="white" stroke-linecap="round" stroke-linejoin="round"/>
<path d="M63.3117 112.435H99.199" stroke="white" stroke-linecap="round" stroke-linejoin="round"/>
<path d="M66.6248 59.1404C64.3693 62.4083 63.2741 66.3377 63.5139 70.3011C63.7537 74.2644 65.3148 78.0331 67.9478 81.0051C70.5808 83.9772 74.1338 85.9811 78.0394 86.697C81.9449 87.4128 85.9777 86.7992 89.4936 84.9541C93.0095 83.109 95.8057 80.139 97.4355 76.5183C99.0654 72.8976 99.4349 68.8352 98.485 64.9799C97.5351 61.1245 95.3207 57.6987 92.1954 55.2496C89.0701 52.8005 85.2142 51.4693 81.2436 51.4688C80.1548 51.4688 79.0683 51.5671 77.9971 51.7625" stroke="white" stroke-linecap="round" stroke-linejoin="round"/>
<path d="M69.6519 55.7843C69.0552 56.3007 68.4927 56.8554 67.968 57.4448" stroke="white" stroke-linecap="round" stroke-linejoin="round"/>
<path d="M95.1196 75.1368C98.3808 67.4798 94.8174 58.6289 87.1605 55.3677C79.5035 52.1065 70.6526 55.6699 67.3914 63.3268C64.1302 70.9838 67.6936 79.8347 75.3506 83.0959C83.0075 86.3571 91.8584 82.7937 95.1196 75.1368Z" fill="#92E3A9"/>
<path d="M74.2964 67.6658L80.0139 74.1626L89.3656 60.9144" stroke="#263238" stroke-width="6" stroke-linecap="round" stroke-linejoin="round"/>
<path d="M95.5766 25.1917C95.0354 25.6684 94.3398 25.9328 93.6185 25.9357H69.5853C68.8899 25.9354 68.2165 25.6915 67.6821 25.2465L66.1509 23.9777H52.5267V34.281H109.976V23.9777H96.9629L95.5766 25.1917Z" fill="#92E3A9" stroke="#263238" stroke-linecap="round" stroke-linejoin="round"/>
<path d="M83.092 127.813C83.0928 127.554 83.0167 127.301 82.8732 127.085C82.7298 126.87 82.5256 126.701 82.2864 126.602C82.0472 126.502 81.7839 126.476 81.5298 126.526C81.2757 126.577 81.0423 126.701 80.8592 126.885C80.676 127.068 80.5514 127.301 80.501 127.555C80.4507 127.809 80.4769 128.073 80.5764 128.312C80.6759 128.551 80.8441 128.755 81.0598 128.899C81.2755 129.042 81.5289 129.118 81.788 129.118C82.1335 129.116 82.4646 128.979 82.7089 128.734C82.9533 128.49 83.091 128.159 83.092 127.813Z" fill="#263238" stroke="#263238" stroke-linecap="round" stroke-linejoin="round"/>
<path d="M31.9985 87.7516L26.8762 133.57C26.8762 133.57 23.1206 136.836 23.4496 138.156C23.7785 139.476 28.1137 137.373 28.7128 136.284C29.1381 135.378 29.4409 134.419 29.6135 133.433L40.3985 98.9713L48.6929 135.928C48.6929 135.928 52.2174 138.822 54.1754 138.724C56.1335 138.626 55.4364 137.854 54.3203 136.441C53.2042 135.027 50.6783 134.22 50.6783 134.22L49.433 86.5885L31.9985 87.7516Z" fill="#263238" stroke="#263238" stroke-linecap="round" stroke-linejoin="round"/>
<path d="M49.152 85.787L31.9433 86.6618L32.0626 89.0084L49.2712 88.1337L49.152 85.787Z" fill="#263238" stroke="#263238" stroke-linecap="round" stroke-linejoin="round"/>
<path d="M42.619 87.2778C42.6464 87.8613 41.9062 88.3704 40.9585 88.4213C40.0108 88.4722 39.2119 88.0414 39.2119 87.454C39.2119 86.8666 39.9286 86.3614 40.8724 86.3144C41.8162 86.2674 42.5876 86.6982 42.619 87.2778Z" fill="white"/>
<path d="M39.6701 63.2015L33.2007 65.0969L34.0035 86.7217L49.1785 86.3457L47.2596 63.9925L39.6701 63.2015Z" fill="white" stroke="#263238" stroke-linecap="round" stroke-linejoin="round"/>
<path d="M36.8388 63.4443L35.9694 100.346L27.7299 96.3553L31.3523 84.7009L28.8812 65.0225L36.8388 63.4443Z" fill="#92E3A9" stroke="#263238" stroke-linecap="round" stroke-linejoin="round"/>
<path d="M43.3904 63.1114L47.9958 99.7349L55.7928 94.9298L51.0073 83.7023L51.4694 63.875L43.3904 63.1114Z" fill="#92E3A9" stroke="#263238" stroke-linecap="round" stroke-linejoin="round"/>
<path d="M38.4875 67.5758L39.7719 69.667L38.7459 84.2271L41.1817 87.1093L42.4427 83.6475L40.4925 69.6944L41.6948 67.6737L39.9482 65.4102L38.4875 67.5758Z" fill="#263238" stroke="#263238" stroke-linecap="round" stroke-linejoin="round"/>
<path d="M40.0774 67.2977L37.6533 69.1226L35.7109 64.3841L36.8035 62.6924L42.7365 62.3908L44.1384 64.2823L42.9832 68.5901L40.0774 67.2977Z" fill="white" stroke="#263238" stroke-linecap="round" stroke-linejoin="round"/>
<path d="M37.297 60.8714L37.8413 63.8829L40.0774 67.2977L42.1255 63.272L41.9963 60.7304L37.297 60.8714Z" fill="white" stroke="#263238" stroke-linecap="round" stroke-linejoin="round"/>
<path d="M28.8812 65.0225L17.8926 78.3255L25.1962 86.9723L28.1372 85.0612L24.5265 77.695L29.9151 73.7946L28.8812 65.0225Z" fill="#92E3A9" stroke="#263238" stroke-linecap="round" stroke-linejoin="round"/>
<path d="M28.1372 85.0612L28.5758 86.0167L26.1008 87.4187L25.7679 86.6512L28.1372 85.0612Z" fill="white" stroke="#263238" stroke-linecap="round" stroke-linejoin="round"/>
<path d="M28.5758 86.0168L31.0977 89.322L30.2675 90.3441L29.6644 90.0817L28.4426 91.1234C28.4426 91.1234 27.5497 90.8727 27.4362 90.5869C27.3226 90.301 26.1125 89.5726 26.0851 89.087C26.0577 88.6014 26.0851 87.4187 26.0851 87.4187L28.5758 86.0168Z" fill="white" stroke="#263238" stroke-linecap="round" stroke-linejoin="round"/>
<path d="M57.5903 66.4714C57.7391 66.0832 57.7718 65.66 57.6843 65.2535C57.5041 64.7875 57.1047 63.1741 57.183 62.6415C57.2613 62.1089 58.068 61.3335 58.1385 60.6443C58.209 59.955 58.1385 59.3245 58.1385 58.9525C58.145 58.8507 58.1842 58.7537 58.2503 58.6759C58.3163 58.5981 58.4057 58.5438 58.5052 58.5209C58.6046 58.498 58.7088 58.5078 58.8022 58.5489C58.8956 58.59 58.9732 58.6601 59.0236 58.7489C59.4152 59.2031 59.6502 59.6692 59.4622 60.1508C59.3342 60.6895 59.2737 61.242 59.282 61.7956C59.282 61.7956 59.9086 62.6611 60.2532 63.225C60.5978 63.7889 60.5665 65.2653 60.3355 65.8566C60.1201 66.3044 59.8164 66.704 59.4426 67.0315L59.4818 68.0496L57.5903 66.4714Z" fill="white" stroke="#263238" stroke-linecap="round" stroke-linejoin="round"/>
<path d="M58.7338 60.981C58.7338 60.981 58.4597 61.7877 58.9413 61.9718C59.423 62.1559 61.3928 62.43 61.4124 61.7956C61.432 61.1612 61.4712 60.844 61.1539 60.8596C60.8367 60.8753 59.3604 60.8596 59.3604 60.8596C59.3604 60.8596 58.675 60.8244 58.7338 60.981Z" fill="white" stroke="#263238" stroke-linecap="round" stroke-linejoin="round"/>
<path d="M58.957 64.9363C58.957 64.9363 58.7612 65.5355 59.1097 65.6725C59.4583 65.8096 60.8759 66.0172 60.8877 65.5433C60.8994 65.0695 60.9268 64.8345 60.6997 64.8462C60.4725 64.858 59.4074 64.8462 59.4074 64.8462C59.4074 64.8462 58.9139 64.811 58.957 64.9363Z" fill="white" stroke="#263238" stroke-linecap="round" stroke-linejoin="round"/>
<path d="M58.6946 63.6557C58.6946 63.6557 58.4675 64.3528 58.8708 64.5134C59.2742 64.6739 60.9151 64.905 60.9307 64.3646C60.9464 63.8241 60.9777 63.5422 60.7114 63.5539C60.4451 63.5657 59.2155 63.5539 59.2155 63.5539C59.2155 63.5539 58.6437 63.5226 58.6946 63.6557Z" fill="white" stroke="#263238" stroke-linecap="round" stroke-linejoin="round"/>
<path d="M58.5419 62.4143C58.5419 62.4143 58.2678 63.2211 58.7534 63.4051C59.239 63.5892 61.2009 63.8633 61.2205 63.2289C61.2401 62.5945 61.2793 62.2773 60.962 62.2929C60.6448 62.3086 59.1685 62.2929 59.1685 62.2929C59.1685 62.2929 58.4831 62.2616 58.5419 62.4143Z" fill="white" stroke="#263238" stroke-linecap="round" stroke-linejoin="round"/>
<path d="M57.3671 67.2742L57.6725 66.0446L59.7951 67.3095L59.4387 68.6449L57.3671 67.2742Z" fill="white" stroke="#263238" stroke-linecap="round" stroke-linejoin="round"/>
<path d="M51.4694 63.875L55.5343 72.5257L57.5315 66.9609L59.4896 68.825L57.4845 79.14C57.422 79.4576 57.2681 79.75 57.0416 79.9812C56.8151 80.2125 56.5259 80.3725 56.2097 80.4415C55.8935 80.5106 55.564 80.4857 55.2617 80.37C54.9594 80.2543 54.6975 80.0527 54.5083 79.7901L51.2618 75.2592L51.4694 63.875Z" fill="#92E3A9" stroke="#263238" stroke-linecap="round" stroke-linejoin="round"/>
<path d="M35.4055 57.3547C35.4055 57.3547 34.5831 56.4775 34.4774 57.1197C34.3716 57.762 34.7045 58.8702 35.2214 59.2658C35.7384 59.6613 36.1926 59.0073 36.1926 59.0073L35.4055 57.3547Z" fill="white" stroke="#263238" stroke-linecap="round" stroke-linejoin="round"/>
<path d="M43.179 56.9592C43.179 56.9592 43.9035 56.0037 44.0797 56.6302C44.2559 57.2568 44.0288 58.3964 43.5549 58.8428C43.0811 59.2893 42.5602 58.6823 42.5602 58.6823L43.179 56.9592Z" fill="white" stroke="#263238" stroke-linecap="round" stroke-linejoin="round"/>
<path d="M35.7344 58.2554L34.9512 56.5989C34.3208 55.7117 33.8845 54.7016 33.6707 53.6344C33.279 51.8173 33.9252 50.3057 34.7476 49.8397C35.2098 49.5631 35.7555 49.4603 36.2866 49.5499C36.2866 49.5499 36.4433 48.4847 39.0279 47.5918C41.6125 46.699 44.4243 48.3085 44.3812 48.8724C44.3381 49.4363 43.6489 49.687 43.6489 49.687C43.6489 49.687 45.6618 50.431 44.9334 51.3826C44.4842 51.964 43.9029 52.4298 43.2377 52.7415C43.3837 53.2214 43.5027 53.7091 43.5941 54.2022C43.6959 54.8327 43.1281 57.5427 43.1281 57.5427L41.7378 53.7323L37.3753 53.9555C37.3753 53.9555 37.1168 55.8039 36.6547 56.4618C36.3598 56.9612 36.1954 57.5269 36.177 58.1066C36.177 58.1066 35.9733 58.8037 35.7344 58.2554Z" fill="#263238" stroke="#263238" stroke-linecap="round" stroke-linejoin="round"/>
<path d="M36.5098 51.3709C36.5024 52.5081 36.4199 53.6437 36.2631 54.7701C36.1687 55.3968 35.845 55.9663 35.3546 56.3678C35.3546 56.3678 35.9107 58.9486 36.6156 60.3231C37.3205 61.6977 38.7851 62.8255 40.2615 62.6728C41.7378 62.5201 42.9166 60.844 43.0576 59.4263C43.1986 58.0087 42.5054 52.7689 42.5054 52.7689C42.5054 52.7689 37.8922 53.5796 36.5098 51.3709Z" fill="white" stroke="#263238" stroke-linecap="round" stroke-linejoin="round"/>
<path d="M36.9014 56.6694C37.1366 56.5302 37.4021 56.4504 37.675 56.4367C37.9479 56.4231 38.22 56.4761 38.4679 56.5911" stroke="#263238" stroke-linecap="round" stroke-linejoin="round"/>
<path d="M36.8388 55.4945C36.8388 55.4945 36.9288 54.7113 38.2368 54.6408" stroke="#263238" stroke-linecap="round" stroke-linejoin="round"/>
<path d="M40.3202 54.4685C40.6162 54.3473 40.9432 54.3241 41.2533 54.4023C41.5634 54.4805 41.8403 54.6561 42.0433 54.9032" stroke="#263238" stroke-linecap="round" stroke-linejoin="round"/>
<path d="M39.862 55.7334C39.862 55.7334 40.0696 57.2999 40.0813 57.4918C40.0931 57.6837 40.7471 57.7189 40.5708 58.1183C40.3946 58.5178 39.8268 58.9407 39.3529 58.6392" stroke="#263238" stroke-linecap="round" stroke-linejoin="round"/>
<path d="M40.5983 59.9511C40.5983 59.9511 40.1009 60.4328 39.0984 60.0255" stroke="#263238" stroke-linecap="round" stroke-linejoin="round"/>
<path d="M41.589 56.2347C41.589 56.5245 41.4676 56.7673 41.2875 56.7751C41.1074 56.783 40.9507 56.5558 40.935 56.2699C40.9194 55.9841 41.0564 55.7413 41.2366 55.7295C41.4167 55.7178 41.5616 55.9488 41.589 56.2347Z" fill="#263238"/>
</svg>
