<svg xmlns="http://www.w3.org/2000/svg" viewBox="0 0 500 500"><g id="freepik--Plants--inject-82"><g id="freepik--plants--inject-82"><path d="M71.88,333.87S73,319.25,68,306.79s-13.44-21.25-22.43-23.71-18,4.52-9.29,12.14S61.14,312,65,335.12Z" style="fill:#37474f"></path><path d="M69.92,329.64H70a.49.49,0,0,0,.39-.58c-5.1-25.55-21.53-38.94-29.51-42.46a.5.5,0,0,0-.4.91c7.81,3.44,23.92,16.6,28.94,41.74A.48.48,0,0,0,69.92,329.64Z" style="fill:#fff"></path><path d="M30.09,323.17c.39,1.66,1.91,2.78,3.35,3.71s3,1.92,3.56,3.53c1.14,3.25-2.43,6.84-1.16,10A5.36,5.36,0,0,0,39,343.22c1.12.43,2.3.66,3.46,1a14.26,14.26,0,0,0,1.7.19,7.84,7.84,0,0,1,4.75,1.44c2.08,1.76,2.23,4.84,3.21,7.37a11.27,11.27,0,0,0,6.91,6.42c2.57.86,6.64,1,7.55,0,.69-.79-.35-3.76-.18-4.79a44.1,44.1,0,0,0,.5-8,14.92,14.92,0,0,1,.17-3.66q.41-2,.78-4.05c.39-2.18,1.11-4.51.58-6.74-.59-2.45-3.12-3-3.65-5.38-.22-1-.24-1.94-.44-2.9a8,8,0,0,0-5.76-5.91c-4.38-1.07-9,1.76-13.4.59a32.71,32.71,0,0,1-3.27-1.3c-3.45-1.35-7.79-1.12-10.39,1.53A4.73,4.73,0,0,0,30.09,323.17Z" style="fill:#455a64"></path><path d="M65.69,352.64h0a.4.4,0,0,0,.36-.41c-1.74-24.12-25.28-32.06-31-32.73a.39.39,0,0,0-.43.34.38.38,0,0,0,.34.42c5.61.66,28.64,8.42,30.34,32A.38.38,0,0,0,65.69,352.64Z" style="fill:#fff"></path><path d="M41,335.88a.34.34,0,0,0,.22-.07,20.49,20.49,0,0,1,17.35-1.49.39.39,0,0,0,.25-.73,21.2,21.2,0,0,0-18,1.59.38.38,0,0,0-.1.53A.37.37,0,0,0,41,335.88Z" style="fill:#fff"></path></g></g><g id="freepik--Window--inject-82"><g id="freepik--window--inject-82"><g id="freepik--window--inject-82"><polygon points="75 193.95 79.14 196.34 182.5 136.66 178.37 134.28 75 193.95" style="fill:#f5f5f5"></polygon><polygon points="130.82 68.14 130.82 164.12 134.95 161.73 134.95 65.75 130.82 68.14" style="fill:#ebebeb"></polygon><polygon points="128.75 66.94 130.82 68.14 130.82 164.12 128.75 162.92 128.75 66.94" style="fill:#e0e0e0"></polygon><polygon points="130.82 68.14 134.95 65.75 132.89 64.55 128.75 66.94 130.82 68.14" style="fill:#fafafa"></polygon><path d="M186.63,33.52,75,98V203.5l111.63-64.45ZM182.5,136.66,79.14,196.34v-96L182.5,40.68Z" style="fill:#ebebeb"></path><polygon points="182.5 136.66 178.37 134.28 178.36 43.07 182.5 40.68 182.5 136.66" style="fill:#e0e0e0"></polygon><polygon points="186.63 33.52 182.5 31.13 70.87 95.58 75 97.97 186.63 33.52" style="fill:#f5f5f5"></polygon><polygon points="70.87 95.58 75 97.97 75 203.5 70.87 201.11 70.87 95.58" style="fill:#e0e0e0"></polygon><polygon points="130.82 70.52 134.94 68.14 134.94 70.53 130.82 72.91 130.82 70.52" style="opacity:0.1"></polygon><polygon points="130.82 72.91 128.75 71.71 130.82 70.52 130.82 72.91" style="opacity:0.1"></polygon></g></g></g><g id="freepik--Cabinet--inject-82"><g id="freepik--cabinet--inject-82"><g id="freepik--cabinet--inject-82"><polygon points="231.52 381.09 172.35 346.93 172.35 161.48 231.52 195.64 231.52 381.09" style="fill:#263238"></polygon><polygon points="231.52 195.64 316.05 146.84 316.05 332.29 231.52 381.09 231.52 195.64" style="fill:#37474f"></polygon><polygon points="316.05 146.84 231.52 195.64 172.35 161.48 256.88 112.68 316.05 146.84" style="fill:#455a64"></polygon><polygon points="239.97 315.83 307.6 276.79 307.6 323.79 309.15 324.69 241.53 363.73 239.97 362.83 239.97 315.83" style="fill:#263238"></polygon><polygon points="241.53 316.73 309.15 277.69 309.15 324.69 241.53 363.73 241.53 316.73" style="fill:#455a64"></polygon><g style="opacity:0.05"><polygon points="241.53 316.73 309.15 277.69 309.15 324.69 241.53 363.73 241.53 316.73"></polygon></g><path d="M268,309.39l11.5-6.64c1.49-.86,2.7-.46,2.7.88a5.39,5.39,0,0,1-2.71,4L268,314.27c-1.49.87-2.7.47-2.7-.88A5.43,5.43,0,0,1,268,309.39Z" style="fill:#263238"></path><polygon points="239.97 259.08 307.6 220.04 307.6 267.04 309.15 267.94 241.53 306.98 239.97 306.08 239.97 259.08" style="fill:#263238"></polygon><polygon points="241.53 259.98 309.15 220.94 309.15 267.94 241.53 306.98 241.53 259.98" style="fill:#455a64"></polygon><g style="opacity:0.05"><polygon points="241.53 259.98 309.15 220.94 309.15 267.94 241.53 306.98 241.53 259.98"></polygon></g><path d="M268,252.64l11.5-6.64c1.49-.86,2.7-.46,2.7.88a5.39,5.39,0,0,1-2.71,4L268,257.52c-1.49.87-2.7.47-2.7-.88A5.43,5.43,0,0,1,268,252.64Z" style="fill:#263238"></path><polygon points="239.97 202.33 307.6 163.29 307.6 210.28 239.97 249.32 239.97 202.33" style="fill:#263238"></polygon></g><g id="freepik--Drawer--inject-82"><polygon points="341.41 190.76 303.89 169.11 303.88 210.52 341.4 232.17 341.41 190.76" style="fill:#37474f"></polygon><g style="opacity:0.1"><polygon points="341.41 190.76 303.89 169.11 303.88 210.52 341.4 232.17 341.41 190.76"></polygon></g><polygon points="306.51 167.59 303.88 169.11 341.41 190.76 344.03 189.25 306.51 167.59" style="fill:#455a64"></polygon><path d="M317.08,172.16a.92.92,0,0,0-.37-.83.37.37,0,0,0-.09-.06l-1.91-1.11h0a.92.92,0,0,0-.93.09l-38.21,22-1.12-4.49a1.23,1.23,0,0,0-.55-.73h0l-2-1.16h0a1.19,1.19,0,0,0-1.21,0l-16.26,9.39a2.91,2.91,0,0,0-1.32,2.29v54.21a.92.92,0,0,0,.36.84h0l2,1.19h0a1,1,0,0,0,.9-.11l59.36-34.27a2.92,2.92,0,0,0,1.32-2.29Z" style="fill:#8BBF99"></path><path d="M273.86,187.05a1.19,1.19,0,0,0-1.18,0l-16.26,9.39a2.7,2.7,0,0,0-.93,1l-2-1.16a2.78,2.78,0,0,1,.93-1L270.7,186a1.19,1.19,0,0,1,1.21,0h0Z" style="opacity:0.2"></path><path d="M316.62,171.27a1,1,0,0,0-.87.13L277.5,193.47a1.16,1.16,0,0,1-1.77-.7l-.17-.48,38.21-22a1.21,1.21,0,0,1,.59-.18.64.64,0,0,1,.34.09h0Z" style="opacity:0.2"></path><path d="M317.08,172.17l0,45a2.91,2.91,0,0,1-1.32,2.29l-59.51,34.36a.78.78,0,0,1-1.17-.68V198.78a3,3,0,0,1,1.32-2.29l16.26-9.38a1.19,1.19,0,0,1,1.19-.06l0,0h0a1.23,1.23,0,0,1,.55.73l1.12,4.49.17.48a1.16,1.16,0,0,0,1.77.71l38.25-22.07a1,1,0,0,1,.87-.13l.05,0h0A1,1,0,0,1,317.08,172.17Z" style="fill:#8BBF99"></path><path d="M317.08,172.17l0,45a2.91,2.91,0,0,1-1.32,2.29l-59.51,34.36a.78.78,0,0,1-1.17-.68V198.78a3,3,0,0,1,1.32-2.29l16.26-9.38a1.19,1.19,0,0,1,1.19-.06l0,0h0a1.23,1.23,0,0,1,.55.73l1.12,4.49.17.48a1.16,1.16,0,0,0,1.77.71l38.25-22.07a1,1,0,0,1,.87-.13l.05,0h0A1,1,0,0,1,317.08,172.17Z" style="opacity:0.30000000000000004"></path><polygon points="278.01 195.43 278.01 188.32 282.24 185.88 282.24 192.99 278.01 195.43" style="fill:#e0e0e0"></polygon><path d="M255.58,253.89l-.06,0-2-1.19a1,1,0,0,1-.36-.84V197.62a2.71,2.71,0,0,1,.39-1.3l2,1.16h0a2.68,2.68,0,0,0-.39,1.3v54.39A.77.77,0,0,0,255.58,253.89Z" style="opacity:0.5"></path><path d="M323.45,175.88a.94.94,0,0,0-.37-.84l-.09,0-1.91-1.12h0a.92.92,0,0,0-.93.09l-38.21,22-1.12-4.49a1.26,1.26,0,0,0-.55-.73h0l-2-1.16h0a1.19,1.19,0,0,0-1.21,0l-16.26,9.39a2.92,2.92,0,0,0-1.32,2.29v54.22a.92.92,0,0,0,.36.83h0l2,1.19h0a1,1,0,0,0,.9-.11l59.36-34.27a2.91,2.91,0,0,0,1.32-2.29Z" style="fill:#8BBF99"></path><path d="M280.24,190.76a1.19,1.19,0,0,0-1.19.06l-16.26,9.38a2.78,2.78,0,0,0-.93,1l-2-1.15a2.7,2.7,0,0,1,.93-1l16.26-9.39a1.19,1.19,0,0,1,1.21,0h0Z" style="opacity:0.1"></path><path d="M323,175a1,1,0,0,0-.87.13l-38.25,22.07a1.16,1.16,0,0,1-1.77-.71l-.17-.48,38.21-22a1.21,1.21,0,0,1,.59-.18.75.75,0,0,1,.34.09h0Z" style="opacity:0.1"></path><path d="M323.45,175.88l0,45a2.92,2.92,0,0,1-1.32,2.29l-59.51,34.35a.78.78,0,0,1-1.17-.67v-54.4a2.68,2.68,0,0,1,.39-1.3,2.75,2.75,0,0,1,.93-1l16.26-9.39a1.16,1.16,0,0,1,1.19,0h0a1.25,1.25,0,0,1,.55.74l1.12,4.48.17.49a1.16,1.16,0,0,0,1.77.7l38.25-22.07A1,1,0,0,1,323,175l.05,0,0,0h0A.94.94,0,0,1,323.45,175.88Z" style="fill:#8BBF99"></path><path d="M323.45,175.88l0,45a2.92,2.92,0,0,1-1.32,2.29l-59.51,34.35a.78.78,0,0,1-1.17-.67v-54.4a2.68,2.68,0,0,1,.39-1.3,2.75,2.75,0,0,1,.93-1l16.26-9.39a1.16,1.16,0,0,1,1.19,0h0a1.25,1.25,0,0,1,.55.74l1.12,4.48.17.49a1.16,1.16,0,0,0,1.77.7l38.25-22.07A1,1,0,0,1,323,175l.05,0,0,0h0A.94.94,0,0,1,323.45,175.88Z" style="opacity:0.2"></path><polygon points="293.51 193.88 293.51 186.77 297.73 184.32 297.74 191.44 293.51 193.88" style="fill:#e6e6e6"></polygon><path d="M262,257.6l-.06,0-2-1.18a1,1,0,0,1-.36-.84V201.34a2.65,2.65,0,0,1,.39-1.3l2,1.15h0a2.64,2.64,0,0,0-.39,1.29v54.39A.77.77,0,0,0,262,257.6Z" style="opacity:0.4"></path><path d="M329.82,179.59a.92.92,0,0,0-.37-.83.37.37,0,0,0-.09-.06l-1.91-1.11h0a1,1,0,0,0-.93.1l-38.21,22-1.12-4.48a1.2,1.2,0,0,0-.55-.73h0l-2-1.15h0a1.15,1.15,0,0,0-1.21,0l-16.26,9.38a2.92,2.92,0,0,0-1.32,2.29v54.22a1,1,0,0,0,.36.84h0l2,1.18h0a.92.92,0,0,0,.9-.11l59.36-34.26a2.94,2.94,0,0,0,1.32-2.29Z" style="fill:#8BBF99"></path><path d="M286.61,194.48a1.19,1.19,0,0,0-1.19.05l-16.26,9.38a2.87,2.87,0,0,0-.93,1l-2-1.15a2.7,2.7,0,0,1,.93-1l16.26-9.38a1.15,1.15,0,0,1,1.21,0h0Z" style="fill:#8BBF99"></path><path d="M329.36,178.7a1,1,0,0,0-.87.13L290.24,200.9a1.16,1.16,0,0,1-1.77-.7l-.17-.49,38.21-22a1.11,1.11,0,0,1,.59-.18.74.74,0,0,1,.34.08h0Z" style="fill:#8BBF99"></path><path d="M329.82,179.59l0,45a2.92,2.92,0,0,1-1.32,2.29L269,261.27a.78.78,0,0,1-1.17-.67V206.21a3,3,0,0,1,1.32-2.29l16.26-9.39a1.21,1.21,0,0,1,1.19-.05l0,0h0a1.2,1.2,0,0,1,.55.73l1.12,4.49.17.48a1.16,1.16,0,0,0,1.77.7l38.25-22.07a1,1,0,0,1,.87-.13l.05,0,0,0h0A.94.94,0,0,1,329.82,179.59Z" style="fill:#8BBF99"></path><path d="M329.82,179.59l0,45a2.92,2.92,0,0,1-1.32,2.29L269,261.27a.78.78,0,0,1-1.17-.67V206.21a3,3,0,0,1,1.32-2.29l16.26-9.39a1.21,1.21,0,0,1,1.19-.05l0,0h0a1.2,1.2,0,0,1,.55.73l1.12,4.49.17.48a1.16,1.16,0,0,0,1.77.7l38.25-22.07a1,1,0,0,1,.87-.13l.05,0,0,0h0A.94.94,0,0,1,329.82,179.59Z" style="opacity:0.1"></path><polygon points="309 192.32 309.01 185.21 313.23 182.77 313.23 189.88 309 192.32" style="fill:#f0f0f0"></polygon><path d="M268.32,261.32l-.06,0-2-1.19a1,1,0,0,1-.36-.84V205.05a2.71,2.71,0,0,1,.39-1.3l2,1.15h0a2.68,2.68,0,0,0-.39,1.3V260.6A.8.8,0,0,0,268.32,261.32Z" style="opacity:0.30000000000000004"></path><path d="M336.19,183.3a.94.94,0,0,0-.36-.83l-.1-.06-1.91-1.11h0a.92.92,0,0,0-.93.09l-38.21,22-1.12-4.49a1.23,1.23,0,0,0-.55-.73h0l-2-1.16h0a1.17,1.17,0,0,0-1.21,0l-16.26,9.39a2.91,2.91,0,0,0-1.32,2.28V263a1,1,0,0,0,.36.84h0l2,1.19h0a.94.94,0,0,0,.9-.11l59.36-34.27a2.92,2.92,0,0,0,1.32-2.29Z" style="fill:#8BBF99"></path><path d="M293,198.19a1.21,1.21,0,0,0-1.19.05l-16.26,9.39a2.7,2.7,0,0,0-.93,1l-2-1.16a2.78,2.78,0,0,1,.93-1l16.26-9.38a1.19,1.19,0,0,1,1.21,0h0Z" style="fill:#fff;opacity:0.5"></path><path d="M335.73,182.41a1,1,0,0,0-.87.13l-38.25,22.07a1.16,1.16,0,0,1-1.77-.7l-.17-.48,38.21-22a1.21,1.21,0,0,1,.59-.18.64.64,0,0,1,.34.09h0Z" style="fill:#fff;opacity:0.5"></path><path d="M336.19,183.31l0,45a2.91,2.91,0,0,1-1.32,2.29L275.38,265a.78.78,0,0,1-1.17-.68V209.92a3,3,0,0,1,1.32-2.29l16.26-9.38a1.19,1.19,0,0,1,1.19-.06l0,0h0a1.23,1.23,0,0,1,.55.73l1.12,4.49.17.48a1.16,1.16,0,0,0,1.77.71l38.25-22.08a1,1,0,0,1,.87-.12l0,0h.05A1,1,0,0,1,336.19,183.31Z" style="fill:#8BBF99"></path><polygon points="324.5 190.76 324.5 183.66 328.73 181.21 328.73 188.32 324.5 190.76" style="fill:#fafafa"></polygon><path d="M274.69,265l-.06,0-2-1.19a1,1,0,0,1-.36-.84V208.76a2.71,2.71,0,0,1,.39-1.3l2,1.16h0a2.68,2.68,0,0,0-.39,1.3v54.39A.77.77,0,0,0,274.69,265Z" style="opacity:0.2"></path><polygon points="279.05 226.76 241.53 205.12 241.52 246.52 279.04 268.17 279.05 226.76" style="fill:#37474f"></polygon><polygon points="244.15 203.6 241.52 205.11 279.05 226.76 281.67 225.25 244.15 203.6" style="fill:#455a64"></polygon><polygon points="278.29 224.45 345.91 185.41 345.91 232.41 278.29 271.45 278.29 224.45" style="fill:#455a64"></polygon><path d="M304.8,217.11l11.5-6.64c1.49-.86,2.7-.46,2.7.88a5.41,5.41,0,0,1-2.7,4L304.79,222c-1.49.86-2.7.47-2.7-.88A5.41,5.41,0,0,1,304.8,217.11Z" style="fill:#263238"></path><polygon points="278.29 224.45 276.04 223.15 276.04 270.15 278.29 271.45 278.29 224.45" style="fill:#263238"></polygon><polygon points="276.04 223.15 343.66 184.11 345.91 185.41 278.29 224.45 276.04 223.15" style="fill:#37474f"></polygon></g></g></g><g id="freepik--Boxes--inject-82"><g id="freepik--Box--inject-82"><polygon points="134.84 400.44 134.84 357.37 190.8 325.06 190.8 368.13 134.84 400.44" style="fill:#8BBF99"></polygon><polygon points="134.84 357.37 64.9 316.98 64.9 360.06 134.84 400.44 134.84 357.37" style="fill:#8BBF99"></polygon><polygon points="134.84 357.37 64.9 316.98 64.9 360.06 134.84 400.44 134.84 357.37" style="opacity:0.15"></polygon><polygon points="134.84 357.37 192.46 324.09 120.85 282.74 63.24 316.02 134.84 357.37" style="fill:#8BBF99"></polygon><polygon points="134.84 357.37 192.46 324.09 120.85 282.74 63.24 316.02 134.84 357.37" style="fill:#fff;opacity:0.45"></polygon><polygon points="134.84 357.37 134.84 368.14 192.46 334.87 192.46 324.09 134.84 357.37" style="fill:#8BBF99"></polygon><polygon points="134.84 368.14 190.8 335.83 190.8 338.2 134.84 370.5 134.84 368.14" style="opacity:0.2"></polygon><polygon points="63.24 316.02 134.84 357.37 134.84 368.14 63.24 326.79 63.24 316.02" style="fill:#8BBF99"></polygon><polygon points="63.24 316.02 134.84 357.37 134.84 368.14 63.24 326.79 63.24 316.02" style="opacity:0.2"></polygon><polygon points="134.84 368.14 64.9 327.75 64.9 330.12 134.84 370.5 134.84 368.14" style="opacity:0.2"></polygon><path d="M153.27,363.91l19.11-11c.82-.48,1.49-.09,1.49.86V365a3.29,3.29,0,0,1-1.49,2.58l-19.11,11c-.83.47-1.5.09-1.5-.86V366.5A3.29,3.29,0,0,1,153.27,363.91Z" style="fill:#455a64"></path><path d="M154.49,365.19l16.67-9.62c.54-.31,1-.06,1,.58v8.47a2.23,2.23,0,0,1-1,1.72L154.49,376c-.55.32-1,.06-1-.57v-8.47A2.2,2.2,0,0,1,154.49,365.19Z" style="fill:#f5f5f5"></path><g style="opacity:0.5"><path d="M155,367.43a.22.22,0,0,1-.2-.12.24.24,0,0,1,.08-.33l15.74-9.08a.24.24,0,0,1,.33.08.25.25,0,0,1-.09.34l-15.73,9.08A.28.28,0,0,1,155,367.43Z" style="fill:#455a64"></path><path d="M155,369.51a.22.22,0,0,1-.2-.12.24.24,0,0,1,.08-.33L170.57,360a.24.24,0,0,1,.33.08.25.25,0,0,1-.09.34l-15.73,9.08A.28.28,0,0,1,155,369.51Z" style="fill:#455a64"></path><path d="M155,371.59a.22.22,0,0,1-.2-.12.24.24,0,0,1,.08-.33l15.74-9.08a.24.24,0,0,1,.33.08.25.25,0,0,1-.09.34l-15.73,9.08A.28.28,0,0,1,155,371.59Z" style="fill:#455a64"></path><path d="M155,373.67a.22.22,0,0,1-.2-.12.24.24,0,0,1,.08-.33l15.74-9.08a.24.24,0,0,1,.24.42l-15.73,9.08A.28.28,0,0,1,155,373.67Z" style="fill:#455a64"></path></g></g><polygon id="freepik--shadow--inject-82" points="187.78 321.39 134.84 351.95 67.92 313.29 66.28 314.26 134.84 353.71 189.43 322.34 187.78 321.39" style="opacity:0.1"></polygon><g id="freepik--box--inject-82"><polygon points="134.84 351.95 134.84 308.88 190.8 276.57 190.8 319.64 134.84 351.95" style="fill:#8BBF99"></polygon><polygon points="134.84 308.88 64.9 268.49 64.9 311.57 134.84 351.95 134.84 308.88" style="fill:#8BBF99"></polygon><polygon points="134.84 308.88 64.9 268.49 64.9 311.57 134.84 351.95 134.84 308.88" style="opacity:0.15"></polygon><polygon points="134.84 308.88 192.46 275.6 120.85 234.25 63.24 267.53 134.84 308.88" style="fill:#8BBF99"></polygon><polygon points="134.84 308.88 192.46 275.6 120.85 234.25 63.24 267.53 134.84 308.88" style="fill:#fff;opacity:0.6000000000000001"></polygon><polygon points="134.84 308.88 134.84 319.64 192.46 286.38 192.46 275.6 134.84 308.88" style="fill:#8BBF99"></polygon><polygon points="134.84 319.64 190.8 287.34 190.8 289.71 134.84 322.01 134.84 319.64" style="opacity:0.2"></polygon><polygon points="63.24 267.53 134.84 308.88 134.84 319.64 63.24 278.3 63.24 267.53" style="fill:#8BBF99"></polygon><polygon points="63.24 267.53 134.84 308.88 134.84 319.64 63.24 278.3 63.24 267.53" style="opacity:0.2"></polygon><polygon points="134.84 319.64 64.9 279.26 64.9 281.63 134.84 322.01 134.84 319.64" style="opacity:0.2"></polygon><path d="M153.27,315.42l19.11-11c.82-.48,1.49-.09,1.49.86v11.3a3.29,3.29,0,0,1-1.49,2.58l-19.11,11c-.83.47-1.5.09-1.5-.86V318A3.29,3.29,0,0,1,153.27,315.42Z" style="fill:#455a64"></path><path d="M154.49,316.7l16.67-9.62c.54-.31,1-.06,1,.58v8.47a2.23,2.23,0,0,1-1,1.72l-16.67,9.62c-.55.32-1,.06-1-.57v-8.47A2.2,2.2,0,0,1,154.49,316.7Z" style="fill:#f5f5f5"></path><g style="opacity:0.5"><path d="M155,318.94a.22.22,0,0,1-.2-.12.24.24,0,0,1,.08-.33l15.74-9.08a.24.24,0,0,1,.33.08.23.23,0,0,1-.09.33l-15.73,9.09A.28.28,0,0,1,155,318.94Z" style="fill:#455a64"></path><path d="M155,321a.22.22,0,0,1-.2-.12.24.24,0,0,1,.08-.33l15.74-9.08a.24.24,0,0,1,.33.08.25.25,0,0,1-.09.34L155.08,321A.28.28,0,0,1,155,321Z" style="fill:#455a64"></path><path d="M155,323.1a.22.22,0,0,1-.2-.12.24.24,0,0,1,.08-.33l15.74-9.08a.24.24,0,0,1,.33.08.25.25,0,0,1-.09.34l-15.73,9.08A.28.28,0,0,1,155,323.1Z" style="fill:#455a64"></path><path d="M155,325.18a.22.22,0,0,1-.2-.12.24.24,0,0,1,.08-.33l15.74-9.08a.24.24,0,0,1,.24.42l-15.73,9.08A.28.28,0,0,1,155,325.18Z" style="fill:#455a64"></path></g></g></g></svg>