<svg xmlns="http://www.w3.org/2000/svg" viewBox="0 0 500 500"><g id="freepik--background-complete--inject-114"><rect y="382.4" width="500" height="0.25" style="fill:#ebebeb"></rect><rect x="416.78" y="398.49" width="33.12" height="0.25" style="fill:#ebebeb"></rect><rect x="322.53" y="401.21" width="8.69" height="0.25" style="fill:#ebebeb"></rect><rect x="396.59" y="389.21" width="19.19" height="0.25" style="fill:#ebebeb"></rect><rect x="52.46" y="390.89" width="43.19" height="0.25" style="fill:#ebebeb"></rect><rect x="104.56" y="390.89" width="6.33" height="0.25" style="fill:#ebebeb"></rect><rect x="131.47" y="395.11" width="93.68" height="0.25" style="fill:#ebebeb"></rect><path d="M237,337.8H43.91a5.71,5.71,0,0,1-5.7-5.71V60.66A5.71,5.71,0,0,1,43.91,55H237a5.71,5.71,0,0,1,5.71,5.71V332.09A5.71,5.71,0,0,1,237,337.8ZM43.91,55.2a5.46,5.46,0,0,0-5.45,5.46V332.09a5.46,5.46,0,0,0,5.45,5.46H237a5.47,5.47,0,0,0,5.46-5.46V60.66A5.47,5.47,0,0,0,237,55.2Z" style="fill:#ebebeb"></path><path d="M453.31,337.8H260.21a5.72,5.72,0,0,1-5.71-5.71V60.66A5.72,5.72,0,0,1,260.21,55h193.1A5.71,5.71,0,0,1,459,60.66V332.09A5.71,5.71,0,0,1,453.31,337.8ZM260.21,55.2a5.47,5.47,0,0,0-5.46,5.46V332.09a5.47,5.47,0,0,0,5.46,5.46h193.1a5.47,5.47,0,0,0,5.46-5.46V60.66a5.47,5.47,0,0,0-5.46-5.46Z" style="fill:#ebebeb"></path><rect x="258.34" y="279.48" width="28.89" height="102.92" transform="translate(545.58 661.88) rotate(180)" style="fill:#e6e6e6"></rect><polygon points="263.83 382.4 258.34 382.4 258.34 372.86 269.58 372.86 263.83 382.4" style="fill:#f0f0f0"></polygon><rect x="423.17" y="279.48" width="28.89" height="102.92" transform="translate(875.24 661.88) rotate(180)" style="fill:#e6e6e6"></rect><rect x="258.34" y="279.48" width="169.62" height="100.42" transform="translate(686.31 659.37) rotate(180)" style="fill:#f0f0f0"></rect><rect x="352.74" y="304.74" width="88.88" height="50.28" transform="translate(67.3 727.06) rotate(-90)" style="fill:#e6e6e6"></rect><path d="M392.21,290.54h9.94a14.77,14.77,0,0,0,11.43-5.74h-32.8A14.8,14.8,0,0,0,392.21,290.54Z" style="fill:#f0f0f0"></path><rect x="298.71" y="304.74" width="88.88" height="50.28" transform="translate(13.27 673.04) rotate(-90)" style="fill:#e6e6e6"></rect><path d="M337.67,290.54h9.95A14.77,14.77,0,0,0,359,284.8H326.25A14.77,14.77,0,0,0,337.67,290.54Z" style="fill:#f0f0f0"></path><rect x="244.68" y="304.74" width="88.88" height="50.28" transform="translate(-40.76 619.01) rotate(-90)" style="fill:#e6e6e6"></rect><path d="M283.64,290.54h9.95A14.77,14.77,0,0,0,305,284.8H272.22A14.77,14.77,0,0,0,283.64,290.54Z" style="fill:#f0f0f0"></path><polygon points="422.48 382.4 427.96 382.4 427.96 372.86 416.72 372.86 422.48 382.4" style="fill:#f0f0f0"></polygon><rect x="76.65" y="87.69" width="193.83" height="165.03" transform="translate(347.13 340.41) rotate(180)" style="fill:#e6e6e6"></rect><rect x="72.29" y="87.69" width="196.29" height="165.03" transform="translate(340.87 340.41) rotate(180)" style="fill:#f5f5f5"></rect><rect x="95.84" y="79.89" width="149.19" height="180.63" transform="translate(340.64 -0.23) rotate(90)" style="fill:#fafafa"></rect><polygon points="238.59 244.8 167.5 95.61 143.35 95.61 214.44 244.8 238.59 244.8" style="fill:#fff"></polygon><polygon points="207.6 244.8 136.5 95.61 119.88 95.61 190.97 244.8 207.6 244.8" style="fill:#fff"></polygon><rect x="67.92" y="165.53" width="149.19" height="9.34" transform="translate(312.73 27.68) rotate(90)" style="fill:#e6e6e6"></rect><rect x="130.01" y="165.53" width="149.19" height="9.34" transform="translate(374.81 -34.41) rotate(90)" style="fill:#e6e6e6"></rect><rect x="59.55" y="163.87" width="160.11" height="11.81" transform="translate(309.38 30.17) rotate(90)" style="fill:#f5f5f5"></rect><rect x="121.64" y="163.87" width="160.11" height="11.81" transform="translate(371.46 -31.92) rotate(90)" style="fill:#f5f5f5"></rect><rect x="5.94" y="169.79" width="149.19" height="0.83" transform="translate(250.74 89.67) rotate(90)" style="fill:#e6e6e6"></rect><path d="M69,77.5H279a1,1,0,0,1,1,1h0a1,1,0,0,1-1,1H69a1,1,0,0,1-1-1h0A1,1,0,0,1,69,77.5Z" style="fill:#e6e6e6"></path><path d="M270.48,84.17h0a1.37,1.37,0,0,0,1.36-1.37V79.87a1.36,1.36,0,0,0-1.36-1.36h0a1.37,1.37,0,0,0-1.37,1.36V82.8A1.38,1.38,0,0,0,270.48,84.17Z" style="fill:#e6e6e6"></path><path d="M84.23,84.17h0A1.38,1.38,0,0,0,85.6,82.8V79.87a1.37,1.37,0,0,0-1.37-1.36h0a1.36,1.36,0,0,0-1.36,1.36V82.8A1.37,1.37,0,0,0,84.23,84.17Z" style="fill:#e6e6e6"></path><rect x="69.33" y="78.51" width="196.15" height="81.91" transform="translate(334.8 238.93) rotate(180)" style="fill:#e0e0e0;opacity:0.6000000000000001"></rect><rect x="72.01" y="299.75" width="5.04" height="82.64" transform="translate(149.06 682.15) rotate(180)" style="fill:#e6e6e6"></rect><rect x="162.95" y="283.67" width="27.29" height="16.08" style="fill:#e6e6e6"></rect><rect x="54.56" y="283.67" width="108.39" height="16.08" transform="translate(217.51 583.43) rotate(180)" style="fill:#f5f5f5"></rect><rect x="162.95" y="309.75" width="27.29" height="16.08" style="fill:#e6e6e6"></rect><rect x="54.56" y="309.75" width="108.39" height="16.08" transform="translate(217.51 635.59) rotate(180)" style="fill:#f5f5f5"></rect><rect x="162.95" y="335.84" width="27.29" height="16.08" style="fill:#e6e6e6"></rect><rect x="54.56" y="335.84" width="108.39" height="16.08" transform="translate(217.51 687.76) rotate(180)" style="fill:#f5f5f5"></rect><rect x="180.4" y="299.75" width="5.04" height="82.64" transform="translate(365.84 682.15) rotate(180)" style="fill:#e6e6e6"></rect><rect x="157.91" y="299.75" width="5.04" height="82.64" transform="translate(320.86 682.15) rotate(180)" style="fill:#f5f5f5"></rect><rect x="54.56" y="299.75" width="5.04" height="82.64" transform="translate(114.16 682.15) rotate(180)" style="fill:#f5f5f5"></rect></g><g id="freepik--Invoice--inject-114"><path d="M396,370.84H233.6a11.4,11.4,0,0,1-11.49-12.44L242,97.63A13.7,13.7,0,0,1,255.4,85.19H417.8a11.39,11.39,0,0,1,11.49,12.44L409.4,358.4A13.71,13.71,0,0,1,396,370.84Z" style="fill:#8BBF99"></path><path d="M396,370.84H233.6a11.4,11.4,0,0,1-11.49-12.44L242,97.63A13.7,13.7,0,0,1,255.4,85.19H417.8a11.39,11.39,0,0,1,11.49,12.44L409.4,358.4A13.71,13.71,0,0,1,396,370.84Z" style="fill:#fff;opacity:0.5"></path><path d="M393.59,370.84H231.18a11.4,11.4,0,0,1-11.49-12.44l19.9-260.77A13.7,13.7,0,0,1,253,85.19h162.4a11.39,11.39,0,0,1,11.49,12.44L407,358.4A13.7,13.7,0,0,1,393.59,370.84Z" style="fill:#8BBF99"></path><path d="M393.59,370.84H231.18a11.4,11.4,0,0,1-11.49-12.44l19.9-260.77A13.7,13.7,0,0,1,253,85.19h162.4a11.39,11.39,0,0,1,11.49,12.44L407,358.4A13.7,13.7,0,0,1,393.59,370.84Z" style="fill:#fff;opacity:0.7000000000000001"></path><path d="M231.5,366.69a7.58,7.58,0,0,1-7.66-8.29l19.63-257.31a9.11,9.11,0,0,1,8.93-8.29H414.8a7.58,7.58,0,0,1,7.66,8.29L402.83,358.4a9.11,9.11,0,0,1-8.92,8.29Z" style="fill:#8BBF99"></path><path d="M392.76,136.08H276.54a4.5,4.5,0,0,1-4.54-4.92h0a5.42,5.42,0,0,1,5.29-4.91H393.51a4.49,4.49,0,0,1,4.54,4.91h0A5.4,5.4,0,0,1,392.76,136.08Z" style="opacity:0.2"></path><path d="M343.18,90.26H324.41a1.11,1.11,0,0,1-1.12-1.21h0a1.34,1.34,0,0,1,1.3-1.21h18.78a1.11,1.11,0,0,1,1.11,1.21h0A1.32,1.32,0,0,1,343.18,90.26Z" style="fill:#8BBF99;opacity:0.30000000000000004"></path><path d="M276,131.16a12.42,12.42,0,0,0-12.56-13.6h118A12.42,12.42,0,0,1,394,131.16Z" style="fill:#f0f0f0"></path><path d="M263.47,117.56a14.94,14.94,0,0,0-14.65,13.6L236.73,289.63a14.93,14.93,0,0,1-14.64,13.6h118a14.94,14.94,0,0,0,14.65-13.6l12.09-158.47a14.93,14.93,0,0,1,14.64-13.6Z" style="fill:#fff"></path><path d="M327.52,289.63a12.42,12.42,0,0,0,12.56,13.6h-118a12.42,12.42,0,0,1-12.56-13.6Z" style="fill:#f0f0f0"></path><path d="M258.45,286.5c.45-5.79-1.37-10.47-7.15-10.47h90.86c5.78,0,10.13,5.29,7.16,10.47Z" style="fill:#e0e0e0"></path><path d="M327.52,289.63A14.93,14.93,0,0,1,342.16,276h-118a14.93,14.93,0,0,0-14.64,13.6Z" style="fill:#f0f0f0"></path><path d="M383.31,328.92H247.86a3.27,3.27,0,0,1-3.3-3.57h0a3.93,3.93,0,0,1,3.84-3.57H383.86a3.27,3.27,0,0,1,3.29,3.57h0A3.93,3.93,0,0,1,383.31,328.92Z" style="fill:#fff"></path><path d="M314.91,346.08H246.55a3.26,3.26,0,0,1-3.3-3.57h0a3.93,3.93,0,0,1,3.84-3.57h68.36a3.27,3.27,0,0,1,3.3,3.57h0A3.93,3.93,0,0,1,314.91,346.08Z" style="fill:#fff"></path><path d="M362.24,346.08H334.55a3.26,3.26,0,0,1-3.3-3.57h0a3.93,3.93,0,0,1,3.84-3.57h27.69a3.28,3.28,0,0,1,3.3,3.57h0A3.93,3.93,0,0,1,362.24,346.08Z" style="fill:#fff"></path><path d="M389.93,278.18l-7.07,1.11a6.52,6.52,0,0,0-.81-1.85,4.17,4.17,0,0,0-1.31-1.05l-.42,5.43q5.6,1.53,7.38,3.22a6.86,6.86,0,0,1,2.09,5.76,8.21,8.21,0,0,1-1.2,3.76,10.12,10.12,0,0,1-2.54,2.85,10.28,10.28,0,0,1-3.14,1.67,15.84,15.84,0,0,1-4,.61l-.27,3.54H376l.27-3.54a16.86,16.86,0,0,1-4.41-.89A8.31,8.31,0,0,1,369,297a7.76,7.76,0,0,1-1.73-2.47,10.58,10.58,0,0,1-.77-3.2l7.65-.88a6.72,6.72,0,0,0,.7,2.69,4.21,4.21,0,0,0,1.78,1.46l.5-6.63a33.38,33.38,0,0,1-5.24-1.82,6.49,6.49,0,0,1-2.56-2.47,6.78,6.78,0,0,1-.84-4.15,8.06,8.06,0,0,1,2.76-5.58,11.24,11.24,0,0,1,7.14-2.49l.14-1.86h2.74l-.14,1.86a10.8,10.8,0,0,1,6.28,2A7.3,7.3,0,0,1,389.93,278.18ZM378,276.3a3.9,3.9,0,0,0-1.74,1,2.26,2.26,0,0,0-.58,1.38,2.14,2.14,0,0,0,.37,1.44,3.21,3.21,0,0,0,1.58,1Zm1.33,18.49a4.78,4.78,0,0,0,2.43-1.18,2.9,2.9,0,0,0,.88-1.83,2.28,2.28,0,0,0-.5-1.63,5.09,5.09,0,0,0-2.35-1.38Z" style="fill:#fff"></path><path d="M256.72,161.67h3.37l-.83,10.86H255.9Z" style="fill:#8BBF99"></path><path d="M262.52,161.67h3.13l3.63,6,.46-6h3.16l-.83,10.86h-3.16l-3.61-6-.46,6h-3.15Z" style="fill:#8BBF99"></path><path d="M274.06,161.67h3.51l1.85,7.82,3-7.82h3.4L281,172.53h-3.63Z" style="fill:#8BBF99"></path><path d="M285.57,167.11a6.08,6.08,0,0,1,1.8-4.14,6,6,0,0,1,4.24-1.48,5.31,5.31,0,0,1,4.07,1.45,5.14,5.14,0,0,1,1.15,4.08,6.93,6.93,0,0,1-.88,3.12,5.12,5.12,0,0,1-2,1.9,6.45,6.45,0,0,1-3.07.68,6.64,6.64,0,0,1-3-.59,4.11,4.11,0,0,1-1.81-1.85A6,6,0,0,1,285.57,167.11Zm3.36,0a3.45,3.45,0,0,0,.43,2.37,1.91,1.91,0,0,0,1.61.71,2.21,2.21,0,0,0,1.72-.7,4.17,4.17,0,0,0,.79-2.52,3.18,3.18,0,0,0-.45-2.25,1.93,1.93,0,0,0-1.62-.7,2.21,2.21,0,0,0-1.69.72A3.9,3.9,0,0,0,288.93,167.12Z" style="fill:#8BBF99"></path><path d="M299.18,161.67h3.36l-.82,10.86h-3.37Z" style="fill:#8BBF99"></path><path d="M311.69,168.09l2.87.89a5.85,5.85,0,0,1-1.09,2.06,4.35,4.35,0,0,1-1.67,1.25,6.06,6.06,0,0,1-2.44.43,6.72,6.72,0,0,1-2.85-.52,4,4,0,0,1-1.8-1.81,5.76,5.76,0,0,1-.56-3.31,6.06,6.06,0,0,1,1.75-4.15,5.83,5.83,0,0,1,4.16-1.44,5.15,5.15,0,0,1,3.16.83,4.38,4.38,0,0,1,1.55,2.54l-3,.66a2.36,2.36,0,0,0-.27-.72,1.64,1.64,0,0,0-.64-.59,1.9,1.9,0,0,0-.9-.21,2.13,2.13,0,0,0-1.82.92,4.05,4.05,0,0,0-.62,2.13,3.92,3.92,0,0,0,.36,2.48,1.75,1.75,0,0,0,1.49.67,2,2,0,0,0,1.5-.54A3.75,3.75,0,0,0,311.69,168.09Z" style="fill:#8BBF99"></path><path d="M316.74,161.67h9l-.17,2.32h-5.63l-.13,1.73H325l-.17,2.21h-5.22l-.17,2.14h5.8l-.19,2.46h-9.16Z" style="fill:#8BBF99"></path><polygon points="352.36 186.55 254.83 186.55 255.03 183.85 352.57 183.85 352.36 186.55" style="fill:#8BBF99"></polygon><polygon points="352.36 186.55 254.83 186.55 254.19 194.84 351.73 194.84 352.36 186.55" style="fill:#f0f0f0"></polygon><polygon points="351.1 203.12 253.56 203.12 252.93 211.4 350.47 211.4 351.1 203.12" style="fill:#f0f0f0"></polygon><polygon points="349.83 219.68 252.3 219.68 251.67 227.97 349.2 227.97 349.83 219.68" style="fill:#f0f0f0"></polygon><polygon points="348.57 236.25 251.03 236.25 250.4 244.53 347.94 244.53 348.57 236.25" style="fill:#f0f0f0"></polygon><polygon points="347.1 255.52 249.56 255.52 249.77 252.81 347.31 252.81 347.1 255.52" style="fill:#8BBF99"></polygon><polygon points="335.94 136.08 356.21 136.08 355.29 148.17 335.02 148.17 335.94 136.08" style="fill:#f0f0f0"></polygon></g></svg>