<svg height="480pt" viewBox="-16 0 480 480" width="480pt" xmlns="http://www.w3.org/2000/svg"><path d="m344 72h-240c-17.671875 0-32 14.328125-32 32v288h232c4.417969 0 8 3.582031 8 8v40c0 17.671875 14.328125 32 32 32s32-14.328125 32-32v-336c0-17.671875-14.328125-32-32-32zm0 0" fill="#f9e109"/><path d="m208 368c-53.019531 0-96-42.980469-96-96v-200h-8c-17.671875 0-32 14.328125-32 32v288h232c4.417969 0 8 3.582031 8 8v40c0 17.671875 14.328125 32 32 32s32-14.328125 32-32v-72zm0 0" fill="#fcbc04"/><path d="m304 160h-128c-4.417969 0-8-3.582031-8-8s3.582031-8 8-8h128c4.417969 0 8 3.582031 8 8s-3.582031 8-8 8zm0 0" fill="#2d72bc"/><path d="m304 208h-168c-4.417969 0-8-3.582031-8-8s3.582031-8 8-8h168c4.417969 0 8 3.582031 8 8s-3.582031 8-8 8zm0 0" fill="#7ab92d"/><path d="m304 256h-168c-4.417969 0-8-3.582031-8-8s3.582031-8 8-8h168c4.417969 0 8 3.582031 8 8s-3.582031 8-8 8zm0 0" fill="#2d72bc"/><path d="m304 304h-168c-4.417969 0-8-3.582031-8-8s3.582031-8 8-8h168c4.417969 0 8 3.582031 8 8s-3.582031 8-8 8zm0 0" fill="#a1d51c"/><path d="m272 352h-136c-4.417969 0-8-3.582031-8-8s3.582031-8 8-8h136c4.417969 0 8 3.582031 8 8s-3.582031 8-8 8zm0 0" fill="#2d72bc"/><path d="m312 440v-40c0-4.417969-3.582031-8-8-8h-288c-4.417969 0-8 3.582031-8 8v40c0 17.671875 14.328125 32 32 32h304c-17.671875 0-32-14.328125-32-32zm0 0" fill="#e59730"/><path d="m408 8h-240c-17.671875 0-32 14.328125-32 32v32h208c17.671875 0 32 14.328125 32 32v304h32c17.671875 0 32-14.328125 32-32v-336c0-17.671875-14.328125-32-32-32zm0 0" fill="#4891d3"/><path d="m368 48h-232v24h208c17.671875 0 32 14.328125 32 32v304h24v-328c0-17.671875-14.328125-32-32-32zm0 0" fill="#2d72bc"/><g fill="#39519d"><path d="m344 64h-240c-22.089844 0-40 17.910156-40 40v248c0 4.417969 3.582031 8 8 8s8-3.582031 8-8v-248c0-13.253906 10.746094-24 24-24h240c13.253906 0 24 10.746094 24 24v336c0 13.253906-10.746094 24-24 24s-24-10.746094-24-24v-40c0-8.835938-7.164062-16-16-16h-288c-8.835938 0-16 7.164062-16 16v40c0 22.089844 17.910156 40 40 40h304c22.089844 0 40-17.910156 40-40v-336c0-22.089844-17.910156-40-40-40zm-304 400c-13.253906 0-24-10.746094-24-24v-40h288v40c0 8.65625 2.808594 17.074219 8 24zm0 0"/><path d="m304 160c4.417969 0 8-3.582031 8-8s-3.582031-8-8-8h-128c-4.417969 0-8 3.582031-8 8s3.582031 8 8 8zm0 0"/><path d="m128 200c0 4.417969 3.582031 8 8 8h168c4.417969 0 8-3.582031 8-8s-3.582031-8-8-8h-168c-4.417969 0-8 3.582031-8 8zm0 0"/><path d="m136 256h168c4.417969 0 8-3.582031 8-8s-3.582031-8-8-8h-168c-4.417969 0-8 3.582031-8 8s3.582031 8 8 8zm0 0"/><path d="m136 304h168c4.417969 0 8-3.582031 8-8s-3.582031-8-8-8h-168c-4.417969 0-8 3.582031-8 8s3.582031 8 8 8zm0 0"/><path d="m136 352h136c4.417969 0 8-3.582031 8-8s-3.582031-8-8-8h-136c-4.417969 0-8 3.582031-8 8s3.582031 8 8 8zm0 0"/><path d="m408 0h-240c-22.089844 0-40 17.910156-40 40 0 4.417969 3.582031 8 8 8s8-3.582031 8-8c0-13.253906 10.746094-24 24-24h240c13.253906 0 24 10.746094 24 24v336c0 13.253906-10.746094 24-24 24-4.417969 0-8 3.582031-8 8s3.582031 8 8 8c22.089844 0 40-17.910156 40-40v-336c0-22.089844-17.910156-40-40-40zm0 0"/></g></svg>