<?xml version="1.0"?>
<svg xmlns="http://www.w3.org/2000/svg" xmlns:xlink="http://www.w3.org/1999/xlink" version="1.1" id="Capa_1" x="0px" y="0px" viewBox="0 0 503.641 503.641" style="enable-background:new 0 0 503.641 503.641;" xml:space="preserve" width="512px" height="512px" class=""><g><path style="fill:#E7FFEE" d="M337.502,468.637L337.502,468.637H74.71c-32.914,0-59.037-26.645-59.037-59.037v-38.139h69.486  h196.963V409.6C282.122,441.469,306.678,466.547,337.502,468.637z" data-original="#D4E1F4" class="active-path" data-old_color="#D4E1F4"/><path style="fill:#466B50" d="M487.967,78.89v70.008h-87.771V78.89c0-24.555,19.853-43.886,43.886-43.886  c12.016,0,22.988,4.702,31.347,13.061C483.265,55.902,487.967,66.873,487.967,78.89z" data-original="#00BBD3" class="" data-old_color="#00BBD3"/><path style="fill:#8BBF99" d="M129.045,35.004h315.037c-24.033,0-43.886,19.331-43.886,43.886v70.008V409.6  c0,16.196-6.269,30.824-17.241,41.796c-10.449,10.449-25.6,17.241-41.796,17.241c-1.045,0-2.612,0-3.657,0  c-30.824-2.09-55.38-27.167-55.38-59.037v-38.139H85.159v-0.522l2.09-294.661C87.249,53.29,106.057,35.004,129.045,35.004z" data-original="#4DCFE0" class="" data-old_color="#4DCFE0"/><g>
	<path style="fill:#3A2C51;" d="M486.4,37.094c-11.494-11.494-26.645-17.763-42.318-17.763H129.045   c-31.869,0-57.469,25.6-57.469,56.947l-2.09,279.51H15.673C6.792,355.788,0,362.58,0,371.461V409.6   c0,40.229,31.869,73.143,71.576,74.71l0,0h265.927h3.657c19.853,0,38.661-7.837,53.29-21.943   c14.106-14.629,21.42-33.437,21.42-52.767V164.571h72.098c8.882,0,15.673-6.792,15.673-15.673V78.89   C503.641,62.694,497.371,48.065,486.4,37.094z M31.347,409.6v-22.465h235.102V409.6c0,16.196,5.224,31.347,13.584,43.363H74.71   C50.678,452.963,31.347,433.633,31.347,409.6z M384.522,409.6c0,10.971-4.702,22.465-12.539,30.824   c-8.359,8.359-18.808,12.539-30.824,12.539h-3.135c-22.988-1.567-40.229-20.376-40.229-43.363v-38.139   c0-8.882-6.792-15.673-15.673-15.673h-181.29l2.09-279.51c0-14.106,11.494-25.6,26.122-25.6h262.792   c-4.702,8.359-7.314,17.763-7.314,28.212V409.6z M472.294,133.224h-56.424V78.89c0-15.673,12.539-28.212,28.212-28.212   c7.837,0,14.629,3.135,20.376,8.359c5.224,5.224,7.837,12.016,7.837,19.853L472.294,133.224L472.294,133.224z" data-original="#3A2C51" class=""/>
	<path style="fill:#3A2C51;" d="M233.012,137.926h-80.98c-8.882,0-15.673-6.792-15.673-15.673s6.792-15.673,15.673-15.673h80.98   c8.882,0,15.673,6.792,15.673,15.673S241.894,137.926,233.012,137.926z" data-original="#3A2C51" class=""/>
	<path style="fill:#3A2C51;" d="M327.053,200.62h-175.02c-8.882,0-15.673-6.792-15.673-15.673s6.792-15.673,15.673-15.673h175.02   c8.882,0,15.673,6.792,15.673,15.673S335.935,200.62,327.053,200.62z" data-original="#3A2C51" class=""/>
	<path style="fill:#3A2C51;" d="M327.053,263.314h-175.02c-8.882,0-15.673-6.792-15.673-15.673s6.792-15.673,15.673-15.673h175.02   c8.882,0,15.673,6.792,15.673,15.673S335.935,263.314,327.053,263.314z" data-original="#3A2C51" class=""/>
	<path style="fill:#3A2C51;" d="M327.053,326.008h-175.02c-8.882,0-15.673-6.792-15.673-15.673c0-8.882,6.792-15.673,15.673-15.673   h175.02c8.882,0,15.673,6.792,15.673,15.673C342.727,319.216,335.935,326.008,327.053,326.008z" data-original="#3A2C51" class=""/>
</g></g> </svg>
