<?xml version="1.0" encoding="iso-8859-1"?>
<!-- Generator: Adobe Illustrator 19.0.0, SVG Export Plug-In . SVG Version: 6.00 Build 0)  -->
<svg version="1.1" id="Capa_1" xmlns="http://www.w3.org/2000/svg" xmlns:xlink="http://www.w3.org/1999/xlink" x="0px" y="0px"
	 viewBox="0 0 459.785 459.785" style="enable-background:new 0 0 459.785 459.785;" xml:space="preserve">
<g>
	<g>
		<g>
			<rect x="183.249" y="344.309" style="fill:#00ACEA;" width="175.543" height="105.012"/>
			<circle style="fill:#00ACEA;" cx="85.551" cy="403.345" r="35.004"/>
		</g>
		<g>
			<rect x="183.249" y="177.125" style="fill:#00EFD1;" width="227.788" height="105.012"/>
			<circle style="fill:#00EFD1;" cx="85.551" cy="229.892" r="35.004"/>
		</g>
		<g>
			<rect x="183.249" y="9.941" style="fill:#D4E1F4;" width="175.543" height="105.012"/>
			<circle style="fill:#D4E1F4;" cx="85.551" cy="56.439" r="35.004"/>
		</g>
	</g>
	<g>
		<path style="fill:#083863;" d="M358.792,125.403h-175.02c-5.474,0.297-10.152-3.901-10.449-9.375
			c-0.019-0.358-0.019-0.716,0-1.074V10.464c-0.297-5.474,3.901-10.152,9.375-10.449c0.358-0.019,0.716-0.019,1.074,0h175.02
			c5.474-0.297,10.152,3.901,10.449,9.375c0.019,0.358,0.019,0.716,0,1.074v104.49c0.297,5.474-3.901,10.152-9.375,10.449
			C359.508,125.422,359.149,125.422,358.792,125.403z M194.22,104.505h154.122V20.913H194.22V104.505z"/>
		<path style="fill:#083863;" d="M411.037,292.586H183.771c-5.474,0.297-10.152-3.901-10.449-9.375
			c-0.019-0.358-0.019-0.716,0-1.074v-104.49c-0.297-5.474,3.901-10.152,9.375-10.449c0.358-0.019,0.716-0.019,1.074,0h227.265
			c5.474-0.297,10.152,3.901,10.449,9.375c0.019,0.358,0.019,0.716,0,1.074v104.49c0.297,5.474-3.901,10.152-9.375,10.449
			C411.753,292.606,411.394,292.606,411.037,292.586z M194.22,271.688h206.367v-83.592H194.22V271.688z"/>
		<path style="fill:#083863;" d="M358.792,459.77h-175.02c-5.474,0.297-10.152-3.901-10.449-9.375c-0.019-0.358-0.019-0.716,0-1.074
			v-104.49c-0.297-5.474,3.901-10.152,9.375-10.449c0.358-0.019,0.716-0.019,1.074,0h175.02c5.474-0.297,10.152,3.901,10.449,9.375
			c0.019,0.358,0.019,0.716,0,1.074v104.49c0.297,5.474-3.901,10.152-9.375,10.449C359.508,459.789,359.149,459.789,358.792,459.77z
			 M194.22,438.872h154.122V355.28H194.22V438.872z"/>
		<path style="fill:#083863;" d="M129.959,229.892c0.277-21.21-14.316-39.724-35.004-44.408v-84.637
			c24.497-5.482,39.912-29.785,34.429-54.282c-5.482-24.497-29.785-39.912-54.282-34.429C54.356,16.778,39.6,35.181,39.575,56.439
			c-0.533,21.12,13.888,39.692,34.482,44.408v84.637c-24.526,5.352-40.07,29.572-34.718,54.098
			c3.789,17.365,17.353,30.929,34.718,34.718v84.637c-20.594,4.716-35.015,23.288-34.482,44.408
			c0.029,25.103,20.402,45.43,45.505,45.401c25.103-0.029,45.43-20.402,45.401-45.505c-0.024-21.259-14.781-39.661-35.526-44.304
			v-84.637C115.643,269.616,130.236,251.102,129.959,229.892z M60.996,56.439c-0.003-13.36,10.676-24.271,24.033-24.555
			c13.648-0.003,24.793,10.91,25.078,24.555c-0.284,13.645-11.429,24.558-25.078,24.555C71.671,80.71,60.993,69.799,60.996,56.439z
			 M60.996,229.892c-0.003-13.36,10.676-24.271,24.033-24.555c13.561-0.009,24.562,10.978,24.571,24.539
			s-10.978,24.562-24.539,24.571c-0.01,0-0.021,0-0.031,0C71.671,254.163,60.993,243.252,60.996,229.892z M110.106,403.345
			c-0.284,13.645-11.429,24.558-25.078,24.555c-13.561,0-24.555-10.994-24.555-24.555c0-13.561,10.994-24.555,24.555-24.555
			C98.677,378.787,109.822,389.7,110.106,403.345z"/>
		<path style="fill:#083863;" d="M275.2,57.484h-60.082c-5.771,0-10.449-4.678-10.449-10.449s4.678-10.449,10.449-10.449H275.2
			c5.771,0,10.449,4.678,10.449,10.449S280.971,57.484,275.2,57.484z"/>
		<path style="fill:#083863;" d="M327.445,88.831H215.118c-5.771,0-10.449-4.678-10.449-10.449c0-5.771,4.678-10.449,10.449-10.449
			h112.327c5.771,0,10.449,4.678,10.449,10.449C337.894,84.153,333.216,88.831,327.445,88.831z"/>
		<path style="fill:#083863;" d="M275.2,224.668h-60.082c-5.771,0-10.449-4.678-10.449-10.449c0-5.771,4.678-10.449,10.449-10.449
			H275.2c5.771,0,10.449,4.678,10.449,10.449C285.649,219.99,280.971,224.668,275.2,224.668z"/>
		<path style="fill:#083863;" d="M327.445,256.015H215.118c-5.771,0-10.449-4.678-10.449-10.449s4.678-10.449,10.449-10.449h112.327
			c5.771,0,10.449,4.678,10.449,10.449S333.216,256.015,327.445,256.015z"/>
		<path style="fill:#083863;" d="M275.2,391.852h-60.082c-5.771,0-10.449-4.678-10.449-10.449c0-5.771,4.678-10.449,10.449-10.449
			H275.2c5.771,0,10.449,4.678,10.449,10.449C285.649,387.173,280.971,391.852,275.2,391.852z"/>
		<path style="fill:#083863;" d="M327.445,423.198H215.118c-5.771,0-10.449-4.678-10.449-10.449s4.678-10.449,10.449-10.449h112.327
			c5.771,0,10.449,4.678,10.449,10.449S333.216,423.198,327.445,423.198z"/>
	</g>
</g>
<g>
</g>
<g>
</g>
<g>
</g>
<g>
</g>
<g>
</g>
<g>
</g>
<g>
</g>
<g>
</g>
<g>
</g>
<g>
</g>
<g>
</g>
<g>
</g>
<g>
</g>
<g>
</g>
<g>
</g>
</svg>
